ISO-10303-21;
HEADER;
/* Generated by software containing ST-Developer
 * from STEP Tools, Inc. (www.steptools.com) 
 */

FILE_DESCRIPTION(
/* description */ (''),
/* implementation_level */ '2;1');

FILE_NAME(
/* name */ 'ssd1306.step',
/* time_stamp */ '2026-08-02T15:39:35-07:00',
/* author */ (''),
/* organization */ (''),
/* preprocessor_version */ 'ST-DEVELOPER v20.1',
/* originating_system */ 'Autodesk Translation Framework v15.8.0.0',
/* authorisation */ '');

FILE_SCHEMA (('AUTOMOTIVE_DESIGN { 1 0 10303 214 3 1 1 }'));
ENDSEC;

DATA;
#10=MECHANICAL_DESIGN_GEOMETRIC_PRESENTATION_REPRESENTATION('',(#13),#1091);
#11=SHAPE_REPRESENTATION_RELATIONSHIP('SRR','None',#1098,#12);
#12=ADVANCED_BREP_SHAPE_REPRESENTATION('',(#14),#1090);
#13=STYLED_ITEM('',(#1107),#14);
#14=MANIFOLD_SOLID_BREP('Body1',#683);
#15=FACE_BOUND('',#60,.T.);
#16=FACE_BOUND('',#86,.T.);
#17=FACE_BOUND('',#87,.T.);
#18=FACE_BOUND('',#88,.T.);
#19=FACE_BOUND('',#89,.T.);
#20=FACE_OUTER_BOUND('',#57,.T.);
#21=FACE_OUTER_BOUND('',#58,.T.);
#22=FACE_OUTER_BOUND('',#59,.T.);
#23=FACE_OUTER_BOUND('',#61,.T.);
#24=FACE_OUTER_BOUND('',#62,.T.);
#25=FACE_OUTER_BOUND('',#63,.T.);
#26=FACE_OUTER_BOUND('',#64,.T.);
#27=FACE_OUTER_BOUND('',#65,.T.);
#28=FACE_OUTER_BOUND('',#66,.T.);
#29=FACE_OUTER_BOUND('',#67,.T.);
#30=FACE_OUTER_BOUND('',#68,.T.);
#31=FACE_OUTER_BOUND('',#69,.T.);
#32=FACE_OUTER_BOUND('',#70,.T.);
#33=FACE_OUTER_BOUND('',#71,.T.);
#34=FACE_OUTER_BOUND('',#72,.T.);
#35=FACE_OUTER_BOUND('',#73,.T.);
#36=FACE_OUTER_BOUND('',#74,.T.);
#37=FACE_OUTER_BOUND('',#75,.T.);
#38=FACE_OUTER_BOUND('',#76,.T.);
#39=FACE_OUTER_BOUND('',#77,.T.);
#40=FACE_OUTER_BOUND('',#78,.T.);
#41=FACE_OUTER_BOUND('',#79,.T.);
#42=FACE_OUTER_BOUND('',#80,.T.);
#43=FACE_OUTER_BOUND('',#81,.T.);
#44=FACE_OUTER_BOUND('',#82,.T.);
#45=FACE_OUTER_BOUND('',#83,.T.);
#46=FACE_OUTER_BOUND('',#84,.T.);
#47=FACE_OUTER_BOUND('',#85,.T.);
#48=FACE_OUTER_BOUND('',#90,.T.);
#49=FACE_OUTER_BOUND('',#91,.T.);
#50=FACE_OUTER_BOUND('',#92,.T.);
#51=FACE_OUTER_BOUND('',#93,.T.);
#52=FACE_OUTER_BOUND('',#94,.T.);
#53=FACE_OUTER_BOUND('',#95,.T.);
#54=FACE_OUTER_BOUND('',#96,.T.);
#55=FACE_OUTER_BOUND('',#97,.T.);
#56=FACE_OUTER_BOUND('',#98,.T.);
#57=EDGE_LOOP('',(#429,#430,#431,#432));
#58=EDGE_LOOP('',(#433,#434,#435,#436));
#59=EDGE_LOOP('',(#437,#438,#439,#440));
#60=EDGE_LOOP('',(#441,#442,#443,#444));
#61=EDGE_LOOP('',(#445,#446,#447,#448));
#62=EDGE_LOOP('',(#449,#450,#451,#452));
#63=EDGE_LOOP('',(#453,#454,#455,#456));
#64=EDGE_LOOP('',(#457,#458,#459,#460));
#65=EDGE_LOOP('',(#461,#462,#463,#464));
#66=EDGE_LOOP('',(#465,#466,#467,#468));
#67=EDGE_LOOP('',(#469,#470,#471,#472));
#68=EDGE_LOOP('',(#473,#474,#475,#476));
#69=EDGE_LOOP('',(#477,#478,#479,#480));
#70=EDGE_LOOP('',(#481,#482,#483,#484));
#71=EDGE_LOOP('',(#485,#486,#487,#488));
#72=EDGE_LOOP('',(#489,#490,#491,#492));
#73=EDGE_LOOP('',(#493,#494,#495,#496));
#74=EDGE_LOOP('',(#497,#498,#499,#500));
#75=EDGE_LOOP('',(#501,#502,#503,#504));
#76=EDGE_LOOP('',(#505,#506,#507,#508));
#77=EDGE_LOOP('',(#509,#510,#511,#512));
#78=EDGE_LOOP('',(#513,#514,#515,#516));
#79=EDGE_LOOP('',(#517,#518,#519,#520));
#80=EDGE_LOOP('',(#521,#522,#523,#524));
#81=EDGE_LOOP('',(#525,#526,#527,#528));
#82=EDGE_LOOP('',(#529,#530,#531,#532));
#83=EDGE_LOOP('',(#533,#534,#535,#536));
#84=EDGE_LOOP('',(#537,#538,#539,#540));
#85=EDGE_LOOP('',(#541,#542,#543,#544));
#86=EDGE_LOOP('',(#545,#546,#547,#548));
#87=EDGE_LOOP('',(#549,#550,#551,#552));
#88=EDGE_LOOP('',(#553,#554,#555,#556));
#89=EDGE_LOOP('',(#557,#558,#559,#560));
#90=EDGE_LOOP('',(#561,#562,#563,#564));
#91=EDGE_LOOP('',(#565,#566,#567,#568));
#92=EDGE_LOOP('',(#569,#570,#571,#572));
#93=EDGE_LOOP('',(#573,#574,#575,#576));
#94=EDGE_LOOP('',(#577,#578,#579,#580));
#95=EDGE_LOOP('',(#581,#582,#583,#584,#585,#586,#587,#588,#589,#590));
#96=EDGE_LOOP('',(#591,#592,#593,#594));
#97=EDGE_LOOP('',(#595,#596,#597,#598,#599,#600,#601,#602,#603,#604));
#98=EDGE_LOOP('',(#605,#606,#607,#608));
#99=LINE('',#904,#189);
#100=LINE('',#906,#190);
#101=LINE('',#908,#191);
#102=LINE('',#909,#192);
#103=LINE('',#912,#193);
#104=LINE('',#914,#194);
#105=LINE('',#915,#195);
#106=LINE('',#918,#196);
#107=LINE('',#920,#197);
#108=LINE('',#921,#198);
#109=LINE('',#924,#199);
#110=LINE('',#926,#200);
#111=LINE('',#928,#201);
#112=LINE('',#929,#202);
#113=LINE('',#933,#203);
#114=LINE('',#935,#204);
#115=LINE('',#937,#205);
#116=LINE('',#938,#206);
#117=LINE('',#941,#207);
#118=LINE('',#943,#208);
#119=LINE('',#944,#209);
#120=LINE('',#947,#210);
#121=LINE('',#949,#211);
#122=LINE('',#950,#212);
#123=LINE('',#952,#213);
#124=LINE('',#953,#214);
#125=LINE('',#958,#215);
#126=LINE('',#960,#216);
#127=LINE('',#962,#217);
#128=LINE('',#963,#218);
#129=LINE('',#966,#219);
#130=LINE('',#968,#220);
#131=LINE('',#969,#221);
#132=LINE('',#972,#222);
#133=LINE('',#974,#223);
#134=LINE('',#975,#224);
#135=LINE('',#977,#225);
#136=LINE('',#978,#226);
#137=LINE('',#983,#227);
#138=LINE('',#985,#228);
#139=LINE('',#987,#229);
#140=LINE('',#988,#230);
#141=LINE('',#991,#231);
#142=LINE('',#993,#232);
#143=LINE('',#994,#233);
#144=LINE('',#997,#234);
#145=LINE('',#999,#235);
#146=LINE('',#1000,#236);
#147=LINE('',#1002,#237);
#148=LINE('',#1003,#238);
#149=LINE('',#1008,#239);
#150=LINE('',#1010,#240);
#151=LINE('',#1012,#241);
#152=LINE('',#1013,#242);
#153=LINE('',#1016,#243);
#154=LINE('',#1018,#244);
#155=LINE('',#1019,#245);
#156=LINE('',#1022,#246);
#157=LINE('',#1024,#247);
#158=LINE('',#1025,#248);
#159=LINE('',#1027,#249);
#160=LINE('',#1028,#250);
#161=LINE('',#1032,#251);
#162=LINE('',#1034,#252);
#163=LINE('',#1035,#253);
#164=LINE('',#1038,#254);
#165=LINE('',#1039,#255);
#166=LINE('',#1042,#256);
#167=LINE('',#1043,#257);
#168=LINE('',#1045,#258);
#169=LINE('',#1050,#259);
#170=LINE('',#1052,#260);
#171=LINE('',#1054,#261);
#172=LINE('',#1055,#262);
#173=LINE('',#1059,#263);
#174=LINE('',#1061,#264);
#175=LINE('',#1063,#265);
#176=LINE('',#1064,#266);
#177=LINE('',#1066,#267);
#178=LINE('',#1067,#268);
#179=LINE('',#1070,#269);
#180=LINE('',#1072,#270);
#181=LINE('',#1073,#271);
#182=LINE('',#1076,#272);
#183=LINE('',#1078,#273);
#184=LINE('',#1079,#274);
#185=LINE('',#1081,#275);
#186=LINE('',#1082,#276);
#187=LINE('',#1084,#277);
#188=LINE('',#1086,#278);
#189=VECTOR('',#738,10.);
#190=VECTOR('',#739,10.);
#191=VECTOR('',#740,10.);
#192=VECTOR('',#741,10.);
#193=VECTOR('',#744,10.);
#194=VECTOR('',#745,10.);
#195=VECTOR('',#746,10.);
#196=VECTOR('',#749,10.);
#197=VECTOR('',#750,10.);
#198=VECTOR('',#751,10.);
#199=VECTOR('',#752,10.);
#200=VECTOR('',#753,10.);
#201=VECTOR('',#754,10.);
#202=VECTOR('',#755,10.);
#203=VECTOR('',#758,10.);
#204=VECTOR('',#759,10.);
#205=VECTOR('',#760,10.);
#206=VECTOR('',#761,10.);
#207=VECTOR('',#764,10.);
#208=VECTOR('',#765,10.);
#209=VECTOR('',#766,10.);
#210=VECTOR('',#769,10.);
#211=VECTOR('',#770,10.);
#212=VECTOR('',#771,10.);
#213=VECTOR('',#774,10.);
#214=VECTOR('',#775,10.);
#215=VECTOR('',#780,10.);
#216=VECTOR('',#781,10.);
#217=VECTOR('',#782,10.);
#218=VECTOR('',#783,10.);
#219=VECTOR('',#786,10.);
#220=VECTOR('',#787,10.);
#221=VECTOR('',#788,10.);
#222=VECTOR('',#791,10.);
#223=VECTOR('',#792,10.);
#224=VECTOR('',#793,10.);
#225=VECTOR('',#796,10.);
#226=VECTOR('',#797,10.);
#227=VECTOR('',#802,10.);
#228=VECTOR('',#803,10.);
#229=VECTOR('',#804,10.);
#230=VECTOR('',#805,10.);
#231=VECTOR('',#808,10.);
#232=VECTOR('',#809,10.);
#233=VECTOR('',#810,10.);
#234=VECTOR('',#813,10.);
#235=VECTOR('',#814,10.);
#236=VECTOR('',#815,10.);
#237=VECTOR('',#818,10.);
#238=VECTOR('',#819,10.);
#239=VECTOR('',#824,10.);
#240=VECTOR('',#825,10.);
#241=VECTOR('',#826,10.);
#242=VECTOR('',#827,10.);
#243=VECTOR('',#830,10.);
#244=VECTOR('',#831,10.);
#245=VECTOR('',#832,10.);
#246=VECTOR('',#835,10.);
#247=VECTOR('',#836,10.);
#248=VECTOR('',#837,10.);
#249=VECTOR('',#840,10.);
#250=VECTOR('',#841,10.);
#251=VECTOR('',#846,10.);
#252=VECTOR('',#847,10.);
#253=VECTOR('',#848,10.);
#254=VECTOR('',#851,10.);
#255=VECTOR('',#852,10.);
#256=VECTOR('',#855,10.);
#257=VECTOR('',#856,10.);
#258=VECTOR('',#859,10.);
#259=VECTOR('',#864,10.);
#260=VECTOR('',#865,10.);
#261=VECTOR('',#866,10.);
#262=VECTOR('',#867,10.);
#263=VECTOR('',#870,10.);
#264=VECTOR('',#871,10.);
#265=VECTOR('',#872,10.);
#266=VECTOR('',#873,10.);
#267=VECTOR('',#876,10.);
#268=VECTOR('',#877,10.);
#269=VECTOR('',#880,10.);
#270=VECTOR('',#881,10.);
#271=VECTOR('',#882,10.);
#272=VECTOR('',#885,10.);
#273=VECTOR('',#886,10.);
#274=VECTOR('',#887,10.);
#275=VECTOR('',#890,10.);
#276=VECTOR('',#891,10.);
#277=VECTOR('',#894,10.);
#278=VECTOR('',#897,10.);
#279=VERTEX_POINT('',#902);
#280=VERTEX_POINT('',#903);
#281=VERTEX_POINT('',#905);
#282=VERTEX_POINT('',#907);
#283=VERTEX_POINT('',#911);
#284=VERTEX_POINT('',#913);
#285=VERTEX_POINT('',#917);
#286=VERTEX_POINT('',#919);
#287=VERTEX_POINT('',#922);
#288=VERTEX_POINT('',#923);
#289=VERTEX_POINT('',#925);
#290=VERTEX_POINT('',#927);
#291=VERTEX_POINT('',#931);
#292=VERTEX_POINT('',#932);
#293=VERTEX_POINT('',#934);
#294=VERTEX_POINT('',#936);
#295=VERTEX_POINT('',#940);
#296=VERTEX_POINT('',#942);
#297=VERTEX_POINT('',#946);
#298=VERTEX_POINT('',#948);
#299=VERTEX_POINT('',#956);
#300=VERTEX_POINT('',#957);
#301=VERTEX_POINT('',#959);
#302=VERTEX_POINT('',#961);
#303=VERTEX_POINT('',#965);
#304=VERTEX_POINT('',#967);
#305=VERTEX_POINT('',#971);
#306=VERTEX_POINT('',#973);
#307=VERTEX_POINT('',#981);
#308=VERTEX_POINT('',#982);
#309=VERTEX_POINT('',#984);
#310=VERTEX_POINT('',#986);
#311=VERTEX_POINT('',#990);
#312=VERTEX_POINT('',#992);
#313=VERTEX_POINT('',#996);
#314=VERTEX_POINT('',#998);
#315=VERTEX_POINT('',#1006);
#316=VERTEX_POINT('',#1007);
#317=VERTEX_POINT('',#1009);
#318=VERTEX_POINT('',#1011);
#319=VERTEX_POINT('',#1015);
#320=VERTEX_POINT('',#1017);
#321=VERTEX_POINT('',#1021);
#322=VERTEX_POINT('',#1023);
#323=VERTEX_POINT('',#1031);
#324=VERTEX_POINT('',#1033);
#325=VERTEX_POINT('',#1037);
#326=VERTEX_POINT('',#1041);
#327=VERTEX_POINT('',#1048);
#328=VERTEX_POINT('',#1049);
#329=VERTEX_POINT('',#1051);
#330=VERTEX_POINT('',#1053);
#331=VERTEX_POINT('',#1057);
#332=VERTEX_POINT('',#1058);
#333=VERTEX_POINT('',#1060);
#334=VERTEX_POINT('',#1062);
#335=VERTEX_POINT('',#1069);
#336=VERTEX_POINT('',#1071);
#337=VERTEX_POINT('',#1075);
#338=VERTEX_POINT('',#1077);
#339=EDGE_CURVE('',#279,#280,#99,.T.);
#340=EDGE_CURVE('',#279,#281,#100,.T.);
#341=EDGE_CURVE('',#282,#281,#101,.T.);
#342=EDGE_CURVE('',#280,#282,#102,.T.);
#343=EDGE_CURVE('',#281,#283,#103,.T.);
#344=EDGE_CURVE('',#283,#284,#104,.T.);
#345=EDGE_CURVE('',#284,#282,#105,.T.);
#346=EDGE_CURVE('',#285,#280,#106,.T.);
#347=EDGE_CURVE('',#286,#285,#107,.T.);
#348=EDGE_CURVE('',#279,#286,#108,.T.);
#349=EDGE_CURVE('',#287,#288,#109,.T.);
#350=EDGE_CURVE('',#288,#289,#110,.T.);
#351=EDGE_CURVE('',#289,#290,#111,.T.);
#352=EDGE_CURVE('',#290,#287,#112,.T.);
#353=EDGE_CURVE('',#291,#292,#113,.T.);
#354=EDGE_CURVE('',#291,#293,#114,.T.);
#355=EDGE_CURVE('',#294,#293,#115,.T.);
#356=EDGE_CURVE('',#292,#294,#116,.T.);
#357=EDGE_CURVE('',#295,#291,#117,.T.);
#358=EDGE_CURVE('',#295,#296,#118,.T.);
#359=EDGE_CURVE('',#293,#296,#119,.T.);
#360=EDGE_CURVE('',#292,#297,#120,.T.);
#361=EDGE_CURVE('',#298,#294,#121,.T.);
#362=EDGE_CURVE('',#297,#298,#122,.T.);
#363=EDGE_CURVE('',#297,#295,#123,.T.);
#364=EDGE_CURVE('',#296,#298,#124,.T.);
#365=EDGE_CURVE('',#299,#300,#125,.T.);
#366=EDGE_CURVE('',#299,#301,#126,.T.);
#367=EDGE_CURVE('',#302,#301,#127,.T.);
#368=EDGE_CURVE('',#300,#302,#128,.T.);
#369=EDGE_CURVE('',#303,#299,#129,.T.);
#370=EDGE_CURVE('',#303,#304,#130,.T.);
#371=EDGE_CURVE('',#301,#304,#131,.T.);
#372=EDGE_CURVE('',#300,#305,#132,.T.);
#373=EDGE_CURVE('',#306,#302,#133,.T.);
#374=EDGE_CURVE('',#305,#306,#134,.T.);
#375=EDGE_CURVE('',#305,#303,#135,.T.);
#376=EDGE_CURVE('',#304,#306,#136,.T.);
#377=EDGE_CURVE('',#307,#308,#137,.T.);
#378=EDGE_CURVE('',#307,#309,#138,.T.);
#379=EDGE_CURVE('',#310,#309,#139,.T.);
#380=EDGE_CURVE('',#308,#310,#140,.T.);
#381=EDGE_CURVE('',#311,#307,#141,.T.);
#382=EDGE_CURVE('',#311,#312,#142,.T.);
#383=EDGE_CURVE('',#309,#312,#143,.T.);
#384=EDGE_CURVE('',#308,#313,#144,.T.);
#385=EDGE_CURVE('',#314,#310,#145,.T.);
#386=EDGE_CURVE('',#313,#314,#146,.T.);
#387=EDGE_CURVE('',#313,#311,#147,.T.);
#388=EDGE_CURVE('',#312,#314,#148,.T.);
#389=EDGE_CURVE('',#315,#316,#149,.T.);
#390=EDGE_CURVE('',#315,#317,#150,.T.);
#391=EDGE_CURVE('',#318,#317,#151,.T.);
#392=EDGE_CURVE('',#316,#318,#152,.T.);
#393=EDGE_CURVE('',#319,#315,#153,.T.);
#394=EDGE_CURVE('',#319,#320,#154,.T.);
#395=EDGE_CURVE('',#317,#320,#155,.T.);
#396=EDGE_CURVE('',#316,#321,#156,.T.);
#397=EDGE_CURVE('',#322,#318,#157,.T.);
#398=EDGE_CURVE('',#321,#322,#158,.T.);
#399=EDGE_CURVE('',#321,#319,#159,.T.);
#400=EDGE_CURVE('',#320,#322,#160,.T.);
#401=EDGE_CURVE('',#287,#323,#161,.T.);
#402=EDGE_CURVE('',#324,#323,#162,.T.);
#403=EDGE_CURVE('',#288,#324,#163,.T.);
#404=EDGE_CURVE('',#325,#324,#164,.T.);
#405=EDGE_CURVE('',#289,#325,#165,.T.);
#406=EDGE_CURVE('',#326,#325,#166,.T.);
#407=EDGE_CURVE('',#290,#326,#167,.T.);
#408=EDGE_CURVE('',#323,#326,#168,.T.);
#409=EDGE_CURVE('',#327,#328,#169,.T.);
#410=EDGE_CURVE('',#327,#329,#170,.T.);
#411=EDGE_CURVE('',#330,#329,#171,.T.);
#412=EDGE_CURVE('',#328,#330,#172,.T.);
#413=EDGE_CURVE('',#331,#332,#173,.T.);
#414=EDGE_CURVE('',#331,#333,#174,.T.);
#415=EDGE_CURVE('',#334,#333,#175,.T.);
#416=EDGE_CURVE('',#332,#334,#176,.T.);
#417=EDGE_CURVE('',#329,#334,#177,.T.);
#418=EDGE_CURVE('',#333,#330,#178,.T.);
#419=EDGE_CURVE('',#332,#335,#179,.T.);
#420=EDGE_CURVE('',#335,#336,#180,.T.);
#421=EDGE_CURVE('',#336,#331,#181,.T.);
#422=EDGE_CURVE('',#337,#283,#182,.T.);
#423=EDGE_CURVE('',#338,#337,#183,.T.);
#424=EDGE_CURVE('',#284,#338,#184,.T.);
#425=EDGE_CURVE('',#328,#338,#185,.T.);
#426=EDGE_CURVE('',#285,#336,#186,.T.);
#427=EDGE_CURVE('',#286,#335,#187,.T.);
#428=EDGE_CURVE('',#337,#327,#188,.T.);
#429=ORIENTED_EDGE('',*,*,#339,.F.);
#430=ORIENTED_EDGE('',*,*,#340,.T.);
#431=ORIENTED_EDGE('',*,*,#341,.F.);
#432=ORIENTED_EDGE('',*,*,#342,.F.);
#433=ORIENTED_EDGE('',*,*,#341,.T.);
#434=ORIENTED_EDGE('',*,*,#343,.T.);
#435=ORIENTED_EDGE('',*,*,#344,.T.);
#436=ORIENTED_EDGE('',*,*,#345,.T.);
#437=ORIENTED_EDGE('',*,*,#339,.T.);
#438=ORIENTED_EDGE('',*,*,#346,.F.);
#439=ORIENTED_EDGE('',*,*,#347,.F.);
#440=ORIENTED_EDGE('',*,*,#348,.F.);
#441=ORIENTED_EDGE('',*,*,#349,.T.);
#442=ORIENTED_EDGE('',*,*,#350,.T.);
#443=ORIENTED_EDGE('',*,*,#351,.T.);
#444=ORIENTED_EDGE('',*,*,#352,.T.);
#445=ORIENTED_EDGE('',*,*,#353,.F.);
#446=ORIENTED_EDGE('',*,*,#354,.T.);
#447=ORIENTED_EDGE('',*,*,#355,.F.);
#448=ORIENTED_EDGE('',*,*,#356,.F.);
#449=ORIENTED_EDGE('',*,*,#357,.F.);
#450=ORIENTED_EDGE('',*,*,#358,.T.);
#451=ORIENTED_EDGE('',*,*,#359,.F.);
#452=ORIENTED_EDGE('',*,*,#354,.F.);
#453=ORIENTED_EDGE('',*,*,#360,.F.);
#454=ORIENTED_EDGE('',*,*,#356,.T.);
#455=ORIENTED_EDGE('',*,*,#361,.F.);
#456=ORIENTED_EDGE('',*,*,#362,.F.);
#457=ORIENTED_EDGE('',*,*,#363,.F.);
#458=ORIENTED_EDGE('',*,*,#362,.T.);
#459=ORIENTED_EDGE('',*,*,#364,.F.);
#460=ORIENTED_EDGE('',*,*,#358,.F.);
#461=ORIENTED_EDGE('',*,*,#359,.T.);
#462=ORIENTED_EDGE('',*,*,#364,.T.);
#463=ORIENTED_EDGE('',*,*,#361,.T.);
#464=ORIENTED_EDGE('',*,*,#355,.T.);
#465=ORIENTED_EDGE('',*,*,#365,.F.);
#466=ORIENTED_EDGE('',*,*,#366,.T.);
#467=ORIENTED_EDGE('',*,*,#367,.F.);
#468=ORIENTED_EDGE('',*,*,#368,.F.);
#469=ORIENTED_EDGE('',*,*,#369,.F.);
#470=ORIENTED_EDGE('',*,*,#370,.T.);
#471=ORIENTED_EDGE('',*,*,#371,.F.);
#472=ORIENTED_EDGE('',*,*,#366,.F.);
#473=ORIENTED_EDGE('',*,*,#372,.F.);
#474=ORIENTED_EDGE('',*,*,#368,.T.);
#475=ORIENTED_EDGE('',*,*,#373,.F.);
#476=ORIENTED_EDGE('',*,*,#374,.F.);
#477=ORIENTED_EDGE('',*,*,#375,.F.);
#478=ORIENTED_EDGE('',*,*,#374,.T.);
#479=ORIENTED_EDGE('',*,*,#376,.F.);
#480=ORIENTED_EDGE('',*,*,#370,.F.);
#481=ORIENTED_EDGE('',*,*,#371,.T.);
#482=ORIENTED_EDGE('',*,*,#376,.T.);
#483=ORIENTED_EDGE('',*,*,#373,.T.);
#484=ORIENTED_EDGE('',*,*,#367,.T.);
#485=ORIENTED_EDGE('',*,*,#377,.F.);
#486=ORIENTED_EDGE('',*,*,#378,.T.);
#487=ORIENTED_EDGE('',*,*,#379,.F.);
#488=ORIENTED_EDGE('',*,*,#380,.F.);
#489=ORIENTED_EDGE('',*,*,#381,.F.);
#490=ORIENTED_EDGE('',*,*,#382,.T.);
#491=ORIENTED_EDGE('',*,*,#383,.F.);
#492=ORIENTED_EDGE('',*,*,#378,.F.);
#493=ORIENTED_EDGE('',*,*,#384,.F.);
#494=ORIENTED_EDGE('',*,*,#380,.T.);
#495=ORIENTED_EDGE('',*,*,#385,.F.);
#496=ORIENTED_EDGE('',*,*,#386,.F.);
#497=ORIENTED_EDGE('',*,*,#387,.F.);
#498=ORIENTED_EDGE('',*,*,#386,.T.);
#499=ORIENTED_EDGE('',*,*,#388,.F.);
#500=ORIENTED_EDGE('',*,*,#382,.F.);
#501=ORIENTED_EDGE('',*,*,#383,.T.);
#502=ORIENTED_EDGE('',*,*,#388,.T.);
#503=ORIENTED_EDGE('',*,*,#385,.T.);
#504=ORIENTED_EDGE('',*,*,#379,.T.);
#505=ORIENTED_EDGE('',*,*,#389,.F.);
#506=ORIENTED_EDGE('',*,*,#390,.T.);
#507=ORIENTED_EDGE('',*,*,#391,.F.);
#508=ORIENTED_EDGE('',*,*,#392,.F.);
#509=ORIENTED_EDGE('',*,*,#393,.F.);
#510=ORIENTED_EDGE('',*,*,#394,.T.);
#511=ORIENTED_EDGE('',*,*,#395,.F.);
#512=ORIENTED_EDGE('',*,*,#390,.F.);
#513=ORIENTED_EDGE('',*,*,#396,.F.);
#514=ORIENTED_EDGE('',*,*,#392,.T.);
#515=ORIENTED_EDGE('',*,*,#397,.F.);
#516=ORIENTED_EDGE('',*,*,#398,.F.);
#517=ORIENTED_EDGE('',*,*,#399,.F.);
#518=ORIENTED_EDGE('',*,*,#398,.T.);
#519=ORIENTED_EDGE('',*,*,#400,.F.);
#520=ORIENTED_EDGE('',*,*,#394,.F.);
#521=ORIENTED_EDGE('',*,*,#395,.T.);
#522=ORIENTED_EDGE('',*,*,#400,.T.);
#523=ORIENTED_EDGE('',*,*,#397,.T.);
#524=ORIENTED_EDGE('',*,*,#391,.T.);
#525=ORIENTED_EDGE('',*,*,#349,.F.);
#526=ORIENTED_EDGE('',*,*,#401,.T.);
#527=ORIENTED_EDGE('',*,*,#402,.F.);
#528=ORIENTED_EDGE('',*,*,#403,.F.);
#529=ORIENTED_EDGE('',*,*,#350,.F.);
#530=ORIENTED_EDGE('',*,*,#403,.T.);
#531=ORIENTED_EDGE('',*,*,#404,.F.);
#532=ORIENTED_EDGE('',*,*,#405,.F.);
#533=ORIENTED_EDGE('',*,*,#351,.F.);
#534=ORIENTED_EDGE('',*,*,#405,.T.);
#535=ORIENTED_EDGE('',*,*,#406,.F.);
#536=ORIENTED_EDGE('',*,*,#407,.F.);
#537=ORIENTED_EDGE('',*,*,#352,.F.);
#538=ORIENTED_EDGE('',*,*,#407,.T.);
#539=ORIENTED_EDGE('',*,*,#408,.F.);
#540=ORIENTED_EDGE('',*,*,#401,.F.);
#541=ORIENTED_EDGE('',*,*,#408,.T.);
#542=ORIENTED_EDGE('',*,*,#406,.T.);
#543=ORIENTED_EDGE('',*,*,#404,.T.);
#544=ORIENTED_EDGE('',*,*,#402,.T.);
#545=ORIENTED_EDGE('',*,*,#369,.T.);
#546=ORIENTED_EDGE('',*,*,#365,.T.);
#547=ORIENTED_EDGE('',*,*,#372,.T.);
#548=ORIENTED_EDGE('',*,*,#375,.T.);
#549=ORIENTED_EDGE('',*,*,#393,.T.);
#550=ORIENTED_EDGE('',*,*,#389,.T.);
#551=ORIENTED_EDGE('',*,*,#396,.T.);
#552=ORIENTED_EDGE('',*,*,#399,.T.);
#553=ORIENTED_EDGE('',*,*,#381,.T.);
#554=ORIENTED_EDGE('',*,*,#377,.T.);
#555=ORIENTED_EDGE('',*,*,#384,.T.);
#556=ORIENTED_EDGE('',*,*,#387,.T.);
#557=ORIENTED_EDGE('',*,*,#357,.T.);
#558=ORIENTED_EDGE('',*,*,#353,.T.);
#559=ORIENTED_EDGE('',*,*,#360,.T.);
#560=ORIENTED_EDGE('',*,*,#363,.T.);
#561=ORIENTED_EDGE('',*,*,#409,.F.);
#562=ORIENTED_EDGE('',*,*,#410,.T.);
#563=ORIENTED_EDGE('',*,*,#411,.F.);
#564=ORIENTED_EDGE('',*,*,#412,.F.);
#565=ORIENTED_EDGE('',*,*,#413,.F.);
#566=ORIENTED_EDGE('',*,*,#414,.T.);
#567=ORIENTED_EDGE('',*,*,#415,.F.);
#568=ORIENTED_EDGE('',*,*,#416,.F.);
#569=ORIENTED_EDGE('',*,*,#417,.T.);
#570=ORIENTED_EDGE('',*,*,#415,.T.);
#571=ORIENTED_EDGE('',*,*,#418,.T.);
#572=ORIENTED_EDGE('',*,*,#411,.T.);
#573=ORIENTED_EDGE('',*,*,#413,.T.);
#574=ORIENTED_EDGE('',*,*,#419,.T.);
#575=ORIENTED_EDGE('',*,*,#420,.T.);
#576=ORIENTED_EDGE('',*,*,#421,.T.);
#577=ORIENTED_EDGE('',*,*,#422,.F.);
#578=ORIENTED_EDGE('',*,*,#423,.F.);
#579=ORIENTED_EDGE('',*,*,#424,.F.);
#580=ORIENTED_EDGE('',*,*,#344,.F.);
#581=ORIENTED_EDGE('',*,*,#346,.T.);
#582=ORIENTED_EDGE('',*,*,#342,.T.);
#583=ORIENTED_EDGE('',*,*,#345,.F.);
#584=ORIENTED_EDGE('',*,*,#424,.T.);
#585=ORIENTED_EDGE('',*,*,#425,.F.);
#586=ORIENTED_EDGE('',*,*,#412,.T.);
#587=ORIENTED_EDGE('',*,*,#418,.F.);
#588=ORIENTED_EDGE('',*,*,#414,.F.);
#589=ORIENTED_EDGE('',*,*,#421,.F.);
#590=ORIENTED_EDGE('',*,*,#426,.F.);
#591=ORIENTED_EDGE('',*,*,#347,.T.);
#592=ORIENTED_EDGE('',*,*,#426,.T.);
#593=ORIENTED_EDGE('',*,*,#420,.F.);
#594=ORIENTED_EDGE('',*,*,#427,.F.);
#595=ORIENTED_EDGE('',*,*,#428,.F.);
#596=ORIENTED_EDGE('',*,*,#422,.T.);
#597=ORIENTED_EDGE('',*,*,#343,.F.);
#598=ORIENTED_EDGE('',*,*,#340,.F.);
#599=ORIENTED_EDGE('',*,*,#348,.T.);
#600=ORIENTED_EDGE('',*,*,#427,.T.);
#601=ORIENTED_EDGE('',*,*,#419,.F.);
#602=ORIENTED_EDGE('',*,*,#416,.T.);
#603=ORIENTED_EDGE('',*,*,#417,.F.);
#604=ORIENTED_EDGE('',*,*,#410,.F.);
#605=ORIENTED_EDGE('',*,*,#409,.T.);
#606=ORIENTED_EDGE('',*,*,#425,.T.);
#607=ORIENTED_EDGE('',*,*,#423,.T.);
#608=ORIENTED_EDGE('',*,*,#428,.T.);
#609=PLANE('',#697);
#610=PLANE('',#698);
#611=PLANE('',#699);
#612=PLANE('',#700);
#613=PLANE('',#701);
#614=PLANE('',#702);
#615=PLANE('',#703);
#616=PLANE('',#704);
#617=PLANE('',#705);
#618=PLANE('',#706);
#619=PLANE('',#707);
#620=PLANE('',#708);
#621=PLANE('',#709);
#622=PLANE('',#710);
#623=PLANE('',#711);
#624=PLANE('',#712);
#625=PLANE('',#713);
#626=PLANE('',#714);
#627=PLANE('',#715);
#628=PLANE('',#716);
#629=PLANE('',#717);
#630=PLANE('',#718);
#631=PLANE('',#719);
#632=PLANE('',#720);
#633=PLANE('',#721);
#634=PLANE('',#722);
#635=PLANE('',#723);
#636=PLANE('',#724);
#637=PLANE('',#725);
#638=PLANE('',#726);
#639=PLANE('',#727);
#640=PLANE('',#728);
#641=PLANE('',#729);
#642=PLANE('',#730);
#643=PLANE('',#731);
#644=PLANE('',#732);
#645=PLANE('',#733);
#646=ADVANCED_FACE('',(#20),#609,.T.);
#647=ADVANCED_FACE('',(#21),#610,.T.);
#648=ADVANCED_FACE('',(#22,#15),#611,.F.);
#649=ADVANCED_FACE('',(#23),#612,.T.);
#650=ADVANCED_FACE('',(#24),#613,.T.);
#651=ADVANCED_FACE('',(#25),#614,.T.);
#652=ADVANCED_FACE('',(#26),#615,.T.);
#653=ADVANCED_FACE('',(#27),#616,.T.);
#654=ADVANCED_FACE('',(#28),#617,.T.);
#655=ADVANCED_FACE('',(#29),#618,.T.);
#656=ADVANCED_FACE('',(#30),#619,.T.);
#657=ADVANCED_FACE('',(#31),#620,.T.);
#658=ADVANCED_FACE('',(#32),#621,.T.);
#659=ADVANCED_FACE('',(#33),#622,.T.);
#660=ADVANCED_FACE('',(#34),#623,.T.);
#661=ADVANCED_FACE('',(#35),#624,.T.);
#662=ADVANCED_FACE('',(#36),#625,.T.);
#663=ADVANCED_FACE('',(#37),#626,.T.);
#664=ADVANCED_FACE('',(#38),#627,.T.);
#665=ADVANCED_FACE('',(#39),#628,.T.);
#666=ADVANCED_FACE('',(#40),#629,.T.);
#667=ADVANCED_FACE('',(#41),#630,.T.);
#668=ADVANCED_FACE('',(#42),#631,.T.);
#669=ADVANCED_FACE('',(#43),#632,.T.);
#670=ADVANCED_FACE('',(#44),#633,.T.);
#671=ADVANCED_FACE('',(#45),#634,.T.);
#672=ADVANCED_FACE('',(#46),#635,.T.);
#673=ADVANCED_FACE('',(#47,#16,#17,#18,#19),#636,.T.);
#674=ADVANCED_FACE('',(#48),#637,.T.);
#675=ADVANCED_FACE('',(#49),#638,.T.);
#676=ADVANCED_FACE('',(#50),#639,.T.);
#677=ADVANCED_FACE('',(#51),#640,.T.);
#678=ADVANCED_FACE('',(#52),#641,.T.);
#679=ADVANCED_FACE('',(#53),#642,.T.);
#680=ADVANCED_FACE('',(#54),#643,.T.);
#681=ADVANCED_FACE('',(#55),#644,.T.);
#682=ADVANCED_FACE('',(#56),#645,.T.);
#683=CLOSED_SHELL('',(#646,#647,#648,#649,#650,#651,#652,#653,#654,#655,
#656,#657,#658,#659,#660,#661,#662,#663,#664,#665,#666,#667,#668,#669,#670,
#671,#672,#673,#674,#675,#676,#677,#678,#679,#680,#681,#682));
#684=DERIVED_UNIT_ELEMENT(#686,1.);
#685=DERIVED_UNIT_ELEMENT(#1093,-3.);
#686=(
MASS_UNIT()
NAMED_UNIT(*)
SI_UNIT(.KILO.,.GRAM.)
);
#687=DERIVED_UNIT((#684,#685));
#688=MEASURE_REPRESENTATION_ITEM('density measure',
POSITIVE_RATIO_MEASURE(7850.),#687);
#689=PROPERTY_DEFINITION_REPRESENTATION(#694,#691);
#690=PROPERTY_DEFINITION_REPRESENTATION(#695,#692);
#691=REPRESENTATION('material name',(#693),#1090);
#692=REPRESENTATION('density',(#688),#1090);
#693=DESCRIPTIVE_REPRESENTATION_ITEM('Steel','Steel');
#694=PROPERTY_DEFINITION('material property','material name',#1100);
#695=PROPERTY_DEFINITION('material property','density of part',#1100);
#696=AXIS2_PLACEMENT_3D('',#900,#734,#735);
#697=AXIS2_PLACEMENT_3D('',#901,#736,#737);
#698=AXIS2_PLACEMENT_3D('',#910,#742,#743);
#699=AXIS2_PLACEMENT_3D('',#916,#747,#748);
#700=AXIS2_PLACEMENT_3D('',#930,#756,#757);
#701=AXIS2_PLACEMENT_3D('',#939,#762,#763);
#702=AXIS2_PLACEMENT_3D('',#945,#767,#768);
#703=AXIS2_PLACEMENT_3D('',#951,#772,#773);
#704=AXIS2_PLACEMENT_3D('',#954,#776,#777);
#705=AXIS2_PLACEMENT_3D('',#955,#778,#779);
#706=AXIS2_PLACEMENT_3D('',#964,#784,#785);
#707=AXIS2_PLACEMENT_3D('',#970,#789,#790);
#708=AXIS2_PLACEMENT_3D('',#976,#794,#795);
#709=AXIS2_PLACEMENT_3D('',#979,#798,#799);
#710=AXIS2_PLACEMENT_3D('',#980,#800,#801);
#711=AXIS2_PLACEMENT_3D('',#989,#806,#807);
#712=AXIS2_PLACEMENT_3D('',#995,#811,#812);
#713=AXIS2_PLACEMENT_3D('',#1001,#816,#817);
#714=AXIS2_PLACEMENT_3D('',#1004,#820,#821);
#715=AXIS2_PLACEMENT_3D('',#1005,#822,#823);
#716=AXIS2_PLACEMENT_3D('',#1014,#828,#829);
#717=AXIS2_PLACEMENT_3D('',#1020,#833,#834);
#718=AXIS2_PLACEMENT_3D('',#1026,#838,#839);
#719=AXIS2_PLACEMENT_3D('',#1029,#842,#843);
#720=AXIS2_PLACEMENT_3D('',#1030,#844,#845);
#721=AXIS2_PLACEMENT_3D('',#1036,#849,#850);
#722=AXIS2_PLACEMENT_3D('',#1040,#853,#854);
#723=AXIS2_PLACEMENT_3D('',#1044,#857,#858);
#724=AXIS2_PLACEMENT_3D('',#1046,#860,#861);
#725=AXIS2_PLACEMENT_3D('',#1047,#862,#863);
#726=AXIS2_PLACEMENT_3D('',#1056,#868,#869);
#727=AXIS2_PLACEMENT_3D('',#1065,#874,#875);
#728=AXIS2_PLACEMENT_3D('',#1068,#878,#879);
#729=AXIS2_PLACEMENT_3D('',#1074,#883,#884);
#730=AXIS2_PLACEMENT_3D('',#1080,#888,#889);
#731=AXIS2_PLACEMENT_3D('',#1083,#892,#893);
#732=AXIS2_PLACEMENT_3D('',#1085,#895,#896);
#733=AXIS2_PLACEMENT_3D('',#1087,#898,#899);
#734=DIRECTION('axis',(0.,0.,1.));
#735=DIRECTION('refdir',(1.,0.,0.));
#736=DIRECTION('center_axis',(-1.22464679914735E-16,1.,0.));
#737=DIRECTION('ref_axis',(1.,1.22464679914735E-16,0.));
#738=DIRECTION('',(-1.,-1.22464679914735E-16,0.));
#739=DIRECTION('',(0.,0.,-1.));
#740=DIRECTION('',(1.,1.22464679914735E-16,0.));
#741=DIRECTION('',(0.,0.,-1.));
#742=DIRECTION('center_axis',(0.,0.,-1.));
#743=DIRECTION('ref_axis',(1.,1.22464679914735E-16,0.));
#744=DIRECTION('',(1.22464679914735E-16,-1.,0.));
#745=DIRECTION('',(-1.,-1.22464679914735E-16,0.));
#746=DIRECTION('',(-1.22464679914735E-16,1.,0.));
#747=DIRECTION('center_axis',(0.,0.,1.));
#748=DIRECTION('ref_axis',(-1.,-1.22464679914735E-16,0.));
#749=DIRECTION('',(1.22464679914735E-16,-1.,0.));
#750=DIRECTION('',(-1.,-1.22464679914735E-16,0.));
#751=DIRECTION('',(-1.22464679914735E-16,1.,0.));
#752=DIRECTION('',(-1.,-1.22464679914735E-16,0.));
#753=DIRECTION('',(1.22464679914735E-16,-1.,0.));
#754=DIRECTION('',(1.,1.22464679914735E-16,0.));
#755=DIRECTION('',(-1.22464679914735E-16,1.,0.));
#756=DIRECTION('center_axis',(1.,1.22464679914735E-16,0.));
#757=DIRECTION('ref_axis',(1.22464679914735E-16,-1.,0.));
#758=DIRECTION('',(-1.22464679914735E-16,1.,0.));
#759=DIRECTION('',(0.,0.,-1.));
#760=DIRECTION('',(1.22464679914735E-16,-1.,0.));
#761=DIRECTION('',(0.,0.,-1.));
#762=DIRECTION('center_axis',(1.22464679914735E-16,-1.,0.));
#763=DIRECTION('ref_axis',(-1.,-1.22464679914735E-16,0.));
#764=DIRECTION('',(1.,1.22464679914735E-16,0.));
#765=DIRECTION('',(0.,0.,-1.));
#766=DIRECTION('',(-1.,-1.22464679914735E-16,0.));
#767=DIRECTION('center_axis',(-1.22464679914735E-16,1.,0.));
#768=DIRECTION('ref_axis',(1.,1.22464679914735E-16,0.));
#769=DIRECTION('',(-1.,-1.22464679914735E-16,0.));
#770=DIRECTION('',(1.,1.22464679914735E-16,0.));
#771=DIRECTION('',(0.,0.,-1.));
#772=DIRECTION('center_axis',(-1.,-1.22464679914735E-16,0.));
#773=DIRECTION('ref_axis',(-1.22464679914735E-16,1.,0.));
#774=DIRECTION('',(1.22464679914735E-16,-1.,0.));
#775=DIRECTION('',(-1.22464679914735E-16,1.,0.));
#776=DIRECTION('center_axis',(0.,0.,-1.));
#777=DIRECTION('ref_axis',(1.,1.22464679914735E-16,0.));
#778=DIRECTION('center_axis',(1.,1.22464679914735E-16,0.));
#779=DIRECTION('ref_axis',(1.22464679914735E-16,-1.,0.));
#780=DIRECTION('',(-1.22464679914735E-16,1.,0.));
#781=DIRECTION('',(0.,0.,-1.));
#782=DIRECTION('',(1.22464679914735E-16,-1.,0.));
#783=DIRECTION('',(0.,0.,-1.));
#784=DIRECTION('center_axis',(1.22464679914735E-16,-1.,0.));
#785=DIRECTION('ref_axis',(-1.,-1.22464679914735E-16,0.));
#786=DIRECTION('',(1.,1.22464679914735E-16,0.));
#787=DIRECTION('',(0.,0.,-1.));
#788=DIRECTION('',(-1.,-1.22464679914735E-16,0.));
#789=DIRECTION('center_axis',(-1.22464679914735E-16,1.,0.));
#790=DIRECTION('ref_axis',(1.,1.22464679914735E-16,0.));
#791=DIRECTION('',(-1.,-1.22464679914735E-16,0.));
#792=DIRECTION('',(1.,1.22464679914735E-16,0.));
#793=DIRECTION('',(0.,0.,-1.));
#794=DIRECTION('center_axis',(-1.,-1.22464679914735E-16,0.));
#795=DIRECTION('ref_axis',(-1.22464679914735E-16,1.,0.));
#796=DIRECTION('',(1.22464679914735E-16,-1.,0.));
#797=DIRECTION('',(-1.22464679914735E-16,1.,0.));
#798=DIRECTION('center_axis',(0.,0.,-1.));
#799=DIRECTION('ref_axis',(1.,1.22464679914735E-16,0.));
#800=DIRECTION('center_axis',(1.,1.22464679914735E-16,0.));
#801=DIRECTION('ref_axis',(1.22464679914735E-16,-1.,0.));
#802=DIRECTION('',(-1.22464679914735E-16,1.,0.));
#803=DIRECTION('',(0.,0.,-1.));
#804=DIRECTION('',(1.22464679914735E-16,-1.,0.));
#805=DIRECTION('',(0.,0.,-1.));
#806=DIRECTION('center_axis',(1.22464679914735E-16,-1.,0.));
#807=DIRECTION('ref_axis',(-1.,-1.22464679914735E-16,0.));
#808=DIRECTION('',(1.,1.22464679914735E-16,0.));
#809=DIRECTION('',(0.,0.,-1.));
#810=DIRECTION('',(-1.,-1.22464679914735E-16,0.));
#811=DIRECTION('center_axis',(-1.22464679914735E-16,1.,0.));
#812=DIRECTION('ref_axis',(1.,1.22464679914735E-16,0.));
#813=DIRECTION('',(-1.,-1.22464679914735E-16,0.));
#814=DIRECTION('',(1.,1.22464679914735E-16,0.));
#815=DIRECTION('',(0.,0.,-1.));
#816=DIRECTION('center_axis',(-1.,-1.22464679914735E-16,0.));
#817=DIRECTION('ref_axis',(-1.22464679914735E-16,1.,0.));
#818=DIRECTION('',(1.22464679914735E-16,-1.,0.));
#819=DIRECTION('',(-1.22464679914735E-16,1.,0.));
#820=DIRECTION('center_axis',(0.,0.,-1.));
#821=DIRECTION('ref_axis',(1.,1.22464679914735E-16,0.));
#822=DIRECTION('center_axis',(1.,1.22464679914735E-16,0.));
#823=DIRECTION('ref_axis',(1.22464679914735E-16,-1.,0.));
#824=DIRECTION('',(-1.22464679914735E-16,1.,0.));
#825=DIRECTION('',(0.,0.,-1.));
#826=DIRECTION('',(1.22464679914735E-16,-1.,0.));
#827=DIRECTION('',(0.,0.,-1.));
#828=DIRECTION('center_axis',(1.22464679914735E-16,-1.,0.));
#829=DIRECTION('ref_axis',(-1.,-1.22464679914735E-16,0.));
#830=DIRECTION('',(1.,1.22464679914735E-16,0.));
#831=DIRECTION('',(0.,0.,-1.));
#832=DIRECTION('',(-1.,-1.22464679914735E-16,0.));
#833=DIRECTION('center_axis',(-1.22464679914735E-16,1.,0.));
#834=DIRECTION('ref_axis',(1.,1.22464679914735E-16,0.));
#835=DIRECTION('',(-1.,-1.22464679914735E-16,0.));
#836=DIRECTION('',(1.,1.22464679914735E-16,0.));
#837=DIRECTION('',(0.,0.,-1.));
#838=DIRECTION('center_axis',(-1.,-1.22464679914735E-16,0.));
#839=DIRECTION('ref_axis',(-1.22464679914735E-16,1.,0.));
#840=DIRECTION('',(1.22464679914735E-16,-1.,0.));
#841=DIRECTION('',(-1.22464679914735E-16,1.,0.));
#842=DIRECTION('center_axis',(0.,0.,-1.));
#843=DIRECTION('ref_axis',(1.,1.22464679914735E-16,0.));
#844=DIRECTION('center_axis',(-1.22464679914735E-16,1.,0.));
#845=DIRECTION('ref_axis',(1.,1.22464679914735E-16,0.));
#846=DIRECTION('',(0.,0.,-1.));
#847=DIRECTION('',(1.,1.22464679914735E-16,0.));
#848=DIRECTION('',(0.,0.,-1.));
#849=DIRECTION('center_axis',(-1.,-1.22464679914735E-16,0.));
#850=DIRECTION('ref_axis',(-1.22464679914735E-16,1.,0.));
#851=DIRECTION('',(-1.22464679914735E-16,1.,0.));
#852=DIRECTION('',(0.,0.,-1.));
#853=DIRECTION('center_axis',(1.22464679914735E-16,-1.,0.));
#854=DIRECTION('ref_axis',(-1.,-1.22464679914735E-16,0.));
#855=DIRECTION('',(-1.,-1.22464679914735E-16,0.));
#856=DIRECTION('',(0.,0.,-1.));
#857=DIRECTION('center_axis',(1.,1.22464679914735E-16,0.));
#858=DIRECTION('ref_axis',(1.22464679914735E-16,-1.,0.));
#859=DIRECTION('',(1.22464679914735E-16,-1.,0.));
#860=DIRECTION('center_axis',(0.,0.,-1.));
#861=DIRECTION('ref_axis',(1.,1.22464679914735E-16,0.));
#862=DIRECTION('center_axis',(1.22464679914735E-16,-1.,0.));
#863=DIRECTION('ref_axis',(1.,1.22464679914735E-16,0.));
#864=DIRECTION('',(-1.,-1.22464679914735E-16,0.));
#865=DIRECTION('',(0.,0.,1.));
#866=DIRECTION('',(1.,1.22464679914735E-16,0.));
#867=DIRECTION('',(0.,0.,1.));
#868=DIRECTION('center_axis',(-1.22464679914735E-16,1.,0.));
#869=DIRECTION('ref_axis',(-1.,-1.22464679914735E-16,0.));
#870=DIRECTION('',(1.,1.22464679914735E-16,0.));
#871=DIRECTION('',(0.,0.,1.));
#872=DIRECTION('',(-1.,-1.22464679914735E-16,0.));
#873=DIRECTION('',(0.,0.,1.));
#874=DIRECTION('center_axis',(0.,0.,1.));
#875=DIRECTION('ref_axis',(-1.,-1.22464679914735E-16,0.));
#876=DIRECTION('',(-1.22464679914735E-16,1.,0.));
#877=DIRECTION('',(1.22464679914735E-16,-1.,0.));
#878=DIRECTION('center_axis',(0.,0.,1.));
#879=DIRECTION('ref_axis',(-1.,-1.22464679914735E-16,0.));
#880=DIRECTION('',(-1.22464679914735E-16,1.,0.));
#881=DIRECTION('',(-1.,-1.22464679914735E-16,0.));
#882=DIRECTION('',(1.22464679914735E-16,-1.,0.));
#883=DIRECTION('center_axis',(1.22464679914735E-16,-1.,0.));
#884=DIRECTION('ref_axis',(1.,1.22464679914735E-16,0.));
#885=DIRECTION('',(0.,0.,-1.));
#886=DIRECTION('',(1.,1.22464679914735E-16,0.));
#887=DIRECTION('',(0.,0.,1.));
#888=DIRECTION('center_axis',(-1.,-1.22464679914735E-16,0.));
#889=DIRECTION('ref_axis',(1.22464679914735E-16,-1.,0.));
#890=DIRECTION('',(1.22464679914735E-16,-1.,0.));
#891=DIRECTION('',(0.,0.,1.));
#892=DIRECTION('center_axis',(-1.22464679914735E-16,1.,0.));
#893=DIRECTION('ref_axis',(-1.,-1.22464679914735E-16,0.));
#894=DIRECTION('',(0.,0.,1.));
#895=DIRECTION('center_axis',(1.,1.22464679914735E-16,0.));
#896=DIRECTION('ref_axis',(-1.22464679914735E-16,1.,0.));
#897=DIRECTION('',(-1.22464679914735E-16,1.,0.));
#898=DIRECTION('center_axis',(0.,0.,1.));
#899=DIRECTION('ref_axis',(-1.,-1.22464679914735E-16,0.));
#900=CARTESIAN_POINT('',(0.,0.,0.));
#901=CARTESIAN_POINT('Origin',(0.,-4.3,5.45));
#902=CARTESIAN_POINT('',(28.,-4.3,5.45));
#903=CARTESIAN_POINT('',(0.,-4.3,5.45));
#904=CARTESIAN_POINT('',(7.,-4.3,5.45));
#905=CARTESIAN_POINT('',(28.,-4.3,4.65));
#906=CARTESIAN_POINT('',(28.,-4.3,5.45));
#907=CARTESIAN_POINT('',(0.,-4.3,4.65));
#908=CARTESIAN_POINT('',(28.,-4.3,4.65));
#909=CARTESIAN_POINT('',(0.,-4.3,5.45));
#910=CARTESIAN_POINT('Origin',(14.,-16.15,4.65));
#911=CARTESIAN_POINT('',(28.,-28.,4.65));
#912=CARTESIAN_POINT('',(28.,-28.,4.65));
#913=CARTESIAN_POINT('',(4.44089209850063E-15,-28.,4.65));
#914=CARTESIAN_POINT('',(4.44089209850063E-15,-28.,4.65));
#915=CARTESIAN_POINT('',(0.,-1.71450551880629E-15,4.65));
#916=CARTESIAN_POINT('Origin',(14.,-14.,5.45));
#917=CARTESIAN_POINT('',(0.,-1.71450551880629E-15,5.45));
#918=CARTESIAN_POINT('',(0.,-1.71450551880629E-15,5.45));
#919=CARTESIAN_POINT('',(28.,1.71450551880629E-15,5.45));
#920=CARTESIAN_POINT('',(28.,1.71450551880629E-15,5.45));
#921=CARTESIAN_POINT('',(28.,-28.,5.45));
#922=CARTESIAN_POINT('',(18.9,-0.499999999999999,5.45));
#923=CARTESIAN_POINT('',(9.1,-0.500000000000001,5.45));
#924=CARTESIAN_POINT('',(11.55,-0.500000000000001,5.45));
#925=CARTESIAN_POINT('',(9.1,-2.9,5.45));
#926=CARTESIAN_POINT('',(9.1,-8.45,5.45));
#927=CARTESIAN_POINT('',(18.9,-2.9,5.45));
#928=CARTESIAN_POINT('',(16.45,-2.9,5.45));
#929=CARTESIAN_POINT('',(18.9,-7.25,5.45));
#930=CARTESIAN_POINT('Origin',(18.2,-1.3,5.45));
#931=CARTESIAN_POINT('',(18.2,-1.9,3.2));
#932=CARTESIAN_POINT('',(18.2,-1.3,3.2));
#933=CARTESIAN_POINT('',(18.2,-1.3,3.2));
#934=CARTESIAN_POINT('',(18.2,-1.9,-2.55));
#935=CARTESIAN_POINT('',(18.2,-1.9,5.45));
#936=CARTESIAN_POINT('',(18.2,-1.3,-2.55));
#937=CARTESIAN_POINT('',(18.2,-1.3,-2.55));
#938=CARTESIAN_POINT('',(18.2,-1.3,5.45));
#939=CARTESIAN_POINT('Origin',(18.2,-1.9,5.45));
#940=CARTESIAN_POINT('',(17.6,-1.9,3.2));
#941=CARTESIAN_POINT('',(18.2,-1.9,3.2));
#942=CARTESIAN_POINT('',(17.6,-1.9,-2.55));
#943=CARTESIAN_POINT('',(17.6,-1.9,5.45));
#944=CARTESIAN_POINT('',(18.2,-1.9,-2.55));
#945=CARTESIAN_POINT('Origin',(17.6,-1.3,5.45));
#946=CARTESIAN_POINT('',(17.6,-1.3,3.2));
#947=CARTESIAN_POINT('',(17.6,-1.3,3.2));
#948=CARTESIAN_POINT('',(17.6,-1.3,-2.55));
#949=CARTESIAN_POINT('',(17.6,-1.3,-2.55));
#950=CARTESIAN_POINT('',(17.6,-1.3,5.45));
#951=CARTESIAN_POINT('Origin',(17.6,-1.9,5.45));
#952=CARTESIAN_POINT('',(17.6,-1.9,3.2));
#953=CARTESIAN_POINT('',(17.6,-1.9,-2.55));
#954=CARTESIAN_POINT('Origin',(17.9,-1.6,-2.55));
#955=CARTESIAN_POINT('Origin',(10.4,-1.3,5.45));
#956=CARTESIAN_POINT('',(10.4,-1.9,3.2));
#957=CARTESIAN_POINT('',(10.4,-1.3,3.2));
#958=CARTESIAN_POINT('',(10.4,-1.3,3.2));
#959=CARTESIAN_POINT('',(10.4,-1.9,-2.55));
#960=CARTESIAN_POINT('',(10.4,-1.9,5.45));
#961=CARTESIAN_POINT('',(10.4,-1.3,-2.55));
#962=CARTESIAN_POINT('',(10.4,-1.3,-2.55));
#963=CARTESIAN_POINT('',(10.4,-1.3,5.45));
#964=CARTESIAN_POINT('Origin',(10.4,-1.9,5.45));
#965=CARTESIAN_POINT('',(9.8,-1.9,3.2));
#966=CARTESIAN_POINT('',(10.4,-1.9,3.2));
#967=CARTESIAN_POINT('',(9.8,-1.9,-2.55));
#968=CARTESIAN_POINT('',(9.8,-1.9,5.45));
#969=CARTESIAN_POINT('',(10.4,-1.9,-2.55));
#970=CARTESIAN_POINT('Origin',(9.8,-1.3,5.45));
#971=CARTESIAN_POINT('',(9.8,-1.3,3.2));
#972=CARTESIAN_POINT('',(9.8,-1.3,3.2));
#973=CARTESIAN_POINT('',(9.8,-1.3,-2.55));
#974=CARTESIAN_POINT('',(9.8,-1.3,-2.55));
#975=CARTESIAN_POINT('',(9.8,-1.3,5.45));
#976=CARTESIAN_POINT('Origin',(9.8,-1.9,5.45));
#977=CARTESIAN_POINT('',(9.8,-1.9,3.2));
#978=CARTESIAN_POINT('',(9.8,-1.9,-2.55));
#979=CARTESIAN_POINT('Origin',(10.1,-1.6,-2.55));
#980=CARTESIAN_POINT('Origin',(15.6,-1.3,5.45));
#981=CARTESIAN_POINT('',(15.6,-1.9,3.2));
#982=CARTESIAN_POINT('',(15.6,-1.3,3.2));
#983=CARTESIAN_POINT('',(15.6,-1.3,3.2));
#984=CARTESIAN_POINT('',(15.6,-1.9,-2.55));
#985=CARTESIAN_POINT('',(15.6,-1.9,5.45));
#986=CARTESIAN_POINT('',(15.6,-1.3,-2.55));
#987=CARTESIAN_POINT('',(15.6,-1.3,-2.55));
#988=CARTESIAN_POINT('',(15.6,-1.3,5.45));
#989=CARTESIAN_POINT('Origin',(15.6,-1.9,5.45));
#990=CARTESIAN_POINT('',(15.,-1.9,3.2));
#991=CARTESIAN_POINT('',(15.6,-1.9,3.2));
#992=CARTESIAN_POINT('',(15.,-1.9,-2.55));
#993=CARTESIAN_POINT('',(15.,-1.9,5.45));
#994=CARTESIAN_POINT('',(15.6,-1.9,-2.55));
#995=CARTESIAN_POINT('Origin',(15.,-1.3,5.45));
#996=CARTESIAN_POINT('',(15.,-1.3,3.2));
#997=CARTESIAN_POINT('',(15.,-1.3,3.2));
#998=CARTESIAN_POINT('',(15.,-1.3,-2.55));
#999=CARTESIAN_POINT('',(15.,-1.3,-2.55));
#1000=CARTESIAN_POINT('',(15.,-1.3,5.45));
#1001=CARTESIAN_POINT('Origin',(15.,-1.9,5.45));
#1002=CARTESIAN_POINT('',(15.,-1.9,3.2));
#1003=CARTESIAN_POINT('',(15.,-1.9,-2.55));
#1004=CARTESIAN_POINT('Origin',(15.3,-1.6,-2.55));
#1005=CARTESIAN_POINT('Origin',(13.,-1.3,5.45));
#1006=CARTESIAN_POINT('',(13.,-1.9,3.2));
#1007=CARTESIAN_POINT('',(13.,-1.3,3.2));
#1008=CARTESIAN_POINT('',(13.,-1.3,3.2));
#1009=CARTESIAN_POINT('',(13.,-1.9,-2.55));
#1010=CARTESIAN_POINT('',(13.,-1.9,5.45));
#1011=CARTESIAN_POINT('',(13.,-1.3,-2.55));
#1012=CARTESIAN_POINT('',(13.,-1.3,-2.55));
#1013=CARTESIAN_POINT('',(13.,-1.3,5.45));
#1014=CARTESIAN_POINT('Origin',(13.,-1.9,5.45));
#1015=CARTESIAN_POINT('',(12.4,-1.9,3.2));
#1016=CARTESIAN_POINT('',(13.,-1.9,3.2));
#1017=CARTESIAN_POINT('',(12.4,-1.9,-2.55));
#1018=CARTESIAN_POINT('',(12.4,-1.9,5.45));
#1019=CARTESIAN_POINT('',(13.,-1.9,-2.55));
#1020=CARTESIAN_POINT('Origin',(12.4,-1.3,5.45));
#1021=CARTESIAN_POINT('',(12.4,-1.3,3.2));
#1022=CARTESIAN_POINT('',(12.4,-1.3,3.2));
#1023=CARTESIAN_POINT('',(12.4,-1.3,-2.55));
#1024=CARTESIAN_POINT('',(12.4,-1.3,-2.55));
#1025=CARTESIAN_POINT('',(12.4,-1.3,5.45));
#1026=CARTESIAN_POINT('Origin',(12.4,-1.9,5.45));
#1027=CARTESIAN_POINT('',(12.4,-1.9,3.2));
#1028=CARTESIAN_POINT('',(12.4,-1.9,-2.55));
#1029=CARTESIAN_POINT('Origin',(12.7,-1.6,-2.55));
#1030=CARTESIAN_POINT('Origin',(9.1,-0.500000000000001,5.45));
#1031=CARTESIAN_POINT('',(18.9,-0.499999999999999,3.2));
#1032=CARTESIAN_POINT('',(18.9,-0.499999999999999,5.45));
#1033=CARTESIAN_POINT('',(9.1,-0.5,3.2));
#1034=CARTESIAN_POINT('',(18.9,-0.499999999999999,3.2));
#1035=CARTESIAN_POINT('',(9.1,-0.500000000000001,5.45));
#1036=CARTESIAN_POINT('Origin',(9.1,-2.9,5.45));
#1037=CARTESIAN_POINT('',(9.1,-2.9,3.2));
#1038=CARTESIAN_POINT('',(9.1,-0.500000000000001,3.2));
#1039=CARTESIAN_POINT('',(9.1,-2.9,5.45));
#1040=CARTESIAN_POINT('Origin',(18.9,-2.9,5.45));
#1041=CARTESIAN_POINT('',(18.9,-2.9,3.2));
#1042=CARTESIAN_POINT('',(9.1,-2.9,3.2));
#1043=CARTESIAN_POINT('',(18.9,-2.9,5.45));
#1044=CARTESIAN_POINT('Origin',(18.9,-0.499999999999999,5.45));
#1045=CARTESIAN_POINT('',(18.9,-2.9,3.2));
#1046=CARTESIAN_POINT('Origin',(14.,-1.7,3.2));
#1047=CARTESIAN_POINT('Origin',(4.44089209850063E-15,-23.5,5.45));
#1048=CARTESIAN_POINT('',(28.,-23.5,6.55));
#1049=CARTESIAN_POINT('',(4.44089209850063E-15,-23.5,6.55));
#1050=CARTESIAN_POINT('',(7.00000000000001,-23.5,6.55));
#1051=CARTESIAN_POINT('',(28.,-23.5,8.7));
#1052=CARTESIAN_POINT('',(28.,-23.5,5.45));
#1053=CARTESIAN_POINT('',(4.44089209850063E-15,-23.5,8.7));
#1054=CARTESIAN_POINT('',(28.,-23.5,8.7));
#1055=CARTESIAN_POINT('',(4.44089209850063E-15,-23.5,5.45));
#1056=CARTESIAN_POINT('Origin',(28.,-4.3,5.45));
#1057=CARTESIAN_POINT('',(0.,-4.3,6.55));
#1058=CARTESIAN_POINT('',(28.,-4.3,6.55));
#1059=CARTESIAN_POINT('',(21.,-4.3,6.55));
#1060=CARTESIAN_POINT('',(0.,-4.3,8.7));
#1061=CARTESIAN_POINT('',(0.,-4.3,5.45));
#1062=CARTESIAN_POINT('',(28.,-4.3,8.7));
#1063=CARTESIAN_POINT('',(28.,-4.3,8.7));
#1064=CARTESIAN_POINT('',(28.,-4.3,5.45));
#1065=CARTESIAN_POINT('Origin',(14.,-13.9,8.7));
#1066=CARTESIAN_POINT('',(28.,-28.,8.7));
#1067=CARTESIAN_POINT('',(0.,-1.71450551880629E-15,8.7));
#1068=CARTESIAN_POINT('Origin',(14.,-14.,6.55));
#1069=CARTESIAN_POINT('',(28.,1.71450551880629E-15,6.55));
#1070=CARTESIAN_POINT('',(28.,-28.,6.55));
#1071=CARTESIAN_POINT('',(0.,-1.71450551880629E-15,6.55));
#1072=CARTESIAN_POINT('',(28.,1.71450551880629E-15,6.55));
#1073=CARTESIAN_POINT('',(0.,-1.71450551880629E-15,6.55));
#1074=CARTESIAN_POINT('Origin',(4.44089209850063E-15,-28.,5.45));
#1075=CARTESIAN_POINT('',(28.,-28.,6.55));
#1076=CARTESIAN_POINT('',(28.,-28.,5.45));
#1077=CARTESIAN_POINT('',(4.44089209850063E-15,-28.,6.55));
#1078=CARTESIAN_POINT('',(4.44089209850063E-15,-28.,6.55));
#1079=CARTESIAN_POINT('',(4.44089209850063E-15,-28.,5.45));
#1080=CARTESIAN_POINT('Origin',(0.,-1.71450551880629E-15,5.45));
#1081=CARTESIAN_POINT('',(0.,-1.71450551880629E-15,6.55));
#1082=CARTESIAN_POINT('',(0.,-1.71450551880629E-15,5.45));
#1083=CARTESIAN_POINT('Origin',(28.,1.71450551880629E-15,5.45));
#1084=CARTESIAN_POINT('',(28.,1.71450551880629E-15,5.45));
#1085=CARTESIAN_POINT('Origin',(28.,-28.,5.45));
#1086=CARTESIAN_POINT('',(28.,-28.,6.55));
#1087=CARTESIAN_POINT('Origin',(14.,-14.,6.55));
#1088=UNCERTAINTY_MEASURE_WITH_UNIT(LENGTH_MEASURE(0.01),#1092,
'DISTANCE_ACCURACY_VALUE',
'Maximum model space distance between geometric entities at asserted c
onnectivities');
#1089=UNCERTAINTY_MEASURE_WITH_UNIT(LENGTH_MEASURE(0.01),#1092,
'DISTANCE_ACCURACY_VALUE',
'Maximum model space distance between geometric entities at asserted c
onnectivities');
#1090=(
GEOMETRIC_REPRESENTATION_CONTEXT(3)
GLOBAL_UNCERTAINTY_ASSIGNED_CONTEXT((#1088))
GLOBAL_UNIT_ASSIGNED_CONTEXT((#1092,#1094,#1095))
REPRESENTATION_CONTEXT('','3D')
);
#1091=(
GEOMETRIC_REPRESENTATION_CONTEXT(3)
GLOBAL_UNCERTAINTY_ASSIGNED_CONTEXT((#1089))
GLOBAL_UNIT_ASSIGNED_CONTEXT((#1092,#1094,#1095))
REPRESENTATION_CONTEXT('','3D')
);
#1092=(
LENGTH_UNIT()
NAMED_UNIT(*)
SI_UNIT(.MILLI.,.METRE.)
);
#1093=(
LENGTH_UNIT()
NAMED_UNIT(*)
SI_UNIT($,.METRE.)
);
#1094=(
NAMED_UNIT(*)
PLANE_ANGLE_UNIT()
SI_UNIT($,.RADIAN.)
);
#1095=(
NAMED_UNIT(*)
SI_UNIT($,.STERADIAN.)
SOLID_ANGLE_UNIT()
);
#1096=SHAPE_DEFINITION_REPRESENTATION(#1097,#1098);
#1097=PRODUCT_DEFINITION_SHAPE('',$,#1100);
#1098=SHAPE_REPRESENTATION('',(#696),#1090);
#1099=PRODUCT_DEFINITION_CONTEXT('part definition',#1104,'design');
#1100=PRODUCT_DEFINITION('2026-08-02-13-09-43-946','ssd1306',#1101,#1099);
#1101=PRODUCT_DEFINITION_FORMATION('',$,#1106);
#1102=PRODUCT_RELATED_PRODUCT_CATEGORY('ssd1306','ssd1306',(#1106));
#1103=APPLICATION_PROTOCOL_DEFINITION('international standard',
'automotive_design',2009,#1104);
#1104=APPLICATION_CONTEXT(
'Core Data for Automotive Mechanical Design Process');
#1105=PRODUCT_CONTEXT('part definition',#1104,'mechanical');
#1106=PRODUCT('2026-08-02-13-09-43-946','ssd1306',$,(#1105));
#1107=PRESENTATION_STYLE_ASSIGNMENT((#1108));
#1108=SURFACE_STYLE_USAGE(.BOTH.,#1109);
#1109=SURFACE_SIDE_STYLE('',(#1110));
#1110=SURFACE_STYLE_FILL_AREA(#1111);
#1111=FILL_AREA_STYLE('Steel - Satin',(#1112));
#1112=FILL_AREA_STYLE_COLOUR('Steel - Satin',#1113);
#1113=COLOUR_RGB('Steel - Satin',0.627450980392157,0.627450980392157,0.627450980392157);
ENDSEC;
END-ISO-10303-21;
