M48
; DRILL file KiCad 10.0.1 date 2026-04-23T22:19:51
; FORMAT={-:-/ absolute / metric / decimal}
; #@! TF.CreationDate,2026-04-23T22:19:51-07:00
; #@! TF.GenerationSoftware,Kicad,Pcbnew,10.0.1
; #@! TF.FileFunction,Plated,1,2,PTH
FMAT,2
METRIC
; #@! TA.AperFunction,Plated,PTH,ComponentDrill
T1C0.500
; #@! TA.AperFunction,Plated,PTH,ComponentDrill
T2C0.800
; #@! TA.AperFunction,Plated,PTH,ComponentDrill
T3C1.000
; #@! TA.AperFunction,Plated,PTH,ComponentDrill
T4C1.100
; #@! TA.AperFunction,Plated,PTH,ComponentDrill
T5C1.500
; #@! TA.AperFunction,Plated,PTH,ComponentDrill
T6C3.200
%
G90
G05
T1
X77.4Y-135.0
X78.103Y-133.303
X78.103Y-136.697
X79.8Y-132.6
X79.8Y-137.4
X81.497Y-133.303
X81.497Y-136.697
X82.2Y-135.0
X141.35Y-135.0
X141.374Y-98.061
X142.053Y-133.303
X142.053Y-136.697
X142.077Y-96.364
X142.077Y-99.758
X143.75Y-132.6
X143.75Y-137.4
X143.774Y-95.661
X143.774Y-100.461
X145.447Y-133.303
X145.447Y-136.697
X145.471Y-96.364
X145.471Y-99.758
X146.15Y-135.0
X146.174Y-98.061
T2
X112.25Y-96.75
X114.25Y-96.75
X116.25Y-96.75
T3
X81.249Y-112.5
X83.749Y-112.5
X86.249Y-112.5
X88.01Y-119.51
X88.01Y-122.05
X88.01Y-124.59
X88.01Y-127.13
X88.01Y-129.67
X88.01Y-132.21
X88.01Y-134.75
X88.749Y-112.5
X91.249Y-112.5
X93.749Y-112.5
X96.249Y-112.5
X98.749Y-112.5
X103.25Y-119.51
X103.25Y-122.05
X103.25Y-124.59
X103.25Y-127.13
X103.25Y-129.67
X103.25Y-132.21
X103.25Y-134.75
X116.26Y-101.86
X118.76Y-101.86
X121.26Y-101.86
X123.76Y-101.86
T4
X116.75Y-131.25
X116.75Y-135.75
X123.25Y-131.25
X123.25Y-135.75
X137.75Y-119.5
X137.75Y-124.0
X137.765Y-106.75
X137.765Y-111.25
X144.25Y-119.5
X144.25Y-124.0
X144.265Y-106.75
X144.265Y-111.25
T5
X110.15Y-96.75
X118.35Y-96.75
T6
X79.8Y-135.0
X143.75Y-135.0
X143.774Y-98.061
M30
