M48
; DRILL file KiCad 10.0.0 date 2026-03-30T21:40:46
; FORMAT={-:-/ absolute / metric / decimal}
; #@! TF.CreationDate,2026-03-30T21:40:46-07:00
; #@! TF.GenerationSoftware,Kicad,Pcbnew,10.0.0
; #@! TF.FileFunction,Plated,1,2,PTH
FMAT,2
METRIC
; #@! TA.AperFunction,Plated,PTH,ViaDrill
T1C0.300
; #@! TA.AperFunction,Plated,PTH,ComponentDrill
T2C0.500
; #@! TA.AperFunction,Plated,PTH,ComponentDrill
T3C0.800
; #@! TA.AperFunction,Plated,PTH,ComponentDrill
T4C0.813
; #@! TA.AperFunction,Plated,PTH,ComponentDrill
T5C1.000
; #@! TA.AperFunction,Plated,PTH,ComponentDrill
T6C1.500
; #@! TA.AperFunction,Plated,PTH,ComponentDrill
T7C3.200
%
G90
G05
T1
X74.4Y-123.6
T2
X63.0Y-91.6
X63.0Y-145.2
X63.703Y-89.903
X63.703Y-93.297
X63.703Y-143.503
X63.703Y-146.897
X65.4Y-89.2
X65.4Y-94.0
X65.4Y-142.8
X65.4Y-147.6
X67.097Y-89.903
X67.097Y-93.297
X67.097Y-143.503
X67.097Y-146.897
X67.8Y-91.6
X67.8Y-145.2
X143.8Y-91.6
X143.8Y-145.2
X144.503Y-89.903
X144.503Y-93.297
X144.503Y-143.503
X144.503Y-146.897
X146.2Y-89.2
X146.2Y-94.0
X146.2Y-142.8
X146.2Y-147.6
X147.897Y-89.903
X147.897Y-93.297
X147.897Y-143.503
X147.897Y-146.897
X148.6Y-91.6
X148.6Y-145.2
T3
X91.0Y-125.0
X93.0Y-125.0
X95.0Y-125.0
T4
X116.19Y-132.46
X116.19Y-137.54
X123.81Y-132.46
X123.81Y-137.54
X138.69Y-104.96
X138.69Y-110.04
X138.69Y-119.96
X138.69Y-125.04
X146.31Y-104.96
X146.31Y-110.04
X146.31Y-119.96
X146.31Y-125.04
T5
X70.0Y-99.245
X72.5Y-99.245
X75.0Y-99.245
X77.5Y-99.245
X80.0Y-99.245
X82.5Y-99.245
X85.0Y-99.245
X87.5Y-99.245
X116.25Y-103.9
X118.75Y-103.9
X121.25Y-103.9
X123.75Y-103.9
T6
X88.9Y-125.0
X97.1Y-125.0
T7
X65.4Y-91.6
X65.4Y-145.2
X146.2Y-91.6
X146.2Y-145.2
M30
