%TF.GenerationSoftware,KiCad,Pcbnew,10.0.1*%
%TF.CreationDate,2026-04-23T22:19:49-07:00*%
%TF.ProjectId,pcb,7063622e-6b69-4636-9164-5f7063625858,rev?*%
%TF.SameCoordinates,Original*%
%TF.FileFunction,Copper,L1,Top*%
%TF.FilePolarity,Positive*%
%FSLAX46Y46*%
G04 Gerber Fmt 4.6, Leading zero omitted, Abs format (unit mm)*
G04 Created by KiCad (PCBNEW 10.0.1) date 2026-04-23 22:19:49*
%MOMM*%
%LPD*%
G01*
G04 APERTURE LIST*
G04 Aperture macros list*
%AMRoundRect*
0 Rectangle with rounded corners*
0 $1 Rounding radius*
0 $2 $3 $4 $5 $6 $7 $8 $9 X,Y pos of 4 corners*
0 Add a 4 corners polygon primitive as box body*
4,1,4,$2,$3,$4,$5,$6,$7,$8,$9,$2,$3,0*
0 Add four circle primitives for the rounded corners*
1,1,$1+$1,$2,$3*
1,1,$1+$1,$4,$5*
1,1,$1+$1,$6,$7*
1,1,$1+$1,$8,$9*
0 Add four rect primitives between the rounded corners*
20,1,$1+$1,$2,$3,$4,$5,0*
20,1,$1+$1,$4,$5,$6,$7,0*
20,1,$1+$1,$6,$7,$8,$9,0*
20,1,$1+$1,$8,$9,$2,$3,0*%
G04 Aperture macros list end*
%TA.AperFunction,ComponentPad*%
%ADD10C,2.000000*%
%TD*%
%TA.AperFunction,ComponentPad*%
%ADD11C,0.800000*%
%TD*%
%TA.AperFunction,ComponentPad*%
%ADD12C,6.400000*%
%TD*%
%TA.AperFunction,ComponentPad*%
%ADD13RoundRect,0.250000X-0.750000X-0.750000X0.750000X-0.750000X0.750000X0.750000X-0.750000X0.750000X0*%
%TD*%
%TA.AperFunction,ComponentPad*%
%ADD14O,2.200000X3.500000*%
%TD*%
%TA.AperFunction,ComponentPad*%
%ADD15R,1.500000X2.500000*%
%TD*%
%TA.AperFunction,ComponentPad*%
%ADD16O,1.500000X2.500000*%
%TD*%
%TA.AperFunction,ComponentPad*%
%ADD17R,1.600000X1.600000*%
%TD*%
%TA.AperFunction,ComponentPad*%
%ADD18C,1.600000*%
%TD*%
%TA.AperFunction,Conductor*%
%ADD19C,0.200000*%
%TD*%
G04 APERTURE END LIST*
D10*
%TO.P,SW3,1,1_1*%
%TO.N,GND*%
X137764740Y-106749999D03*
X144264740Y-106749999D03*
%TO.P,SW3,2,2_2*%
%TO.N,Net-(U1-PA10_A2_D2)*%
X137764740Y-111249999D03*
X144264740Y-111249999D03*
%TD*%
D11*
%TO.P,H2,1,1_1*%
%TO.N,GND*%
X141350000Y-135000000D03*
X142052944Y-133302944D03*
X142052944Y-136697056D03*
X143750000Y-132600000D03*
D12*
X143750000Y-135000000D03*
D11*
X143750000Y-137400000D03*
X145447056Y-133302944D03*
X145447056Y-136697056D03*
X146150000Y-135000000D03*
%TD*%
D10*
%TO.P,SSD1306,1,VCC_1*%
%TO.N,Net-(SSD1306-VCC)*%
X116260000Y-101860000D03*
D13*
%TO.P,SSD1306,2,GND_2*%
%TO.N,GND*%
X118760000Y-101860000D03*
D10*
%TO.P,SSD1306,3,SCL_3*%
%TO.N,Net-(SSD1306-SCL)*%
X121260000Y-101860000D03*
%TO.P,SSD1306,4,SDA_4*%
%TO.N,Net-(SSD1306-SDA)*%
X123760000Y-101860000D03*
%TD*%
%TO.P,adafruitbq1,1,VIN_1*%
%TO.N,unconnected-(adafruitbq1-VIN-Pad1)*%
X81249086Y-112500000D03*
%TO.P,adafruitbq1,2,VU_2*%
%TO.N,unconnected-(adafruitbq1-VU-Pad2)*%
X83749086Y-112500000D03*
%TO.P,adafruitbq1,3,D-_3*%
%TO.N,unconnected-(adafruitbq1-D--Pad3)*%
X86249086Y-112500000D03*
%TO.P,adafruitbq1,4,D+_4*%
%TO.N,unconnected-(adafruitbq1-D+-Pad4)*%
X88749086Y-112500000D03*
D13*
%TO.P,adafruitbq1,5,GND_5*%
%TO.N,GND*%
X91249086Y-112500000D03*
D10*
%TO.P,adafruitbq1,6,BAT_6*%
%TO.N,unconnected-(adafruitbq1-BAT-Pad6)*%
X93749086Y-112500000D03*
%TO.P,adafruitbq1,7,5V_7*%
%TO.N,Net-(U1-5V)*%
X96249086Y-112500000D03*
%TO.P,adafruitbq1,8,EN_8*%
%TO.N,Net-(adafruitbq1-EN)*%
X98749086Y-112500000D03*
%TD*%
%TO.P,SW2,1,1_1*%
%TO.N,GND*%
X137750000Y-119500000D03*
X144250000Y-119500000D03*
%TO.P,SW2,2,2_2*%
%TO.N,Net-(U1-PA4_A1_D1)*%
X137750000Y-124000000D03*
X144250000Y-124000000D03*
%TD*%
%TO.P,SW1,1,1_1*%
%TO.N,GND*%
X116750000Y-131250000D03*
X123250000Y-131250000D03*
%TO.P,SW1,2,2_2*%
%TO.N,Net-(U1-PA02_A0_D0)*%
X116750000Y-135750000D03*
X123250000Y-135750000D03*
%TD*%
D11*
%TO.P,H1,1,1_1*%
%TO.N,GND*%
X77400000Y-135000000D03*
X78102944Y-133302944D03*
X78102944Y-136697056D03*
X79800000Y-132600000D03*
D12*
X79800000Y-135000000D03*
D11*
X79800000Y-137400000D03*
X81497056Y-133302944D03*
X81497056Y-136697056D03*
X82200000Y-135000000D03*
%TD*%
%TO.P,H4,1,1_1*%
%TO.N,GND*%
X141374273Y-98060913D03*
X142077217Y-96363857D03*
X142077217Y-99757969D03*
X143774273Y-95660913D03*
D12*
X143774273Y-98060913D03*
D11*
X143774273Y-100460913D03*
X145471329Y-96363857D03*
X145471329Y-99757969D03*
X146174273Y-98060913D03*
%TD*%
D14*
%TO.P,SW4,*%
%TO.N,*%
X110150000Y-96750000D03*
X118350000Y-96750000D03*
D15*
%TO.P,SW4,1,1_1*%
%TO.N,Net-(adafruitbq1-EN)*%
X112250000Y-96750000D03*
D16*
%TO.P,SW4,2,2_2*%
%TO.N,GND*%
X114250000Y-96750000D03*
%TO.P,SW4,3*%
%TO.N,N/C*%
X116250000Y-96750000D03*
%TD*%
D17*
%TO.P,U1,1,PA02_A0_D0_1*%
%TO.N,Net-(U1-PA02_A0_D0)*%
X103250000Y-134750000D03*
D18*
%TO.P,U1,2,PA4_A1_D1_2*%
%TO.N,Net-(U1-PA4_A1_D1)*%
X103250000Y-132210000D03*
%TO.P,U1,3,PA10_A2_D2_3*%
%TO.N,Net-(U1-PA10_A2_D2)*%
X103250000Y-129670000D03*
%TO.P,U1,4,PA11_A3_D3_4*%
%TO.N,unconnected-(U1-PA11_A3_D3-Pad4)*%
X103250000Y-127130000D03*
%TO.P,U1,5,PA8_A4_D4_SDA_5*%
%TO.N,Net-(SSD1306-SDA)*%
X103250000Y-124590000D03*
%TO.P,U1,6,PA9_A5_D5_SCL_6*%
%TO.N,Net-(SSD1306-SCL)*%
X103250000Y-122050000D03*
%TO.P,U1,7,PB08_A6_D6_TX_7*%
%TO.N,unconnected-(U1-PB08_A6_D6_TX-Pad7)*%
X103250000Y-119510000D03*
%TO.P,U1,8,PB09_A7_D7_RX_8*%
%TO.N,unconnected-(U1-PB09_A7_D7_RX-Pad8)*%
X88010000Y-119510000D03*
%TO.P,U1,9,PA7_A8_D8_SCK_9*%
%TO.N,unconnected-(U1-PA7_A8_D8_SCK-Pad9)*%
X88010000Y-122050000D03*
%TO.P,U1,10,PA5_A9_D9_MISO_10*%
%TO.N,unconnected-(U1-PA5_A9_D9_MISO-Pad10)*%
X88010000Y-124590000D03*
%TO.P,U1,11,PA6_A10_D10_MOSI_11*%
%TO.N,unconnected-(U1-PA6_A10_D10_MOSI-Pad11)*%
X88010000Y-127130000D03*
%TO.P,U1,12,3v3_12*%
%TO.N,Net-(SSD1306-VCC)*%
X88010000Y-129670000D03*
%TO.P,U1,13,GND_13*%
%TO.N,GND*%
X88010000Y-132210000D03*
%TO.P,U1,14,5V_14*%
%TO.N,Net-(U1-5V)*%
X88010000Y-134750000D03*
%TD*%
%TO.N,Net-(U1-PA10_A2_D2)*%
D19*
X144264740Y-111249999D02*
X137764740Y-111249999D01*
%TD*%
%TA.AperFunction,Conductor*%
%TO.N,GND*%
G36*
X144752855Y-93000632D02*
G01*
X145113310Y-93017296D01*
X145124700Y-93018352D01*
X145479238Y-93067808D01*
X145490482Y-93069910D01*
X145838944Y-93151867D01*
X145849934Y-93154994D01*
X146189358Y-93268757D01*
X146200031Y-93272893D01*
X146527485Y-93417479D01*
X146537730Y-93422580D01*
X146745526Y-93538321D01*
X146850452Y-93596765D01*
X146860190Y-93602794D01*
X147155512Y-93805093D01*
X147164652Y-93811996D01*
X147440035Y-94040671D01*
X147448499Y-94048387D01*
X147701612Y-94301500D01*
X147709328Y-94309964D01*
X147938003Y-94585347D01*
X147944906Y-94594487D01*
X148147205Y-94889809D01*
X148153234Y-94899547D01*
X148327415Y-95212261D01*
X148332520Y-95222514D01*
X148477106Y-95549968D01*
X148481244Y-95560648D01*
X148595001Y-95900052D01*
X148598135Y-95911068D01*
X148680087Y-96259509D01*
X148682192Y-96270768D01*
X148731646Y-96625292D01*
X148732703Y-96636696D01*
X148749368Y-96997144D01*
X148749500Y-97002871D01*
X148749500Y-135997128D01*
X148749368Y-136002855D01*
X148732703Y-136363303D01*
X148731646Y-136374707D01*
X148682192Y-136729231D01*
X148680087Y-136740490D01*
X148598135Y-137088931D01*
X148595001Y-137099947D01*
X148481244Y-137439351D01*
X148477106Y-137450031D01*
X148332520Y-137777485D01*
X148327415Y-137787738D01*
X148153234Y-138100452D01*
X148147205Y-138110190D01*
X147944906Y-138405512D01*
X147938003Y-138414652D01*
X147709328Y-138690035D01*
X147701612Y-138698499D01*
X147448499Y-138951612D01*
X147440035Y-138959328D01*
X147164652Y-139188003D01*
X147155512Y-139194906D01*
X146860190Y-139397205D01*
X146850452Y-139403234D01*
X146537738Y-139577415D01*
X146527485Y-139582520D01*
X146200031Y-139727106D01*
X146189351Y-139731244D01*
X145849947Y-139845001D01*
X145838931Y-139848135D01*
X145490490Y-139930087D01*
X145479231Y-139932192D01*
X145124707Y-139981646D01*
X145113303Y-139982703D01*
X144752855Y-139999368D01*
X144747128Y-139999500D01*
X78752872Y-139999500D01*
X78747145Y-139999368D01*
X78386696Y-139982703D01*
X78375292Y-139981646D01*
X78020768Y-139932192D01*
X78009509Y-139930087D01*
X77661068Y-139848135D01*
X77650052Y-139845001D01*
X77310648Y-139731244D01*
X77299968Y-139727106D01*
X76972514Y-139582520D01*
X76962261Y-139577415D01*
X76649547Y-139403234D01*
X76639809Y-139397205D01*
X76344487Y-139194906D01*
X76335347Y-139188003D01*
X76059964Y-138959328D01*
X76051500Y-138951612D01*
X75798387Y-138698499D01*
X75790671Y-138690035D01*
X75561996Y-138414652D01*
X75555093Y-138405512D01*
X75352794Y-138110190D01*
X75346765Y-138100452D01*
X75172584Y-137787738D01*
X75167479Y-137777485D01*
X75022893Y-137450031D01*
X75018755Y-137439351D01*
X74904994Y-137099934D01*
X74901867Y-137088944D01*
X74819910Y-136740482D01*
X74817807Y-136729231D01*
X74817567Y-136727512D01*
X74768352Y-136374700D01*
X74767296Y-136363303D01*
X74765571Y-136325996D01*
X74750632Y-136002855D01*
X74750500Y-135997128D01*
X74750500Y-119407648D01*
X86709500Y-119407648D01*
X86709500Y-119612351D01*
X86741522Y-119814534D01*
X86804781Y-120009223D01*
X86897715Y-120191613D01*
X87018028Y-120357213D01*
X87162786Y-120501971D01*
X87259018Y-120571886D01*
X87328390Y-120622287D01*
X87419840Y-120668883D01*
X87421080Y-120669515D01*
X87471876Y-120717490D01*
X87488671Y-120785311D01*
X87466134Y-120851446D01*
X87421080Y-120890485D01*
X87328386Y-120937715D01*
X87162786Y-121058028D01*
X87018028Y-121202786D01*
X86897715Y-121368386D01*
X86804781Y-121550776D01*
X86741522Y-121745465D01*
X86709500Y-121947648D01*
X86709500Y-122152351D01*
X86741522Y-122354534D01*
X86804781Y-122549223D01*
X86897715Y-122731613D01*
X87018028Y-122897213D01*
X87162786Y-123041971D01*
X87317749Y-123154556D01*
X87328390Y-123162287D01*
X87419840Y-123208883D01*
X87421080Y-123209515D01*
X87471876Y-123257490D01*
X87488671Y-123325311D01*
X87466134Y-123391446D01*
X87421080Y-123430485D01*
X87328386Y-123477715D01*
X87162786Y-123598028D01*
X87018028Y-123742786D01*
X86897715Y-123908386D01*
X86804781Y-124090776D01*
X86741522Y-124285465D01*
X86709500Y-124487648D01*
X86709500Y-124692351D01*
X86741522Y-124894534D01*
X86804781Y-125089223D01*
X86897715Y-125271613D01*
X87018028Y-125437213D01*
X87162786Y-125581971D01*
X87317749Y-125694556D01*
X87328390Y-125702287D01*
X87419840Y-125748883D01*
X87421080Y-125749515D01*
X87471876Y-125797490D01*
X87488671Y-125865311D01*
X87466134Y-125931446D01*
X87421080Y-125970485D01*
X87328386Y-126017715D01*
X87162786Y-126138028D01*
X87018028Y-126282786D01*
X86897715Y-126448386D01*
X86804781Y-126630776D01*
X86741522Y-126825465D01*
X86709500Y-127027648D01*
X86709500Y-127232351D01*
X86741522Y-127434534D01*
X86804781Y-127629223D01*
X86897715Y-127811613D01*
X87018028Y-127977213D01*
X87162786Y-128121971D01*
X87317749Y-128234556D01*
X87328390Y-128242287D01*
X87419840Y-128288883D01*
X87421080Y-128289515D01*
X87471876Y-128337490D01*
X87488671Y-128405311D01*
X87466134Y-128471446D01*
X87421080Y-128510485D01*
X87328386Y-128557715D01*
X87162786Y-128678028D01*
X87018028Y-128822786D01*
X86897715Y-128988386D01*
X86804781Y-129170776D01*
X86741522Y-129365465D01*
X86709500Y-129567648D01*
X86709500Y-129772351D01*
X86741522Y-129974534D01*
X86804781Y-130169223D01*
X86897715Y-130351613D01*
X87018028Y-130517213D01*
X87162786Y-130661971D01*
X87328385Y-130782284D01*
X87328387Y-130782285D01*
X87328390Y-130782287D01*
X87382564Y-130809890D01*
X87421630Y-130829795D01*
X87472426Y-130877770D01*
X87489221Y-130945591D01*
X87466684Y-131011725D01*
X87421630Y-131050765D01*
X87328644Y-131098143D01*
X87284077Y-131130523D01*
X87284077Y-131130524D01*
X87880591Y-131727037D01*
X87817007Y-131744075D01*
X87702993Y-131809901D01*
X87609901Y-131902993D01*
X87544075Y-132017007D01*
X87527037Y-132080590D01*
X86930524Y-131484077D01*
X86930523Y-131484077D01*
X86898143Y-131528644D01*
X86805244Y-131710968D01*
X86742009Y-131905582D01*
X86710000Y-132107682D01*
X86710000Y-132312317D01*
X86742009Y-132514417D01*
X86805244Y-132709031D01*
X86898141Y-132891350D01*
X86898147Y-132891359D01*
X86930523Y-132935921D01*
X86930524Y-132935922D01*
X87527037Y-132339409D01*
X87544075Y-132402993D01*
X87609901Y-132517007D01*
X87702993Y-132610099D01*
X87817007Y-132675925D01*
X87880590Y-132692962D01*
X87284076Y-133289474D01*
X87328652Y-133321861D01*
X87421628Y-133369234D01*
X87472425Y-133417208D01*
X87489220Y-133485029D01*
X87466683Y-133551164D01*
X87421630Y-133590203D01*
X87328388Y-133637713D01*
X87162786Y-133758028D01*
X87018028Y-133902786D01*
X86897715Y-134068386D01*
X86804781Y-134250776D01*
X86741522Y-134445465D01*
X86709500Y-134647648D01*
X86709500Y-134852351D01*
X86741522Y-135054534D01*
X86804781Y-135249223D01*
X86868691Y-135374653D01*
X86880909Y-135398631D01*
X86897715Y-135431613D01*
X87018028Y-135597213D01*
X87162786Y-135741971D01*
X87317749Y-135854556D01*
X87328390Y-135862287D01*
X87417212Y-135907544D01*
X87510776Y-135955218D01*
X87510778Y-135955218D01*
X87510781Y-135955220D01*
X87615137Y-135989127D01*
X87705465Y-136018477D01*
X87806557Y-136034488D01*
X87907648Y-136050500D01*
X87907649Y-136050500D01*
X88112351Y-136050500D01*
X88112352Y-136050500D01*
X88314534Y-136018477D01*
X88509219Y-135955220D01*
X88691610Y-135862287D01*
X88787901Y-135792328D01*
X88857213Y-135741971D01*
X88857215Y-135741968D01*
X88857219Y-135741966D01*
X89001966Y-135597219D01*
X89001968Y-135597215D01*
X89001971Y-135597213D01*
X89054732Y-135524590D01*
X89122287Y-135431610D01*
X89215220Y-135249219D01*
X89278477Y-135054534D01*
X89310500Y-134852352D01*
X89310500Y-134647648D01*
X89303822Y-134605483D01*
X89278477Y-134445465D01*
X89249127Y-134355137D01*
X89215220Y-134250781D01*
X89215218Y-134250778D01*
X89215218Y-134250776D01*
X89181503Y-134184607D01*
X89122287Y-134068390D01*
X89114556Y-134057749D01*
X89001971Y-133902786D01*
X88857213Y-133758028D01*
X88691611Y-133637713D01*
X88598369Y-133590203D01*
X88547574Y-133542229D01*
X88530779Y-133474407D01*
X88553317Y-133408273D01*
X88598371Y-133369234D01*
X88691346Y-133321861D01*
X88691347Y-133321861D01*
X88735921Y-133289474D01*
X88139409Y-132692962D01*
X88202993Y-132675925D01*
X88317007Y-132610099D01*
X88410099Y-132517007D01*
X88475925Y-132402993D01*
X88492962Y-132339409D01*
X89089474Y-132935921D01*
X89121859Y-132891349D01*
X89214755Y-132709031D01*
X89277990Y-132514417D01*
X89310000Y-132312317D01*
X89310000Y-132107682D01*
X89277990Y-131905582D01*
X89214755Y-131710968D01*
X89121859Y-131528650D01*
X89089474Y-131484077D01*
X89089474Y-131484076D01*
X88492962Y-132080589D01*
X88475925Y-132017007D01*
X88410099Y-131902993D01*
X88317007Y-131809901D01*
X88202993Y-131744075D01*
X88139408Y-131727037D01*
X88735922Y-131130524D01*
X88735921Y-131130523D01*
X88691359Y-131098147D01*
X88691350Y-131098141D01*
X88598369Y-131050765D01*
X88547573Y-131002790D01*
X88530778Y-130934969D01*
X88553315Y-130868835D01*
X88598370Y-130829795D01*
X88598920Y-130829515D01*
X88691610Y-130782287D01*
X88753279Y-130737482D01*
X88857213Y-130661971D01*
X88857215Y-130661968D01*
X88857219Y-130661966D01*
X89001966Y-130517219D01*
X89001968Y-130517215D01*
X89001971Y-130517213D01*
X89101011Y-130380894D01*
X89122287Y-130351610D01*
X89215220Y-130169219D01*
X89278477Y-129974534D01*
X89310500Y-129772352D01*
X89310500Y-129567648D01*
X89278477Y-129365466D01*
X89215220Y-129170781D01*
X89215218Y-129170778D01*
X89215218Y-129170776D01*
X89181503Y-129104607D01*
X89122287Y-128988390D01*
X89114556Y-128977749D01*
X89001971Y-128822786D01*
X88857213Y-128678028D01*
X88691614Y-128557715D01*
X88685006Y-128554348D01*
X88598917Y-128510483D01*
X88548123Y-128462511D01*
X88531328Y-128394690D01*
X88553865Y-128328555D01*
X88598917Y-128289516D01*
X88691610Y-128242287D01*
X88712770Y-128226913D01*
X88857213Y-128121971D01*
X88857215Y-128121968D01*
X88857219Y-128121966D01*
X89001966Y-127977219D01*
X89001968Y-127977215D01*
X89001971Y-127977213D01*
X89054732Y-127904590D01*
X89122287Y-127811610D01*
X89215220Y-127629219D01*
X89278477Y-127434534D01*
X89310500Y-127232352D01*
X89310500Y-127027648D01*
X89278477Y-126825466D01*
X89215220Y-126630781D01*
X89215218Y-126630778D01*
X89215218Y-126630776D01*
X89181503Y-126564607D01*
X89122287Y-126448390D01*
X89114556Y-126437749D01*
X89001971Y-126282786D01*
X88857213Y-126138028D01*
X88691614Y-126017715D01*
X88685006Y-126014348D01*
X88598917Y-125970483D01*
X88548123Y-125922511D01*
X88531328Y-125854690D01*
X88553865Y-125788555D01*
X88598917Y-125749516D01*
X88691610Y-125702287D01*
X88712770Y-125686913D01*
X88857213Y-125581971D01*
X88857215Y-125581968D01*
X88857219Y-125581966D01*
X89001966Y-125437219D01*
X89001968Y-125437215D01*
X89001971Y-125437213D01*
X89054732Y-125364590D01*
X89122287Y-125271610D01*
X89215220Y-125089219D01*
X89278477Y-124894534D01*
X89310500Y-124692352D01*
X89310500Y-124487648D01*
X89278477Y-124285466D01*
X89215220Y-124090781D01*
X89215218Y-124090778D01*
X89215218Y-124090776D01*
X89181503Y-124024607D01*
X89122287Y-123908390D01*
X89103047Y-123881908D01*
X89001971Y-123742786D01*
X88857213Y-123598028D01*
X88691614Y-123477715D01*
X88685006Y-123474348D01*
X88598917Y-123430483D01*
X88548123Y-123382511D01*
X88531328Y-123314690D01*
X88553865Y-123248555D01*
X88598917Y-123209516D01*
X88691610Y-123162287D01*
X88712770Y-123146913D01*
X88857213Y-123041971D01*
X88857215Y-123041968D01*
X88857219Y-123041966D01*
X89001966Y-122897219D01*
X89001968Y-122897215D01*
X89001971Y-122897213D01*
X89054732Y-122824590D01*
X89122287Y-122731610D01*
X89215220Y-122549219D01*
X89278477Y-122354534D01*
X89310500Y-122152352D01*
X89310500Y-121947648D01*
X89278477Y-121745466D01*
X89215220Y-121550781D01*
X89215218Y-121550778D01*
X89215218Y-121550776D01*
X89181503Y-121484607D01*
X89122287Y-121368390D01*
X89114556Y-121357749D01*
X89001971Y-121202786D01*
X88857213Y-121058028D01*
X88691614Y-120937715D01*
X88685006Y-120934348D01*
X88598917Y-120890483D01*
X88548123Y-120842511D01*
X88531328Y-120774690D01*
X88553865Y-120708555D01*
X88598917Y-120669516D01*
X88691610Y-120622287D01*
X88760982Y-120571886D01*
X88857213Y-120501971D01*
X88857215Y-120501968D01*
X88857219Y-120501966D01*
X89001966Y-120357219D01*
X89001968Y-120357215D01*
X89001971Y-120357213D01*
X89054732Y-120284590D01*
X89122287Y-120191610D01*
X89215220Y-120009219D01*
X89278477Y-119814534D01*
X89310500Y-119612352D01*
X89310500Y-119407648D01*
X101949500Y-119407648D01*
X101949500Y-119612351D01*
X101981522Y-119814534D01*
X102044781Y-120009223D01*
X102137715Y-120191613D01*
X102258028Y-120357213D01*
X102402786Y-120501971D01*
X102499018Y-120571886D01*
X102568390Y-120622287D01*
X102659840Y-120668883D01*
X102661080Y-120669515D01*
X102711876Y-120717490D01*
X102728671Y-120785311D01*
X102706134Y-120851446D01*
X102661080Y-120890485D01*
X102568386Y-120937715D01*
X102402786Y-121058028D01*
X102258028Y-121202786D01*
X102137715Y-121368386D01*
X102044781Y-121550776D01*
X101981522Y-121745465D01*
X101949500Y-121947648D01*
X101949500Y-122152351D01*
X101981522Y-122354534D01*
X102044781Y-122549223D01*
X102137715Y-122731613D01*
X102258028Y-122897213D01*
X102402786Y-123041971D01*
X102557749Y-123154556D01*
X102568390Y-123162287D01*
X102659840Y-123208883D01*
X102661080Y-123209515D01*
X102711876Y-123257490D01*
X102728671Y-123325311D01*
X102706134Y-123391446D01*
X102661080Y-123430485D01*
X102568386Y-123477715D01*
X102402786Y-123598028D01*
X102258028Y-123742786D01*
X102137715Y-123908386D01*
X102044781Y-124090776D01*
X101981522Y-124285465D01*
X101949500Y-124487648D01*
X101949500Y-124692351D01*
X101981522Y-124894534D01*
X102044781Y-125089223D01*
X102137715Y-125271613D01*
X102258028Y-125437213D01*
X102402786Y-125581971D01*
X102557749Y-125694556D01*
X102568390Y-125702287D01*
X102659840Y-125748883D01*
X102661080Y-125749515D01*
X102711876Y-125797490D01*
X102728671Y-125865311D01*
X102706134Y-125931446D01*
X102661080Y-125970485D01*
X102568386Y-126017715D01*
X102402786Y-126138028D01*
X102258028Y-126282786D01*
X102137715Y-126448386D01*
X102044781Y-126630776D01*
X101981522Y-126825465D01*
X101949500Y-127027648D01*
X101949500Y-127232351D01*
X101981522Y-127434534D01*
X102044781Y-127629223D01*
X102137715Y-127811613D01*
X102258028Y-127977213D01*
X102402786Y-128121971D01*
X102557749Y-128234556D01*
X102568390Y-128242287D01*
X102659840Y-128288883D01*
X102661080Y-128289515D01*
X102711876Y-128337490D01*
X102728671Y-128405311D01*
X102706134Y-128471446D01*
X102661080Y-128510485D01*
X102568386Y-128557715D01*
X102402786Y-128678028D01*
X102258028Y-128822786D01*
X102137715Y-128988386D01*
X102044781Y-129170776D01*
X101981522Y-129365465D01*
X101949500Y-129567648D01*
X101949500Y-129772351D01*
X101981522Y-129974534D01*
X102044781Y-130169223D01*
X102137715Y-130351613D01*
X102258028Y-130517213D01*
X102402786Y-130661971D01*
X102557749Y-130774556D01*
X102568390Y-130782287D01*
X102659840Y-130828883D01*
X102661080Y-130829515D01*
X102711876Y-130877490D01*
X102728671Y-130945311D01*
X102706134Y-131011446D01*
X102661080Y-131050485D01*
X102568386Y-131097715D01*
X102402786Y-131218028D01*
X102258028Y-131362786D01*
X102137715Y-131528386D01*
X102044781Y-131710776D01*
X101981522Y-131905465D01*
X101949500Y-132107648D01*
X101949500Y-132312351D01*
X101981522Y-132514534D01*
X102044781Y-132709223D01*
X102108691Y-132834653D01*
X102137585Y-132891359D01*
X102137715Y-132891613D01*
X102258028Y-133057213D01*
X102402784Y-133201969D01*
X102439068Y-133228330D01*
X102481735Y-133283659D01*
X102487715Y-133353273D01*
X102455109Y-133415068D01*
X102394271Y-133449426D01*
X102379440Y-133451938D01*
X102342519Y-133455907D01*
X102207671Y-133506202D01*
X102207664Y-133506206D01*
X102092455Y-133592452D01*
X102092452Y-133592455D01*
X102006206Y-133707664D01*
X102006202Y-133707671D01*
X101955908Y-133842517D01*
X101949501Y-133902116D01*
X101949501Y-133902123D01*
X101949500Y-133902135D01*
X101949500Y-135597870D01*
X101949501Y-135597876D01*
X101955908Y-135657483D01*
X102006202Y-135792328D01*
X102006206Y-135792335D01*
X102092452Y-135907544D01*
X102092455Y-135907547D01*
X102207664Y-135993793D01*
X102207671Y-135993797D01*
X102342517Y-136044091D01*
X102342516Y-136044091D01*
X102349444Y-136044835D01*
X102402127Y-136050500D01*
X104097872Y-136050499D01*
X104157483Y-136044091D01*
X104292331Y-135993796D01*
X104407546Y-135907546D01*
X104493796Y-135792331D01*
X104544091Y-135657483D01*
X104546841Y-135631902D01*
X115249500Y-135631902D01*
X115249500Y-135868097D01*
X115286446Y-136101368D01*
X115359433Y-136325996D01*
X115466657Y-136536433D01*
X115605483Y-136727510D01*
X115772490Y-136894517D01*
X115963567Y-137033343D01*
X116062991Y-137084002D01*
X116174003Y-137140566D01*
X116174005Y-137140566D01*
X116174008Y-137140568D01*
X116294412Y-137179689D01*
X116398631Y-137213553D01*
X116631903Y-137250500D01*
X116631908Y-137250500D01*
X116868097Y-137250500D01*
X117101368Y-137213553D01*
X117325992Y-137140568D01*
X117536433Y-137033343D01*
X117727510Y-136894517D01*
X117894517Y-136727510D01*
X118033343Y-136536433D01*
X118140568Y-136325992D01*
X118213553Y-136101368D01*
X118229608Y-136000000D01*
X118250500Y-135868097D01*
X118250500Y-135631902D01*
X121749500Y-135631902D01*
X121749500Y-135868097D01*
X121786446Y-136101368D01*
X121859433Y-136325996D01*
X121966657Y-136536433D01*
X122105483Y-136727510D01*
X122272490Y-136894517D01*
X122463567Y-137033343D01*
X122562991Y-137084002D01*
X122674003Y-137140566D01*
X122674005Y-137140566D01*
X122674008Y-137140568D01*
X122794412Y-137179689D01*
X122898631Y-137213553D01*
X123131903Y-137250500D01*
X123131908Y-137250500D01*
X123368097Y-137250500D01*
X123601368Y-137213553D01*
X123825992Y-137140568D01*
X124036433Y-137033343D01*
X124227510Y-136894517D01*
X124394517Y-136727510D01*
X124533343Y-136536433D01*
X124640568Y-136325992D01*
X124713553Y-136101368D01*
X124729608Y-136000000D01*
X124750500Y-135868097D01*
X124750500Y-135631902D01*
X124713553Y-135398631D01*
X124665007Y-135249223D01*
X124640568Y-135174008D01*
X124640566Y-135174005D01*
X124640566Y-135174003D01*
X124533342Y-134963566D01*
X124394517Y-134772490D01*
X124227510Y-134605483D01*
X124036433Y-134466657D01*
X123825996Y-134359433D01*
X123601368Y-134286446D01*
X123368097Y-134249500D01*
X123368092Y-134249500D01*
X123131908Y-134249500D01*
X123131903Y-134249500D01*
X122898631Y-134286446D01*
X122674003Y-134359433D01*
X122463566Y-134466657D01*
X122354550Y-134545862D01*
X122272490Y-134605483D01*
X122272488Y-134605485D01*
X122272487Y-134605485D01*
X122105485Y-134772487D01*
X122105485Y-134772488D01*
X122105483Y-134772490D01*
X122047460Y-134852351D01*
X121966657Y-134963566D01*
X121859433Y-135174003D01*
X121786446Y-135398631D01*
X121749500Y-135631902D01*
X118250500Y-135631902D01*
X118213553Y-135398631D01*
X118165007Y-135249223D01*
X118140568Y-135174008D01*
X118140566Y-135174005D01*
X118140566Y-135174003D01*
X118033342Y-134963566D01*
X117894517Y-134772490D01*
X117727510Y-134605483D01*
X117536433Y-134466657D01*
X117325996Y-134359433D01*
X117101368Y-134286446D01*
X116868097Y-134249500D01*
X116868092Y-134249500D01*
X116631908Y-134249500D01*
X116631903Y-134249500D01*
X116398631Y-134286446D01*
X116174003Y-134359433D01*
X115963566Y-134466657D01*
X115854550Y-134545862D01*
X115772490Y-134605483D01*
X115772488Y-134605485D01*
X115772487Y-134605485D01*
X115605485Y-134772487D01*
X115605485Y-134772488D01*
X115605483Y-134772490D01*
X115547460Y-134852351D01*
X115466657Y-134963566D01*
X115359433Y-135174003D01*
X115286446Y-135398631D01*
X115249500Y-135631902D01*
X104546841Y-135631902D01*
X104550500Y-135597873D01*
X104550499Y-133902128D01*
X104544091Y-133842517D01*
X104493796Y-133707669D01*
X104493795Y-133707668D01*
X104493793Y-133707664D01*
X104407547Y-133592455D01*
X104407544Y-133592452D01*
X104292335Y-133506206D01*
X104292328Y-133506202D01*
X104157482Y-133455908D01*
X104157483Y-133455908D01*
X104120560Y-133451939D01*
X104056009Y-133425201D01*
X104016160Y-133367809D01*
X104013667Y-133297984D01*
X104049319Y-133237895D01*
X104060930Y-133228331D01*
X104097219Y-133201966D01*
X104241966Y-133057219D01*
X104241968Y-133057215D01*
X104241971Y-133057213D01*
X104294732Y-132984590D01*
X104362287Y-132891610D01*
X104455220Y-132709219D01*
X104518477Y-132514534D01*
X104550500Y-132312352D01*
X104550500Y-132107648D01*
X104518477Y-131905465D01*
X104466038Y-131744075D01*
X104455220Y-131710781D01*
X104455218Y-131710778D01*
X104455218Y-131710776D01*
X104400585Y-131603554D01*
X104362287Y-131528390D01*
X104330092Y-131484077D01*
X104241971Y-131362786D01*
X104097213Y-131218028D01*
X103978731Y-131131947D01*
X115250000Y-131131947D01*
X115250000Y-131368052D01*
X115286934Y-131601247D01*
X115359897Y-131825802D01*
X115467087Y-132036174D01*
X115527338Y-132119104D01*
X115527340Y-132119105D01*
X116226212Y-131420233D01*
X116237482Y-131462292D01*
X116309890Y-131587708D01*
X116412292Y-131690110D01*
X116537708Y-131762518D01*
X116579765Y-131773787D01*
X115880893Y-132472658D01*
X115963828Y-132532914D01*
X116174197Y-132640102D01*
X116398752Y-132713065D01*
X116398751Y-132713065D01*
X116631948Y-132750000D01*
X116868052Y-132750000D01*
X117101247Y-132713065D01*
X117325802Y-132640102D01*
X117536163Y-132532918D01*
X117536169Y-132532914D01*
X117619104Y-132472658D01*
X117619105Y-132472658D01*
X116920233Y-131773787D01*
X116962292Y-131762518D01*
X117087708Y-131690110D01*
X117190110Y-131587708D01*
X117262518Y-131462292D01*
X117273787Y-131420234D01*
X117972658Y-132119105D01*
X117972658Y-132119104D01*
X118032914Y-132036169D01*
X118032918Y-132036163D01*
X118140102Y-131825802D01*
X118213065Y-131601247D01*
X118250000Y-131368052D01*
X118250000Y-131131947D01*
X121750000Y-131131947D01*
X121750000Y-131368052D01*
X121786934Y-131601247D01*
X121859897Y-131825802D01*
X121967087Y-132036174D01*
X122027338Y-132119104D01*
X122027340Y-132119105D01*
X122726212Y-131420233D01*
X122737482Y-131462292D01*
X122809890Y-131587708D01*
X122912292Y-131690110D01*
X123037708Y-131762518D01*
X123079765Y-131773787D01*
X122380893Y-132472658D01*
X122463828Y-132532914D01*
X122674197Y-132640102D01*
X122898752Y-132713065D01*
X122898751Y-132713065D01*
X123131948Y-132750000D01*
X123368052Y-132750000D01*
X123601247Y-132713065D01*
X123825802Y-132640102D01*
X124036163Y-132532918D01*
X124036169Y-132532914D01*
X124119104Y-132472658D01*
X124119105Y-132472658D01*
X123420233Y-131773787D01*
X123462292Y-131762518D01*
X123587708Y-131690110D01*
X123690110Y-131587708D01*
X123762518Y-131462292D01*
X123773787Y-131420234D01*
X124472658Y-132119105D01*
X124472658Y-132119104D01*
X124532914Y-132036169D01*
X124532918Y-132036163D01*
X124640102Y-131825802D01*
X124713065Y-131601247D01*
X124750000Y-131368052D01*
X124750000Y-131131947D01*
X124713065Y-130898752D01*
X124640102Y-130674197D01*
X124532914Y-130463828D01*
X124472658Y-130380894D01*
X124472658Y-130380893D01*
X123773787Y-131079765D01*
X123762518Y-131037708D01*
X123690110Y-130912292D01*
X123587708Y-130809890D01*
X123462292Y-130737482D01*
X123420234Y-130726212D01*
X124119105Y-130027340D01*
X124119104Y-130027338D01*
X124036174Y-129967087D01*
X123825802Y-129859897D01*
X123601247Y-129786934D01*
X123601248Y-129786934D01*
X123368052Y-129750000D01*
X123131948Y-129750000D01*
X122898752Y-129786934D01*
X122674197Y-129859897D01*
X122463830Y-129967084D01*
X122380894Y-130027340D01*
X123079766Y-130726212D01*
X123037708Y-130737482D01*
X122912292Y-130809890D01*
X122809890Y-130912292D01*
X122737482Y-131037708D01*
X122726212Y-131079766D01*
X122027340Y-130380894D01*
X121967084Y-130463830D01*
X121859897Y-130674197D01*
X121786934Y-130898752D01*
X121750000Y-131131947D01*
X118250000Y-131131947D01*
X118213065Y-130898752D01*
X118140102Y-130674197D01*
X118032914Y-130463828D01*
X117972658Y-130380894D01*
X117972658Y-130380893D01*
X117273787Y-131079765D01*
X117262518Y-131037708D01*
X117190110Y-130912292D01*
X117087708Y-130809890D01*
X116962292Y-130737482D01*
X116920234Y-130726212D01*
X117619105Y-130027340D01*
X117619104Y-130027339D01*
X117536174Y-129967087D01*
X117325802Y-129859897D01*
X117101247Y-129786934D01*
X117101248Y-129786934D01*
X116868052Y-129750000D01*
X116631948Y-129750000D01*
X116398752Y-129786934D01*
X116174197Y-129859897D01*
X115963830Y-129967084D01*
X115880894Y-130027340D01*
X116579766Y-130726212D01*
X116537708Y-130737482D01*
X116412292Y-130809890D01*
X116309890Y-130912292D01*
X116237482Y-131037708D01*
X116226212Y-131079766D01*
X115527340Y-130380894D01*
X115467084Y-130463830D01*
X115359897Y-130674197D01*
X115286934Y-130898752D01*
X115250000Y-131131947D01*
X103978731Y-131131947D01*
X103931614Y-131097715D01*
X103925006Y-131094348D01*
X103838917Y-131050483D01*
X103788123Y-131002511D01*
X103771328Y-130934690D01*
X103793865Y-130868555D01*
X103838917Y-130829516D01*
X103931610Y-130782287D01*
X103952770Y-130766913D01*
X104097213Y-130661971D01*
X104097215Y-130661968D01*
X104097219Y-130661966D01*
X104241966Y-130517219D01*
X104241968Y-130517215D01*
X104241971Y-130517213D01*
X104341011Y-130380894D01*
X104362287Y-130351610D01*
X104455220Y-130169219D01*
X104518477Y-129974534D01*
X104550500Y-129772352D01*
X104550500Y-129567648D01*
X104518477Y-129365466D01*
X104455220Y-129170781D01*
X104455218Y-129170778D01*
X104455218Y-129170776D01*
X104421503Y-129104607D01*
X104362287Y-128988390D01*
X104354556Y-128977749D01*
X104241971Y-128822786D01*
X104097213Y-128678028D01*
X103931614Y-128557715D01*
X103925006Y-128554348D01*
X103838917Y-128510483D01*
X103788123Y-128462511D01*
X103771328Y-128394690D01*
X103793865Y-128328555D01*
X103838917Y-128289516D01*
X103931610Y-128242287D01*
X103952770Y-128226913D01*
X104097213Y-128121971D01*
X104097215Y-128121968D01*
X104097219Y-128121966D01*
X104241966Y-127977219D01*
X104241968Y-127977215D01*
X104241971Y-127977213D01*
X104294732Y-127904590D01*
X104362287Y-127811610D01*
X104455220Y-127629219D01*
X104518477Y-127434534D01*
X104550500Y-127232352D01*
X104550500Y-127027648D01*
X104518477Y-126825466D01*
X104455220Y-126630781D01*
X104455218Y-126630778D01*
X104455218Y-126630776D01*
X104421503Y-126564607D01*
X104362287Y-126448390D01*
X104354556Y-126437749D01*
X104241971Y-126282786D01*
X104097213Y-126138028D01*
X103931614Y-126017715D01*
X103925006Y-126014348D01*
X103838917Y-125970483D01*
X103788123Y-125922511D01*
X103771328Y-125854690D01*
X103793865Y-125788555D01*
X103838917Y-125749516D01*
X103931610Y-125702287D01*
X103952770Y-125686913D01*
X104097213Y-125581971D01*
X104097215Y-125581968D01*
X104097219Y-125581966D01*
X104241966Y-125437219D01*
X104241968Y-125437215D01*
X104241971Y-125437213D01*
X104294732Y-125364590D01*
X104362287Y-125271610D01*
X104455220Y-125089219D01*
X104518477Y-124894534D01*
X104550500Y-124692352D01*
X104550500Y-124487648D01*
X104518477Y-124285466D01*
X104455220Y-124090781D01*
X104455218Y-124090778D01*
X104455218Y-124090776D01*
X104374995Y-123933331D01*
X104362287Y-123908390D01*
X104343047Y-123881908D01*
X104343043Y-123881902D01*
X136249500Y-123881902D01*
X136249500Y-124118097D01*
X136286446Y-124351368D01*
X136359433Y-124575996D01*
X136418720Y-124692352D01*
X136466657Y-124786433D01*
X136605483Y-124977510D01*
X136772490Y-125144517D01*
X136963567Y-125283343D01*
X137062991Y-125334002D01*
X137174003Y-125390566D01*
X137174005Y-125390566D01*
X137174008Y-125390568D01*
X137294412Y-125429689D01*
X137398631Y-125463553D01*
X137631903Y-125500500D01*
X137631908Y-125500500D01*
X137868097Y-125500500D01*
X138101368Y-125463553D01*
X138182415Y-125437219D01*
X138325992Y-125390568D01*
X138536433Y-125283343D01*
X138727510Y-125144517D01*
X138894517Y-124977510D01*
X139033343Y-124786433D01*
X139140568Y-124575992D01*
X139213553Y-124351368D01*
X139223991Y-124285465D01*
X139250500Y-124118097D01*
X139250500Y-123881902D01*
X142749500Y-123881902D01*
X142749500Y-124118097D01*
X142786446Y-124351368D01*
X142859433Y-124575996D01*
X142918720Y-124692352D01*
X142966657Y-124786433D01*
X143105483Y-124977510D01*
X143272490Y-125144517D01*
X143463567Y-125283343D01*
X143562991Y-125334002D01*
X143674003Y-125390566D01*
X143674005Y-125390566D01*
X143674008Y-125390568D01*
X143794412Y-125429689D01*
X143898631Y-125463553D01*
X144131903Y-125500500D01*
X144131908Y-125500500D01*
X144368097Y-125500500D01*
X144601368Y-125463553D01*
X144682415Y-125437219D01*
X144825992Y-125390568D01*
X145036433Y-125283343D01*
X145227510Y-125144517D01*
X145394517Y-124977510D01*
X145533343Y-124786433D01*
X145640568Y-124575992D01*
X145713553Y-124351368D01*
X145723991Y-124285465D01*
X145750500Y-124118097D01*
X145750500Y-123881902D01*
X145713553Y-123648631D01*
X145679689Y-123544412D01*
X145640568Y-123424008D01*
X145640566Y-123424005D01*
X145640566Y-123424003D01*
X145533342Y-123213566D01*
X145530399Y-123209515D01*
X145394517Y-123022490D01*
X145227510Y-122855483D01*
X145036433Y-122716657D01*
X144825996Y-122609433D01*
X144601368Y-122536446D01*
X144368097Y-122499500D01*
X144368092Y-122499500D01*
X144131908Y-122499500D01*
X144131903Y-122499500D01*
X143898631Y-122536446D01*
X143674003Y-122609433D01*
X143463566Y-122716657D01*
X143354550Y-122795862D01*
X143272490Y-122855483D01*
X143272488Y-122855485D01*
X143272487Y-122855485D01*
X143105485Y-123022487D01*
X143105485Y-123022488D01*
X143105483Y-123022490D01*
X143045862Y-123104550D01*
X142966657Y-123213566D01*
X142859433Y-123424003D01*
X142786446Y-123648631D01*
X142749500Y-123881902D01*
X139250500Y-123881902D01*
X139213553Y-123648631D01*
X139179689Y-123544412D01*
X139140568Y-123424008D01*
X139140566Y-123424005D01*
X139140566Y-123424003D01*
X139033342Y-123213566D01*
X139030399Y-123209515D01*
X138894517Y-123022490D01*
X138727510Y-122855483D01*
X138536433Y-122716657D01*
X138325996Y-122609433D01*
X138101368Y-122536446D01*
X137868097Y-122499500D01*
X137868092Y-122499500D01*
X137631908Y-122499500D01*
X137631903Y-122499500D01*
X137398631Y-122536446D01*
X137174003Y-122609433D01*
X136963566Y-122716657D01*
X136854550Y-122795862D01*
X136772490Y-122855483D01*
X136772488Y-122855485D01*
X136772487Y-122855485D01*
X136605485Y-123022487D01*
X136605485Y-123022488D01*
X136605483Y-123022490D01*
X136545862Y-123104550D01*
X136466657Y-123213566D01*
X136359433Y-123424003D01*
X136286446Y-123648631D01*
X136249500Y-123881902D01*
X104343043Y-123881902D01*
X104241971Y-123742786D01*
X104097213Y-123598028D01*
X103931614Y-123477715D01*
X103925006Y-123474348D01*
X103838917Y-123430483D01*
X103788123Y-123382511D01*
X103771328Y-123314690D01*
X103793865Y-123248555D01*
X103838917Y-123209516D01*
X103931610Y-123162287D01*
X103952770Y-123146913D01*
X104097213Y-123041971D01*
X104097215Y-123041968D01*
X104097219Y-123041966D01*
X104241966Y-122897219D01*
X104241968Y-122897215D01*
X104241971Y-122897213D01*
X104294732Y-122824590D01*
X104362287Y-122731610D01*
X104455220Y-122549219D01*
X104518477Y-122354534D01*
X104550500Y-122152352D01*
X104550500Y-121947648D01*
X104518477Y-121745466D01*
X104455220Y-121550781D01*
X104455218Y-121550778D01*
X104455218Y-121550776D01*
X104421503Y-121484607D01*
X104362287Y-121368390D01*
X104354556Y-121357749D01*
X104241971Y-121202786D01*
X104097213Y-121058028D01*
X103931614Y-120937715D01*
X103925006Y-120934348D01*
X103838917Y-120890483D01*
X103832893Y-120884794D01*
X103825016Y-120882217D01*
X103807867Y-120861158D01*
X103788123Y-120842511D01*
X103786130Y-120834466D01*
X103780897Y-120828039D01*
X103777855Y-120801049D01*
X103771328Y-120774690D01*
X103774001Y-120766845D01*
X103773073Y-120758609D01*
X103785104Y-120734262D01*
X103793865Y-120708555D01*
X103801156Y-120701779D01*
X103804028Y-120695970D01*
X103822409Y-120682032D01*
X103831395Y-120673684D01*
X103835084Y-120671469D01*
X103931610Y-120622287D01*
X104097219Y-120501966D01*
X104241966Y-120357219D01*
X104241968Y-120357215D01*
X104241971Y-120357213D01*
X104294732Y-120284590D01*
X104362287Y-120191610D01*
X104455220Y-120009219D01*
X104518477Y-119814534D01*
X104550500Y-119612352D01*
X104550500Y-119407648D01*
X104546429Y-119381947D01*
X136250000Y-119381947D01*
X136250000Y-119618052D01*
X136286934Y-119851247D01*
X136359897Y-120075802D01*
X136467087Y-120286174D01*
X136527338Y-120369104D01*
X136527340Y-120369105D01*
X137226212Y-119670233D01*
X137237482Y-119712292D01*
X137309890Y-119837708D01*
X137412292Y-119940110D01*
X137537708Y-120012518D01*
X137579765Y-120023787D01*
X136880893Y-120722658D01*
X136963828Y-120782914D01*
X137174197Y-120890102D01*
X137398752Y-120963065D01*
X137398751Y-120963065D01*
X137631948Y-121000000D01*
X137868052Y-121000000D01*
X138101247Y-120963065D01*
X138325802Y-120890102D01*
X138536163Y-120782918D01*
X138536169Y-120782914D01*
X138619104Y-120722658D01*
X138619105Y-120722658D01*
X137920233Y-120023787D01*
X137962292Y-120012518D01*
X138087708Y-119940110D01*
X138190110Y-119837708D01*
X138262518Y-119712292D01*
X138273787Y-119670234D01*
X138972658Y-120369105D01*
X138972658Y-120369104D01*
X139032914Y-120286169D01*
X139032918Y-120286163D01*
X139140102Y-120075802D01*
X139213065Y-119851247D01*
X139250000Y-119618052D01*
X139250000Y-119381947D01*
X142750000Y-119381947D01*
X142750000Y-119618052D01*
X142786934Y-119851247D01*
X142859897Y-120075802D01*
X142967087Y-120286174D01*
X143027338Y-120369104D01*
X143027340Y-120369105D01*
X143726212Y-119670233D01*
X143737482Y-119712292D01*
X143809890Y-119837708D01*
X143912292Y-119940110D01*
X144037708Y-120012518D01*
X144079765Y-120023787D01*
X143380893Y-120722658D01*
X143463828Y-120782914D01*
X143674197Y-120890102D01*
X143898752Y-120963065D01*
X143898751Y-120963065D01*
X144131948Y-121000000D01*
X144368052Y-121000000D01*
X144601247Y-120963065D01*
X144825802Y-120890102D01*
X145036163Y-120782918D01*
X145036169Y-120782914D01*
X145119104Y-120722658D01*
X145119105Y-120722658D01*
X144420233Y-120023787D01*
X144462292Y-120012518D01*
X144587708Y-119940110D01*
X144690110Y-119837708D01*
X144762518Y-119712292D01*
X144773787Y-119670234D01*
X145472658Y-120369105D01*
X145472658Y-120369104D01*
X145532914Y-120286169D01*
X145532918Y-120286163D01*
X145640102Y-120075802D01*
X145713065Y-119851247D01*
X145750000Y-119618052D01*
X145750000Y-119381947D01*
X145713065Y-119148752D01*
X145640102Y-118924197D01*
X145532914Y-118713828D01*
X145472658Y-118630894D01*
X145472658Y-118630893D01*
X144773787Y-119329765D01*
X144762518Y-119287708D01*
X144690110Y-119162292D01*
X144587708Y-119059890D01*
X144462292Y-118987482D01*
X144420234Y-118976212D01*
X145119105Y-118277340D01*
X145119104Y-118277338D01*
X145036174Y-118217087D01*
X144825802Y-118109897D01*
X144601247Y-118036934D01*
X144601248Y-118036934D01*
X144368052Y-118000000D01*
X144131948Y-118000000D01*
X143898752Y-118036934D01*
X143674197Y-118109897D01*
X143463830Y-118217084D01*
X143380894Y-118277340D01*
X144079766Y-118976212D01*
X144037708Y-118987482D01*
X143912292Y-119059890D01*
X143809890Y-119162292D01*
X143737482Y-119287708D01*
X143726212Y-119329766D01*
X143027340Y-118630894D01*
X142967084Y-118713830D01*
X142859897Y-118924197D01*
X142786934Y-119148752D01*
X142750000Y-119381947D01*
X139250000Y-119381947D01*
X139213065Y-119148752D01*
X139140102Y-118924197D01*
X139032914Y-118713828D01*
X138972658Y-118630894D01*
X138972658Y-118630893D01*
X138273787Y-119329765D01*
X138262518Y-119287708D01*
X138190110Y-119162292D01*
X138087708Y-119059890D01*
X137962292Y-118987482D01*
X137920234Y-118976212D01*
X138619105Y-118277340D01*
X138619104Y-118277339D01*
X138536174Y-118217087D01*
X138325802Y-118109897D01*
X138101247Y-118036934D01*
X138101248Y-118036934D01*
X137868052Y-118000000D01*
X137631948Y-118000000D01*
X137398752Y-118036934D01*
X137174197Y-118109897D01*
X136963830Y-118217084D01*
X136880894Y-118277340D01*
X137579766Y-118976212D01*
X137537708Y-118987482D01*
X137412292Y-119059890D01*
X137309890Y-119162292D01*
X137237482Y-119287708D01*
X137226212Y-119329766D01*
X136527340Y-118630894D01*
X136467084Y-118713830D01*
X136359897Y-118924197D01*
X136286934Y-119148752D01*
X136250000Y-119381947D01*
X104546429Y-119381947D01*
X104518477Y-119205466D01*
X104455220Y-119010781D01*
X104455218Y-119010778D01*
X104455218Y-119010776D01*
X104411103Y-118924197D01*
X104362287Y-118828390D01*
X104354556Y-118817749D01*
X104241971Y-118662786D01*
X104097219Y-118518034D01*
X104097211Y-118518028D01*
X103969053Y-118424916D01*
X103969052Y-118424915D01*
X103931613Y-118397715D01*
X103931612Y-118397714D01*
X103931610Y-118397713D01*
X103874653Y-118368691D01*
X103749223Y-118304781D01*
X103554534Y-118241522D01*
X103379995Y-118213878D01*
X103352352Y-118209500D01*
X103147648Y-118209500D01*
X103123329Y-118213351D01*
X102945465Y-118241522D01*
X102750776Y-118304781D01*
X102568386Y-118397715D01*
X102402786Y-118518028D01*
X102258028Y-118662786D01*
X102137715Y-118828386D01*
X102044781Y-119010776D01*
X101981522Y-119205465D01*
X101949500Y-119407648D01*
X89310500Y-119407648D01*
X89278477Y-119205466D01*
X89215220Y-119010781D01*
X89215218Y-119010778D01*
X89215218Y-119010776D01*
X89171103Y-118924197D01*
X89122287Y-118828390D01*
X89114556Y-118817749D01*
X89001971Y-118662786D01*
X88857213Y-118518028D01*
X88691613Y-118397715D01*
X88691612Y-118397714D01*
X88691610Y-118397713D01*
X88634653Y-118368691D01*
X88509223Y-118304781D01*
X88314534Y-118241522D01*
X88139995Y-118213878D01*
X88112352Y-118209500D01*
X87907648Y-118209500D01*
X87883329Y-118213351D01*
X87705465Y-118241522D01*
X87510776Y-118304781D01*
X87328386Y-118397715D01*
X87162786Y-118518028D01*
X87018028Y-118662786D01*
X86897715Y-118828386D01*
X86804781Y-119010776D01*
X86741522Y-119205465D01*
X86709500Y-119407648D01*
X74750500Y-119407648D01*
X74750500Y-112381902D01*
X79748586Y-112381902D01*
X79748586Y-112618097D01*
X79785532Y-112851368D01*
X79858519Y-113075996D01*
X79965743Y-113286433D01*
X80104569Y-113477510D01*
X80271576Y-113644517D01*
X80462653Y-113783343D01*
X80562077Y-113834002D01*
X80673089Y-113890566D01*
X80673091Y-113890566D01*
X80673094Y-113890568D01*
X80793498Y-113929689D01*
X80897717Y-113963553D01*
X81130989Y-114000500D01*
X81130994Y-114000500D01*
X81367183Y-114000500D01*
X81600454Y-113963553D01*
X81825078Y-113890568D01*
X82035519Y-113783343D01*
X82226596Y-113644517D01*
X82393603Y-113477510D01*
X82398768Y-113470401D01*
X82454098Y-113427735D01*
X82523711Y-113421756D01*
X82585506Y-113454362D01*
X82599404Y-113470401D01*
X82604569Y-113477510D01*
X82771576Y-113644517D01*
X82962653Y-113783343D01*
X83062077Y-113834002D01*
X83173089Y-113890566D01*
X83173091Y-113890566D01*
X83173094Y-113890568D01*
X83293498Y-113929689D01*
X83397717Y-113963553D01*
X83630989Y-114000500D01*
X83630994Y-114000500D01*
X83867183Y-114000500D01*
X84100454Y-113963553D01*
X84325078Y-113890568D01*
X84535519Y-113783343D01*
X84726596Y-113644517D01*
X84893603Y-113477510D01*
X84898768Y-113470401D01*
X84954098Y-113427735D01*
X85023711Y-113421756D01*
X85085506Y-113454362D01*
X85099404Y-113470401D01*
X85104569Y-113477510D01*
X85271576Y-113644517D01*
X85462653Y-113783343D01*
X85562077Y-113834002D01*
X85673089Y-113890566D01*
X85673091Y-113890566D01*
X85673094Y-113890568D01*
X85793498Y-113929689D01*
X85897717Y-113963553D01*
X86130989Y-114000500D01*
X86130994Y-114000500D01*
X86367183Y-114000500D01*
X86600454Y-113963553D01*
X86825078Y-113890568D01*
X87035519Y-113783343D01*
X87226596Y-113644517D01*
X87393603Y-113477510D01*
X87398768Y-113470401D01*
X87454098Y-113427735D01*
X87523711Y-113421756D01*
X87585506Y-113454362D01*
X87599404Y-113470401D01*
X87604569Y-113477510D01*
X87771576Y-113644517D01*
X87962653Y-113783343D01*
X88062077Y-113834002D01*
X88173089Y-113890566D01*
X88173091Y-113890566D01*
X88173094Y-113890568D01*
X88293498Y-113929689D01*
X88397717Y-113963553D01*
X88630989Y-114000500D01*
X88630994Y-114000500D01*
X88867183Y-114000500D01*
X89100454Y-113963553D01*
X89325078Y-113890568D01*
X89535519Y-113783343D01*
X89711362Y-113655584D01*
X89777165Y-113632106D01*
X89845219Y-113647931D01*
X89889783Y-113690806D01*
X89906768Y-113718343D01*
X90030740Y-113842315D01*
X90179961Y-113934356D01*
X90179966Y-113934358D01*
X90346388Y-113989505D01*
X90346395Y-113989506D01*
X90449105Y-113999999D01*
X90999085Y-113999999D01*
X90999086Y-113999998D01*
X90999086Y-112933012D01*
X91056093Y-112965925D01*
X91183260Y-113000000D01*
X91314912Y-113000000D01*
X91442079Y-112965925D01*
X91499086Y-112933012D01*
X91499086Y-113999999D01*
X92049058Y-113999999D01*
X92049072Y-113999998D01*
X92151783Y-113989505D01*
X92318205Y-113934358D01*
X92318210Y-113934356D01*
X92467431Y-113842315D01*
X92591403Y-113718343D01*
X92608387Y-113690808D01*
X92660334Y-113644083D01*
X92729297Y-113632860D01*
X92786810Y-113655585D01*
X92962653Y-113783343D01*
X93062077Y-113834002D01*
X93173089Y-113890566D01*
X93173091Y-113890566D01*
X93173094Y-113890568D01*
X93293498Y-113929689D01*
X93397717Y-113963553D01*
X93630989Y-114000500D01*
X93630994Y-114000500D01*
X93867183Y-114000500D01*
X94100454Y-113963553D01*
X94325078Y-113890568D01*
X94535519Y-113783343D01*
X94726596Y-113644517D01*
X94893603Y-113477510D01*
X94898768Y-113470401D01*
X94954098Y-113427735D01*
X95023711Y-113421756D01*
X95085506Y-113454362D01*
X95099404Y-113470401D01*
X95104569Y-113477510D01*
X95271576Y-113644517D01*
X95462653Y-113783343D01*
X95562077Y-113834002D01*
X95673089Y-113890566D01*
X95673091Y-113890566D01*
X95673094Y-113890568D01*
X95793498Y-113929689D01*
X95897717Y-113963553D01*
X96130989Y-114000500D01*
X96130994Y-114000500D01*
X96367183Y-114000500D01*
X96600454Y-113963553D01*
X96825078Y-113890568D01*
X97035519Y-113783343D01*
X97226596Y-113644517D01*
X97393603Y-113477510D01*
X97398768Y-113470401D01*
X97454098Y-113427735D01*
X97523711Y-113421756D01*
X97585506Y-113454362D01*
X97599404Y-113470401D01*
X97604569Y-113477510D01*
X97771576Y-113644517D01*
X97962653Y-113783343D01*
X98062077Y-113834002D01*
X98173089Y-113890566D01*
X98173091Y-113890566D01*
X98173094Y-113890568D01*
X98293498Y-113929689D01*
X98397717Y-113963553D01*
X98630989Y-114000500D01*
X98630994Y-114000500D01*
X98867183Y-114000500D01*
X99100454Y-113963553D01*
X99325078Y-113890568D01*
X99535519Y-113783343D01*
X99726596Y-113644517D01*
X99893603Y-113477510D01*
X100032429Y-113286433D01*
X100139654Y-113075992D01*
X100212639Y-112851368D01*
X100237723Y-112692993D01*
X100249586Y-112618097D01*
X100249586Y-112381902D01*
X100212639Y-112148631D01*
X100139652Y-111924003D01*
X100032428Y-111713566D01*
X99893603Y-111522490D01*
X99726596Y-111355483D01*
X99535519Y-111216657D01*
X99535520Y-111216657D01*
X99535518Y-111216656D01*
X99369178Y-111131901D01*
X136264240Y-111131901D01*
X136264240Y-111368096D01*
X136301186Y-111601367D01*
X136374173Y-111825995D01*
X136424114Y-111924008D01*
X136481397Y-112036432D01*
X136620223Y-112227509D01*
X136787230Y-112394516D01*
X136978307Y-112533342D01*
X137077731Y-112584001D01*
X137188743Y-112640565D01*
X137188745Y-112640565D01*
X137188748Y-112640567D01*
X137309152Y-112679688D01*
X137413371Y-112713552D01*
X137646643Y-112750499D01*
X137646648Y-112750499D01*
X137882837Y-112750499D01*
X138116108Y-112713552D01*
X138340732Y-112640567D01*
X138551173Y-112533342D01*
X138742250Y-112394516D01*
X138909257Y-112227509D01*
X139048083Y-112036432D01*
X139155308Y-111825991D01*
X139228293Y-111601367D01*
X139231345Y-111582099D01*
X139261276Y-111518965D01*
X139320588Y-111482035D01*
X139353818Y-111477499D01*
X142675662Y-111477499D01*
X142742701Y-111497184D01*
X142788456Y-111549988D01*
X142798135Y-111582099D01*
X142801186Y-111601365D01*
X142837643Y-111713566D01*
X142874172Y-111825991D01*
X142981397Y-112036432D01*
X143120223Y-112227509D01*
X143287230Y-112394516D01*
X143478307Y-112533342D01*
X143577731Y-112584001D01*
X143688743Y-112640565D01*
X143688745Y-112640565D01*
X143688748Y-112640567D01*
X143809152Y-112679688D01*
X143913371Y-112713552D01*
X144146643Y-112750499D01*
X144146648Y-112750499D01*
X144382837Y-112750499D01*
X144616108Y-112713552D01*
X144840732Y-112640567D01*
X145051173Y-112533342D01*
X145242250Y-112394516D01*
X145409257Y-112227509D01*
X145548083Y-112036432D01*
X145655308Y-111825991D01*
X145728293Y-111601367D01*
X145740786Y-111522488D01*
X145765240Y-111368096D01*
X145765240Y-111131901D01*
X145728293Y-110898630D01*
X145655306Y-110674002D01*
X145548082Y-110463565D01*
X145409257Y-110272489D01*
X145242250Y-110105482D01*
X145051173Y-109966656D01*
X144840736Y-109859432D01*
X144616108Y-109786445D01*
X144382837Y-109749499D01*
X144382832Y-109749499D01*
X144146648Y-109749499D01*
X144146643Y-109749499D01*
X143913371Y-109786445D01*
X143688743Y-109859432D01*
X143478306Y-109966656D01*
X143369290Y-110045861D01*
X143287230Y-110105482D01*
X143287228Y-110105484D01*
X143287227Y-110105484D01*
X143120225Y-110272486D01*
X143120225Y-110272487D01*
X143120223Y-110272489D01*
X143060602Y-110354549D01*
X142981397Y-110463565D01*
X142874173Y-110674004D01*
X142801186Y-110898632D01*
X142798135Y-110917899D01*
X142768204Y-110981033D01*
X142708892Y-111017963D01*
X142675662Y-111022499D01*
X139353818Y-111022499D01*
X139286779Y-111002814D01*
X139241024Y-110950010D01*
X139231345Y-110917899D01*
X139228293Y-110898632D01*
X139228293Y-110898631D01*
X139155308Y-110674007D01*
X139048083Y-110463566D01*
X138909257Y-110272489D01*
X138742250Y-110105482D01*
X138551173Y-109966656D01*
X138340736Y-109859432D01*
X138116108Y-109786445D01*
X137882837Y-109749499D01*
X137882832Y-109749499D01*
X137646648Y-109749499D01*
X137646643Y-109749499D01*
X137413371Y-109786445D01*
X137188743Y-109859432D01*
X136978306Y-109966656D01*
X136869290Y-110045861D01*
X136787230Y-110105482D01*
X136787228Y-110105484D01*
X136787227Y-110105484D01*
X136620225Y-110272486D01*
X136620225Y-110272487D01*
X136620223Y-110272489D01*
X136560602Y-110354549D01*
X136481397Y-110463565D01*
X136374173Y-110674002D01*
X136301186Y-110898630D01*
X136264240Y-111131901D01*
X99369178Y-111131901D01*
X99325082Y-111109433D01*
X99100454Y-111036446D01*
X98867183Y-110999500D01*
X98867178Y-110999500D01*
X98630994Y-110999500D01*
X98630989Y-110999500D01*
X98397717Y-111036446D01*
X98173089Y-111109433D01*
X97962652Y-111216657D01*
X97873191Y-111281655D01*
X97771576Y-111355483D01*
X97771574Y-111355485D01*
X97771573Y-111355485D01*
X97604568Y-111522490D01*
X97599401Y-111529603D01*
X97544069Y-111572266D01*
X97474456Y-111578242D01*
X97412662Y-111545634D01*
X97398771Y-111529603D01*
X97393603Y-111522490D01*
X97226598Y-111355485D01*
X97226596Y-111355483D01*
X97035519Y-111216657D01*
X97035517Y-111216656D01*
X96825082Y-111109433D01*
X96600454Y-111036446D01*
X96367183Y-110999500D01*
X96367178Y-110999500D01*
X96130994Y-110999500D01*
X96130989Y-110999500D01*
X95897717Y-111036446D01*
X95673089Y-111109433D01*
X95462652Y-111216657D01*
X95373191Y-111281655D01*
X95271576Y-111355483D01*
X95271574Y-111355485D01*
X95271573Y-111355485D01*
X95104568Y-111522490D01*
X95099401Y-111529603D01*
X95044069Y-111572266D01*
X94974456Y-111578242D01*
X94912662Y-111545634D01*
X94898771Y-111529603D01*
X94893603Y-111522490D01*
X94726598Y-111355485D01*
X94726596Y-111355483D01*
X94535519Y-111216657D01*
X94535517Y-111216656D01*
X94325082Y-111109433D01*
X94100454Y-111036446D01*
X93867183Y-110999500D01*
X93867178Y-110999500D01*
X93630994Y-110999500D01*
X93630989Y-110999500D01*
X93397717Y-111036446D01*
X93173089Y-111109433D01*
X92962649Y-111216659D01*
X92786811Y-111344413D01*
X92721005Y-111367893D01*
X92652951Y-111352068D01*
X92608388Y-111309192D01*
X92591405Y-111281659D01*
X92591402Y-111281655D01*
X92467431Y-111157684D01*
X92318210Y-111065643D01*
X92318205Y-111065641D01*
X92151783Y-111010494D01*
X92151776Y-111010493D01*
X92049072Y-111000000D01*
X91499086Y-111000000D01*
X91499086Y-112066988D01*
X91442079Y-112034075D01*
X91314912Y-112000000D01*
X91183260Y-112000000D01*
X91056093Y-112034075D01*
X90999086Y-112066988D01*
X90999086Y-111000000D01*
X90449114Y-111000000D01*
X90449098Y-111000001D01*
X90346388Y-111010494D01*
X90179966Y-111065641D01*
X90179961Y-111065643D01*
X90030740Y-111157684D01*
X89906769Y-111281655D01*
X89906766Y-111281659D01*
X89889782Y-111309194D01*
X89837833Y-111355918D01*
X89768870Y-111367138D01*
X89711359Y-111344413D01*
X89662884Y-111309194D01*
X89535519Y-111216657D01*
X89535517Y-111216656D01*
X89325082Y-111109433D01*
X89100454Y-111036446D01*
X88867183Y-110999500D01*
X88867178Y-110999500D01*
X88630994Y-110999500D01*
X88630989Y-110999500D01*
X88397717Y-111036446D01*
X88173089Y-111109433D01*
X87962652Y-111216657D01*
X87873191Y-111281655D01*
X87771576Y-111355483D01*
X87771574Y-111355485D01*
X87771573Y-111355485D01*
X87604568Y-111522490D01*
X87599401Y-111529603D01*
X87544069Y-111572266D01*
X87474456Y-111578242D01*
X87412662Y-111545634D01*
X87398771Y-111529603D01*
X87393603Y-111522490D01*
X87226598Y-111355485D01*
X87226596Y-111355483D01*
X87035519Y-111216657D01*
X87035517Y-111216656D01*
X86825082Y-111109433D01*
X86600454Y-111036446D01*
X86367183Y-110999500D01*
X86367178Y-110999500D01*
X86130994Y-110999500D01*
X86130989Y-110999500D01*
X85897717Y-111036446D01*
X85673089Y-111109433D01*
X85462652Y-111216657D01*
X85373191Y-111281655D01*
X85271576Y-111355483D01*
X85271574Y-111355485D01*
X85271573Y-111355485D01*
X85104568Y-111522490D01*
X85099401Y-111529603D01*
X85044069Y-111572266D01*
X84974456Y-111578242D01*
X84912662Y-111545634D01*
X84898771Y-111529603D01*
X84893603Y-111522490D01*
X84726598Y-111355485D01*
X84726596Y-111355483D01*
X84535519Y-111216657D01*
X84535517Y-111216656D01*
X84325082Y-111109433D01*
X84100454Y-111036446D01*
X83867183Y-110999500D01*
X83867178Y-110999500D01*
X83630994Y-110999500D01*
X83630989Y-110999500D01*
X83397717Y-111036446D01*
X83173089Y-111109433D01*
X82962652Y-111216657D01*
X82873191Y-111281655D01*
X82771576Y-111355483D01*
X82771574Y-111355485D01*
X82771573Y-111355485D01*
X82604568Y-111522490D01*
X82599401Y-111529603D01*
X82544069Y-111572266D01*
X82474456Y-111578242D01*
X82412662Y-111545634D01*
X82398771Y-111529603D01*
X82393603Y-111522490D01*
X82226598Y-111355485D01*
X82226596Y-111355483D01*
X82035519Y-111216657D01*
X82035517Y-111216656D01*
X81825082Y-111109433D01*
X81600454Y-111036446D01*
X81367183Y-110999500D01*
X81367178Y-110999500D01*
X81130994Y-110999500D01*
X81130989Y-110999500D01*
X80897717Y-111036446D01*
X80673089Y-111109433D01*
X80462652Y-111216657D01*
X80373191Y-111281655D01*
X80271576Y-111355483D01*
X80271574Y-111355485D01*
X80271573Y-111355485D01*
X80104571Y-111522487D01*
X80104571Y-111522488D01*
X80104569Y-111522490D01*
X80047263Y-111601365D01*
X79965743Y-111713566D01*
X79858519Y-111924003D01*
X79785532Y-112148631D01*
X79748586Y-112381902D01*
X74750500Y-112381902D01*
X74750500Y-106631946D01*
X136264740Y-106631946D01*
X136264740Y-106868051D01*
X136301674Y-107101246D01*
X136374637Y-107325801D01*
X136481827Y-107536173D01*
X136542078Y-107619103D01*
X136542080Y-107619104D01*
X137240952Y-106920232D01*
X137252222Y-106962291D01*
X137324630Y-107087707D01*
X137427032Y-107190109D01*
X137552448Y-107262517D01*
X137594505Y-107273786D01*
X136895633Y-107972657D01*
X136978568Y-108032913D01*
X137188937Y-108140101D01*
X137413492Y-108213064D01*
X137413491Y-108213064D01*
X137646688Y-108249999D01*
X137882792Y-108249999D01*
X138115987Y-108213064D01*
X138340542Y-108140101D01*
X138550903Y-108032917D01*
X138550909Y-108032913D01*
X138633844Y-107972657D01*
X138633845Y-107972657D01*
X137934973Y-107273786D01*
X137977032Y-107262517D01*
X138102448Y-107190109D01*
X138204850Y-107087707D01*
X138277258Y-106962291D01*
X138288527Y-106920233D01*
X138987398Y-107619104D01*
X138987398Y-107619103D01*
X139047654Y-107536168D01*
X139047658Y-107536162D01*
X139154842Y-107325801D01*
X139227805Y-107101246D01*
X139264740Y-106868051D01*
X139264740Y-106631946D01*
X142764740Y-106631946D01*
X142764740Y-106868051D01*
X142801674Y-107101246D01*
X142874637Y-107325801D01*
X142981827Y-107536173D01*
X143042078Y-107619103D01*
X143042080Y-107619104D01*
X143740952Y-106920232D01*
X143752222Y-106962291D01*
X143824630Y-107087707D01*
X143927032Y-107190109D01*
X144052448Y-107262517D01*
X144094505Y-107273786D01*
X143395633Y-107972657D01*
X143478568Y-108032913D01*
X143688937Y-108140101D01*
X143913492Y-108213064D01*
X143913491Y-108213064D01*
X144146688Y-108249999D01*
X144382792Y-108249999D01*
X144615987Y-108213064D01*
X144840542Y-108140101D01*
X145050903Y-108032917D01*
X145050909Y-108032913D01*
X145133844Y-107972657D01*
X145133845Y-107972657D01*
X144434973Y-107273786D01*
X144477032Y-107262517D01*
X144602448Y-107190109D01*
X144704850Y-107087707D01*
X144777258Y-106962291D01*
X144788527Y-106920233D01*
X145487398Y-107619104D01*
X145487398Y-107619103D01*
X145547654Y-107536168D01*
X145547658Y-107536162D01*
X145654842Y-107325801D01*
X145727805Y-107101246D01*
X145764740Y-106868051D01*
X145764740Y-106631946D01*
X145727805Y-106398751D01*
X145654842Y-106174196D01*
X145547654Y-105963827D01*
X145487398Y-105880893D01*
X145487398Y-105880892D01*
X144788527Y-106579764D01*
X144777258Y-106537707D01*
X144704850Y-106412291D01*
X144602448Y-106309889D01*
X144477032Y-106237481D01*
X144434974Y-106226211D01*
X145133845Y-105527339D01*
X145133844Y-105527337D01*
X145050914Y-105467086D01*
X144840542Y-105359896D01*
X144615987Y-105286933D01*
X144615988Y-105286933D01*
X144382792Y-105249999D01*
X144146688Y-105249999D01*
X143913492Y-105286933D01*
X143688937Y-105359896D01*
X143478570Y-105467083D01*
X143395634Y-105527339D01*
X144094506Y-106226211D01*
X144052448Y-106237481D01*
X143927032Y-106309889D01*
X143824630Y-106412291D01*
X143752222Y-106537707D01*
X143740952Y-106579764D01*
X143042080Y-105880893D01*
X142981824Y-105963829D01*
X142874637Y-106174196D01*
X142801674Y-106398751D01*
X142764740Y-106631946D01*
X139264740Y-106631946D01*
X139227805Y-106398751D01*
X139154842Y-106174196D01*
X139047654Y-105963827D01*
X138987398Y-105880893D01*
X138987398Y-105880892D01*
X138288527Y-106579764D01*
X138277258Y-106537707D01*
X138204850Y-106412291D01*
X138102448Y-106309889D01*
X137977032Y-106237481D01*
X137934974Y-106226211D01*
X138633845Y-105527339D01*
X138633844Y-105527338D01*
X138550914Y-105467086D01*
X138340542Y-105359896D01*
X138115987Y-105286933D01*
X138115988Y-105286933D01*
X137882792Y-105249999D01*
X137646688Y-105249999D01*
X137413492Y-105286933D01*
X137188937Y-105359896D01*
X136978570Y-105467083D01*
X136895634Y-105527339D01*
X137594506Y-106226211D01*
X137552448Y-106237481D01*
X137427032Y-106309889D01*
X137324630Y-106412291D01*
X137252222Y-106537707D01*
X137240952Y-106579765D01*
X136542080Y-105880893D01*
X136481824Y-105963829D01*
X136374637Y-106174196D01*
X136301674Y-106398751D01*
X136264740Y-106631946D01*
X74750500Y-106631946D01*
X74750500Y-101741902D01*
X114759500Y-101741902D01*
X114759500Y-101978097D01*
X114796446Y-102211368D01*
X114869433Y-102435996D01*
X114976657Y-102646433D01*
X115115483Y-102837510D01*
X115282490Y-103004517D01*
X115473567Y-103143343D01*
X115572991Y-103194002D01*
X115684003Y-103250566D01*
X115684005Y-103250566D01*
X115684008Y-103250568D01*
X115804412Y-103289689D01*
X115908631Y-103323553D01*
X116141903Y-103360500D01*
X116141908Y-103360500D01*
X116378097Y-103360500D01*
X116611368Y-103323553D01*
X116835992Y-103250568D01*
X117046433Y-103143343D01*
X117222276Y-103015584D01*
X117288079Y-102992106D01*
X117356133Y-103007931D01*
X117400697Y-103050806D01*
X117417682Y-103078343D01*
X117541654Y-103202315D01*
X117690875Y-103294356D01*
X117690880Y-103294358D01*
X117857302Y-103349505D01*
X117857309Y-103349506D01*
X117960019Y-103359999D01*
X118509999Y-103359999D01*
X118510000Y-103359998D01*
X118510000Y-102293012D01*
X118567007Y-102325925D01*
X118694174Y-102360000D01*
X118825826Y-102360000D01*
X118952993Y-102325925D01*
X119010000Y-102293012D01*
X119010000Y-103359999D01*
X119559972Y-103359999D01*
X119559986Y-103359998D01*
X119662697Y-103349505D01*
X119829119Y-103294358D01*
X119829124Y-103294356D01*
X119978345Y-103202315D01*
X120102317Y-103078343D01*
X120119301Y-103050808D01*
X120171248Y-103004083D01*
X120240211Y-102992860D01*
X120297724Y-103015585D01*
X120473567Y-103143343D01*
X120572991Y-103194002D01*
X120684003Y-103250566D01*
X120684005Y-103250566D01*
X120684008Y-103250568D01*
X120804412Y-103289689D01*
X120908631Y-103323553D01*
X121141903Y-103360500D01*
X121141908Y-103360500D01*
X121378097Y-103360500D01*
X121611368Y-103323553D01*
X121835992Y-103250568D01*
X122046433Y-103143343D01*
X122237510Y-103004517D01*
X122404517Y-102837510D01*
X122409682Y-102830401D01*
X122465012Y-102787735D01*
X122534625Y-102781756D01*
X122596420Y-102814362D01*
X122610318Y-102830401D01*
X122615483Y-102837510D01*
X122782490Y-103004517D01*
X122973567Y-103143343D01*
X123072991Y-103194002D01*
X123184003Y-103250566D01*
X123184005Y-103250566D01*
X123184008Y-103250568D01*
X123304412Y-103289689D01*
X123408631Y-103323553D01*
X123641903Y-103360500D01*
X123641908Y-103360500D01*
X123878097Y-103360500D01*
X124111368Y-103323553D01*
X124335992Y-103250568D01*
X124546433Y-103143343D01*
X124737510Y-103004517D01*
X124904517Y-102837510D01*
X125043343Y-102646433D01*
X125150568Y-102435992D01*
X125223553Y-102211368D01*
X125248637Y-102052993D01*
X125260500Y-101978097D01*
X125260500Y-101741902D01*
X125223553Y-101508631D01*
X125150566Y-101284003D01*
X125043342Y-101073566D01*
X124904517Y-100882490D01*
X124737510Y-100715483D01*
X124546433Y-100576657D01*
X124335996Y-100469433D01*
X124111368Y-100396446D01*
X123878097Y-100359500D01*
X123878092Y-100359500D01*
X123641908Y-100359500D01*
X123641903Y-100359500D01*
X123408631Y-100396446D01*
X123184003Y-100469433D01*
X122973566Y-100576657D01*
X122884105Y-100641655D01*
X122782490Y-100715483D01*
X122782488Y-100715485D01*
X122782487Y-100715485D01*
X122615482Y-100882490D01*
X122610315Y-100889603D01*
X122554983Y-100932266D01*
X122485370Y-100938242D01*
X122423576Y-100905634D01*
X122409685Y-100889603D01*
X122404517Y-100882490D01*
X122237512Y-100715485D01*
X122237510Y-100715483D01*
X122046433Y-100576657D01*
X121835996Y-100469433D01*
X121611368Y-100396446D01*
X121378097Y-100359500D01*
X121378092Y-100359500D01*
X121141908Y-100359500D01*
X121141903Y-100359500D01*
X120908631Y-100396446D01*
X120684003Y-100469433D01*
X120473563Y-100576659D01*
X120297725Y-100704413D01*
X120231919Y-100727893D01*
X120163865Y-100712068D01*
X120119302Y-100669192D01*
X120102319Y-100641659D01*
X120102316Y-100641655D01*
X119978345Y-100517684D01*
X119829124Y-100425643D01*
X119829119Y-100425641D01*
X119662697Y-100370494D01*
X119662690Y-100370493D01*
X119559986Y-100360000D01*
X119010000Y-100360000D01*
X119010000Y-101426988D01*
X118952993Y-101394075D01*
X118825826Y-101360000D01*
X118694174Y-101360000D01*
X118567007Y-101394075D01*
X118510000Y-101426988D01*
X118510000Y-100360000D01*
X117960028Y-100360000D01*
X117960012Y-100360001D01*
X117857302Y-100370494D01*
X117690880Y-100425641D01*
X117690875Y-100425643D01*
X117541654Y-100517684D01*
X117417683Y-100641655D01*
X117417680Y-100641659D01*
X117400696Y-100669194D01*
X117348747Y-100715918D01*
X117279784Y-100727138D01*
X117222273Y-100704413D01*
X117173798Y-100669194D01*
X117046433Y-100576657D01*
X116835996Y-100469433D01*
X116611368Y-100396446D01*
X116378097Y-100359500D01*
X116378092Y-100359500D01*
X116141908Y-100359500D01*
X116141903Y-100359500D01*
X115908631Y-100396446D01*
X115684003Y-100469433D01*
X115473566Y-100576657D01*
X115384105Y-100641655D01*
X115282490Y-100715483D01*
X115282488Y-100715485D01*
X115282487Y-100715485D01*
X115115485Y-100882487D01*
X115115485Y-100882488D01*
X115115483Y-100882490D01*
X115098668Y-100905634D01*
X114976657Y-101073566D01*
X114869433Y-101284003D01*
X114796446Y-101508631D01*
X114759500Y-101741902D01*
X74750500Y-101741902D01*
X74750500Y-97002871D01*
X74750632Y-96997144D01*
X74759623Y-96802661D01*
X74767296Y-96636687D01*
X74768353Y-96625292D01*
X74785218Y-96504394D01*
X74817809Y-96270757D01*
X74819909Y-96259520D01*
X74887054Y-95974038D01*
X108549500Y-95974038D01*
X108549500Y-97525961D01*
X108588910Y-97774785D01*
X108666760Y-98014383D01*
X108745413Y-98168747D01*
X108763286Y-98203825D01*
X108781132Y-98238848D01*
X108929201Y-98442649D01*
X108929205Y-98442654D01*
X109107345Y-98620794D01*
X109107350Y-98620798D01*
X109285117Y-98749952D01*
X109311155Y-98768870D01*
X109454184Y-98841747D01*
X109535616Y-98883239D01*
X109535618Y-98883239D01*
X109535621Y-98883241D01*
X109775215Y-98961090D01*
X110024038Y-99000500D01*
X110024039Y-99000500D01*
X110275961Y-99000500D01*
X110275962Y-99000500D01*
X110524785Y-98961090D01*
X110764379Y-98883241D01*
X110988845Y-98768870D01*
X111192656Y-98620793D01*
X111284511Y-98528937D01*
X111345831Y-98495454D01*
X111385445Y-98493330D01*
X111392514Y-98494089D01*
X111392517Y-98494091D01*
X111452127Y-98500500D01*
X113047872Y-98500499D01*
X113107483Y-98494091D01*
X113242331Y-98443796D01*
X113357546Y-98357546D01*
X113386535Y-98318821D01*
X113442467Y-98276952D01*
X113512158Y-98271968D01*
X113558686Y-98292816D01*
X113594856Y-98319095D01*
X113770162Y-98408418D01*
X113957283Y-98469218D01*
X114000000Y-98475984D01*
X114000000Y-97065686D01*
X114004394Y-97070080D01*
X114095606Y-97122741D01*
X114197339Y-97150000D01*
X114302661Y-97150000D01*
X114404394Y-97122741D01*
X114495606Y-97070080D01*
X114500000Y-97065686D01*
X114500000Y-98475983D01*
X114542716Y-98469218D01*
X114729837Y-98408418D01*
X114905143Y-98319095D01*
X115064321Y-98203444D01*
X115064322Y-98203443D01*
X115161965Y-98105801D01*
X115223288Y-98072316D01*
X115292980Y-98077300D01*
X115337327Y-98105801D01*
X115435354Y-98203828D01*
X115594595Y-98319524D01*
X115664704Y-98355246D01*
X115769970Y-98408882D01*
X115769972Y-98408882D01*
X115769975Y-98408884D01*
X115870317Y-98441487D01*
X115957173Y-98469709D01*
X116151578Y-98500500D01*
X116151583Y-98500500D01*
X116348422Y-98500500D01*
X116542826Y-98469709D01*
X116622574Y-98443797D01*
X116730025Y-98408884D01*
X116905405Y-98319524D01*
X116905409Y-98319520D01*
X116909087Y-98317647D01*
X116977756Y-98304751D01*
X117042497Y-98331027D01*
X117065699Y-98355245D01*
X117129207Y-98442656D01*
X117129209Y-98442658D01*
X117307345Y-98620794D01*
X117307350Y-98620798D01*
X117485117Y-98749952D01*
X117511155Y-98768870D01*
X117654184Y-98841747D01*
X117735616Y-98883239D01*
X117735618Y-98883239D01*
X117735621Y-98883241D01*
X117975215Y-98961090D01*
X118224038Y-99000500D01*
X118224039Y-99000500D01*
X118475961Y-99000500D01*
X118475962Y-99000500D01*
X118724785Y-98961090D01*
X118964379Y-98883241D01*
X119188845Y-98768870D01*
X119392656Y-98620793D01*
X119570793Y-98442656D01*
X119718870Y-98238845D01*
X119833241Y-98014379D01*
X119911090Y-97774785D01*
X119950500Y-97525962D01*
X119950500Y-95974038D01*
X119911090Y-95725215D01*
X119833241Y-95485621D01*
X119833239Y-95485618D01*
X119833239Y-95485616D01*
X119780641Y-95382388D01*
X119718870Y-95261155D01*
X119665298Y-95187419D01*
X119570798Y-95057350D01*
X119570794Y-95057345D01*
X119392654Y-94879205D01*
X119392649Y-94879201D01*
X119188848Y-94731132D01*
X119188847Y-94731131D01*
X119188845Y-94731130D01*
X119118747Y-94695413D01*
X118964383Y-94616760D01*
X118724785Y-94538910D01*
X118475962Y-94499500D01*
X118224038Y-94499500D01*
X118099626Y-94519205D01*
X117975214Y-94538910D01*
X117735616Y-94616760D01*
X117511151Y-94731132D01*
X117307350Y-94879201D01*
X117307345Y-94879205D01*
X117129209Y-95057341D01*
X117129202Y-95057350D01*
X117065699Y-95144753D01*
X117010369Y-95187419D01*
X116940756Y-95193397D01*
X116909087Y-95182352D01*
X116730029Y-95091117D01*
X116542826Y-95030290D01*
X116348422Y-94999500D01*
X116348417Y-94999500D01*
X116151583Y-94999500D01*
X116151578Y-94999500D01*
X115957173Y-95030290D01*
X115769970Y-95091117D01*
X115594594Y-95180476D01*
X115536735Y-95222514D01*
X115435354Y-95296172D01*
X115435352Y-95296174D01*
X115435350Y-95296175D01*
X115337325Y-95394199D01*
X115276002Y-95427683D01*
X115206310Y-95422698D01*
X115161964Y-95394198D01*
X115064321Y-95296555D01*
X114905143Y-95180904D01*
X114729835Y-95091581D01*
X114542705Y-95030778D01*
X114500000Y-95024014D01*
X114500000Y-96434314D01*
X114495606Y-96429920D01*
X114404394Y-96377259D01*
X114302661Y-96350000D01*
X114197339Y-96350000D01*
X114095606Y-96377259D01*
X114004394Y-96429920D01*
X114000000Y-96434314D01*
X114000000Y-95024014D01*
X113999999Y-95024014D01*
X113957294Y-95030778D01*
X113770164Y-95091581D01*
X113594855Y-95180905D01*
X113594848Y-95180910D01*
X113558684Y-95207184D01*
X113492877Y-95230663D01*
X113424824Y-95214837D01*
X113386534Y-95181177D01*
X113359267Y-95144753D01*
X113357546Y-95142454D01*
X113357544Y-95142453D01*
X113357544Y-95142452D01*
X113242335Y-95056206D01*
X113242328Y-95056202D01*
X113107482Y-95005908D01*
X113107483Y-95005908D01*
X113047883Y-94999501D01*
X113047881Y-94999500D01*
X113047873Y-94999500D01*
X113047864Y-94999500D01*
X111452129Y-94999500D01*
X111452123Y-94999501D01*
X111385443Y-95006669D01*
X111316683Y-94994262D01*
X111284509Y-94971060D01*
X111192654Y-94879205D01*
X111192649Y-94879201D01*
X110988848Y-94731132D01*
X110988847Y-94731131D01*
X110988845Y-94731130D01*
X110918747Y-94695413D01*
X110764383Y-94616760D01*
X110524785Y-94538910D01*
X110275962Y-94499500D01*
X110024038Y-94499500D01*
X109899626Y-94519205D01*
X109775214Y-94538910D01*
X109535616Y-94616760D01*
X109311151Y-94731132D01*
X109107350Y-94879201D01*
X109107345Y-94879205D01*
X108929205Y-95057345D01*
X108929201Y-95057350D01*
X108781132Y-95261151D01*
X108666760Y-95485616D01*
X108588910Y-95725214D01*
X108549500Y-95974038D01*
X74887054Y-95974038D01*
X74901872Y-95911035D01*
X74904992Y-95900070D01*
X75018760Y-95560634D01*
X75022893Y-95549968D01*
X75167483Y-95222504D01*
X75172575Y-95212277D01*
X75346768Y-94899541D01*
X75352794Y-94889809D01*
X75555103Y-94594472D01*
X75561985Y-94585360D01*
X75790682Y-94309951D01*
X75798376Y-94301511D01*
X76051511Y-94048376D01*
X76059951Y-94040682D01*
X76335360Y-93811985D01*
X76344472Y-93805103D01*
X76639814Y-93602790D01*
X76649541Y-93596768D01*
X76962277Y-93422575D01*
X76972504Y-93417483D01*
X77299974Y-93272890D01*
X77310634Y-93268760D01*
X77650070Y-93154992D01*
X77661049Y-93151869D01*
X78009520Y-93069909D01*
X78020757Y-93067809D01*
X78375301Y-93018352D01*
X78386687Y-93017296D01*
X78747145Y-93000632D01*
X78752872Y-93000500D01*
X144747128Y-93000500D01*
X144752855Y-93000632D01*
G37*
%TD.AperFunction*%
%TD*%
M02*
