%TF.GenerationSoftware,KiCad,Pcbnew,10.0.1*%
%TF.CreationDate,2026-04-20T22:04:55-07:00*%
%TF.ProjectId,pcb,7063622e-6b69-4636-9164-5f7063625858,rev?*%
%TF.SameCoordinates,Original*%
%TF.FileFunction,Legend,Top*%
%TF.FilePolarity,Positive*%
%FSLAX46Y46*%
G04 Gerber Fmt 4.6, Leading zero omitted, Abs format (unit mm)*
G04 Created by KiCad (PCBNEW 10.0.1) date 2026-04-20 22:04:55*
%MOMM*%
%LPD*%
G01*
G04 APERTURE LIST*
%ADD10C,0.100000*%
%ADD11C,0.150000*%
%ADD12C,0.120000*%
%ADD13C,0.000000*%
G04 APERTURE END LIST*
D10*
G36*
X129427334Y-128238740D02*
G01*
X129704794Y-128238740D01*
X129704794Y-129146591D01*
X130567581Y-128238740D01*
X130891570Y-128238740D01*
X130097170Y-129072829D01*
X130914773Y-130280000D01*
X130581259Y-130280000D01*
X129915331Y-129257355D01*
X129704794Y-129481570D01*
X129704794Y-130280000D01*
X129427334Y-130280000D01*
X129427334Y-128238740D01*
G37*
G36*
X131877124Y-128209235D02*
G01*
X131975856Y-128230474D01*
X132064424Y-128264752D01*
X132145044Y-128313913D01*
X132217323Y-128379780D01*
X132281922Y-128464420D01*
X132348961Y-128595992D01*
X132401780Y-128766581D01*
X132437066Y-128985006D01*
X132450083Y-129261385D01*
X132437077Y-129537071D01*
X132401809Y-129755108D01*
X132348991Y-129925541D01*
X132281922Y-130057128D01*
X132217323Y-130141769D01*
X132145044Y-130207635D01*
X132064424Y-130256796D01*
X131975856Y-130291075D01*
X131877124Y-130312313D01*
X131766448Y-130319689D01*
X131629809Y-130308308D01*
X131513225Y-130275976D01*
X131413057Y-130224109D01*
X131326628Y-130152322D01*
X131252438Y-130058471D01*
X131185563Y-129928230D01*
X131132737Y-129758294D01*
X131097357Y-129539514D01*
X131084277Y-129261385D01*
X131372728Y-129261385D01*
X131380333Y-129495384D01*
X131400552Y-129673596D01*
X131429923Y-129806301D01*
X131465662Y-129902644D01*
X131521017Y-129988964D01*
X131588027Y-130047676D01*
X131668443Y-130083067D01*
X131766448Y-130095474D01*
X131865948Y-130082999D01*
X131947256Y-130047494D01*
X132014673Y-129988764D01*
X132070041Y-129902644D01*
X132104830Y-129810994D01*
X132133801Y-129680823D01*
X132153975Y-129501594D01*
X132161632Y-129261385D01*
X132153991Y-129021350D01*
X132133840Y-128841877D01*
X132104871Y-128711197D01*
X132070041Y-128618904D01*
X132014673Y-128532784D01*
X131947256Y-128474054D01*
X131865948Y-128438549D01*
X131766448Y-128426074D01*
X131668443Y-128438481D01*
X131588027Y-128473873D01*
X131521017Y-128532584D01*
X131465662Y-128618904D01*
X131429942Y-128715239D01*
X131400570Y-128848096D01*
X131380340Y-129026691D01*
X131372728Y-129261385D01*
X131084277Y-129261385D01*
X131097451Y-128983419D01*
X131133092Y-128764708D01*
X131186332Y-128594752D01*
X131253782Y-128464420D01*
X131329110Y-128369744D01*
X131416091Y-128297522D01*
X131516126Y-128245510D01*
X131631756Y-128213199D01*
X131766448Y-128201859D01*
X131877124Y-128209235D01*
G37*
G36*
X133671542Y-128207355D02*
G01*
X133768018Y-128222376D01*
X133871088Y-128249731D01*
X133963534Y-128283925D01*
X133963534Y-128538182D01*
X133873646Y-128492633D01*
X133780230Y-128460268D01*
X133680457Y-128440484D01*
X133580683Y-128434256D01*
X133451255Y-128447513D01*
X133344200Y-128484985D01*
X133254789Y-128545529D01*
X133180125Y-128631116D01*
X133125267Y-128732014D01*
X133082818Y-128858939D01*
X133054885Y-129017365D01*
X133044692Y-129213635D01*
X133095148Y-129127984D01*
X133155598Y-129058429D01*
X133226531Y-129003098D01*
X133307746Y-128963498D01*
X133399521Y-128939063D01*
X133504113Y-128930558D01*
X133642409Y-128942822D01*
X133760288Y-128977719D01*
X133861616Y-129033963D01*
X133949124Y-129112397D01*
X134017605Y-129207168D01*
X134068469Y-129321056D01*
X134100917Y-129457864D01*
X134112522Y-129622376D01*
X134100716Y-129789781D01*
X134067779Y-129928307D01*
X134016268Y-130042995D01*
X133947048Y-130137850D01*
X133858771Y-130215151D01*
X133753091Y-130271500D01*
X133626468Y-130307036D01*
X133474071Y-130319689D01*
X133350531Y-130311550D01*
X133247771Y-130288837D01*
X133162295Y-130253377D01*
X133084638Y-130203047D01*
X133016528Y-130139863D01*
X132957254Y-130062623D01*
X132906636Y-129970304D01*
X132864197Y-129861709D01*
X132830736Y-129734483D01*
X132814652Y-129625062D01*
X133092564Y-129625062D01*
X133099627Y-129737374D01*
X133119187Y-129829494D01*
X133152062Y-129912353D01*
X133193803Y-129977871D01*
X133245804Y-130030134D01*
X133309940Y-130070195D01*
X133383782Y-130094865D01*
X133474071Y-130103656D01*
X133563242Y-130095282D01*
X133636574Y-130071758D01*
X133697281Y-130034191D01*
X133747501Y-129981901D01*
X133796134Y-129895711D01*
X133828397Y-129779658D01*
X133840436Y-129625062D01*
X133828378Y-129469621D01*
X133796098Y-129353163D01*
X133747501Y-129266880D01*
X133693823Y-129212270D01*
X133629898Y-129175289D01*
X133557523Y-129153973D01*
X133475415Y-129146591D01*
X133383953Y-129155444D01*
X133309940Y-129180174D01*
X133245809Y-129220139D01*
X133193803Y-129272376D01*
X133152062Y-129337893D01*
X133119187Y-129420753D01*
X133099625Y-129512858D01*
X133092564Y-129625062D01*
X132814652Y-129625062D01*
X132801136Y-129533108D01*
X132790436Y-129290205D01*
X132800336Y-129057920D01*
X132827746Y-128865132D01*
X132869721Y-128706149D01*
X132924053Y-128575876D01*
X132989371Y-128469916D01*
X133075369Y-128373967D01*
X133173619Y-128300163D01*
X133285742Y-128246739D01*
X133414349Y-128213505D01*
X133562854Y-128201859D01*
X133671542Y-128207355D01*
G37*
G36*
X134586842Y-128238740D02*
G01*
X134864424Y-128238740D01*
X134864424Y-130047602D01*
X135850066Y-130047602D01*
X135850066Y-130280000D01*
X134586842Y-130280000D01*
X134586842Y-128238740D01*
G37*
G36*
X136966122Y-128248561D02*
G01*
X137096164Y-128275838D01*
X137203214Y-128318121D01*
X137291099Y-128374173D01*
X137364349Y-128447762D01*
X137416665Y-128534376D01*
X137449143Y-128636618D01*
X137460603Y-128758367D01*
X137454438Y-128850744D01*
X137437278Y-128927138D01*
X137408735Y-128996046D01*
X137371699Y-129052313D01*
X137322882Y-129099394D01*
X137260935Y-129139141D01*
X137189911Y-129168027D01*
X137102421Y-129187623D01*
X137230464Y-129221140D01*
X137334230Y-129278012D01*
X137418227Y-129358471D01*
X137479716Y-129457933D01*
X137518071Y-129577048D01*
X137531678Y-129720806D01*
X137519153Y-129856472D01*
X137483965Y-129968270D01*
X137427823Y-130060982D01*
X137349839Y-130137850D01*
X137256156Y-130195798D01*
X137138338Y-130240255D01*
X136991175Y-130269383D01*
X136808475Y-130280000D01*
X136204096Y-130280000D01*
X136204096Y-130053098D01*
X136481678Y-130053098D01*
X136808475Y-130053098D01*
X136965770Y-130041576D01*
X137076165Y-130011662D01*
X137151636Y-129968224D01*
X137205901Y-129904450D01*
X137240998Y-129815319D01*
X137254096Y-129692107D01*
X137240468Y-129563528D01*
X137203599Y-129468287D01*
X137146140Y-129398161D01*
X137067578Y-129349779D01*
X136958274Y-129317427D01*
X136808475Y-129305226D01*
X136481678Y-129305226D01*
X136481678Y-130053098D01*
X136204096Y-130053098D01*
X136204096Y-129081011D01*
X136481678Y-129081011D01*
X136802979Y-129081011D01*
X136936237Y-129070480D01*
X137029350Y-129043109D01*
X137092773Y-129003098D01*
X137140004Y-128945965D01*
X137170403Y-128867633D01*
X137181678Y-128761053D01*
X137170440Y-128658309D01*
X137140489Y-128585289D01*
X137094239Y-128534152D01*
X137030765Y-128499305D01*
X136937142Y-128475118D01*
X136802979Y-128465764D01*
X136481678Y-128465764D01*
X136481678Y-129081011D01*
X136204096Y-129081011D01*
X136204096Y-128238740D01*
X136808475Y-128238740D01*
X136966122Y-128248561D01*
G37*
G36*
X139296699Y-130280000D02*
G01*
X139010935Y-130280000D01*
X138860481Y-129748161D01*
X138145460Y-129748161D01*
X137997815Y-130280000D01*
X137712051Y-130280000D01*
X137942636Y-129526632D01*
X138212505Y-129526632D01*
X138794902Y-129526632D01*
X138503642Y-128482128D01*
X138212505Y-129526632D01*
X137942636Y-129526632D01*
X138336824Y-128238740D01*
X138671803Y-128238740D01*
X139296699Y-130280000D01*
G37*
G36*
X141108004Y-128238740D02*
G01*
X141393768Y-128238740D01*
X141872240Y-130047602D01*
X142352177Y-128238740D01*
X142637941Y-128238740D01*
X142040401Y-130280000D01*
X141705422Y-130280000D01*
X141108004Y-128238740D01*
G37*
G36*
X143587219Y-128793061D02*
G01*
X143618698Y-128833593D01*
X143641993Y-128891502D01*
X143664616Y-128981116D01*
X143686475Y-129134256D01*
X143694658Y-129265537D01*
X143689895Y-129373614D01*
X143671454Y-129538967D01*
X143645953Y-129643861D01*
X143617974Y-129702144D01*
X143589447Y-129730249D01*
X143559347Y-129738635D01*
X143522302Y-129725473D01*
X143491570Y-129679895D01*
X143451270Y-129541775D01*
X143428677Y-129389979D01*
X143419884Y-129254668D01*
X143425258Y-129137065D01*
X143447240Y-128977086D01*
X143484370Y-128849479D01*
X143519946Y-128795562D01*
X143553852Y-128781570D01*
X143587219Y-128793061D01*
G37*
G36*
X143684850Y-128213223D02*
G01*
X143795711Y-128245741D01*
X143892409Y-128298440D01*
X143977279Y-128372223D01*
X144051496Y-128469794D01*
X144099789Y-128560105D01*
X144141563Y-128668372D01*
X144175938Y-128797323D01*
X144206893Y-129002543D01*
X144218314Y-129261385D01*
X144206883Y-129520261D01*
X144175938Y-129724958D01*
X144141584Y-129853410D01*
X144099814Y-129961408D01*
X144051496Y-130051632D01*
X143976742Y-130149357D01*
X143891568Y-130223201D01*
X143794825Y-130275886D01*
X143684223Y-130308356D01*
X143556538Y-130319689D01*
X143428211Y-130308306D01*
X143317521Y-130275752D01*
X143221140Y-130223025D01*
X143136708Y-130149224D01*
X143063046Y-130051632D01*
X142996003Y-129916656D01*
X142943628Y-129745275D01*
X142908935Y-129529786D01*
X142896228Y-129261385D01*
X143173810Y-129261385D01*
X143181453Y-129485483D01*
X143201970Y-129659888D01*
X143232153Y-129793202D01*
X143269431Y-129893119D01*
X143326829Y-129988551D01*
X143392720Y-130051506D01*
X143468140Y-130088266D01*
X143556538Y-130100847D01*
X143647090Y-130088133D01*
X143723590Y-130051164D01*
X143789670Y-129988187D01*
X143846454Y-129893119D01*
X143883315Y-129791871D01*
X143913073Y-129657864D01*
X143933239Y-129483762D01*
X143940732Y-129261385D01*
X143933217Y-129038224D01*
X143913017Y-128864003D01*
X143883257Y-128730353D01*
X143846454Y-128629773D01*
X143789588Y-128533928D01*
X143723466Y-128470526D01*
X143646993Y-128433353D01*
X143556538Y-128420579D01*
X143467468Y-128433220D01*
X143391870Y-128470075D01*
X143326210Y-128533063D01*
X143269431Y-128628429D01*
X143229108Y-128738617D01*
X143197623Y-128886228D01*
X143180299Y-129049340D01*
X143173810Y-129261385D01*
X142896228Y-129261385D01*
X142908945Y-128992299D01*
X142943653Y-128776397D01*
X142996030Y-128604814D01*
X143063046Y-128469794D01*
X143136702Y-128372253D01*
X143221130Y-128298486D01*
X143317510Y-128245780D01*
X143428204Y-128213238D01*
X143556538Y-128201859D01*
X143684850Y-128213223D01*
G37*
G36*
X145236807Y-130316880D02*
G01*
X145177423Y-130309601D01*
X145125620Y-130288377D01*
X145079515Y-130252644D01*
X145044262Y-130206336D01*
X145022802Y-130151549D01*
X145015279Y-130085826D01*
X145022799Y-130020185D01*
X145044256Y-129965436D01*
X145079515Y-129919131D01*
X145125629Y-129883325D01*
X145177431Y-129862063D01*
X145236807Y-129854773D01*
X145296102Y-129862060D01*
X145347865Y-129883319D01*
X145393977Y-129919131D01*
X145429236Y-129965436D01*
X145450693Y-130020185D01*
X145458213Y-130085826D01*
X145450689Y-130151549D01*
X145429230Y-130206336D01*
X145393977Y-130252644D01*
X145347874Y-130288383D01*
X145296110Y-130309604D01*
X145236807Y-130316880D01*
G37*
G36*
X146452159Y-130047602D02*
G01*
X146881416Y-130047602D01*
X146881416Y-128583367D01*
X146556085Y-128953883D01*
X146405631Y-128770579D01*
X146878729Y-128238740D01*
X147154846Y-128238740D01*
X147154846Y-130047602D01*
X147578729Y-130047602D01*
X147578729Y-130280000D01*
X146452159Y-130280000D01*
X146452159Y-130047602D01*
G37*
D11*
X89511905Y-118157200D02*
X89654762Y-118204819D01*
X89654762Y-118204819D02*
X89892857Y-118204819D01*
X89892857Y-118204819D02*
X89988095Y-118157200D01*
X89988095Y-118157200D02*
X90035714Y-118109580D01*
X90035714Y-118109580D02*
X90083333Y-118014342D01*
X90083333Y-118014342D02*
X90083333Y-117919104D01*
X90083333Y-117919104D02*
X90035714Y-117823866D01*
X90035714Y-117823866D02*
X89988095Y-117776247D01*
X89988095Y-117776247D02*
X89892857Y-117728628D01*
X89892857Y-117728628D02*
X89702381Y-117681009D01*
X89702381Y-117681009D02*
X89607143Y-117633390D01*
X89607143Y-117633390D02*
X89559524Y-117585771D01*
X89559524Y-117585771D02*
X89511905Y-117490533D01*
X89511905Y-117490533D02*
X89511905Y-117395295D01*
X89511905Y-117395295D02*
X89559524Y-117300057D01*
X89559524Y-117300057D02*
X89607143Y-117252438D01*
X89607143Y-117252438D02*
X89702381Y-117204819D01*
X89702381Y-117204819D02*
X89940476Y-117204819D01*
X89940476Y-117204819D02*
X90083333Y-117252438D01*
X90511905Y-117681009D02*
X90845238Y-117681009D01*
X90988095Y-118204819D02*
X90511905Y-118204819D01*
X90511905Y-118204819D02*
X90511905Y-117204819D01*
X90511905Y-117204819D02*
X90988095Y-117204819D01*
X91416667Y-117681009D02*
X91750000Y-117681009D01*
X91892857Y-118204819D02*
X91416667Y-118204819D01*
X91416667Y-118204819D02*
X91416667Y-117204819D01*
X91416667Y-117204819D02*
X91892857Y-117204819D01*
X92321429Y-117681009D02*
X92654762Y-117681009D01*
X92797619Y-118204819D02*
X92321429Y-118204819D01*
X92321429Y-118204819D02*
X92321429Y-117204819D01*
X92321429Y-117204819D02*
X92797619Y-117204819D01*
X93226191Y-118204819D02*
X93226191Y-117204819D01*
X93226191Y-117204819D02*
X93464286Y-117204819D01*
X93464286Y-117204819D02*
X93607143Y-117252438D01*
X93607143Y-117252438D02*
X93702381Y-117347676D01*
X93702381Y-117347676D02*
X93750000Y-117442914D01*
X93750000Y-117442914D02*
X93797619Y-117633390D01*
X93797619Y-117633390D02*
X93797619Y-117776247D01*
X93797619Y-117776247D02*
X93750000Y-117966723D01*
X93750000Y-117966723D02*
X93702381Y-118061961D01*
X93702381Y-118061961D02*
X93607143Y-118157200D01*
X93607143Y-118157200D02*
X93464286Y-118204819D01*
X93464286Y-118204819D02*
X93226191Y-118204819D01*
X94226191Y-117204819D02*
X94226191Y-118014342D01*
X94226191Y-118014342D02*
X94273810Y-118109580D01*
X94273810Y-118109580D02*
X94321429Y-118157200D01*
X94321429Y-118157200D02*
X94416667Y-118204819D01*
X94416667Y-118204819D02*
X94607143Y-118204819D01*
X94607143Y-118204819D02*
X94702381Y-118157200D01*
X94702381Y-118157200D02*
X94750000Y-118109580D01*
X94750000Y-118109580D02*
X94797619Y-118014342D01*
X94797619Y-118014342D02*
X94797619Y-117204819D01*
X95273810Y-118204819D02*
X95273810Y-117204819D01*
X95750000Y-118204819D02*
X95750000Y-117204819D01*
X95750000Y-117204819D02*
X96321428Y-118204819D01*
X96321428Y-118204819D02*
X96321428Y-117204819D01*
X96988095Y-117204819D02*
X97178571Y-117204819D01*
X97178571Y-117204819D02*
X97273809Y-117252438D01*
X97273809Y-117252438D02*
X97369047Y-117347676D01*
X97369047Y-117347676D02*
X97416666Y-117538152D01*
X97416666Y-117538152D02*
X97416666Y-117871485D01*
X97416666Y-117871485D02*
X97369047Y-118061961D01*
X97369047Y-118061961D02*
X97273809Y-118157200D01*
X97273809Y-118157200D02*
X97178571Y-118204819D01*
X97178571Y-118204819D02*
X96988095Y-118204819D01*
X96988095Y-118204819D02*
X96892857Y-118157200D01*
X96892857Y-118157200D02*
X96797619Y-118061961D01*
X96797619Y-118061961D02*
X96750000Y-117871485D01*
X96750000Y-117871485D02*
X96750000Y-117538152D01*
X96750000Y-117538152D02*
X96797619Y-117347676D01*
X96797619Y-117347676D02*
X96892857Y-117252438D01*
X96892857Y-117252438D02*
X96988095Y-117204819D01*
X97845238Y-117823866D02*
X98607143Y-117823866D01*
X98988095Y-117204819D02*
X99654761Y-118204819D01*
X99654761Y-117204819D02*
X98988095Y-118204819D01*
X100035714Y-118204819D02*
X100035714Y-117204819D01*
X100464285Y-117919104D02*
X100940475Y-117919104D01*
X100369047Y-118204819D02*
X100702380Y-117204819D01*
X100702380Y-117204819D02*
X101035713Y-118204819D01*
X101559523Y-117204819D02*
X101749999Y-117204819D01*
X101749999Y-117204819D02*
X101845237Y-117252438D01*
X101845237Y-117252438D02*
X101940475Y-117347676D01*
X101940475Y-117347676D02*
X101988094Y-117538152D01*
X101988094Y-117538152D02*
X101988094Y-117871485D01*
X101988094Y-117871485D02*
X101940475Y-118061961D01*
X101940475Y-118061961D02*
X101845237Y-118157200D01*
X101845237Y-118157200D02*
X101749999Y-118204819D01*
X101749999Y-118204819D02*
X101559523Y-118204819D01*
X101559523Y-118204819D02*
X101464285Y-118157200D01*
X101464285Y-118157200D02*
X101369047Y-118061961D01*
X101369047Y-118061961D02*
X101321428Y-117871485D01*
X101321428Y-117871485D02*
X101321428Y-117538152D01*
X101321428Y-117538152D02*
X101369047Y-117347676D01*
X101369047Y-117347676D02*
X101464285Y-117252438D01*
X101464285Y-117252438D02*
X101559523Y-117204819D01*
X140606667Y-103367200D02*
X140749524Y-103414819D01*
X140749524Y-103414819D02*
X140987619Y-103414819D01*
X140987619Y-103414819D02*
X141082857Y-103367200D01*
X141082857Y-103367200D02*
X141130476Y-103319580D01*
X141130476Y-103319580D02*
X141178095Y-103224342D01*
X141178095Y-103224342D02*
X141178095Y-103129104D01*
X141178095Y-103129104D02*
X141130476Y-103033866D01*
X141130476Y-103033866D02*
X141082857Y-102986247D01*
X141082857Y-102986247D02*
X140987619Y-102938628D01*
X140987619Y-102938628D02*
X140797143Y-102891009D01*
X140797143Y-102891009D02*
X140701905Y-102843390D01*
X140701905Y-102843390D02*
X140654286Y-102795771D01*
X140654286Y-102795771D02*
X140606667Y-102700533D01*
X140606667Y-102700533D02*
X140606667Y-102605295D01*
X140606667Y-102605295D02*
X140654286Y-102510057D01*
X140654286Y-102510057D02*
X140701905Y-102462438D01*
X140701905Y-102462438D02*
X140797143Y-102414819D01*
X140797143Y-102414819D02*
X141035238Y-102414819D01*
X141035238Y-102414819D02*
X141178095Y-102462438D01*
X141511429Y-102414819D02*
X141749524Y-103414819D01*
X141749524Y-103414819D02*
X141940000Y-102700533D01*
X141940000Y-102700533D02*
X142130476Y-103414819D01*
X142130476Y-103414819D02*
X142368572Y-102414819D01*
X143273333Y-103414819D02*
X142701905Y-103414819D01*
X142987619Y-103414819D02*
X142987619Y-102414819D01*
X142987619Y-102414819D02*
X142892381Y-102557676D01*
X142892381Y-102557676D02*
X142797143Y-102652914D01*
X142797143Y-102652914D02*
X142701905Y-102700533D01*
X114906667Y-94167200D02*
X115049524Y-94214819D01*
X115049524Y-94214819D02*
X115287619Y-94214819D01*
X115287619Y-94214819D02*
X115382857Y-94167200D01*
X115382857Y-94167200D02*
X115430476Y-94119580D01*
X115430476Y-94119580D02*
X115478095Y-94024342D01*
X115478095Y-94024342D02*
X115478095Y-93929104D01*
X115478095Y-93929104D02*
X115430476Y-93833866D01*
X115430476Y-93833866D02*
X115382857Y-93786247D01*
X115382857Y-93786247D02*
X115287619Y-93738628D01*
X115287619Y-93738628D02*
X115097143Y-93691009D01*
X115097143Y-93691009D02*
X115001905Y-93643390D01*
X115001905Y-93643390D02*
X114954286Y-93595771D01*
X114954286Y-93595771D02*
X114906667Y-93500533D01*
X114906667Y-93500533D02*
X114906667Y-93405295D01*
X114906667Y-93405295D02*
X114954286Y-93310057D01*
X114954286Y-93310057D02*
X115001905Y-93262438D01*
X115001905Y-93262438D02*
X115097143Y-93214819D01*
X115097143Y-93214819D02*
X115335238Y-93214819D01*
X115335238Y-93214819D02*
X115478095Y-93262438D01*
X115811429Y-93214819D02*
X116049524Y-94214819D01*
X116049524Y-94214819D02*
X116240000Y-93500533D01*
X116240000Y-93500533D02*
X116430476Y-94214819D01*
X116430476Y-94214819D02*
X116668572Y-93214819D01*
X117478095Y-93548152D02*
X117478095Y-94214819D01*
X117240000Y-93167200D02*
X117001905Y-93881485D01*
X117001905Y-93881485D02*
X117620952Y-93881485D01*
X140606667Y-118367200D02*
X140749524Y-118414819D01*
X140749524Y-118414819D02*
X140987619Y-118414819D01*
X140987619Y-118414819D02*
X141082857Y-118367200D01*
X141082857Y-118367200D02*
X141130476Y-118319580D01*
X141130476Y-118319580D02*
X141178095Y-118224342D01*
X141178095Y-118224342D02*
X141178095Y-118129104D01*
X141178095Y-118129104D02*
X141130476Y-118033866D01*
X141130476Y-118033866D02*
X141082857Y-117986247D01*
X141082857Y-117986247D02*
X140987619Y-117938628D01*
X140987619Y-117938628D02*
X140797143Y-117891009D01*
X140797143Y-117891009D02*
X140701905Y-117843390D01*
X140701905Y-117843390D02*
X140654286Y-117795771D01*
X140654286Y-117795771D02*
X140606667Y-117700533D01*
X140606667Y-117700533D02*
X140606667Y-117605295D01*
X140606667Y-117605295D02*
X140654286Y-117510057D01*
X140654286Y-117510057D02*
X140701905Y-117462438D01*
X140701905Y-117462438D02*
X140797143Y-117414819D01*
X140797143Y-117414819D02*
X141035238Y-117414819D01*
X141035238Y-117414819D02*
X141178095Y-117462438D01*
X141511429Y-117414819D02*
X141749524Y-118414819D01*
X141749524Y-118414819D02*
X141940000Y-117700533D01*
X141940000Y-117700533D02*
X142130476Y-118414819D01*
X142130476Y-118414819D02*
X142368572Y-117414819D01*
X142701905Y-117510057D02*
X142749524Y-117462438D01*
X142749524Y-117462438D02*
X142844762Y-117414819D01*
X142844762Y-117414819D02*
X143082857Y-117414819D01*
X143082857Y-117414819D02*
X143178095Y-117462438D01*
X143178095Y-117462438D02*
X143225714Y-117510057D01*
X143225714Y-117510057D02*
X143273333Y-117605295D01*
X143273333Y-117605295D02*
X143273333Y-117700533D01*
X143273333Y-117700533D02*
X143225714Y-117843390D01*
X143225714Y-117843390D02*
X142654286Y-118414819D01*
X142654286Y-118414819D02*
X143273333Y-118414819D01*
D10*
X84357142Y-95457419D02*
X84357142Y-94933609D01*
X84357142Y-94933609D02*
X84309523Y-94838371D01*
X84309523Y-94838371D02*
X84214285Y-94790752D01*
X84214285Y-94790752D02*
X84023809Y-94790752D01*
X84023809Y-94790752D02*
X83928571Y-94838371D01*
X84357142Y-95409800D02*
X84261904Y-95457419D01*
X84261904Y-95457419D02*
X84023809Y-95457419D01*
X84023809Y-95457419D02*
X83928571Y-95409800D01*
X83928571Y-95409800D02*
X83880952Y-95314561D01*
X83880952Y-95314561D02*
X83880952Y-95219323D01*
X83880952Y-95219323D02*
X83928571Y-95124085D01*
X83928571Y-95124085D02*
X84023809Y-95076466D01*
X84023809Y-95076466D02*
X84261904Y-95076466D01*
X84261904Y-95076466D02*
X84357142Y-95028847D01*
X85261904Y-95457419D02*
X85261904Y-94457419D01*
X85261904Y-95409800D02*
X85166666Y-95457419D01*
X85166666Y-95457419D02*
X84976190Y-95457419D01*
X84976190Y-95457419D02*
X84880952Y-95409800D01*
X84880952Y-95409800D02*
X84833333Y-95362180D01*
X84833333Y-95362180D02*
X84785714Y-95266942D01*
X84785714Y-95266942D02*
X84785714Y-94981228D01*
X84785714Y-94981228D02*
X84833333Y-94885990D01*
X84833333Y-94885990D02*
X84880952Y-94838371D01*
X84880952Y-94838371D02*
X84976190Y-94790752D01*
X84976190Y-94790752D02*
X85166666Y-94790752D01*
X85166666Y-94790752D02*
X85261904Y-94838371D01*
X86166666Y-95457419D02*
X86166666Y-94933609D01*
X86166666Y-94933609D02*
X86119047Y-94838371D01*
X86119047Y-94838371D02*
X86023809Y-94790752D01*
X86023809Y-94790752D02*
X85833333Y-94790752D01*
X85833333Y-94790752D02*
X85738095Y-94838371D01*
X86166666Y-95409800D02*
X86071428Y-95457419D01*
X86071428Y-95457419D02*
X85833333Y-95457419D01*
X85833333Y-95457419D02*
X85738095Y-95409800D01*
X85738095Y-95409800D02*
X85690476Y-95314561D01*
X85690476Y-95314561D02*
X85690476Y-95219323D01*
X85690476Y-95219323D02*
X85738095Y-95124085D01*
X85738095Y-95124085D02*
X85833333Y-95076466D01*
X85833333Y-95076466D02*
X86071428Y-95076466D01*
X86071428Y-95076466D02*
X86166666Y-95028847D01*
X86500000Y-94790752D02*
X86880952Y-94790752D01*
X86642857Y-95457419D02*
X86642857Y-94600276D01*
X86642857Y-94600276D02*
X86690476Y-94505038D01*
X86690476Y-94505038D02*
X86785714Y-94457419D01*
X86785714Y-94457419D02*
X86880952Y-94457419D01*
X87214286Y-95457419D02*
X87214286Y-94790752D01*
X87214286Y-94981228D02*
X87261905Y-94885990D01*
X87261905Y-94885990D02*
X87309524Y-94838371D01*
X87309524Y-94838371D02*
X87404762Y-94790752D01*
X87404762Y-94790752D02*
X87500000Y-94790752D01*
X88261905Y-94790752D02*
X88261905Y-95457419D01*
X87833334Y-94790752D02*
X87833334Y-95314561D01*
X87833334Y-95314561D02*
X87880953Y-95409800D01*
X87880953Y-95409800D02*
X87976191Y-95457419D01*
X87976191Y-95457419D02*
X88119048Y-95457419D01*
X88119048Y-95457419D02*
X88214286Y-95409800D01*
X88214286Y-95409800D02*
X88261905Y-95362180D01*
X88738096Y-95457419D02*
X88738096Y-94790752D01*
X88738096Y-94457419D02*
X88690477Y-94505038D01*
X88690477Y-94505038D02*
X88738096Y-94552657D01*
X88738096Y-94552657D02*
X88785715Y-94505038D01*
X88785715Y-94505038D02*
X88738096Y-94457419D01*
X88738096Y-94457419D02*
X88738096Y-94552657D01*
X89071429Y-94790752D02*
X89452381Y-94790752D01*
X89214286Y-94457419D02*
X89214286Y-95314561D01*
X89214286Y-95314561D02*
X89261905Y-95409800D01*
X89261905Y-95409800D02*
X89357143Y-95457419D01*
X89357143Y-95457419D02*
X89452381Y-95457419D01*
X89785715Y-95457419D02*
X89785715Y-94457419D01*
X89785715Y-94838371D02*
X89880953Y-94790752D01*
X89880953Y-94790752D02*
X90071429Y-94790752D01*
X90071429Y-94790752D02*
X90166667Y-94838371D01*
X90166667Y-94838371D02*
X90214286Y-94885990D01*
X90214286Y-94885990D02*
X90261905Y-94981228D01*
X90261905Y-94981228D02*
X90261905Y-95266942D01*
X90261905Y-95266942D02*
X90214286Y-95362180D01*
X90214286Y-95362180D02*
X90166667Y-95409800D01*
X90166667Y-95409800D02*
X90071429Y-95457419D01*
X90071429Y-95457419D02*
X89880953Y-95457419D01*
X89880953Y-95457419D02*
X89785715Y-95409800D01*
X91119048Y-94790752D02*
X91119048Y-95790752D01*
X91119048Y-95409800D02*
X91023810Y-95457419D01*
X91023810Y-95457419D02*
X90833334Y-95457419D01*
X90833334Y-95457419D02*
X90738096Y-95409800D01*
X90738096Y-95409800D02*
X90690477Y-95362180D01*
X90690477Y-95362180D02*
X90642858Y-95266942D01*
X90642858Y-95266942D02*
X90642858Y-94981228D01*
X90642858Y-94981228D02*
X90690477Y-94885990D01*
X90690477Y-94885990D02*
X90738096Y-94838371D01*
X90738096Y-94838371D02*
X90833334Y-94790752D01*
X90833334Y-94790752D02*
X91023810Y-94790752D01*
X91023810Y-94790752D02*
X91119048Y-94838371D01*
X92119048Y-95457419D02*
X91547620Y-95457419D01*
X91833334Y-95457419D02*
X91833334Y-94457419D01*
X91833334Y-94457419D02*
X91738096Y-94600276D01*
X91738096Y-94600276D02*
X91642858Y-94695514D01*
X91642858Y-94695514D02*
X91547620Y-94743133D01*
X123783333Y-99489800D02*
X123926190Y-99537419D01*
X123926190Y-99537419D02*
X124164285Y-99537419D01*
X124164285Y-99537419D02*
X124259523Y-99489800D01*
X124259523Y-99489800D02*
X124307142Y-99442180D01*
X124307142Y-99442180D02*
X124354761Y-99346942D01*
X124354761Y-99346942D02*
X124354761Y-99251704D01*
X124354761Y-99251704D02*
X124307142Y-99156466D01*
X124307142Y-99156466D02*
X124259523Y-99108847D01*
X124259523Y-99108847D02*
X124164285Y-99061228D01*
X124164285Y-99061228D02*
X123973809Y-99013609D01*
X123973809Y-99013609D02*
X123878571Y-98965990D01*
X123878571Y-98965990D02*
X123830952Y-98918371D01*
X123830952Y-98918371D02*
X123783333Y-98823133D01*
X123783333Y-98823133D02*
X123783333Y-98727895D01*
X123783333Y-98727895D02*
X123830952Y-98632657D01*
X123830952Y-98632657D02*
X123878571Y-98585038D01*
X123878571Y-98585038D02*
X123973809Y-98537419D01*
X123973809Y-98537419D02*
X124211904Y-98537419D01*
X124211904Y-98537419D02*
X124354761Y-98585038D01*
X124735714Y-99489800D02*
X124878571Y-99537419D01*
X124878571Y-99537419D02*
X125116666Y-99537419D01*
X125116666Y-99537419D02*
X125211904Y-99489800D01*
X125211904Y-99489800D02*
X125259523Y-99442180D01*
X125259523Y-99442180D02*
X125307142Y-99346942D01*
X125307142Y-99346942D02*
X125307142Y-99251704D01*
X125307142Y-99251704D02*
X125259523Y-99156466D01*
X125259523Y-99156466D02*
X125211904Y-99108847D01*
X125211904Y-99108847D02*
X125116666Y-99061228D01*
X125116666Y-99061228D02*
X124926190Y-99013609D01*
X124926190Y-99013609D02*
X124830952Y-98965990D01*
X124830952Y-98965990D02*
X124783333Y-98918371D01*
X124783333Y-98918371D02*
X124735714Y-98823133D01*
X124735714Y-98823133D02*
X124735714Y-98727895D01*
X124735714Y-98727895D02*
X124783333Y-98632657D01*
X124783333Y-98632657D02*
X124830952Y-98585038D01*
X124830952Y-98585038D02*
X124926190Y-98537419D01*
X124926190Y-98537419D02*
X125164285Y-98537419D01*
X125164285Y-98537419D02*
X125307142Y-98585038D01*
X125735714Y-99537419D02*
X125735714Y-98537419D01*
X125735714Y-98537419D02*
X125973809Y-98537419D01*
X125973809Y-98537419D02*
X126116666Y-98585038D01*
X126116666Y-98585038D02*
X126211904Y-98680276D01*
X126211904Y-98680276D02*
X126259523Y-98775514D01*
X126259523Y-98775514D02*
X126307142Y-98965990D01*
X126307142Y-98965990D02*
X126307142Y-99108847D01*
X126307142Y-99108847D02*
X126259523Y-99299323D01*
X126259523Y-99299323D02*
X126211904Y-99394561D01*
X126211904Y-99394561D02*
X126116666Y-99489800D01*
X126116666Y-99489800D02*
X125973809Y-99537419D01*
X125973809Y-99537419D02*
X125735714Y-99537419D01*
X127259523Y-99537419D02*
X126688095Y-99537419D01*
X126973809Y-99537419D02*
X126973809Y-98537419D01*
X126973809Y-98537419D02*
X126878571Y-98680276D01*
X126878571Y-98680276D02*
X126783333Y-98775514D01*
X126783333Y-98775514D02*
X126688095Y-98823133D01*
X127592857Y-98537419D02*
X128211904Y-98537419D01*
X128211904Y-98537419D02*
X127878571Y-98918371D01*
X127878571Y-98918371D02*
X128021428Y-98918371D01*
X128021428Y-98918371D02*
X128116666Y-98965990D01*
X128116666Y-98965990D02*
X128164285Y-99013609D01*
X128164285Y-99013609D02*
X128211904Y-99108847D01*
X128211904Y-99108847D02*
X128211904Y-99346942D01*
X128211904Y-99346942D02*
X128164285Y-99442180D01*
X128164285Y-99442180D02*
X128116666Y-99489800D01*
X128116666Y-99489800D02*
X128021428Y-99537419D01*
X128021428Y-99537419D02*
X127735714Y-99537419D01*
X127735714Y-99537419D02*
X127640476Y-99489800D01*
X127640476Y-99489800D02*
X127592857Y-99442180D01*
X128830952Y-98537419D02*
X128926190Y-98537419D01*
X128926190Y-98537419D02*
X129021428Y-98585038D01*
X129021428Y-98585038D02*
X129069047Y-98632657D01*
X129069047Y-98632657D02*
X129116666Y-98727895D01*
X129116666Y-98727895D02*
X129164285Y-98918371D01*
X129164285Y-98918371D02*
X129164285Y-99156466D01*
X129164285Y-99156466D02*
X129116666Y-99346942D01*
X129116666Y-99346942D02*
X129069047Y-99442180D01*
X129069047Y-99442180D02*
X129021428Y-99489800D01*
X129021428Y-99489800D02*
X128926190Y-99537419D01*
X128926190Y-99537419D02*
X128830952Y-99537419D01*
X128830952Y-99537419D02*
X128735714Y-99489800D01*
X128735714Y-99489800D02*
X128688095Y-99442180D01*
X128688095Y-99442180D02*
X128640476Y-99346942D01*
X128640476Y-99346942D02*
X128592857Y-99156466D01*
X128592857Y-99156466D02*
X128592857Y-98918371D01*
X128592857Y-98918371D02*
X128640476Y-98727895D01*
X128640476Y-98727895D02*
X128688095Y-98632657D01*
X128688095Y-98632657D02*
X128735714Y-98585038D01*
X128735714Y-98585038D02*
X128830952Y-98537419D01*
X130021428Y-98537419D02*
X129830952Y-98537419D01*
X129830952Y-98537419D02*
X129735714Y-98585038D01*
X129735714Y-98585038D02*
X129688095Y-98632657D01*
X129688095Y-98632657D02*
X129592857Y-98775514D01*
X129592857Y-98775514D02*
X129545238Y-98965990D01*
X129545238Y-98965990D02*
X129545238Y-99346942D01*
X129545238Y-99346942D02*
X129592857Y-99442180D01*
X129592857Y-99442180D02*
X129640476Y-99489800D01*
X129640476Y-99489800D02*
X129735714Y-99537419D01*
X129735714Y-99537419D02*
X129926190Y-99537419D01*
X129926190Y-99537419D02*
X130021428Y-99489800D01*
X130021428Y-99489800D02*
X130069047Y-99442180D01*
X130069047Y-99442180D02*
X130116666Y-99346942D01*
X130116666Y-99346942D02*
X130116666Y-99108847D01*
X130116666Y-99108847D02*
X130069047Y-99013609D01*
X130069047Y-99013609D02*
X130021428Y-98965990D01*
X130021428Y-98965990D02*
X129926190Y-98918371D01*
X129926190Y-98918371D02*
X129735714Y-98918371D01*
X129735714Y-98918371D02*
X129640476Y-98965990D01*
X129640476Y-98965990D02*
X129592857Y-99013609D01*
X129592857Y-99013609D02*
X129545238Y-99108847D01*
D11*
X118106667Y-129867200D02*
X118249524Y-129914819D01*
X118249524Y-129914819D02*
X118487619Y-129914819D01*
X118487619Y-129914819D02*
X118582857Y-129867200D01*
X118582857Y-129867200D02*
X118630476Y-129819580D01*
X118630476Y-129819580D02*
X118678095Y-129724342D01*
X118678095Y-129724342D02*
X118678095Y-129629104D01*
X118678095Y-129629104D02*
X118630476Y-129533866D01*
X118630476Y-129533866D02*
X118582857Y-129486247D01*
X118582857Y-129486247D02*
X118487619Y-129438628D01*
X118487619Y-129438628D02*
X118297143Y-129391009D01*
X118297143Y-129391009D02*
X118201905Y-129343390D01*
X118201905Y-129343390D02*
X118154286Y-129295771D01*
X118154286Y-129295771D02*
X118106667Y-129200533D01*
X118106667Y-129200533D02*
X118106667Y-129105295D01*
X118106667Y-129105295D02*
X118154286Y-129010057D01*
X118154286Y-129010057D02*
X118201905Y-128962438D01*
X118201905Y-128962438D02*
X118297143Y-128914819D01*
X118297143Y-128914819D02*
X118535238Y-128914819D01*
X118535238Y-128914819D02*
X118678095Y-128962438D01*
X119011429Y-128914819D02*
X119249524Y-129914819D01*
X119249524Y-129914819D02*
X119440000Y-129200533D01*
X119440000Y-129200533D02*
X119630476Y-129914819D01*
X119630476Y-129914819D02*
X119868572Y-128914819D01*
X120154286Y-128914819D02*
X120773333Y-128914819D01*
X120773333Y-128914819D02*
X120440000Y-129295771D01*
X120440000Y-129295771D02*
X120582857Y-129295771D01*
X120582857Y-129295771D02*
X120678095Y-129343390D01*
X120678095Y-129343390D02*
X120725714Y-129391009D01*
X120725714Y-129391009D02*
X120773333Y-129486247D01*
X120773333Y-129486247D02*
X120773333Y-129724342D01*
X120773333Y-129724342D02*
X120725714Y-129819580D01*
X120725714Y-129819580D02*
X120678095Y-129867200D01*
X120678095Y-129867200D02*
X120582857Y-129914819D01*
X120582857Y-129914819D02*
X120297143Y-129914819D01*
X120297143Y-129914819D02*
X120201905Y-129867200D01*
X120201905Y-129867200D02*
X120154286Y-129819580D01*
%TO.C,SW1*%
D12*
X145440000Y-107960000D02*
X145440000Y-106460000D01*
X144190000Y-103960000D02*
X139690000Y-103960000D01*
X139690000Y-110460000D02*
X144190000Y-110460000D01*
X138440000Y-106460000D02*
X138440000Y-107960000D01*
D13*
%TO.C,G\u002A\u002A\u002A*%
G36*
X120051456Y-107233373D02*
G01*
X120103544Y-107253768D01*
X120169195Y-107287753D01*
X120206076Y-107308930D01*
X120242914Y-107330428D01*
X120296568Y-107361523D01*
X120367555Y-107402512D01*
X120456393Y-107453691D01*
X120563596Y-107515357D01*
X120689683Y-107587807D01*
X120835169Y-107671339D01*
X121000570Y-107766248D01*
X121186405Y-107872833D01*
X121393189Y-107991389D01*
X121500738Y-108053037D01*
X121655091Y-108141525D01*
X121818398Y-108235179D01*
X121987690Y-108332293D01*
X122159997Y-108431163D01*
X122332351Y-108530085D01*
X122501784Y-108627355D01*
X122665326Y-108721268D01*
X122820009Y-108810119D01*
X122962864Y-108892204D01*
X123090923Y-108965820D01*
X123201216Y-109029260D01*
X123232840Y-109047461D01*
X123295788Y-109083684D01*
X123363444Y-109122595D01*
X123437218Y-109165002D01*
X123518520Y-109211714D01*
X123608760Y-109263541D01*
X123709346Y-109321292D01*
X123821689Y-109385776D01*
X123947198Y-109457802D01*
X124087282Y-109538178D01*
X124243351Y-109627715D01*
X124416815Y-109727220D01*
X124609084Y-109837504D01*
X124821566Y-109959375D01*
X124833628Y-109966293D01*
X124944906Y-110030133D01*
X125070839Y-110102412D01*
X125204401Y-110179094D01*
X125338565Y-110256145D01*
X125466307Y-110329531D01*
X125580601Y-110395216D01*
X125590250Y-110400764D01*
X125702452Y-110465261D01*
X125828310Y-110537597D01*
X125960903Y-110613794D01*
X126093311Y-110689877D01*
X126218613Y-110761867D01*
X126329889Y-110825789D01*
X126340620Y-110831952D01*
X126448934Y-110894565D01*
X126537042Y-110946451D01*
X126606750Y-110988763D01*
X126659862Y-111022652D01*
X126698183Y-111049270D01*
X126723521Y-111069771D01*
X126737678Y-111085306D01*
X126737749Y-111085410D01*
X126765947Y-111126966D01*
X126762762Y-115007182D01*
X126759576Y-118887399D01*
X126729009Y-118919935D01*
X126721786Y-118927210D01*
X126712744Y-118935110D01*
X126700341Y-118944557D01*
X126683034Y-118956471D01*
X126659280Y-118971775D01*
X126627536Y-118991388D01*
X126586260Y-119016234D01*
X126533909Y-119047232D01*
X126468939Y-119085304D01*
X126389808Y-119131371D01*
X126294972Y-119186355D01*
X126182889Y-119251177D01*
X126052016Y-119326757D01*
X125921663Y-119401986D01*
X125818059Y-119461775D01*
X125714197Y-119521728D01*
X125613694Y-119579757D01*
X125520167Y-119633772D01*
X125437231Y-119681685D01*
X125368504Y-119721407D01*
X125317603Y-119750849D01*
X125315115Y-119752289D01*
X125273749Y-119776214D01*
X125213183Y-119811214D01*
X125135882Y-119855866D01*
X125044314Y-119908745D01*
X124940943Y-119968428D01*
X124828235Y-120033492D01*
X124708657Y-120102512D01*
X124584673Y-120174065D01*
X124458749Y-120246727D01*
X124458443Y-120246904D01*
X124257798Y-120362678D01*
X124077413Y-120466768D01*
X123915881Y-120559987D01*
X123771795Y-120643146D01*
X123643747Y-120717058D01*
X123530331Y-120782536D01*
X123430140Y-120840391D01*
X123341766Y-120891436D01*
X123263803Y-120936484D01*
X123194843Y-120976347D01*
X123133479Y-121011836D01*
X123120285Y-121019470D01*
X123062109Y-121053096D01*
X122988415Y-121095637D01*
X122905366Y-121143541D01*
X122819125Y-121193251D01*
X122735855Y-121241214D01*
X122726341Y-121246691D01*
X122639555Y-121296676D01*
X122545042Y-121351155D01*
X122450152Y-121405887D01*
X122362238Y-121456633D01*
X122288651Y-121499151D01*
X122288625Y-121499166D01*
X122222225Y-121537539D01*
X122139877Y-121585095D01*
X122047303Y-121638532D01*
X121950228Y-121694545D01*
X121854375Y-121749831D01*
X121794632Y-121784277D01*
X121708505Y-121833933D01*
X121622669Y-121883433D01*
X121541542Y-121930230D01*
X121469541Y-121971774D01*
X121411084Y-122005518D01*
X121375676Y-122025971D01*
X121322308Y-122056815D01*
X121254426Y-122096046D01*
X121179172Y-122139536D01*
X121103689Y-122183157D01*
X121069275Y-122203043D01*
X121008840Y-122237975D01*
X120931580Y-122282646D01*
X120842317Y-122334267D01*
X120745874Y-122390049D01*
X120647075Y-122447202D01*
X120550742Y-122502936D01*
X120537764Y-122510445D01*
X120418889Y-122579217D01*
X120319577Y-122636422D01*
X120237706Y-122682961D01*
X120171152Y-122719730D01*
X120117793Y-122747628D01*
X120075507Y-122767554D01*
X120042170Y-122780406D01*
X120015660Y-122787082D01*
X119993854Y-122788480D01*
X119974630Y-122785498D01*
X119955865Y-122779036D01*
X119935436Y-122769991D01*
X119930147Y-122767579D01*
X119912729Y-122759101D01*
X119887108Y-122745644D01*
X119851731Y-122726327D01*
X119805047Y-122700271D01*
X119745503Y-122666595D01*
X119671548Y-122624418D01*
X119581629Y-122572859D01*
X119474194Y-122511039D01*
X119347691Y-122438076D01*
X119255883Y-122385055D01*
X119187395Y-122345490D01*
X119102713Y-122296575D01*
X119003879Y-122239491D01*
X118892939Y-122175417D01*
X118771934Y-122105534D01*
X118642908Y-122031020D01*
X118507904Y-121953057D01*
X118368966Y-121872824D01*
X118228137Y-121791501D01*
X118087460Y-121710268D01*
X117948979Y-121630304D01*
X117814737Y-121552790D01*
X117686777Y-121478906D01*
X117567142Y-121409831D01*
X117457877Y-121346745D01*
X117361023Y-121290828D01*
X117278625Y-121243260D01*
X117212725Y-121205222D01*
X117165368Y-121177892D01*
X117148596Y-121168217D01*
X117094001Y-121136715D01*
X117021114Y-121094636D01*
X116933296Y-121043922D01*
X116833908Y-120986514D01*
X116726312Y-120924354D01*
X116613870Y-120859385D01*
X116499943Y-120793547D01*
X116423239Y-120749214D01*
X116305792Y-120681338D01*
X116183835Y-120610875D01*
X116061379Y-120540141D01*
X115942437Y-120471452D01*
X115831021Y-120407126D01*
X115731141Y-120349478D01*
X115646811Y-120300827D01*
X115610339Y-120279796D01*
X115519533Y-120227437D01*
X115423961Y-120172311D01*
X115329363Y-120117731D01*
X115241478Y-120067009D01*
X115166049Y-120023457D01*
X115128852Y-120001969D01*
X114882307Y-119859588D01*
X114627819Y-119712790D01*
X114403495Y-119583516D01*
X114279021Y-119511795D01*
X114172574Y-119450418D01*
X114080495Y-119397271D01*
X113999121Y-119350239D01*
X113924792Y-119307208D01*
X113853848Y-119266063D01*
X113840718Y-119258440D01*
X113785614Y-119226554D01*
X113715926Y-119186392D01*
X113638799Y-119142065D01*
X113613749Y-119127704D01*
X114357406Y-119127704D01*
X114358597Y-119129020D01*
X114359723Y-119130065D01*
X114366094Y-119134300D01*
X114382810Y-119144456D01*
X114410559Y-119160931D01*
X114450029Y-119184123D01*
X114501911Y-119214432D01*
X114566891Y-119252256D01*
X114645659Y-119297992D01*
X114738903Y-119352040D01*
X114847312Y-119414798D01*
X114971573Y-119486665D01*
X115112376Y-119568038D01*
X115270408Y-119659317D01*
X115446360Y-119760900D01*
X115640918Y-119873186D01*
X115854771Y-119996572D01*
X116088609Y-120131458D01*
X116343119Y-120278241D01*
X116467011Y-120349685D01*
X116568211Y-120408060D01*
X116678275Y-120471580D01*
X116790952Y-120536633D01*
X116899989Y-120599611D01*
X116999135Y-120656903D01*
X117073559Y-120699936D01*
X117160814Y-120750393D01*
X117252857Y-120803591D01*
X117343618Y-120856025D01*
X117427028Y-120904189D01*
X117497018Y-120944575D01*
X117517527Y-120956401D01*
X117668993Y-121043753D01*
X117808870Y-121124500D01*
X117934412Y-121197054D01*
X118042870Y-121259828D01*
X118105317Y-121296032D01*
X118157057Y-121326001D01*
X118223295Y-121364284D01*
X118296845Y-121406732D01*
X118370517Y-121449195D01*
X118399211Y-121465716D01*
X118474689Y-121509199D01*
X118556683Y-121556505D01*
X118636678Y-121602719D01*
X118706161Y-121642924D01*
X118724371Y-121653478D01*
X118775464Y-121683060D01*
X118843405Y-121722333D01*
X118923364Y-121768509D01*
X119010513Y-121818799D01*
X119100023Y-121870416D01*
X119168340Y-121909786D01*
X119258267Y-121961613D01*
X119351360Y-122015300D01*
X119442356Y-122067808D01*
X119525989Y-122116100D01*
X119596996Y-122157138D01*
X119637321Y-122180471D01*
X119695833Y-122214034D01*
X119746778Y-122242650D01*
X119786226Y-122264159D01*
X119810252Y-122276404D01*
X119815533Y-122278411D01*
X119816870Y-122266215D01*
X119818149Y-122230715D01*
X119819358Y-122173622D01*
X119820483Y-122096645D01*
X119821512Y-122001493D01*
X119822430Y-121889876D01*
X119823225Y-121763502D01*
X119823882Y-121624082D01*
X119824390Y-121473324D01*
X119824733Y-121312939D01*
X119824899Y-121144635D01*
X119824913Y-121079164D01*
X119824913Y-121077990D01*
X120187592Y-121077990D01*
X120187661Y-121248937D01*
X120187861Y-121412617D01*
X120188184Y-121567321D01*
X120188619Y-121711340D01*
X120189157Y-121842965D01*
X120189788Y-121960487D01*
X120190502Y-122062198D01*
X120191290Y-122146389D01*
X120192142Y-122211351D01*
X120193049Y-122255374D01*
X120194000Y-122276751D01*
X120194375Y-122278581D01*
X120206825Y-122272617D01*
X120237432Y-122256016D01*
X120282733Y-122230713D01*
X120339262Y-122198646D01*
X120403555Y-122161749D01*
X120406980Y-122159773D01*
X120491433Y-122111035D01*
X120588094Y-122055274D01*
X120687494Y-121997949D01*
X120780168Y-121944521D01*
X120822279Y-121920250D01*
X120875929Y-121889320D01*
X120948066Y-121847711D01*
X121035514Y-121797256D01*
X121135101Y-121739785D01*
X121243652Y-121677131D01*
X121357996Y-121611125D01*
X121474957Y-121543599D01*
X121588281Y-121478163D01*
X121704886Y-121410835D01*
X121822080Y-121343180D01*
X121936670Y-121277040D01*
X122045464Y-121214258D01*
X122145268Y-121156676D01*
X122232889Y-121106136D01*
X122305135Y-121064482D01*
X122357409Y-121034363D01*
X122427549Y-120993939D01*
X122513675Y-120944247D01*
X122610130Y-120888556D01*
X122711255Y-120830132D01*
X122811392Y-120772243D01*
X122888921Y-120727396D01*
X122976289Y-120676861D01*
X123082461Y-120615487D01*
X123204572Y-120544925D01*
X123339760Y-120466830D01*
X123485159Y-120382855D01*
X123637906Y-120294654D01*
X123795135Y-120203879D01*
X123953982Y-120112184D01*
X124111585Y-120021224D01*
X124265077Y-119932650D01*
X124411595Y-119848116D01*
X124548274Y-119769276D01*
X124672251Y-119697784D01*
X124780660Y-119635291D01*
X124870639Y-119583453D01*
X124871146Y-119583161D01*
X124966953Y-119527889D01*
X125072891Y-119466603D01*
X125181685Y-119403524D01*
X125286058Y-119342873D01*
X125378734Y-119288871D01*
X125408911Y-119271239D01*
X125659034Y-119124963D01*
X125583997Y-119133025D01*
X125551757Y-119136880D01*
X125498821Y-119143670D01*
X125429264Y-119152853D01*
X125347159Y-119163884D01*
X125256580Y-119176222D01*
X125161602Y-119189322D01*
X125158788Y-119189713D01*
X125051966Y-119204537D01*
X124927633Y-119221775D01*
X124793058Y-119240421D01*
X124655506Y-119259468D01*
X124522245Y-119277909D01*
X124400543Y-119294738D01*
X124395913Y-119295378D01*
X124278164Y-119311677D01*
X124151541Y-119329248D01*
X124022607Y-119347176D01*
X123897924Y-119364548D01*
X123784055Y-119380451D01*
X123687562Y-119393972D01*
X123676809Y-119395483D01*
X123588274Y-119407884D01*
X123480686Y-119422885D01*
X123359776Y-119439691D01*
X123231270Y-119457509D01*
X123100897Y-119475542D01*
X122974387Y-119492997D01*
X122907680Y-119502179D01*
X122791704Y-119518161D01*
X122673837Y-119534468D01*
X122558735Y-119550449D01*
X122451054Y-119565456D01*
X122355452Y-119578841D01*
X122276583Y-119589954D01*
X122232348Y-119596247D01*
X122171075Y-119604940D01*
X122089286Y-119616424D01*
X121991249Y-119630107D01*
X121881230Y-119645395D01*
X121763495Y-119661696D01*
X121642312Y-119678417D01*
X121521948Y-119694965D01*
X121513244Y-119696159D01*
X121393107Y-119712675D01*
X121271838Y-119729416D01*
X121153704Y-119745786D01*
X121042972Y-119761194D01*
X120943908Y-119775044D01*
X120860779Y-119786743D01*
X120797852Y-119795697D01*
X120794140Y-119796231D01*
X120729557Y-119805416D01*
X120655418Y-119815781D01*
X120575673Y-119826793D01*
X120494273Y-119837919D01*
X120415170Y-119848626D01*
X120342315Y-119858382D01*
X120279658Y-119866653D01*
X120231151Y-119872907D01*
X120200745Y-119876610D01*
X120192389Y-119877399D01*
X120191706Y-119889621D01*
X120191052Y-119925146D01*
X120190434Y-119982265D01*
X120189858Y-120059270D01*
X120189332Y-120154452D01*
X120188863Y-120266102D01*
X120188456Y-120392511D01*
X120188120Y-120531970D01*
X120187860Y-120682771D01*
X120187684Y-120843204D01*
X120187599Y-121011561D01*
X120187592Y-121077990D01*
X119824913Y-121077990D01*
X119824913Y-119879747D01*
X119759256Y-119871318D01*
X119734861Y-119868054D01*
X119688157Y-119861676D01*
X119621605Y-119852525D01*
X119537668Y-119840941D01*
X119438807Y-119827265D01*
X119327487Y-119811838D01*
X119206168Y-119795000D01*
X119077314Y-119777091D01*
X118980748Y-119763655D01*
X118833719Y-119743191D01*
X118681025Y-119721946D01*
X118526872Y-119700504D01*
X118375467Y-119679450D01*
X118231014Y-119659369D01*
X118097720Y-119640845D01*
X117979791Y-119624464D01*
X117881432Y-119610810D01*
X117861447Y-119608037D01*
X117514319Y-119559865D01*
X117183804Y-119513961D01*
X116872082Y-119470627D01*
X116581333Y-119430168D01*
X116379467Y-119402047D01*
X116116854Y-119365446D01*
X115877903Y-119332145D01*
X115661506Y-119301995D01*
X115466552Y-119274847D01*
X115291930Y-119250551D01*
X115136531Y-119228957D01*
X114999245Y-119209917D01*
X114878961Y-119193279D01*
X114774570Y-119178896D01*
X114684961Y-119166618D01*
X114609024Y-119156295D01*
X114545649Y-119147777D01*
X114493726Y-119140915D01*
X114452146Y-119135560D01*
X114419797Y-119131562D01*
X114395570Y-119128772D01*
X114378354Y-119127040D01*
X114367040Y-119126217D01*
X114360517Y-119126153D01*
X114357676Y-119126698D01*
X114357406Y-119127704D01*
X113613749Y-119127704D01*
X113561380Y-119097681D01*
X113521811Y-119075047D01*
X113455634Y-119036090D01*
X113394282Y-118997871D01*
X113342297Y-118963382D01*
X113304221Y-118935611D01*
X113287261Y-118920708D01*
X113246557Y-118877145D01*
X113246751Y-118640301D01*
X113691034Y-118640301D01*
X113693467Y-118648504D01*
X113698548Y-118652733D01*
X113701997Y-118654075D01*
X113720648Y-118657876D01*
X113760786Y-118664514D01*
X113819107Y-118673492D01*
X113892309Y-118684318D01*
X113977089Y-118696497D01*
X114070143Y-118709536D01*
X114103347Y-118714113D01*
X114214141Y-118729374D01*
X114331911Y-118745685D01*
X114450159Y-118762141D01*
X114562389Y-118777834D01*
X114662103Y-118791859D01*
X114734908Y-118802183D01*
X114810068Y-118812827D01*
X114904873Y-118826134D01*
X115014185Y-118841389D01*
X115132866Y-118857879D01*
X115255778Y-118874890D01*
X115377782Y-118891705D01*
X115454012Y-118902172D01*
X115575888Y-118918903D01*
X115704819Y-118936650D01*
X115835075Y-118954620D01*
X115960928Y-118972021D01*
X116076648Y-118988062D01*
X116176507Y-119001950D01*
X116223140Y-119008462D01*
X116507751Y-119048243D01*
X116794725Y-119088287D01*
X117077342Y-119127659D01*
X117348881Y-119165422D01*
X117602619Y-119200639D01*
X117611324Y-119201846D01*
X117725621Y-119217702D01*
X117850845Y-119235094D01*
X117979441Y-119252972D01*
X118103854Y-119270285D01*
X118216529Y-119285982D01*
X118286656Y-119295765D01*
X118397417Y-119311212D01*
X118518252Y-119328036D01*
X118645811Y-119345772D01*
X118776747Y-119363957D01*
X118907710Y-119382127D01*
X119035352Y-119399817D01*
X119156325Y-119416564D01*
X119267280Y-119431904D01*
X119364869Y-119445372D01*
X119445742Y-119456505D01*
X119506552Y-119464839D01*
X119524765Y-119467320D01*
X119576052Y-119473524D01*
X119616986Y-119477037D01*
X119642013Y-119477459D01*
X119647068Y-119476100D01*
X119645107Y-119470993D01*
X120362678Y-119470993D01*
X120364950Y-119473929D01*
X120373088Y-119475516D01*
X120389077Y-119475524D01*
X120414901Y-119473723D01*
X120452544Y-119469885D01*
X120503990Y-119463781D01*
X120571223Y-119455180D01*
X120656227Y-119443855D01*
X120760987Y-119429574D01*
X120887487Y-119412111D01*
X120962973Y-119401632D01*
X121066975Y-119387172D01*
X121191033Y-119369918D01*
X121330429Y-119350525D01*
X121480446Y-119329652D01*
X121636367Y-119307953D01*
X121793475Y-119286085D01*
X121947051Y-119264705D01*
X122082274Y-119245877D01*
X122224114Y-119226129D01*
X122370392Y-119205769D01*
X122516971Y-119185374D01*
X122659713Y-119165518D01*
X122794482Y-119146778D01*
X122917140Y-119129728D01*
X123023549Y-119114944D01*
X123109573Y-119103001D01*
X123114032Y-119102382D01*
X123222739Y-119087296D01*
X123348850Y-119069790D01*
X123484992Y-119050886D01*
X123623796Y-119031610D01*
X123757889Y-119012983D01*
X123879901Y-118996030D01*
X123883160Y-118995577D01*
X123967079Y-118983914D01*
X124048330Y-118972620D01*
X124128720Y-118961444D01*
X124210056Y-118950134D01*
X124294146Y-118938438D01*
X124382797Y-118926104D01*
X124477817Y-118912882D01*
X124581013Y-118898520D01*
X124694192Y-118882766D01*
X124819162Y-118865368D01*
X124957730Y-118846076D01*
X125111703Y-118824636D01*
X125282890Y-118800799D01*
X125473097Y-118774312D01*
X125684131Y-118744923D01*
X125917801Y-118712382D01*
X125963145Y-118706067D01*
X126053149Y-118693299D01*
X126135279Y-118681201D01*
X126206203Y-118670300D01*
X126262584Y-118661123D01*
X126301089Y-118654198D01*
X126318382Y-118650050D01*
X126318721Y-118649872D01*
X126321609Y-118647690D01*
X126323474Y-118644031D01*
X126323774Y-118637256D01*
X126321968Y-118625724D01*
X126317512Y-118607798D01*
X126309867Y-118581836D01*
X126298490Y-118546200D01*
X126282839Y-118499251D01*
X126262373Y-118439348D01*
X126236551Y-118364853D01*
X126204829Y-118274126D01*
X126166668Y-118165528D01*
X126121524Y-118037419D01*
X126068857Y-117888159D01*
X126040431Y-117807631D01*
X126001839Y-117698290D01*
X125963333Y-117589156D01*
X125924251Y-117478350D01*
X125883932Y-117363999D01*
X125841717Y-117244226D01*
X125796945Y-117117156D01*
X125748954Y-116980911D01*
X125697085Y-116833618D01*
X125640676Y-116673399D01*
X125579067Y-116498379D01*
X125511597Y-116306682D01*
X125437605Y-116096433D01*
X125356431Y-115865755D01*
X125296027Y-115694091D01*
X125252998Y-115571817D01*
X125203812Y-115432068D01*
X125150621Y-115280959D01*
X125095578Y-115124606D01*
X125040837Y-114969124D01*
X124988549Y-114820630D01*
X124940869Y-114685239D01*
X124939409Y-114681092D01*
X124892330Y-114547405D01*
X124840928Y-114401416D01*
X124787286Y-114249040D01*
X124733486Y-114096195D01*
X124681611Y-113948797D01*
X124633743Y-113812763D01*
X124591964Y-113694008D01*
X124589448Y-113686853D01*
X124538776Y-113542821D01*
X124489623Y-113403157D01*
X124442695Y-113269863D01*
X124398696Y-113144939D01*
X124358333Y-113030387D01*
X124322309Y-112928207D01*
X124291332Y-112840400D01*
X124266105Y-112768966D01*
X124247335Y-112715908D01*
X124235726Y-112683225D01*
X124232463Y-112674151D01*
X124229157Y-112667379D01*
X124224500Y-112666480D01*
X124216681Y-112674116D01*
X124203891Y-112692953D01*
X124184319Y-112725654D01*
X124156154Y-112774883D01*
X124117934Y-112842688D01*
X124095519Y-112882448D01*
X124062579Y-112940747D01*
X124020934Y-113014372D01*
X123972406Y-113100107D01*
X123918814Y-113194741D01*
X123861981Y-113295058D01*
X123803726Y-113397846D01*
X123745872Y-113499890D01*
X123690239Y-113597977D01*
X123638648Y-113688893D01*
X123592920Y-113769425D01*
X123558109Y-113830674D01*
X123529281Y-113881391D01*
X123490987Y-113948798D01*
X123446105Y-114027828D01*
X123397511Y-114113416D01*
X123348082Y-114200496D01*
X123320199Y-114249630D01*
X123267020Y-114343342D01*
X123208784Y-114445964D01*
X123149497Y-114550434D01*
X123093167Y-114649691D01*
X123043801Y-114736674D01*
X123029211Y-114762382D01*
X122981243Y-114846914D01*
X122929155Y-114938734D01*
X122877203Y-115030338D01*
X122829643Y-115114222D01*
X122795147Y-115175085D01*
X122774052Y-115212311D01*
X122751333Y-115252390D01*
X122726165Y-115296778D01*
X122697723Y-115346931D01*
X122665178Y-115404306D01*
X122627707Y-115470358D01*
X122584481Y-115546543D01*
X122534676Y-115634318D01*
X122477465Y-115735138D01*
X122412022Y-115850459D01*
X122337521Y-115981738D01*
X122253135Y-116130430D01*
X122158039Y-116297991D01*
X122053620Y-116481979D01*
X121947581Y-116668823D01*
X121852626Y-116836148D01*
X121767491Y-116986184D01*
X121690909Y-117121161D01*
X121621614Y-117243311D01*
X121558343Y-117354865D01*
X121499828Y-117458053D01*
X121444804Y-117555106D01*
X121392006Y-117648255D01*
X121372560Y-117682569D01*
X121319714Y-117775806D01*
X121261589Y-117878328D01*
X121202310Y-117982860D01*
X121146002Y-118082130D01*
X121096790Y-118168862D01*
X121085322Y-118189069D01*
X121039260Y-118270227D01*
X120984865Y-118366079D01*
X120926143Y-118469563D01*
X120867103Y-118573617D01*
X120811750Y-118671178D01*
X120794366Y-118701821D01*
X120740766Y-118796274D01*
X120681700Y-118900314D01*
X120621287Y-119006688D01*
X120563645Y-119108143D01*
X120512895Y-119197427D01*
X120498705Y-119222381D01*
X120459065Y-119292490D01*
X120423973Y-119355342D01*
X120395213Y-119407678D01*
X120374566Y-119446242D01*
X120363814Y-119467775D01*
X120362678Y-119470993D01*
X119645107Y-119470993D01*
X119642232Y-119463503D01*
X119626721Y-119432553D01*
X119602313Y-119386585D01*
X119570788Y-119328935D01*
X119533926Y-119262940D01*
X119523637Y-119244736D01*
X119474197Y-119157526D01*
X119417453Y-119057507D01*
X119358472Y-118953605D01*
X119302323Y-118854750D01*
X119265159Y-118789364D01*
X119219642Y-118709290D01*
X119172384Y-118626110D01*
X119126915Y-118546045D01*
X119086771Y-118475316D01*
X119055646Y-118420432D01*
X119024672Y-118365776D01*
X118984795Y-118295411D01*
X118939445Y-118215386D01*
X118892050Y-118131754D01*
X118846040Y-118050565D01*
X118843027Y-118045248D01*
X118794676Y-117959965D01*
X118738303Y-117860592D01*
X118678251Y-117754781D01*
X118618863Y-117650185D01*
X118564482Y-117554455D01*
X118555556Y-117538749D01*
X118505230Y-117450171D01*
X118451612Y-117355756D01*
X118398333Y-117261900D01*
X118349024Y-117175000D01*
X118307316Y-117101453D01*
X118296446Y-117082274D01*
X118258692Y-117015658D01*
X118212038Y-116933356D01*
X118159925Y-116841438D01*
X118105795Y-116745975D01*
X118053088Y-116653035D01*
X118030548Y-116613293D01*
X117979322Y-116522962D01*
X117924829Y-116426848D01*
X117870588Y-116331155D01*
X117820114Y-116242088D01*
X117776924Y-116165851D01*
X117761186Y-116138059D01*
X117730080Y-116083153D01*
X117688734Y-116010210D01*
X117639253Y-115922946D01*
X117583745Y-115825077D01*
X117524318Y-115720316D01*
X117463077Y-115612380D01*
X117402132Y-115504984D01*
X117392344Y-115487739D01*
X117330066Y-115377998D01*
X117265796Y-115264723D01*
X117201898Y-115152083D01*
X117140736Y-115044245D01*
X117084673Y-114945378D01*
X117036074Y-114859650D01*
X116997303Y-114791228D01*
X116995132Y-114787395D01*
X116949326Y-114706560D01*
X116894810Y-114610409D01*
X116835231Y-114505369D01*
X116774234Y-114397871D01*
X116715469Y-114294341D01*
X116679427Y-114230871D01*
X116626739Y-114138085D01*
X116571741Y-114041203D01*
X116517489Y-113945610D01*
X116467037Y-113856689D01*
X116423441Y-113779823D01*
X116395551Y-113730624D01*
X116362780Y-113672809D01*
X116320139Y-113597605D01*
X116270103Y-113509374D01*
X116215148Y-113412480D01*
X116157748Y-113311289D01*
X116100378Y-113210163D01*
X116072822Y-113161594D01*
X116020683Y-113069687D01*
X115971077Y-112982220D01*
X115925708Y-112902199D01*
X115886282Y-112832631D01*
X115854500Y-112776524D01*
X115832069Y-112736882D01*
X115822336Y-112719642D01*
X115802769Y-112688812D01*
X115787404Y-112671687D01*
X115781019Y-112670866D01*
X115775196Y-112685223D01*
X115762218Y-112720187D01*
X115743168Y-112772746D01*
X115719126Y-112839889D01*
X115691176Y-112918606D01*
X115660398Y-113005884D01*
X115649199Y-113037781D01*
X115619723Y-113121772D01*
X115583352Y-113225319D01*
X115541504Y-113344389D01*
X115495600Y-113474948D01*
X115447056Y-113612963D01*
X115397291Y-113754398D01*
X115347725Y-113895221D01*
X115299775Y-114031398D01*
X115297793Y-114037025D01*
X115249912Y-114172978D01*
X115200321Y-114313798D01*
X115150442Y-114455441D01*
X115101699Y-114593867D01*
X115055515Y-114725033D01*
X115013314Y-114844896D01*
X114976518Y-114949416D01*
X114946552Y-115034548D01*
X114945507Y-115037518D01*
X114911577Y-115133914D01*
X114878160Y-115228841D01*
X114846769Y-115318000D01*
X114818919Y-115397090D01*
X114796124Y-115461811D01*
X114779898Y-115507864D01*
X114778175Y-115512752D01*
X114750187Y-115592170D01*
X114715027Y-115691994D01*
X114673816Y-115809031D01*
X114627679Y-115940089D01*
X114577737Y-116081977D01*
X114525115Y-116231503D01*
X114470935Y-116385475D01*
X114416321Y-116540703D01*
X114362395Y-116693994D01*
X114310281Y-116842156D01*
X114261101Y-116981999D01*
X114215980Y-117110330D01*
X114190672Y-117182323D01*
X114143797Y-117315664D01*
X114091841Y-117463419D01*
X114037100Y-117619063D01*
X113981870Y-117776072D01*
X113928446Y-117927918D01*
X113879124Y-118068076D01*
X113843138Y-118170309D01*
X113801516Y-118288696D01*
X113767624Y-118385688D01*
X113740827Y-118463463D01*
X113720490Y-118524199D01*
X113705977Y-118570073D01*
X113696654Y-118603263D01*
X113691885Y-118625947D01*
X113691034Y-118640301D01*
X113246751Y-118640301D01*
X113249743Y-114988619D01*
X113250373Y-114220011D01*
X113609882Y-114220011D01*
X113609905Y-114495450D01*
X113609921Y-114596676D01*
X113610488Y-117720088D01*
X113760394Y-117294879D01*
X113803431Y-117172763D01*
X113851296Y-117036888D01*
X113901466Y-116894412D01*
X113951422Y-116752494D01*
X113998644Y-116618292D01*
X114040611Y-116498965D01*
X114048781Y-116475725D01*
X114085256Y-116372003D01*
X114122053Y-116267436D01*
X114157572Y-116166564D01*
X114190216Y-116073924D01*
X114218385Y-115994055D01*
X114240480Y-115931496D01*
X114247042Y-115912948D01*
X114266362Y-115858277D01*
X114292363Y-115784542D01*
X114323448Y-115696284D01*
X114358018Y-115598041D01*
X114394475Y-115494352D01*
X114431223Y-115389759D01*
X114445123Y-115350172D01*
X114481843Y-115245628D01*
X114519145Y-115139520D01*
X114555376Y-115036542D01*
X114588883Y-114941389D01*
X114618013Y-114858756D01*
X114641113Y-114793339D01*
X114647642Y-114774888D01*
X114659400Y-114741673D01*
X114671339Y-114707914D01*
X114684022Y-114672012D01*
X114698011Y-114632370D01*
X114713868Y-114587391D01*
X114732155Y-114535477D01*
X114753433Y-114475031D01*
X114778266Y-114404455D01*
X114807214Y-114322152D01*
X114840841Y-114226524D01*
X114879707Y-114115974D01*
X114924376Y-113988904D01*
X114975409Y-113843716D01*
X115033368Y-113678814D01*
X115098816Y-113492599D01*
X115129439Y-113405464D01*
X115168034Y-113295698D01*
X115206742Y-113185694D01*
X115244131Y-113079520D01*
X115278767Y-112981245D01*
X115309216Y-112894936D01*
X115334044Y-112824661D01*
X115349806Y-112780157D01*
X115391531Y-112662345D01*
X115425448Y-112565926D01*
X115452248Y-112488765D01*
X115472619Y-112428731D01*
X115477290Y-112414352D01*
X116069924Y-112414352D01*
X116078513Y-112428215D01*
X116098077Y-112461575D01*
X116127304Y-112512142D01*
X116164884Y-112577627D01*
X116209504Y-112655740D01*
X116259852Y-112744192D01*
X116314619Y-112840693D01*
X116354692Y-112911471D01*
X116422169Y-113030763D01*
X116483358Y-113138924D01*
X116539531Y-113238195D01*
X116591959Y-113330818D01*
X116641913Y-113419033D01*
X116690665Y-113505082D01*
X116739486Y-113591207D01*
X116789648Y-113679648D01*
X116842422Y-113772647D01*
X116899080Y-113872445D01*
X116960893Y-113981284D01*
X117029132Y-114101405D01*
X117105070Y-114235049D01*
X117189976Y-114384457D01*
X117285124Y-114551871D01*
X117355014Y-114674839D01*
X117392569Y-114740953D01*
X117440464Y-114825328D01*
X117496711Y-114924458D01*
X117559321Y-115034842D01*
X117626310Y-115152973D01*
X117695688Y-115275350D01*
X117765469Y-115398467D01*
X117830227Y-115512752D01*
X117897554Y-115631577D01*
X117965539Y-115751547D01*
X118032329Y-115869396D01*
X118096075Y-115981857D01*
X118154924Y-116085664D01*
X118207024Y-116177551D01*
X118250525Y-116254251D01*
X118283574Y-116312499D01*
X118283941Y-116313145D01*
X118330547Y-116395275D01*
X118385356Y-116491895D01*
X118444243Y-116595729D01*
X118503083Y-116699504D01*
X118557751Y-116795947D01*
X118571181Y-116819645D01*
X118609211Y-116886749D01*
X118646921Y-116953277D01*
X118685465Y-117021266D01*
X118726003Y-117092757D01*
X118769689Y-117169788D01*
X118817680Y-117254398D01*
X118871134Y-117348626D01*
X118931207Y-117454511D01*
X118999055Y-117574093D01*
X119075835Y-117709410D01*
X119162704Y-117862502D01*
X119255758Y-118026489D01*
X119317386Y-118135118D01*
X119385656Y-118255493D01*
X119456808Y-118380987D01*
X119527087Y-118504971D01*
X119592736Y-118620819D01*
X119649996Y-118721902D01*
X119652789Y-118726833D01*
X119721314Y-118847834D01*
X119778640Y-118949046D01*
X119825891Y-119032446D01*
X119864191Y-119100014D01*
X119894664Y-119153725D01*
X119918435Y-119195557D01*
X119936628Y-119227487D01*
X119950366Y-119251494D01*
X119960773Y-119269555D01*
X119968974Y-119283646D01*
X119976093Y-119295746D01*
X119978554Y-119299905D01*
X119996058Y-119323776D01*
X120009561Y-119332409D01*
X120012029Y-119331171D01*
X120020049Y-119318244D01*
X120038911Y-119286065D01*
X120067161Y-119237167D01*
X120103349Y-119174080D01*
X120146022Y-119099336D01*
X120193728Y-119015465D01*
X120240379Y-118933185D01*
X120298889Y-118829832D01*
X120360190Y-118721540D01*
X120421505Y-118613211D01*
X120480060Y-118509752D01*
X120533078Y-118416065D01*
X120577784Y-118337055D01*
X120594291Y-118307877D01*
X120666897Y-118179592D01*
X120744329Y-118042901D01*
X120827723Y-117895806D01*
X120918212Y-117736307D01*
X121016932Y-117562405D01*
X121125016Y-117372101D01*
X121243599Y-117163396D01*
X121328797Y-117013490D01*
X121393173Y-116900194D01*
X121459256Y-116783828D01*
X121524838Y-116668281D01*
X121587714Y-116557443D01*
X121645678Y-116455205D01*
X121696522Y-116365454D01*
X121738042Y-116292082D01*
X121750876Y-116269374D01*
X121801602Y-116179645D01*
X121860163Y-116076168D01*
X121922030Y-115966938D01*
X121982673Y-115859952D01*
X122037564Y-115763205D01*
X122044853Y-115750368D01*
X122166535Y-115536058D01*
X122277342Y-115340856D01*
X122378768Y-115162132D01*
X122472304Y-114997254D01*
X122559445Y-114843590D01*
X122594848Y-114781141D01*
X122645789Y-114691317D01*
X122703194Y-114590157D01*
X122762149Y-114486318D01*
X122817742Y-114388453D01*
X122857554Y-114318414D01*
X122905661Y-114233773D01*
X122958464Y-114140798D01*
X123011439Y-114047460D01*
X123060062Y-113961728D01*
X123091805Y-113905711D01*
X123133378Y-113832331D01*
X123182937Y-113744902D01*
X123236114Y-113651123D01*
X123288544Y-113558696D01*
X123329368Y-113486754D01*
X123431880Y-113306131D01*
X123522688Y-113146083D01*
X123602453Y-113005443D01*
X123671833Y-112883042D01*
X123731487Y-112777712D01*
X123782075Y-112688284D01*
X123824254Y-112613591D01*
X123858684Y-112552463D01*
X123886024Y-112503733D01*
X123906933Y-112466233D01*
X123922070Y-112438794D01*
X123932093Y-112420247D01*
X123937663Y-112409425D01*
X123939436Y-112405160D01*
X123939438Y-112405120D01*
X123927089Y-112404613D01*
X123890671Y-112404116D01*
X123831127Y-112403631D01*
X123749400Y-112403160D01*
X123646434Y-112402704D01*
X123523171Y-112402265D01*
X123380556Y-112401844D01*
X123219530Y-112401443D01*
X123041038Y-112401063D01*
X122846022Y-112400706D01*
X122635426Y-112400373D01*
X122410193Y-112400066D01*
X122171265Y-112399787D01*
X121919587Y-112399536D01*
X121656102Y-112399316D01*
X121381752Y-112399128D01*
X121097481Y-112398974D01*
X120804232Y-112398854D01*
X120502949Y-112398772D01*
X120194573Y-112398727D01*
X119998468Y-112398719D01*
X119613860Y-112398736D01*
X119253569Y-112398789D01*
X118916898Y-112398881D01*
X118603151Y-112399014D01*
X118311631Y-112399191D01*
X118041644Y-112399416D01*
X117792493Y-112399690D01*
X117563481Y-112400016D01*
X117353913Y-112400398D01*
X117163093Y-112400839D01*
X116990324Y-112401339D01*
X116834911Y-112401904D01*
X116696157Y-112402535D01*
X116573367Y-112403235D01*
X116465843Y-112404007D01*
X116372891Y-112404854D01*
X116293814Y-112405778D01*
X116227916Y-112406783D01*
X116174502Y-112407870D01*
X116132873Y-112409044D01*
X116102336Y-112410305D01*
X116082194Y-112411659D01*
X116071750Y-112413106D01*
X116069924Y-112414352D01*
X115477290Y-112414352D01*
X115487250Y-112383690D01*
X115496830Y-112351509D01*
X115502047Y-112330054D01*
X115503284Y-112319742D01*
X124502237Y-112319742D01*
X124506280Y-112333180D01*
X124517881Y-112367949D01*
X124536260Y-112421799D01*
X124560637Y-112492479D01*
X124590233Y-112577739D01*
X124624268Y-112675328D01*
X124661962Y-112782996D01*
X124702536Y-112898492D01*
X124715911Y-112936484D01*
X124762662Y-113069229D01*
X124811280Y-113207317D01*
X124860262Y-113346479D01*
X124908108Y-113482447D01*
X124953316Y-113610953D01*
X124994384Y-113727730D01*
X125029810Y-113828510D01*
X125052538Y-113893205D01*
X125081666Y-113976100D01*
X125117704Y-114078583D01*
X125159243Y-114196651D01*
X125204874Y-114326304D01*
X125253190Y-114463541D01*
X125302781Y-114604359D01*
X125352240Y-114744758D01*
X125400157Y-114880737D01*
X125402521Y-114887444D01*
X125450742Y-115024285D01*
X125500917Y-115166726D01*
X125551580Y-115310604D01*
X125601267Y-115451755D01*
X125648512Y-115586016D01*
X125691850Y-115709225D01*
X125729816Y-115817218D01*
X125760945Y-115905832D01*
X125761248Y-115906695D01*
X125795432Y-116004028D01*
X125828664Y-116098586D01*
X125859577Y-116186480D01*
X125886801Y-116263818D01*
X125908968Y-116326713D01*
X125924708Y-116371274D01*
X125928485Y-116381929D01*
X125959132Y-116468364D01*
X125993840Y-116566445D01*
X126031618Y-116673350D01*
X126071471Y-116786257D01*
X126112407Y-116902345D01*
X126153432Y-117018790D01*
X126193554Y-117132770D01*
X126231778Y-117241464D01*
X126267111Y-117342049D01*
X126298562Y-117431703D01*
X126325135Y-117507603D01*
X126345839Y-117566928D01*
X126359680Y-117606856D01*
X126363611Y-117618354D01*
X126396897Y-117716719D01*
X126400049Y-114599185D01*
X126400310Y-114321670D01*
X126400528Y-114050741D01*
X126400703Y-113787458D01*
X126400836Y-113532885D01*
X126400926Y-113288084D01*
X126400976Y-113054118D01*
X126400984Y-112832049D01*
X126400952Y-112622941D01*
X126400881Y-112427856D01*
X126400771Y-112247856D01*
X126400622Y-112084004D01*
X126400435Y-111937364D01*
X126400211Y-111808996D01*
X126399950Y-111699965D01*
X126399653Y-111611332D01*
X126399319Y-111544161D01*
X126398951Y-111499514D01*
X126398548Y-111478453D01*
X126398403Y-111476854D01*
X126386298Y-111480669D01*
X126353839Y-111493597D01*
X126303518Y-111514574D01*
X126237830Y-111542538D01*
X126159268Y-111576425D01*
X126070327Y-111615171D01*
X125973499Y-111657713D01*
X125951283Y-111667521D01*
X125828698Y-111721677D01*
X125692344Y-111781890D01*
X125548967Y-111845184D01*
X125405310Y-111908581D01*
X125268119Y-111969104D01*
X125144139Y-112023777D01*
X125096257Y-112044884D01*
X124963986Y-112103214D01*
X124852808Y-112152334D01*
X124760912Y-112193084D01*
X124686486Y-112226303D01*
X124627718Y-112252828D01*
X124582795Y-112273498D01*
X124549907Y-112289151D01*
X124527240Y-112300626D01*
X124512983Y-112308762D01*
X124505325Y-112314396D01*
X124502452Y-112318366D01*
X124502237Y-112319742D01*
X115503284Y-112319742D01*
X115503590Y-112317194D01*
X115502148Y-112310794D01*
X115501586Y-112310124D01*
X115487093Y-112301784D01*
X115453989Y-112285511D01*
X115406601Y-112263349D01*
X115349253Y-112237344D01*
X115322697Y-112225529D01*
X115264563Y-112199822D01*
X115188740Y-112166310D01*
X115100425Y-112127288D01*
X115004812Y-112085050D01*
X114907096Y-112041893D01*
X114865518Y-112023534D01*
X116155703Y-112023534D01*
X119998588Y-112023534D01*
X120336809Y-112023499D01*
X120664194Y-112023392D01*
X120979981Y-112023218D01*
X121283407Y-112022978D01*
X121573711Y-112022674D01*
X121850129Y-112022309D01*
X122111899Y-112021885D01*
X122358259Y-112021404D01*
X122588447Y-112020868D01*
X122801700Y-112020279D01*
X122997256Y-112019640D01*
X123174353Y-112018953D01*
X123332227Y-112018220D01*
X123470117Y-112017443D01*
X123587261Y-112016624D01*
X123682895Y-112015767D01*
X123756259Y-112014872D01*
X123806588Y-112013943D01*
X123833122Y-112012980D01*
X123837304Y-112012393D01*
X123828103Y-112000154D01*
X123804684Y-111972139D01*
X123769513Y-111931205D01*
X123725055Y-111880212D01*
X123673776Y-111822020D01*
X123651279Y-111796662D01*
X123608408Y-111748402D01*
X123551190Y-111683948D01*
X123481865Y-111605824D01*
X123402673Y-111516557D01*
X123315856Y-111418672D01*
X123223652Y-111314696D01*
X123128304Y-111207154D01*
X123032050Y-111098572D01*
X122976191Y-111035548D01*
X122870791Y-110916629D01*
X122757227Y-110788508D01*
X122638973Y-110655103D01*
X122519503Y-110520334D01*
X122402290Y-110388118D01*
X122290809Y-110262376D01*
X122188533Y-110147024D01*
X122098936Y-110045982D01*
X122088771Y-110034520D01*
X121911384Y-109834484D01*
X121749144Y-109651520D01*
X121600602Y-109483987D01*
X121464303Y-109330248D01*
X121338796Y-109188663D01*
X121222629Y-109057594D01*
X121114350Y-108935401D01*
X121012507Y-108820447D01*
X120915648Y-108711092D01*
X120822320Y-108605698D01*
X120731072Y-108502626D01*
X120640452Y-108400237D01*
X120549007Y-108296892D01*
X120482453Y-108221663D01*
X120418088Y-108148915D01*
X120918998Y-108148915D01*
X120925643Y-108159176D01*
X120946902Y-108185629D01*
X120980697Y-108225835D01*
X121024952Y-108277355D01*
X121077590Y-108337751D01*
X121136534Y-108404585D01*
X121141715Y-108410425D01*
X121186967Y-108461414D01*
X121246961Y-108529034D01*
X121319846Y-108611198D01*
X121403774Y-108705821D01*
X121496893Y-108810815D01*
X121597354Y-108924095D01*
X121703307Y-109043576D01*
X121812901Y-109167169D01*
X121924286Y-109292791D01*
X122035613Y-109418353D01*
X122044755Y-109428665D01*
X122163585Y-109562695D01*
X122288286Y-109703346D01*
X122416272Y-109847702D01*
X122544957Y-109992845D01*
X122671754Y-110135859D01*
X122794079Y-110273828D01*
X122909345Y-110403833D01*
X123014965Y-110522960D01*
X123108355Y-110628291D01*
X123164071Y-110691130D01*
X123253814Y-110792372D01*
X123342901Y-110892920D01*
X123429118Y-110990272D01*
X123510251Y-111081927D01*
X123584085Y-111165382D01*
X123648406Y-111238134D01*
X123701000Y-111297683D01*
X123739653Y-111341525D01*
X123745528Y-111348202D01*
X123793782Y-111403007D01*
X123838269Y-111453411D01*
X123875484Y-111495451D01*
X123901920Y-111525164D01*
X123911484Y-111535794D01*
X123927992Y-111554214D01*
X123958176Y-111588187D01*
X123999185Y-111634490D01*
X124048167Y-111689902D01*
X124102272Y-111751204D01*
X124124168Y-111776038D01*
X124177662Y-111836498D01*
X124225511Y-111890141D01*
X124265293Y-111934286D01*
X124294587Y-111966255D01*
X124310968Y-111983367D01*
X124313527Y-111985517D01*
X124326285Y-111980939D01*
X124357269Y-111968097D01*
X124401875Y-111948942D01*
X124455496Y-111925424D01*
X124457347Y-111924604D01*
X124511004Y-111900862D01*
X124581798Y-111869569D01*
X124663978Y-111833265D01*
X124751795Y-111794490D01*
X124839498Y-111755784D01*
X124864893Y-111744581D01*
X125064957Y-111656325D01*
X125243376Y-111577610D01*
X125401388Y-111507879D01*
X125540232Y-111446579D01*
X125661149Y-111393153D01*
X125765377Y-111347047D01*
X125854155Y-111307706D01*
X125928722Y-111274575D01*
X125990317Y-111247099D01*
X126040181Y-111224723D01*
X126079551Y-111206892D01*
X126109667Y-111193051D01*
X126131768Y-111182645D01*
X126147093Y-111175118D01*
X126156881Y-111169917D01*
X126162372Y-111166485D01*
X126164804Y-111164268D01*
X126165418Y-111162711D01*
X126165430Y-111162078D01*
X126155447Y-111151885D01*
X126130495Y-111135467D01*
X126118532Y-111128636D01*
X126098323Y-111117263D01*
X126058806Y-111094783D01*
X126002355Y-111062556D01*
X125931345Y-111021939D01*
X125848153Y-110974294D01*
X125755152Y-110920980D01*
X125654719Y-110863355D01*
X125558985Y-110808384D01*
X125436747Y-110738174D01*
X125305478Y-110662786D01*
X125170064Y-110585026D01*
X125035390Y-110507697D01*
X124906341Y-110433606D01*
X124787804Y-110365558D01*
X124684663Y-110306359D01*
X124658542Y-110291368D01*
X124552838Y-110230703D01*
X124454104Y-110174029D01*
X124359289Y-110119594D01*
X124265347Y-110065646D01*
X124169228Y-110010434D01*
X124067883Y-109952205D01*
X123958265Y-109889210D01*
X123837323Y-109819696D01*
X123702011Y-109741911D01*
X123549278Y-109654105D01*
X123482963Y-109615979D01*
X123279428Y-109498997D01*
X123057389Y-109371447D01*
X122820061Y-109235175D01*
X122570657Y-109092025D01*
X122312390Y-108943841D01*
X122048473Y-108792466D01*
X121782119Y-108639746D01*
X121675824Y-108578813D01*
X121560557Y-108512708D01*
X121449842Y-108449145D01*
X121345944Y-108389431D01*
X121251131Y-108334872D01*
X121167668Y-108286772D01*
X121097822Y-108246438D01*
X121043860Y-108215175D01*
X121008048Y-108194290D01*
X120996632Y-108187533D01*
X120959554Y-108166357D01*
X120931716Y-108152485D01*
X120919049Y-108148868D01*
X120918998Y-108148915D01*
X120418088Y-108148915D01*
X120397464Y-108125605D01*
X120317218Y-108034935D01*
X120243289Y-107951428D01*
X120177250Y-107876861D01*
X120120676Y-107813012D01*
X120075141Y-107761657D01*
X120042218Y-107724572D01*
X120023481Y-107703534D01*
X120019884Y-107699543D01*
X120012552Y-107699311D01*
X119998130Y-107708609D01*
X119975313Y-107728786D01*
X119942795Y-107761188D01*
X119899270Y-107807161D01*
X119843433Y-107868054D01*
X119773977Y-107945213D01*
X119689597Y-108039985D01*
X119686911Y-108043013D01*
X119518931Y-108232429D01*
X119337635Y-108436883D01*
X119146288Y-108652690D01*
X118948159Y-108876165D01*
X118746513Y-109103622D01*
X118544619Y-109331378D01*
X118345742Y-109555745D01*
X118153151Y-109773039D01*
X117987997Y-109959393D01*
X117886563Y-110073849D01*
X117778365Y-110195928D01*
X117666737Y-110321871D01*
X117555009Y-110447920D01*
X117446514Y-110570315D01*
X117344585Y-110685296D01*
X117252554Y-110789105D01*
X117173753Y-110877981D01*
X117173208Y-110878596D01*
X117082828Y-110980555D01*
X116983632Y-111092511D01*
X116880062Y-111209448D01*
X116776558Y-111326353D01*
X116677559Y-111438209D01*
X116587507Y-111540003D01*
X116530409Y-111604578D01*
X116459977Y-111684189D01*
X116393327Y-111759397D01*
X116332632Y-111827759D01*
X116280062Y-111886835D01*
X116237790Y-111934184D01*
X116207988Y-111967365D01*
X116193817Y-111982889D01*
X116155703Y-112023534D01*
X114865518Y-112023534D01*
X114825578Y-112005898D01*
X114716870Y-111957888D01*
X114593623Y-111903436D01*
X114464168Y-111846223D01*
X114336836Y-111789931D01*
X114219959Y-111738243D01*
X114169005Y-111715701D01*
X114030874Y-111654630D01*
X113914510Y-111603287D01*
X113818839Y-111561203D01*
X113742790Y-111527910D01*
X113685287Y-111502940D01*
X113645259Y-111485824D01*
X113621633Y-111476094D01*
X113613451Y-111473264D01*
X113613089Y-111485593D01*
X113612740Y-111521876D01*
X113612405Y-111581051D01*
X113612086Y-111662061D01*
X113611783Y-111763845D01*
X113611498Y-111885344D01*
X113611232Y-112025499D01*
X113610986Y-112183249D01*
X113610762Y-112357536D01*
X113610561Y-112547300D01*
X113610383Y-112751482D01*
X113610230Y-112969022D01*
X113610103Y-113198860D01*
X113610004Y-113439938D01*
X113609933Y-113691195D01*
X113609892Y-113951572D01*
X113609882Y-114220011D01*
X113250373Y-114220011D01*
X113252878Y-111161885D01*
X113847101Y-111161885D01*
X113857579Y-111170257D01*
X113885374Y-111185448D01*
X113924821Y-111204401D01*
X113931388Y-111207377D01*
X114025008Y-111249411D01*
X114114654Y-111289499D01*
X114205947Y-111330140D01*
X114304510Y-111373832D01*
X114415963Y-111423073D01*
X114516050Y-111467200D01*
X114690871Y-111544235D01*
X114844438Y-111611931D01*
X114978398Y-111671018D01*
X115094394Y-111722223D01*
X115194072Y-111766274D01*
X115279077Y-111803900D01*
X115351052Y-111835829D01*
X115411642Y-111862788D01*
X115462493Y-111885506D01*
X115505249Y-111904711D01*
X115541554Y-111921132D01*
X115547808Y-111923974D01*
X115600444Y-111947689D01*
X115644584Y-111967156D01*
X115675356Y-111980254D01*
X115687675Y-111984856D01*
X115698413Y-111976382D01*
X115722819Y-111952169D01*
X115758010Y-111915233D01*
X115801101Y-111868588D01*
X115839097Y-111826562D01*
X115891644Y-111767781D01*
X115955709Y-111695905D01*
X116026256Y-111616593D01*
X116098255Y-111535505D01*
X116166672Y-111458301D01*
X116181098Y-111441998D01*
X116227917Y-111389096D01*
X116288956Y-111320166D01*
X116361836Y-111237892D01*
X116444179Y-111144958D01*
X116533607Y-111044047D01*
X116627741Y-110937845D01*
X116724203Y-110829034D01*
X116820615Y-110720298D01*
X116862674Y-110672870D01*
X116969312Y-110552617D01*
X117088555Y-110418144D01*
X117216414Y-110273948D01*
X117348902Y-110124527D01*
X117482031Y-109974376D01*
X117611815Y-109827994D01*
X117734265Y-109689878D01*
X117845394Y-109564524D01*
X117849563Y-109559822D01*
X117998375Y-109391958D01*
X118131664Y-109241610D01*
X118250496Y-109107574D01*
X118355940Y-108988647D01*
X118449062Y-108883627D01*
X118530929Y-108791310D01*
X118602609Y-108710495D01*
X118665169Y-108639977D01*
X118719677Y-108578555D01*
X118767198Y-108525025D01*
X118808802Y-108478184D01*
X118845554Y-108436830D01*
X118878522Y-108399759D01*
X118908774Y-108365770D01*
X118937376Y-108333658D01*
X118958098Y-108310407D01*
X119003980Y-108258333D01*
X119042937Y-108212953D01*
X119072350Y-108177418D01*
X119089598Y-108154874D01*
X119092953Y-108148361D01*
X119080625Y-108151858D01*
X119052438Y-108165668D01*
X119013869Y-108187048D01*
X119003047Y-108193373D01*
X118970560Y-108212369D01*
X118919920Y-108241745D01*
X118854679Y-108279450D01*
X118778391Y-108323435D01*
X118694607Y-108371649D01*
X118606881Y-108422044D01*
X118580551Y-108437152D01*
X118503724Y-108481229D01*
X118408701Y-108535758D01*
X118298975Y-108598734D01*
X118178041Y-108668151D01*
X118049391Y-108742004D01*
X117916520Y-108818288D01*
X117782919Y-108894997D01*
X117652084Y-108970125D01*
X117605071Y-108997124D01*
X117476143Y-109071160D01*
X117343158Y-109147522D01*
X117209609Y-109224202D01*
X117078989Y-109299196D01*
X116954793Y-109370497D01*
X116840512Y-109436100D01*
X116739641Y-109493999D01*
X116655674Y-109542189D01*
X116629591Y-109557156D01*
X116292693Y-109750501D01*
X115974149Y-109933384D01*
X115674944Y-110105238D01*
X115396064Y-110265498D01*
X115285179Y-110329244D01*
X115123646Y-110422115D01*
X114981214Y-110503992D01*
X114855304Y-110576358D01*
X114743338Y-110640691D01*
X114642736Y-110698474D01*
X114550921Y-110751187D01*
X114465312Y-110800310D01*
X114383331Y-110847325D01*
X114302400Y-110893711D01*
X114219939Y-110940949D01*
X114156628Y-110977204D01*
X114077107Y-111022987D01*
X114005144Y-111064900D01*
X113943472Y-111101314D01*
X113894823Y-111130598D01*
X113861929Y-111151122D01*
X113847523Y-111161256D01*
X113847101Y-111161885D01*
X113252878Y-111161885D01*
X113252929Y-111100093D01*
X113282669Y-111068437D01*
X113303064Y-111051991D01*
X113341123Y-111026074D01*
X113392644Y-110993367D01*
X113453429Y-110956548D01*
X113507779Y-110924857D01*
X113568030Y-110890324D01*
X113645454Y-110845920D01*
X113735538Y-110794235D01*
X113833769Y-110737861D01*
X113935632Y-110679386D01*
X114036615Y-110621402D01*
X114078335Y-110597441D01*
X114190690Y-110532912D01*
X114317536Y-110460066D01*
X114451678Y-110383035D01*
X114585917Y-110305952D01*
X114713057Y-110232950D01*
X114825901Y-110168162D01*
X114828704Y-110166553D01*
X115131452Y-109992726D01*
X115413509Y-109830743D01*
X115675894Y-109680019D01*
X115919622Y-109539971D01*
X116091826Y-109440992D01*
X116176521Y-109392318D01*
X116277367Y-109334383D01*
X116388819Y-109270373D01*
X116505333Y-109203471D01*
X116621361Y-109136861D01*
X116731360Y-109073729D01*
X116767158Y-109053187D01*
X116871178Y-108993494D01*
X116980869Y-108930531D01*
X117091190Y-108867194D01*
X117197099Y-108806377D01*
X117293556Y-108750975D01*
X117375519Y-108703882D01*
X117404972Y-108686953D01*
X117475922Y-108646186D01*
X117564025Y-108595590D01*
X117664734Y-108537777D01*
X117773502Y-108475356D01*
X117885781Y-108410936D01*
X117997024Y-108347127D01*
X118080304Y-108299370D01*
X118184107Y-108239835D01*
X118304732Y-108170618D01*
X118437319Y-108094512D01*
X118577009Y-108014306D01*
X118718942Y-107932792D01*
X118858259Y-107852758D01*
X118990099Y-107776996D01*
X119049531Y-107742834D01*
X119163090Y-107677557D01*
X119275712Y-107612824D01*
X119384408Y-107550353D01*
X119486190Y-107491862D01*
X119578069Y-107439068D01*
X119657056Y-107393689D01*
X119720161Y-107357442D01*
X119762382Y-107333201D01*
X119823959Y-107298796D01*
X119881058Y-107268601D01*
X119928788Y-107245078D01*
X119962257Y-107230691D01*
X119971817Y-107227754D01*
X120008894Y-107225168D01*
X120051456Y-107233373D01*
G37*
G36*
X120137760Y-113307358D02*
G01*
X120286816Y-113329911D01*
X120426563Y-113369993D01*
X120554170Y-113427059D01*
X120666808Y-113500565D01*
X120729012Y-113555271D01*
X120808952Y-113650875D01*
X120873650Y-113762388D01*
X120919881Y-113883784D01*
X120933165Y-113936976D01*
X120944307Y-114015596D01*
X120948325Y-114105214D01*
X120945558Y-114197637D01*
X120936345Y-114284672D01*
X120921025Y-114358128D01*
X120914964Y-114377213D01*
X120859596Y-114496664D01*
X120782591Y-114605939D01*
X120686197Y-114702289D01*
X120594111Y-114769817D01*
X120502613Y-114827779D01*
X120585846Y-114869732D01*
X120706741Y-114942774D01*
X120811870Y-115031047D01*
X120899381Y-115132072D01*
X120967423Y-115243370D01*
X121014145Y-115362463D01*
X121036298Y-115473017D01*
X121040007Y-115531821D01*
X121040091Y-115601679D01*
X121036977Y-115674632D01*
X121031090Y-115742717D01*
X121022858Y-115797975D01*
X121017758Y-115819108D01*
X120963941Y-115959940D01*
X120891516Y-116084065D01*
X120800528Y-116191441D01*
X120691022Y-116282029D01*
X120563041Y-116355787D01*
X120416629Y-116412673D01*
X120363846Y-116427851D01*
X120308864Y-116438510D01*
X120235302Y-116447264D01*
X120149534Y-116453866D01*
X120057937Y-116458074D01*
X119966887Y-116459643D01*
X119882759Y-116458330D01*
X119811930Y-116453890D01*
X119781628Y-116450133D01*
X119629735Y-116416369D01*
X119488682Y-116365171D01*
X119360722Y-116298058D01*
X119248105Y-116216548D01*
X119153086Y-116122158D01*
X119077915Y-116016406D01*
X119046055Y-115954411D01*
X119009684Y-115862547D01*
X118986172Y-115774269D01*
X118973667Y-115680315D01*
X118970302Y-115575282D01*
X118971351Y-115550567D01*
X119493500Y-115550567D01*
X119493896Y-115613949D01*
X119495919Y-115659299D01*
X119500822Y-115693592D01*
X119509860Y-115723805D01*
X119524286Y-115756915D01*
X119534266Y-115777458D01*
X119584697Y-115859033D01*
X119650317Y-115926588D01*
X119729883Y-115981670D01*
X119791075Y-116012820D01*
X119852847Y-116033095D01*
X119922359Y-116044009D01*
X120006774Y-116047076D01*
X120037518Y-116046660D01*
X120100082Y-116044527D01*
X120145744Y-116040360D01*
X120182609Y-116032561D01*
X120218782Y-116019535D01*
X120252632Y-116004295D01*
X120346922Y-115947027D01*
X120422733Y-115873211D01*
X120479131Y-115784125D01*
X120515184Y-115681046D01*
X120524231Y-115632512D01*
X120529412Y-115517258D01*
X120512769Y-115409179D01*
X120476185Y-115310543D01*
X120421546Y-115223617D01*
X120350737Y-115150668D01*
X120265642Y-115093964D01*
X120168146Y-115055773D01*
X120060136Y-115038362D01*
X120029610Y-115037518D01*
X119908960Y-115048341D01*
X119798834Y-115080000D01*
X119701283Y-115131282D01*
X119618359Y-115200971D01*
X119552114Y-115287854D01*
X119527017Y-115334938D01*
X119512199Y-115368908D01*
X119502501Y-115399708D01*
X119496861Y-115434172D01*
X119494217Y-115479134D01*
X119493506Y-115541428D01*
X119493500Y-115550567D01*
X118971351Y-115550567D01*
X118974641Y-115473054D01*
X118988432Y-115386019D01*
X119013901Y-115305426D01*
X119053274Y-115222522D01*
X119065728Y-115200098D01*
X119113362Y-115131862D01*
X119178224Y-115060683D01*
X119254314Y-114991591D01*
X119335632Y-114929620D01*
X119416178Y-114879802D01*
X119484179Y-114849121D01*
X119511375Y-114837360D01*
X119524538Y-114827191D01*
X119524765Y-114826182D01*
X119514544Y-114816026D01*
X119488592Y-114800200D01*
X119471614Y-114791452D01*
X119362626Y-114724906D01*
X119264855Y-114638588D01*
X119182410Y-114536708D01*
X119125502Y-114436887D01*
X119084372Y-114320654D01*
X119063711Y-114194503D01*
X119063555Y-114126541D01*
X119578076Y-114126541D01*
X119581183Y-114224983D01*
X119604446Y-114322950D01*
X119622994Y-114368470D01*
X119676819Y-114456251D01*
X119746119Y-114526614D01*
X119827533Y-114578363D01*
X119917701Y-114610305D01*
X120013261Y-114621246D01*
X120110852Y-114609991D01*
X120206317Y-114575740D01*
X120271269Y-114536680D01*
X120323420Y-114487696D01*
X120367862Y-114423192D01*
X120396845Y-114366386D01*
X120412958Y-114328469D01*
X120422983Y-114294116D01*
X120428289Y-114255250D01*
X120430243Y-114203794D01*
X120430387Y-114168340D01*
X120428919Y-114101020D01*
X120423978Y-114050139D01*
X120414330Y-114007227D01*
X120401720Y-113971224D01*
X120367686Y-113907302D01*
X120319317Y-113845153D01*
X120263471Y-113792387D01*
X120209256Y-113757655D01*
X120128874Y-113731412D01*
X120037022Y-113720274D01*
X119942220Y-113724309D01*
X119852989Y-113743589D01*
X119823329Y-113754500D01*
X119743462Y-113800762D01*
X119677817Y-113864734D01*
X119627580Y-113942779D01*
X119593937Y-114031260D01*
X119578076Y-114126541D01*
X119063555Y-114126541D01*
X119063408Y-114062733D01*
X119083353Y-113929643D01*
X119123437Y-113799534D01*
X119143028Y-113753703D01*
X119201673Y-113655055D01*
X119281350Y-113564265D01*
X119378625Y-113483998D01*
X119490062Y-113416919D01*
X119612228Y-113365691D01*
X119663041Y-113350313D01*
X119823042Y-113317015D01*
X119982225Y-113302878D01*
X120137760Y-113307358D01*
G37*
G36*
X123330714Y-116801920D02*
G01*
X123394119Y-116819338D01*
X123449769Y-116842828D01*
X123519415Y-116878153D01*
X123598871Y-116922621D01*
X123683949Y-116973542D01*
X123770460Y-117028224D01*
X123854218Y-117083973D01*
X123931035Y-117138100D01*
X123996722Y-117187913D01*
X124047093Y-117230719D01*
X124069700Y-117253582D01*
X124145263Y-117357926D01*
X124201065Y-117474493D01*
X124236399Y-117599304D01*
X124250562Y-117728380D01*
X124242846Y-117857743D01*
X124212547Y-117983414D01*
X124203504Y-118008303D01*
X124177448Y-118067317D01*
X124143041Y-118133880D01*
X124106849Y-118195466D01*
X124099393Y-118206960D01*
X124065195Y-118254843D01*
X124024306Y-118306441D01*
X123980219Y-118357985D01*
X123936426Y-118405706D01*
X123896419Y-118445835D01*
X123863691Y-118474603D01*
X123841734Y-118488241D01*
X123838208Y-118488843D01*
X123820909Y-118481018D01*
X123790678Y-118460585D01*
X123753288Y-118431536D01*
X123743250Y-118423185D01*
X123707179Y-118391756D01*
X123679865Y-118366063D01*
X123665950Y-118350536D01*
X123665087Y-118348605D01*
X123672939Y-118336079D01*
X123694574Y-118310621D01*
X123725965Y-118276861D01*
X123740226Y-118262197D01*
X123815363Y-118177817D01*
X123881290Y-118088074D01*
X123932459Y-118000729D01*
X123943013Y-117978588D01*
X123960541Y-117926448D01*
X123968202Y-117865604D01*
X123968901Y-117830137D01*
X123956675Y-117731509D01*
X123920900Y-117641126D01*
X123861540Y-117558936D01*
X123778559Y-117484884D01*
X123706118Y-117437699D01*
X123642988Y-117401251D01*
X123635611Y-117510645D01*
X123624196Y-117605149D01*
X123601703Y-117693390D01*
X123565361Y-117784924D01*
X123542255Y-117832699D01*
X123469104Y-117953061D01*
X123382381Y-118054172D01*
X123284102Y-118135302D01*
X123176284Y-118195721D01*
X123060943Y-118234698D01*
X122940097Y-118251504D01*
X122815762Y-118245407D01*
X122689955Y-118215678D01*
X122593493Y-118176293D01*
X122508657Y-118121665D01*
X122436721Y-118048349D01*
X122382519Y-117961337D01*
X122380072Y-117956086D01*
X122349542Y-117860430D01*
X122339548Y-117755767D01*
X122348530Y-117644819D01*
X122364669Y-117574806D01*
X122605374Y-117574806D01*
X122607349Y-117657884D01*
X122632629Y-117734902D01*
X122679869Y-117804037D01*
X122747725Y-117863468D01*
X122834852Y-117911374D01*
X122861960Y-117922267D01*
X122916119Y-117933932D01*
X122983311Y-117936243D01*
X123053659Y-117929883D01*
X123117288Y-117915538D01*
X123150281Y-117902297D01*
X123217278Y-117856816D01*
X123279542Y-117794083D01*
X123334626Y-117718916D01*
X123380081Y-117636137D01*
X123413459Y-117550563D01*
X123432312Y-117467016D01*
X123434193Y-117390315D01*
X123427908Y-117355685D01*
X123420429Y-117332060D01*
X123409865Y-117313814D01*
X123391756Y-117297199D01*
X123361639Y-117278469D01*
X123315055Y-117253875D01*
X123293919Y-117243130D01*
X123240091Y-117216257D01*
X123200568Y-117198761D01*
X123167390Y-117188631D01*
X123132594Y-117183854D01*
X123088217Y-117182418D01*
X123053280Y-117182323D01*
X122970812Y-117186084D01*
X122904372Y-117199340D01*
X122845849Y-117225045D01*
X122787129Y-117266157D01*
X122759870Y-117289245D01*
X122715395Y-117338125D01*
X122672951Y-117401674D01*
X122637192Y-117471295D01*
X122612767Y-117538390D01*
X122605374Y-117574806D01*
X122364669Y-117574806D01*
X122374928Y-117530302D01*
X122417185Y-117414937D01*
X122473740Y-117301443D01*
X122543036Y-117192538D01*
X122623512Y-117090942D01*
X122713611Y-116999374D01*
X122811772Y-116920552D01*
X122916437Y-116857197D01*
X123026048Y-116812026D01*
X123038138Y-116808343D01*
X123129990Y-116791334D01*
X123231043Y-116789302D01*
X123330714Y-116801920D01*
G37*
G36*
X121785007Y-119897650D02*
G01*
X121853533Y-119922104D01*
X121907188Y-119964520D01*
X121926665Y-120003429D01*
X121932754Y-120056702D01*
X121925746Y-120117765D01*
X121905933Y-120180043D01*
X121896793Y-120199433D01*
X121879837Y-120234183D01*
X121870005Y-120257984D01*
X121869102Y-120265090D01*
X121882847Y-120260397D01*
X121912622Y-120248163D01*
X121947476Y-120233018D01*
X122057410Y-120192275D01*
X122155238Y-120173112D01*
X122241441Y-120175493D01*
X122316499Y-120199382D01*
X122326359Y-120204559D01*
X122381441Y-120246778D01*
X122414433Y-120299691D01*
X122425498Y-120362567D01*
X122414798Y-120434677D01*
X122382495Y-120515291D01*
X122328752Y-120603681D01*
X122253730Y-120699116D01*
X122204323Y-120753433D01*
X122048977Y-120901664D01*
X121887374Y-121026017D01*
X121718786Y-121127005D01*
X121595085Y-121184544D01*
X121509069Y-121214554D01*
X121426422Y-121233139D01*
X121351933Y-121239769D01*
X121290388Y-121233915D01*
X121257204Y-121221906D01*
X121230896Y-121207071D01*
X121216397Y-121197957D01*
X121215931Y-121197549D01*
X121223428Y-121188450D01*
X121246806Y-121166155D01*
X121282841Y-121133610D01*
X121328307Y-121093759D01*
X121350616Y-121074542D01*
X121404817Y-121028362D01*
X121443850Y-120996363D01*
X121471444Y-120976336D01*
X121491324Y-120966071D01*
X121507218Y-120963360D01*
X121522853Y-120965994D01*
X121530141Y-120968132D01*
X121564524Y-120973744D01*
X121607068Y-120969925D01*
X121650210Y-120960318D01*
X121723490Y-120934691D01*
X121797538Y-120896583D01*
X121869467Y-120848870D01*
X121936389Y-120794429D01*
X121995416Y-120736135D01*
X122043660Y-120676864D01*
X122078233Y-120619493D01*
X122096247Y-120566898D01*
X122094813Y-120521954D01*
X122093725Y-120518643D01*
X122065968Y-120475553D01*
X122020933Y-120446286D01*
X121962992Y-120432137D01*
X121896516Y-120434401D01*
X121848619Y-120445993D01*
X121801101Y-120464563D01*
X121751470Y-120490697D01*
X121696091Y-120526818D01*
X121631325Y-120575346D01*
X121553537Y-120638702D01*
X121532403Y-120656488D01*
X121407741Y-120761920D01*
X121348162Y-120722983D01*
X121315824Y-120699759D01*
X121294428Y-120680376D01*
X121289164Y-120671540D01*
X121298464Y-120659326D01*
X121323558Y-120634539D01*
X121360910Y-120600477D01*
X121406983Y-120560440D01*
X121420685Y-120548844D01*
X121507028Y-120472132D01*
X121571460Y-120405387D01*
X121614541Y-120347588D01*
X121636828Y-120297714D01*
X121638881Y-120254743D01*
X121621258Y-120217654D01*
X121609043Y-120204441D01*
X121557550Y-120172362D01*
X121495507Y-120161272D01*
X121424954Y-120170546D01*
X121347929Y-120199558D01*
X121266471Y-120247685D01*
X121182619Y-120314300D01*
X121149583Y-120345279D01*
X121084407Y-120416875D01*
X121041861Y-120481664D01*
X121022201Y-120539091D01*
X121025681Y-120588601D01*
X121031249Y-120601775D01*
X121037512Y-120615406D01*
X121038667Y-120627617D01*
X121032165Y-120641600D01*
X121015455Y-120660546D01*
X120985988Y-120687648D01*
X120941212Y-120726098D01*
X120912538Y-120750363D01*
X120862957Y-120791589D01*
X120819701Y-120826272D01*
X120786524Y-120851496D01*
X120767181Y-120864349D01*
X120764326Y-120865386D01*
X120742548Y-120854204D01*
X120721968Y-120825642D01*
X120706572Y-120787179D01*
X120700348Y-120746290D01*
X120700344Y-120745360D01*
X120711951Y-120665841D01*
X120746084Y-120579276D01*
X120801708Y-120487017D01*
X120877789Y-120390416D01*
X120973292Y-120290827D01*
X121087183Y-120189602D01*
X121182845Y-120114324D01*
X121295871Y-120037032D01*
X121406518Y-119975657D01*
X121512769Y-119930615D01*
X121612611Y-119902322D01*
X121704028Y-119891194D01*
X121785007Y-119897650D01*
G37*
G36*
X116247598Y-115468152D02*
G01*
X116350628Y-115500686D01*
X116451130Y-115555863D01*
X116547711Y-115633138D01*
X116638974Y-115731965D01*
X116695152Y-115808047D01*
X116778049Y-115945394D01*
X116840420Y-116081744D01*
X116882053Y-116215381D01*
X116902739Y-116344590D01*
X116902268Y-116467655D01*
X116880429Y-116582862D01*
X116837011Y-116688494D01*
X116808784Y-116734795D01*
X116777264Y-116775523D01*
X116737713Y-116815742D01*
X116687221Y-116857674D01*
X116622878Y-116903541D01*
X116541772Y-116955567D01*
X116440993Y-117015972D01*
X116439001Y-117017139D01*
X116312606Y-117089928D01*
X116204100Y-117149521D01*
X116110771Y-117196902D01*
X116029904Y-117233060D01*
X115958788Y-117258980D01*
X115894709Y-117275650D01*
X115834956Y-117284056D01*
X115776815Y-117285185D01*
X115717573Y-117280025D01*
X115716641Y-117279902D01*
X115646616Y-117265713D01*
X115572294Y-117242752D01*
X115505968Y-117215051D01*
X115485277Y-117204038D01*
X115399823Y-117142325D01*
X115318833Y-117060590D01*
X115246177Y-116963813D01*
X115185721Y-116856977D01*
X115150601Y-116772930D01*
X115127459Y-116681027D01*
X115120386Y-116613293D01*
X115379580Y-116613293D01*
X115381716Y-116672049D01*
X115389406Y-116715763D01*
X115404514Y-116754131D01*
X115407945Y-116760804D01*
X115449446Y-116825264D01*
X115500223Y-116882806D01*
X115553753Y-116926565D01*
X115579074Y-116940925D01*
X115637712Y-116957447D01*
X115707777Y-116960367D01*
X115780043Y-116950193D01*
X115845286Y-116927434D01*
X115847956Y-116926098D01*
X115883663Y-116906381D01*
X115934663Y-116876089D01*
X115997414Y-116837518D01*
X116068372Y-116792966D01*
X116143992Y-116744728D01*
X116220732Y-116695102D01*
X116295047Y-116646384D01*
X116363394Y-116600870D01*
X116422229Y-116560857D01*
X116468009Y-116528641D01*
X116497190Y-116506520D01*
X116502483Y-116501911D01*
X116563595Y-116429324D01*
X116601294Y-116348113D01*
X116615435Y-116258602D01*
X116615546Y-116250615D01*
X116613700Y-116203072D01*
X116606073Y-116162288D01*
X116590045Y-116118106D01*
X116570404Y-116075528D01*
X116523697Y-115994368D01*
X116469072Y-115924873D01*
X116411001Y-115872304D01*
X116382284Y-115854127D01*
X116330550Y-115837235D01*
X116266448Y-115831748D01*
X116199742Y-115837416D01*
X116140196Y-115853991D01*
X116125945Y-115860653D01*
X116100359Y-115876660D01*
X116058607Y-115905751D01*
X116004033Y-115945358D01*
X115939985Y-115992916D01*
X115869807Y-116045859D01*
X115796845Y-116101620D01*
X115724445Y-116157634D01*
X115655952Y-116211334D01*
X115594712Y-116260155D01*
X115544070Y-116301529D01*
X115507373Y-116332892D01*
X115493649Y-116345629D01*
X115433838Y-116417387D01*
X115396909Y-116493697D01*
X115380733Y-116579551D01*
X115379580Y-116613293D01*
X115120386Y-116613293D01*
X115116548Y-116576544D01*
X115118000Y-116468793D01*
X115131943Y-116367083D01*
X115144259Y-116319398D01*
X115190181Y-116207773D01*
X115255836Y-116099605D01*
X115329366Y-116010241D01*
X115366748Y-115973505D01*
X115417961Y-115926694D01*
X115479627Y-115872580D01*
X115548368Y-115813931D01*
X115620805Y-115753516D01*
X115693561Y-115694105D01*
X115763256Y-115638468D01*
X115826513Y-115589373D01*
X115879954Y-115549590D01*
X115920201Y-115521889D01*
X115937307Y-115511863D01*
X116039542Y-115473195D01*
X116143438Y-115458807D01*
X116247598Y-115468152D01*
G37*
G36*
X119197732Y-109543210D02*
G01*
X119270762Y-109550389D01*
X119327278Y-109561353D01*
X119337173Y-109564388D01*
X119449088Y-109613126D01*
X119542674Y-109676748D01*
X119616841Y-109753870D01*
X119670501Y-109843108D01*
X119702566Y-109943076D01*
X119712061Y-110041309D01*
X119708381Y-110104218D01*
X119696530Y-110165771D01*
X119675288Y-110227456D01*
X119643436Y-110290764D01*
X119599754Y-110357183D01*
X119543023Y-110428203D01*
X119472024Y-110505314D01*
X119385537Y-110590005D01*
X119282344Y-110683766D01*
X119161224Y-110788086D01*
X119020959Y-110904455D01*
X118974495Y-110942319D01*
X118904189Y-110999336D01*
X118838836Y-111052199D01*
X118781390Y-111098528D01*
X118734803Y-111135946D01*
X118702028Y-111162075D01*
X118686853Y-111173921D01*
X118679952Y-111179532D01*
X118676988Y-111184168D01*
X118680015Y-111187925D01*
X118691087Y-111190898D01*
X118712258Y-111193181D01*
X118745583Y-111194869D01*
X118793116Y-111196057D01*
X118856911Y-111196840D01*
X118939023Y-111197312D01*
X119041506Y-111197569D01*
X119166413Y-111197705D01*
X119202732Y-111197732D01*
X119749876Y-111198128D01*
X119749876Y-111323190D01*
X119749876Y-111448251D01*
X118918217Y-111448251D01*
X118747242Y-111448162D01*
X118599796Y-111447874D01*
X118474395Y-111447360D01*
X118369556Y-111446592D01*
X118283796Y-111445542D01*
X118215632Y-111444183D01*
X118163581Y-111442486D01*
X118126159Y-111440424D01*
X118101883Y-111437969D01*
X118089270Y-111435092D01*
X118086572Y-111432619D01*
X118089701Y-111398250D01*
X118097794Y-111353552D01*
X118108987Y-111305871D01*
X118121418Y-111262554D01*
X118133223Y-111230945D01*
X118140703Y-111219218D01*
X118234936Y-111145953D01*
X118335075Y-111067091D01*
X118438695Y-110984619D01*
X118543372Y-110900524D01*
X118646684Y-110816793D01*
X118746204Y-110735415D01*
X118839511Y-110658375D01*
X118924179Y-110587662D01*
X118997786Y-110525262D01*
X119057906Y-110473163D01*
X119102117Y-110433352D01*
X119119190Y-110416998D01*
X119209153Y-110318427D01*
X119275050Y-110226017D01*
X119316992Y-110139520D01*
X119335092Y-110058692D01*
X119329459Y-109983286D01*
X119324178Y-109964708D01*
X119291580Y-109895366D01*
X119244741Y-109844571D01*
X119182064Y-109811342D01*
X119101953Y-109794700D01*
X119043278Y-109792279D01*
X118953746Y-109799585D01*
X118878962Y-109821757D01*
X118811895Y-109861366D01*
X118778353Y-109889148D01*
X118745423Y-109925685D01*
X118713074Y-109972775D01*
X118685565Y-110022827D01*
X118667157Y-110068249D01*
X118661841Y-110096799D01*
X118660760Y-110106710D01*
X118655038Y-110113692D01*
X118640954Y-110118258D01*
X118614786Y-110120919D01*
X118572813Y-110122188D01*
X118511313Y-110122576D01*
X118474248Y-110122599D01*
X118408967Y-110121896D01*
X118353566Y-110119959D01*
X118312367Y-110117046D01*
X118289695Y-110113415D01*
X118286656Y-110111410D01*
X118291340Y-110085477D01*
X118303502Y-110044589D01*
X118320309Y-109996577D01*
X118338928Y-109949274D01*
X118356527Y-109910512D01*
X118364630Y-109895854D01*
X118438844Y-109799167D01*
X118532962Y-109712791D01*
X118642994Y-109639639D01*
X118764949Y-109582626D01*
X118818821Y-109564176D01*
X118874158Y-109552392D01*
X118946401Y-109544406D01*
X119028868Y-109540216D01*
X119114873Y-109539818D01*
X119197732Y-109543210D01*
G37*
G36*
X120916438Y-109544781D02*
G01*
X121043715Y-109574158D01*
X121160052Y-109624526D01*
X121268290Y-109697035D01*
X121345120Y-109765896D01*
X121394201Y-109817018D01*
X121435791Y-109866451D01*
X121471056Y-109917264D01*
X121501161Y-109972525D01*
X121527271Y-110035302D01*
X121550554Y-110108663D01*
X121572175Y-110195676D01*
X121593299Y-110299410D01*
X121615094Y-110422933D01*
X121630372Y-110516543D01*
X121647481Y-110623755D01*
X121660992Y-110709447D01*
X121671211Y-110776807D01*
X121678443Y-110829020D01*
X121682993Y-110869273D01*
X121685167Y-110900753D01*
X121685270Y-110926645D01*
X121683607Y-110950137D01*
X121680484Y-110974415D01*
X121676664Y-110999659D01*
X121648274Y-111111896D01*
X121599700Y-111209506D01*
X121531157Y-111292335D01*
X121442859Y-111360231D01*
X121335022Y-111413041D01*
X121207860Y-111450612D01*
X121061587Y-111472791D01*
X121006745Y-111476842D01*
X120940464Y-111478568D01*
X120868993Y-111477341D01*
X120806347Y-111473444D01*
X120798727Y-111472663D01*
X120647652Y-111446476D01*
X120512452Y-111403163D01*
X120394041Y-111343410D01*
X120293334Y-111267902D01*
X120211245Y-111177325D01*
X120148689Y-111072363D01*
X120106721Y-110954258D01*
X120100946Y-110925429D01*
X120096243Y-110887378D01*
X120092484Y-110837428D01*
X120089547Y-110772901D01*
X120087304Y-110691121D01*
X120085632Y-110589409D01*
X120084515Y-110479024D01*
X120082086Y-110177738D01*
X120462999Y-110177738D01*
X120464119Y-110252090D01*
X120466934Y-110337582D01*
X120471165Y-110430319D01*
X120476535Y-110526405D01*
X120482767Y-110621943D01*
X120489582Y-110713039D01*
X120496704Y-110795796D01*
X120503855Y-110866318D01*
X120510757Y-110920710D01*
X120517133Y-110955076D01*
X120518762Y-110960511D01*
X120561414Y-111051219D01*
X120618301Y-111122035D01*
X120690150Y-111173413D01*
X120777692Y-111205802D01*
X120881655Y-111219653D01*
X120937961Y-111219839D01*
X120997856Y-111216936D01*
X121041017Y-111211667D01*
X121075718Y-111202222D01*
X121110229Y-111186793D01*
X121125167Y-111178902D01*
X121190037Y-111133136D01*
X121234969Y-111075553D01*
X121261838Y-111003092D01*
X121271001Y-110940632D01*
X121271280Y-110900658D01*
X121268031Y-110840288D01*
X121261787Y-110763805D01*
X121253077Y-110675494D01*
X121242432Y-110579639D01*
X121230381Y-110480524D01*
X121217455Y-110382434D01*
X121204184Y-110289652D01*
X121191099Y-110206464D01*
X121178729Y-110137154D01*
X121167604Y-110086005D01*
X121163334Y-110070655D01*
X121130053Y-109993917D01*
X121081869Y-109922479D01*
X121024807Y-109864690D01*
X121003258Y-109848839D01*
X120943032Y-109819392D01*
X120869961Y-109798823D01*
X120795389Y-109789656D01*
X120746098Y-109791670D01*
X120656866Y-109814252D01*
X120584360Y-109855387D01*
X120528673Y-109914950D01*
X120489895Y-109992818D01*
X120468120Y-110088864D01*
X120462999Y-110177738D01*
X120082086Y-110177738D01*
X120081289Y-110078827D01*
X120115873Y-109976767D01*
X120168015Y-109858030D01*
X120237559Y-109756978D01*
X120323690Y-109674157D01*
X120425593Y-109610112D01*
X120542453Y-109565388D01*
X120673455Y-109540532D01*
X120775381Y-109535244D01*
X120916438Y-109544781D01*
G37*
G36*
X125477046Y-112674378D02*
G01*
X125552477Y-112699742D01*
X125566152Y-112706803D01*
X125637235Y-112758226D01*
X125705415Y-112832805D01*
X125769539Y-112928746D01*
X125828455Y-113044254D01*
X125881010Y-113177536D01*
X125894454Y-113217872D01*
X125920771Y-113302406D01*
X125948384Y-113395492D01*
X125975986Y-113492305D01*
X126002271Y-113588023D01*
X126025934Y-113677823D01*
X126045667Y-113756881D01*
X126060166Y-113820373D01*
X126066639Y-113853787D01*
X126072418Y-113907195D01*
X126075163Y-113974882D01*
X126075084Y-114049941D01*
X126072388Y-114125460D01*
X126067284Y-114194531D01*
X126059979Y-114250242D01*
X126053895Y-114276860D01*
X126028524Y-114335445D01*
X125991224Y-114392332D01*
X125947982Y-114439621D01*
X125909815Y-114466997D01*
X125855678Y-114485503D01*
X125789840Y-114495009D01*
X125724309Y-114494487D01*
X125681445Y-114486552D01*
X125651051Y-114471600D01*
X125636897Y-114445518D01*
X125634480Y-114433874D01*
X125626176Y-114382805D01*
X125618478Y-114331964D01*
X125612229Y-114287376D01*
X125608272Y-114255069D01*
X125607448Y-114241066D01*
X125607515Y-114240941D01*
X125619784Y-114241983D01*
X125647815Y-114247534D01*
X125659385Y-114250170D01*
X125718416Y-114256800D01*
X125776028Y-114250923D01*
X125823475Y-114233918D01*
X125840758Y-114221576D01*
X125871053Y-114183680D01*
X125890613Y-114134247D01*
X125900732Y-114068776D01*
X125902904Y-114005385D01*
X125900723Y-113956178D01*
X125894816Y-113898699D01*
X125886139Y-113838031D01*
X125875650Y-113779257D01*
X125864303Y-113727460D01*
X125853057Y-113687723D01*
X125842865Y-113665128D01*
X125838273Y-113661841D01*
X125828771Y-113671863D01*
X125827867Y-113678723D01*
X125819376Y-113703177D01*
X125797569Y-113737191D01*
X125767946Y-113773843D01*
X125736006Y-113806212D01*
X125711807Y-113824788D01*
X125652597Y-113847091D01*
X125588573Y-113846852D01*
X125523217Y-113825122D01*
X125460015Y-113782954D01*
X125412707Y-113734435D01*
X125353667Y-113648425D01*
X125301766Y-113545691D01*
X125258262Y-113431477D01*
X125224413Y-113311030D01*
X125201481Y-113189592D01*
X125195488Y-113124319D01*
X125366692Y-113124319D01*
X125378612Y-113216949D01*
X125389891Y-113266879D01*
X125422369Y-113372346D01*
X125460572Y-113459219D01*
X125503438Y-113526420D01*
X125549903Y-113572870D01*
X125598904Y-113597492D01*
X125649377Y-113599206D01*
X125697500Y-113578780D01*
X125738430Y-113537616D01*
X125760561Y-113480309D01*
X125763915Y-113407188D01*
X125748514Y-113318583D01*
X125714382Y-113214824D01*
X125665271Y-113103834D01*
X125617835Y-113020911D01*
X125569722Y-112961800D01*
X125522750Y-112925423D01*
X125478737Y-112910705D01*
X125439502Y-112916569D01*
X125406862Y-112941938D01*
X125382635Y-112985738D01*
X125368639Y-113046890D01*
X125366692Y-113124319D01*
X125195488Y-113124319D01*
X125190722Y-113072410D01*
X125193397Y-112964728D01*
X125207972Y-112881585D01*
X125240068Y-112799173D01*
X125285215Y-112736176D01*
X125341222Y-112693665D01*
X125405897Y-112672709D01*
X125477046Y-112674378D01*
G37*
G36*
X116132543Y-110133956D02*
G01*
X116163302Y-110163518D01*
X116182229Y-110204628D01*
X116185590Y-110231459D01*
X116182731Y-110269336D01*
X116173855Y-110318492D01*
X116158451Y-110380566D01*
X116136008Y-110457197D01*
X116106013Y-110550023D01*
X116067956Y-110660682D01*
X116021324Y-110790814D01*
X115965607Y-110942056D01*
X115954061Y-110973017D01*
X115925872Y-111048963D01*
X115905903Y-111104151D01*
X115893362Y-111141155D01*
X115887457Y-111162551D01*
X115887395Y-111170913D01*
X115892385Y-111168815D01*
X115894424Y-111166863D01*
X115904473Y-111155478D01*
X115928627Y-111127613D01*
X115964721Y-111085789D01*
X116010592Y-111032526D01*
X116064078Y-110970344D01*
X116123014Y-110901763D01*
X116185238Y-110829304D01*
X116248587Y-110755487D01*
X116310897Y-110682833D01*
X116370005Y-110613860D01*
X116423747Y-110551091D01*
X116469962Y-110497044D01*
X116506485Y-110454241D01*
X116531152Y-110425202D01*
X116538207Y-110416819D01*
X116552210Y-110401961D01*
X116564222Y-110400430D01*
X116581817Y-110413882D01*
X116598336Y-110429965D01*
X116637293Y-110468448D01*
X116347470Y-110805149D01*
X116212616Y-110961794D01*
X116093415Y-111100207D01*
X115989225Y-111221129D01*
X115899405Y-111325306D01*
X115823311Y-111413479D01*
X115760301Y-111486392D01*
X115709735Y-111544788D01*
X115670968Y-111589409D01*
X115643360Y-111620998D01*
X115626267Y-111640300D01*
X115619048Y-111648056D01*
X115618727Y-111648288D01*
X115608689Y-111641242D01*
X115586740Y-111623983D01*
X115581996Y-111620149D01*
X115547401Y-111592072D01*
X115573986Y-111523288D01*
X115602282Y-111449147D01*
X115635242Y-111361260D01*
X115671224Y-111264144D01*
X115708587Y-111162319D01*
X115745690Y-111060301D01*
X115780889Y-110962610D01*
X115812545Y-110873763D01*
X115839016Y-110798278D01*
X115858660Y-110740674D01*
X115861928Y-110730771D01*
X115890668Y-110633498D01*
X115906472Y-110557027D01*
X115909316Y-110501534D01*
X115899179Y-110467194D01*
X115895479Y-110462766D01*
X115864283Y-110448238D01*
X115821654Y-110452560D01*
X115770602Y-110474161D01*
X115714138Y-110511468D01*
X115655270Y-110562911D01*
X115609323Y-110612186D01*
X115538659Y-110698767D01*
X115486296Y-110772756D01*
X115450807Y-110836933D01*
X115430763Y-110894080D01*
X115424738Y-110946978D01*
X115426100Y-110969093D01*
X115432587Y-111026653D01*
X115314088Y-111165542D01*
X115270878Y-111215139D01*
X115232313Y-111257462D01*
X115201727Y-111288995D01*
X115182456Y-111306221D01*
X115178651Y-111308320D01*
X115163767Y-111299915D01*
X115150373Y-111270863D01*
X115148925Y-111265889D01*
X115143594Y-111204069D01*
X115156958Y-111128790D01*
X115187923Y-111041892D01*
X115235393Y-110945216D01*
X115298275Y-110840601D01*
X115375475Y-110729887D01*
X115465898Y-110614914D01*
X115568450Y-110497521D01*
X115667362Y-110394175D01*
X115767493Y-110300187D01*
X115861044Y-110225289D01*
X115946810Y-110170244D01*
X116023587Y-110135816D01*
X116090173Y-110122768D01*
X116095521Y-110122669D01*
X116132543Y-110133956D01*
G37*
G36*
X114161432Y-112095704D02*
G01*
X114192126Y-112108020D01*
X114237601Y-112127200D01*
X114293872Y-112151478D01*
X114356956Y-112179086D01*
X114422869Y-112208259D01*
X114487627Y-112237230D01*
X114547245Y-112264232D01*
X114597740Y-112287500D01*
X114635127Y-112305266D01*
X114655422Y-112315764D01*
X114657703Y-112317345D01*
X114658074Y-112331525D01*
X114653799Y-112364098D01*
X114645736Y-112409059D01*
X114641775Y-112428543D01*
X114619724Y-112533618D01*
X114383892Y-112863239D01*
X114303923Y-112975554D01*
X114237376Y-113070431D01*
X114182663Y-113150440D01*
X114138197Y-113218152D01*
X114102390Y-113276136D01*
X114073654Y-113326963D01*
X114050402Y-113373203D01*
X114031046Y-113417427D01*
X114014088Y-113461954D01*
X113993727Y-113532287D01*
X113979904Y-113607814D01*
X113973049Y-113682186D01*
X113973593Y-113749052D01*
X113981970Y-113802062D01*
X113989619Y-113822152D01*
X114019231Y-113857236D01*
X114057951Y-113871758D01*
X114099927Y-113863675D01*
X114103449Y-113861885D01*
X114126986Y-113840203D01*
X114154604Y-113801130D01*
X114182652Y-113751064D01*
X114207480Y-113696400D01*
X114222929Y-113652461D01*
X114234647Y-113620386D01*
X114245906Y-113601467D01*
X114249646Y-113599310D01*
X114264692Y-113604314D01*
X114293096Y-113616558D01*
X114325946Y-113631894D01*
X114354334Y-113646170D01*
X114368931Y-113654869D01*
X114368593Y-113668816D01*
X114361008Y-113700328D01*
X114348059Y-113743683D01*
X114331632Y-113793161D01*
X114313609Y-113843040D01*
X114295876Y-113887599D01*
X114282913Y-113916074D01*
X114230087Y-114007105D01*
X114174882Y-114074525D01*
X114117814Y-114118054D01*
X114059403Y-114137416D01*
X114000164Y-114132332D01*
X113940616Y-114102524D01*
X113938579Y-114101063D01*
X113894355Y-114059379D01*
X113861982Y-114005367D01*
X113840201Y-113935688D01*
X113827753Y-113847006D01*
X113824836Y-113799408D01*
X113823674Y-113700512D01*
X113829604Y-113607065D01*
X113843723Y-113516424D01*
X113867124Y-113425945D01*
X113900904Y-113332984D01*
X113946157Y-113234897D01*
X114003980Y-113129040D01*
X114075468Y-113012770D01*
X114161716Y-112883442D01*
X114263819Y-112738414D01*
X114265248Y-112736424D01*
X114313414Y-112668998D01*
X114356007Y-112608661D01*
X114391067Y-112558251D01*
X114416632Y-112520605D01*
X114430741Y-112498560D01*
X114432853Y-112493949D01*
X114420487Y-112488040D01*
X114389416Y-112473877D01*
X114343803Y-112453340D01*
X114287811Y-112428309D01*
X114262801Y-112417174D01*
X114186467Y-112381843D01*
X114133491Y-112354136D01*
X114104014Y-112334135D01*
X114097415Y-112324205D01*
X114100152Y-112303782D01*
X114107001Y-112267805D01*
X114116444Y-112223054D01*
X114126958Y-112176307D01*
X114137023Y-112134341D01*
X114145119Y-112103936D01*
X114149504Y-112092018D01*
X114161432Y-112095704D01*
G37*
G36*
X124095875Y-110616937D02*
G01*
X124539949Y-110766666D01*
X124604675Y-110847956D01*
X124641712Y-110894370D01*
X124678956Y-110940881D01*
X124708907Y-110978122D01*
X124711248Y-110981020D01*
X124753094Y-111032794D01*
X124559776Y-111179794D01*
X124366457Y-111326794D01*
X124431990Y-111409408D01*
X124463336Y-111449373D01*
X124489089Y-111483030D01*
X124504891Y-111504657D01*
X124507076Y-111508005D01*
X124505023Y-111525554D01*
X124488449Y-111547313D01*
X124464859Y-111565638D01*
X124443343Y-111572897D01*
X124429280Y-111563878D01*
X124404458Y-111539405D01*
X124373236Y-111503949D01*
X124358394Y-111485770D01*
X124326691Y-111446972D01*
X124300768Y-111416990D01*
X124284526Y-111400256D01*
X124281373Y-111398227D01*
X124268280Y-111405069D01*
X124241442Y-111422863D01*
X124212294Y-111443671D01*
X124178151Y-111465995D01*
X124151912Y-111478093D01*
X124140403Y-111478063D01*
X124115766Y-111449461D01*
X124084419Y-111411210D01*
X124049948Y-111367932D01*
X124015939Y-111324248D01*
X123985979Y-111284780D01*
X123963655Y-111254150D01*
X123952553Y-111236980D01*
X123951944Y-111235212D01*
X123961248Y-111222150D01*
X123985216Y-111200422D01*
X124007734Y-111182892D01*
X124038573Y-111158148D01*
X124058953Y-111137855D01*
X124063798Y-111129344D01*
X124056441Y-111116374D01*
X124035648Y-111086734D01*
X124003572Y-111043315D01*
X123962368Y-110989004D01*
X123914192Y-110926692D01*
X123881898Y-110885474D01*
X123826840Y-110815481D01*
X123773840Y-110747979D01*
X123753973Y-110722626D01*
X123898691Y-110722626D01*
X123903018Y-110731806D01*
X123920094Y-110756629D01*
X123946956Y-110793278D01*
X123980640Y-110837933D01*
X124018183Y-110886776D01*
X124056621Y-110935990D01*
X124092992Y-110981756D01*
X124124331Y-111020255D01*
X124147677Y-111047670D01*
X124160064Y-111060182D01*
X124160961Y-111060560D01*
X124172907Y-111053445D01*
X124200400Y-111034144D01*
X124239167Y-111005728D01*
X124278521Y-110976144D01*
X124322996Y-110941826D01*
X124358979Y-110913048D01*
X124382445Y-110893096D01*
X124389549Y-110885474D01*
X124378320Y-110880176D01*
X124347545Y-110868711D01*
X124301511Y-110852500D01*
X124244505Y-110832966D01*
X124180814Y-110811533D01*
X124114726Y-110789620D01*
X124050526Y-110768652D01*
X123992504Y-110750051D01*
X123944944Y-110735238D01*
X123912135Y-110725635D01*
X123898691Y-110722626D01*
X123753973Y-110722626D01*
X123725910Y-110686814D01*
X123686065Y-110635835D01*
X123657318Y-110598890D01*
X123648697Y-110587726D01*
X123597668Y-110521341D01*
X123624735Y-110494275D01*
X123651801Y-110467208D01*
X124095875Y-110616937D01*
G37*
G36*
X117433214Y-117073663D02*
G01*
X117453365Y-117104968D01*
X117480102Y-117147793D01*
X117510807Y-117197805D01*
X117542860Y-117250671D01*
X117573645Y-117302057D01*
X117600541Y-117347632D01*
X117620931Y-117383061D01*
X117632196Y-117404013D01*
X117633542Y-117407807D01*
X117621589Y-117413616D01*
X117590295Y-117427982D01*
X117543179Y-117449312D01*
X117483759Y-117476015D01*
X117415557Y-117506496D01*
X117404972Y-117511213D01*
X117328036Y-117545536D01*
X117234805Y-117587206D01*
X117131795Y-117633305D01*
X117025522Y-117680917D01*
X116922499Y-117727126D01*
X116867207Y-117751953D01*
X116779103Y-117791463D01*
X116693219Y-117829847D01*
X116613777Y-117865229D01*
X116544999Y-117895732D01*
X116491108Y-117919478D01*
X116459480Y-117933239D01*
X116408796Y-117955555D01*
X116357108Y-117979222D01*
X116310075Y-118001543D01*
X116273358Y-118019819D01*
X116252617Y-118031353D01*
X116250734Y-118032740D01*
X116255659Y-118043900D01*
X116271631Y-118072729D01*
X116296559Y-118115611D01*
X116328352Y-118168932D01*
X116352892Y-118209416D01*
X116388909Y-118269031D01*
X116420190Y-118321886D01*
X116444427Y-118363994D01*
X116459312Y-118391369D01*
X116462866Y-118399328D01*
X116453513Y-118412255D01*
X116421404Y-118430530D01*
X116368024Y-118453334D01*
X116357150Y-118457524D01*
X116247289Y-118499305D01*
X116025737Y-118193665D01*
X115970075Y-118116532D01*
X115919329Y-118045545D01*
X115875335Y-117983326D01*
X115839929Y-117932500D01*
X115814950Y-117895688D01*
X115802234Y-117875513D01*
X115801015Y-117872840D01*
X115811283Y-117864610D01*
X115841873Y-117846479D01*
X115890631Y-117819529D01*
X115955407Y-117784842D01*
X116034048Y-117743499D01*
X116124404Y-117696580D01*
X116224321Y-117645168D01*
X116331648Y-117590343D01*
X116444233Y-117533187D01*
X116559925Y-117474780D01*
X116676571Y-117416205D01*
X116792021Y-117358541D01*
X116904121Y-117302871D01*
X117010720Y-117250276D01*
X117109667Y-117201837D01*
X117198809Y-117158635D01*
X117275995Y-117121751D01*
X117339072Y-117092267D01*
X117385890Y-117071264D01*
X117414296Y-117059823D01*
X117422269Y-117058211D01*
X117433214Y-117073663D01*
G37*
G36*
X118689370Y-120059043D02*
G01*
X118720505Y-120077558D01*
X118767029Y-120106297D01*
X118826262Y-120143524D01*
X118895525Y-120187506D01*
X118972140Y-120236509D01*
X119053427Y-120288796D01*
X119136708Y-120342635D01*
X119219303Y-120396290D01*
X119298534Y-120448028D01*
X119371722Y-120496113D01*
X119436187Y-120538811D01*
X119489250Y-120574387D01*
X119528234Y-120601108D01*
X119550459Y-120617239D01*
X119554648Y-120621173D01*
X119546339Y-120634187D01*
X119523211Y-120657513D01*
X119490226Y-120686157D01*
X119489427Y-120686809D01*
X119451124Y-120716282D01*
X119423811Y-120731536D01*
X119400444Y-120735682D01*
X119383125Y-120733727D01*
X119351898Y-120731384D01*
X119300942Y-120731427D01*
X119235390Y-120733514D01*
X119160376Y-120737302D01*
X119081034Y-120742446D01*
X119002497Y-120748605D01*
X118929900Y-120755436D01*
X118868374Y-120762594D01*
X118823055Y-120769738D01*
X118813528Y-120771793D01*
X118706386Y-120804285D01*
X118597776Y-120849797D01*
X118494219Y-120904841D01*
X118402237Y-120965929D01*
X118328351Y-121029572D01*
X118324848Y-121033176D01*
X118298751Y-121058909D01*
X118279927Y-121074905D01*
X118274823Y-121077561D01*
X118262005Y-121071180D01*
X118232655Y-121054235D01*
X118191425Y-121029464D01*
X118152686Y-121005650D01*
X118105887Y-120975511D01*
X118068295Y-120949199D01*
X118044287Y-120929915D01*
X118037801Y-120921663D01*
X118048119Y-120904061D01*
X118075584Y-120876900D01*
X118115875Y-120843458D01*
X118164675Y-120807017D01*
X118217663Y-120770854D01*
X118270521Y-120738252D01*
X118302516Y-120720650D01*
X118388960Y-120681997D01*
X118487573Y-120649781D01*
X118600716Y-120623571D01*
X118730752Y-120602936D01*
X118880043Y-120587445D01*
X119050951Y-120576669D01*
X119104936Y-120574362D01*
X119179099Y-120571491D01*
X119004887Y-120459320D01*
X118931304Y-120411914D01*
X118850771Y-120359985D01*
X118771837Y-120309046D01*
X118703049Y-120264615D01*
X118687113Y-120254311D01*
X118543552Y-120161474D01*
X118605481Y-120106980D01*
X118638323Y-120079182D01*
X118663912Y-120059547D01*
X118676301Y-120052486D01*
X118689370Y-120059043D01*
G37*
G36*
X123470926Y-115718674D02*
G01*
X123483892Y-115723689D01*
X123503241Y-115734519D01*
X123530434Y-115752216D01*
X123566934Y-115777834D01*
X123614203Y-115812426D01*
X123673704Y-115857046D01*
X123746899Y-115912748D01*
X123835250Y-115980583D01*
X123940218Y-116061607D01*
X124063268Y-116156871D01*
X124077823Y-116168151D01*
X124185327Y-116251263D01*
X124287018Y-116329480D01*
X124381175Y-116401503D01*
X124466075Y-116466035D01*
X124539999Y-116521779D01*
X124601224Y-116567437D01*
X124648029Y-116601711D01*
X124678693Y-116623305D01*
X124691494Y-116630919D01*
X124691697Y-116630885D01*
X124701783Y-116618311D01*
X124721371Y-116589136D01*
X124747227Y-116548287D01*
X124765213Y-116518886D01*
X124829369Y-116412672D01*
X124875270Y-116450343D01*
X124914326Y-116482895D01*
X124956877Y-116519065D01*
X124969799Y-116530218D01*
X125018426Y-116572423D01*
X124890987Y-116839854D01*
X124854717Y-116915560D01*
X124821690Y-116983725D01*
X124793514Y-117041094D01*
X124771797Y-117084409D01*
X124758146Y-117110415D01*
X124754415Y-117116442D01*
X124741029Y-117113589D01*
X124712383Y-117098502D01*
X124673271Y-117073896D01*
X124645634Y-117054882D01*
X124614025Y-117032470D01*
X124564711Y-116997528D01*
X124500402Y-116951976D01*
X124423809Y-116897735D01*
X124337644Y-116836723D01*
X124244617Y-116770860D01*
X124147439Y-116702067D01*
X124095765Y-116665490D01*
X123941796Y-116556505D01*
X123807055Y-116461122D01*
X123690350Y-116378497D01*
X123590491Y-116307787D01*
X123506287Y-116248146D01*
X123436547Y-116198731D01*
X123380080Y-116158698D01*
X123335695Y-116127201D01*
X123302202Y-116103398D01*
X123278409Y-116086444D01*
X123263126Y-116075495D01*
X123255161Y-116069706D01*
X123253381Y-116068343D01*
X123258191Y-116057279D01*
X123273523Y-116029181D01*
X123296835Y-115988346D01*
X123325586Y-115939071D01*
X123357236Y-115885653D01*
X123389243Y-115832387D01*
X123419066Y-115783571D01*
X123444164Y-115743502D01*
X123458291Y-115721874D01*
X123462879Y-115718420D01*
X123470926Y-115718674D01*
G37*
G36*
X114880628Y-112415845D02*
G01*
X114913259Y-112428334D01*
X114944366Y-112444554D01*
X114966430Y-112461237D01*
X114972525Y-112472371D01*
X114969488Y-112488001D01*
X114960813Y-112525255D01*
X114947154Y-112581550D01*
X114929167Y-112654301D01*
X114907505Y-112740926D01*
X114882824Y-112838841D01*
X114855778Y-112945462D01*
X114827021Y-113058205D01*
X114797208Y-113174487D01*
X114766994Y-113291724D01*
X114737033Y-113407333D01*
X114707980Y-113518730D01*
X114691762Y-113580551D01*
X114661840Y-113694539D01*
X114637859Y-113786761D01*
X114619341Y-113859626D01*
X114605806Y-113915542D01*
X114596776Y-113956917D01*
X114591774Y-113986161D01*
X114590321Y-114005682D01*
X114591938Y-114017888D01*
X114596148Y-114025189D01*
X114602472Y-114029992D01*
X114602508Y-114030013D01*
X114636429Y-114051224D01*
X114653980Y-114068303D01*
X114658504Y-114089554D01*
X114653343Y-114123284D01*
X114648724Y-114144874D01*
X114634187Y-114211637D01*
X114623127Y-114257730D01*
X114613724Y-114286925D01*
X114604153Y-114302996D01*
X114592594Y-114309717D01*
X114577225Y-114310861D01*
X114568720Y-114310567D01*
X114534300Y-114307765D01*
X114487124Y-114302181D01*
X114450393Y-114296969D01*
X114410023Y-114289255D01*
X114381791Y-114280967D01*
X114372230Y-114274496D01*
X114373522Y-114267444D01*
X114377574Y-114249680D01*
X114384647Y-114220163D01*
X114395002Y-114177852D01*
X114408900Y-114121706D01*
X114426603Y-114050681D01*
X114448371Y-113963737D01*
X114474466Y-113859832D01*
X114505150Y-113737925D01*
X114540682Y-113596973D01*
X114581326Y-113435936D01*
X114627341Y-113253771D01*
X114678989Y-113049437D01*
X114736016Y-112823928D01*
X114760294Y-112728117D01*
X114782752Y-112639811D01*
X114802623Y-112562006D01*
X114819140Y-112497695D01*
X114831534Y-112449870D01*
X114839039Y-112421526D01*
X114840867Y-112415135D01*
X114853991Y-112410356D01*
X114880628Y-112415845D01*
G37*
G36*
X118240419Y-119845618D02*
G01*
X118310212Y-119869258D01*
X118372258Y-119890573D01*
X118422467Y-119908134D01*
X118456750Y-119920512D01*
X118470650Y-119926062D01*
X118465150Y-119936038D01*
X118441716Y-119961181D01*
X118401464Y-120000447D01*
X118345512Y-120052795D01*
X118274976Y-120117184D01*
X118190973Y-120192572D01*
X118094619Y-120277918D01*
X118073397Y-120296589D01*
X117987061Y-120372342D01*
X117906446Y-120442841D01*
X117833500Y-120506398D01*
X117770176Y-120561324D01*
X117718424Y-120605931D01*
X117680194Y-120638528D01*
X117657437Y-120657429D01*
X117651786Y-120661598D01*
X117638035Y-120656435D01*
X117607928Y-120640469D01*
X117566210Y-120616329D01*
X117527533Y-120592815D01*
X117480739Y-120563155D01*
X117442986Y-120538006D01*
X117418673Y-120520377D01*
X117411851Y-120513680D01*
X117420656Y-120502874D01*
X117444705Y-120480689D01*
X117479534Y-120451152D01*
X117495642Y-120438056D01*
X117611130Y-120345145D01*
X117717660Y-120259237D01*
X117813875Y-120181436D01*
X117898422Y-120112845D01*
X117969944Y-120054567D01*
X118027088Y-120007706D01*
X118068499Y-119973366D01*
X118092820Y-119952650D01*
X118099064Y-119946618D01*
X118088295Y-119940347D01*
X118059819Y-119927873D01*
X118019383Y-119911687D01*
X118011521Y-119908665D01*
X117969701Y-119891615D01*
X117939063Y-119877079D01*
X117925290Y-119867799D01*
X117925036Y-119866927D01*
X117934362Y-119854738D01*
X117957114Y-119832491D01*
X117975721Y-119815948D01*
X118025348Y-119773256D01*
X118240419Y-119845618D01*
G37*
G36*
X123627041Y-109831750D02*
G01*
X123649626Y-109856352D01*
X123681184Y-109892555D01*
X123718411Y-109936375D01*
X123758001Y-109983830D01*
X123796650Y-110030939D01*
X123831052Y-110073718D01*
X123857901Y-110108187D01*
X123873894Y-110130362D01*
X123876907Y-110136201D01*
X123867494Y-110145720D01*
X123841406Y-110167871D01*
X123801869Y-110200133D01*
X123752109Y-110239986D01*
X123695353Y-110284910D01*
X123634827Y-110332387D01*
X123573757Y-110379895D01*
X123515369Y-110424915D01*
X123462890Y-110464927D01*
X123419546Y-110497411D01*
X123388563Y-110519848D01*
X123373168Y-110529717D01*
X123372977Y-110529794D01*
X123357534Y-110523140D01*
X123330397Y-110497787D01*
X123293709Y-110455875D01*
X123272620Y-110429591D01*
X123238698Y-110385817D01*
X123211399Y-110349689D01*
X123193893Y-110325461D01*
X123189069Y-110317478D01*
X123198496Y-110308551D01*
X123224869Y-110286647D01*
X123265327Y-110254064D01*
X123317008Y-110213098D01*
X123377049Y-110166045D01*
X123401673Y-110146883D01*
X123464151Y-110098139D01*
X123519368Y-110054645D01*
X123564463Y-110018691D01*
X123596575Y-109992563D01*
X123612845Y-109978548D01*
X123614278Y-109976869D01*
X123607985Y-109964530D01*
X123591956Y-109938547D01*
X123580548Y-109921019D01*
X123546817Y-109870049D01*
X123577421Y-109846528D01*
X123601597Y-109829833D01*
X123616734Y-109822729D01*
X123627041Y-109831750D01*
G37*
G36*
X125515277Y-112266083D02*
G01*
X125528912Y-112297182D01*
X125545006Y-112335948D01*
X125560525Y-112374908D01*
X125572434Y-112406585D01*
X125577700Y-112423505D01*
X125577744Y-112424074D01*
X125566828Y-112433723D01*
X125539313Y-112444937D01*
X125524593Y-112449246D01*
X125490793Y-112458592D01*
X125440439Y-112473076D01*
X125380909Y-112490555D01*
X125331494Y-112505299D01*
X125271164Y-112523008D01*
X125215237Y-112538654D01*
X125170594Y-112550357D01*
X125146976Y-112555741D01*
X125117332Y-112559360D01*
X125100612Y-112551777D01*
X125087274Y-112527438D01*
X125083699Y-112518929D01*
X125065339Y-112474596D01*
X125046703Y-112429598D01*
X125046068Y-112428064D01*
X125034873Y-112398647D01*
X125030169Y-112381346D01*
X125030436Y-112379748D01*
X125044166Y-112374775D01*
X125077181Y-112364813D01*
X125125021Y-112351075D01*
X125183228Y-112334772D01*
X125247343Y-112317119D01*
X125312909Y-112299326D01*
X125375466Y-112282606D01*
X125430555Y-112268171D01*
X125473719Y-112257235D01*
X125500499Y-112251008D01*
X125507135Y-112250127D01*
X125515277Y-112266083D01*
G37*
%TO.C,U1*%
D12*
X91130000Y-131700000D02*
X100130000Y-131700000D01*
X100130000Y-139030000D01*
X91130000Y-139030000D01*
X91130000Y-131700000D01*
X86740000Y-116630000D02*
X104520000Y-116630000D01*
X104520000Y-137630000D01*
X86740000Y-137630000D01*
X86740000Y-116630000D01*
%TO.C,SW4*%
X118660000Y-99010000D02*
X118660000Y-98700000D01*
X118660000Y-99010000D02*
X109840000Y-99010000D01*
X118660000Y-94490000D02*
X118660000Y-94800000D01*
X112750000Y-93790000D02*
X111750000Y-93790000D01*
X112250000Y-94290000D02*
X112750000Y-93790000D01*
X111750000Y-93790000D02*
X112250000Y-94290000D01*
X109840000Y-99010000D02*
X109840000Y-98700000D01*
X109840000Y-94800000D02*
X109840000Y-94490000D01*
X109840000Y-94490000D02*
X118660000Y-94490000D01*
%TO.C,SW2*%
X145440000Y-122960000D02*
X145440000Y-121460000D01*
X144190000Y-118960000D02*
X139690000Y-118960000D01*
X139690000Y-125460000D02*
X144190000Y-125460000D01*
X138440000Y-121460000D02*
X138440000Y-122960000D01*
%TO.C,adafruitbq1*%
D10*
X75394086Y-95990000D02*
X104604086Y-95990000D01*
X104604086Y-115040000D01*
X75394086Y-115040000D01*
X75394086Y-95990000D01*
%TO.C,SSD1306*%
X106660000Y-100360000D02*
X133960000Y-100360000D01*
X133960000Y-127660000D01*
X106660000Y-127660000D01*
X106660000Y-100360000D01*
%TO.C,SW3*%
D12*
X122940000Y-134460000D02*
X122940000Y-132960000D01*
X121690000Y-130460000D02*
X117190000Y-130460000D01*
X117190000Y-136960000D02*
X121690000Y-136960000D01*
X115940000Y-132960000D02*
X115940000Y-134460000D01*
%TD*%
M02*
