%TF.GenerationSoftware,KiCad,Pcbnew,10.0.0*%
%TF.CreationDate,2026-03-30T21:40:44-07:00*%
%TF.ProjectId,pcb,7063622e-6b69-4636-9164-5f7063625858,rev?*%
%TF.SameCoordinates,Original*%
%TF.FileFunction,Copper,L2,Bot*%
%TF.FilePolarity,Positive*%
%FSLAX46Y46*%
G04 Gerber Fmt 4.6, Leading zero omitted, Abs format (unit mm)*
G04 Created by KiCad (PCBNEW 10.0.0) date 2026-03-30 21:40:44*
%MOMM*%
%LPD*%
G01*
G04 APERTURE LIST*
G04 Aperture macros list*
%AMRoundRect*
0 Rectangle with rounded corners*
0 $1 Rounding radius*
0 $2 $3 $4 $5 $6 $7 $8 $9 X,Y pos of 4 corners*
0 Add a 4 corners polygon primitive as box body*
4,1,4,$2,$3,$4,$5,$6,$7,$8,$9,$2,$3,0*
0 Add four circle primitives for the rounded corners*
1,1,$1+$1,$2,$3*
1,1,$1+$1,$4,$5*
1,1,$1+$1,$6,$7*
1,1,$1+$1,$8,$9*
0 Add four rect primitives between the rounded corners*
20,1,$1+$1,$2,$3,$4,$5,0*
20,1,$1+$1,$4,$5,$6,$7,0*
20,1,$1+$1,$6,$7,$8,$9,0*
20,1,$1+$1,$8,$9,$2,$3,0*%
G04 Aperture macros list end*
%TA.AperFunction,ComponentPad*%
%ADD10C,1.397000*%
%TD*%
%TA.AperFunction,ComponentPad*%
%ADD11C,2.000000*%
%TD*%
%TA.AperFunction,ComponentPad*%
%ADD12RoundRect,0.250000X-0.750000X-0.750000X0.750000X-0.750000X0.750000X0.750000X-0.750000X0.750000X0*%
%TD*%
%TA.AperFunction,ComponentPad*%
%ADD13C,0.800000*%
%TD*%
%TA.AperFunction,ComponentPad*%
%ADD14C,6.400000*%
%TD*%
%TA.AperFunction,ComponentPad*%
%ADD15RoundRect,0.300000X-0.700000X-0.700000X0.700000X-0.700000X0.700000X0.700000X-0.700000X0.700000X0*%
%TD*%
%TA.AperFunction,ComponentPad*%
%ADD16O,2.200000X3.500000*%
%TD*%
%TA.AperFunction,ComponentPad*%
%ADD17R,1.500000X2.500000*%
%TD*%
%TA.AperFunction,ComponentPad*%
%ADD18O,1.500000X2.500000*%
%TD*%
%TA.AperFunction,ViaPad*%
%ADD19C,0.600000*%
%TD*%
%TA.AperFunction,Conductor*%
%ADD20C,0.200000*%
%TD*%
G04 APERTURE END LIST*
D10*
%TO.P,SW3,1,1_1*%
%TO.N,GND*%
X116190000Y-132460000D03*
X123810000Y-132460000D03*
%TO.P,SW3,2,2_2*%
%TO.N,Net-(U1-PA10_A2_D2)*%
X116190000Y-137540000D03*
X123810000Y-137540000D03*
%TD*%
D11*
%TO.P,powerboost1,1,USB_1*%
%TO.N,unconnected-(powerboost1-USB-Pad1)*%
X70000000Y-99245000D03*
D12*
%TO.P,powerboost1,2,GND_2*%
%TO.N,GND*%
X72500000Y-99245000D03*
D11*
%TO.P,powerboost1,3,BAT_3*%
%TO.N,unconnected-(powerboost1-BAT-Pad3)*%
X75000000Y-99245000D03*
%TO.P,powerboost1,4,EN_4*%
%TO.N,Net-(powerboost1-EN)*%
X77500000Y-99245000D03*
D12*
%TO.P,powerboost1,5,GND_5*%
%TO.N,GND*%
X80000000Y-99245000D03*
D11*
%TO.P,powerboost1,6,LB_6*%
%TO.N,Net-(U1-PA11_A3_D3)*%
X82500000Y-99245000D03*
D12*
%TO.P,powerboost1,7,GND_7*%
%TO.N,GND*%
X85000000Y-99245000D03*
D11*
%TO.P,powerboost1,8,5V_8*%
%TO.N,Net-(U1-5V)*%
X87500000Y-99245000D03*
%TD*%
D13*
%TO.P,H2,1,1_1*%
%TO.N,GND*%
X143800000Y-145200000D03*
X144502944Y-143502944D03*
X144502944Y-146897056D03*
X146200000Y-142800000D03*
D14*
X146200000Y-145200000D03*
D13*
X146200000Y-147600000D03*
X147897056Y-143502944D03*
X147897056Y-146897056D03*
X148600000Y-145200000D03*
%TD*%
D11*
%TO.P,SSD1306,1,VCC_1*%
%TO.N,Net-(SSD1306-VCC)*%
X116250000Y-103900000D03*
D15*
%TO.P,SSD1306,2,GND_2*%
%TO.N,GND*%
X118750000Y-103900000D03*
D11*
%TO.P,SSD1306,3,SCL_3*%
%TO.N,Net-(SSD1306-SCL)*%
X121250000Y-103900000D03*
%TO.P,SSD1306,4,SDA_4*%
%TO.N,Net-(SSD1306-SDA)*%
X123750000Y-103900000D03*
%TD*%
D13*
%TO.P,H1,1,1_1*%
%TO.N,GND*%
X63000000Y-91600000D03*
X63702944Y-89902944D03*
X63702944Y-93297056D03*
X65400000Y-89200000D03*
D14*
X65400000Y-91600000D03*
D13*
X65400000Y-94000000D03*
X67097056Y-89902944D03*
X67097056Y-93297056D03*
X67800000Y-91600000D03*
%TD*%
%TO.P,H4,1,1_1*%
%TO.N,GND*%
X63000000Y-145200000D03*
X63702944Y-143502944D03*
X63702944Y-146897056D03*
X65400000Y-142800000D03*
D14*
X65400000Y-145200000D03*
D13*
X65400000Y-147600000D03*
X67097056Y-143502944D03*
X67097056Y-146897056D03*
X67800000Y-145200000D03*
%TD*%
D10*
%TO.P,SW2,1,1_1*%
%TO.N,GND*%
X138690000Y-119960000D03*
X146310000Y-119960000D03*
%TO.P,SW2,2,2_2*%
%TO.N,Net-(U1-PA4_A1_D1)*%
X138690000Y-125040000D03*
X146310000Y-125040000D03*
%TD*%
D16*
%TO.P,SW4,*%
%TO.N,*%
X88900000Y-125000000D03*
X97100000Y-125000000D03*
D17*
%TO.P,SW4,1,1_1*%
%TO.N,GND*%
X91000000Y-125000000D03*
D18*
%TO.P,SW4,2,2_2*%
%TO.N,Net-(powerboost1-EN)*%
X93000000Y-125000000D03*
%TO.P,SW4,3*%
%TO.N,N/C*%
X95000000Y-125000000D03*
%TD*%
D13*
%TO.P,H3,1,1_1*%
%TO.N,GND*%
X143800000Y-91600000D03*
X144502944Y-89902944D03*
X144502944Y-93297056D03*
X146200000Y-89200000D03*
D14*
X146200000Y-91600000D03*
D13*
X146200000Y-94000000D03*
X147897056Y-89902944D03*
X147897056Y-93297056D03*
X148600000Y-91600000D03*
%TD*%
D10*
%TO.P,SW1,1,1_1*%
%TO.N,GND*%
X138690000Y-104960000D03*
X146310000Y-104960000D03*
%TO.P,SW1,2,2_2*%
%TO.N,Net-(U1-PA02_A0_D0)*%
X138690000Y-110040000D03*
X146310000Y-110040000D03*
%TD*%
D19*
%TO.N,Net-(U1-PA11_A3_D3)*%
X74400000Y-123600000D03*
%TD*%
%TO.N,Net-(powerboost1-EN)*%
D20*
X89390000Y-96870000D02*
X79875000Y-96870000D01*
X93000000Y-125000000D02*
X93000000Y-100480000D01*
X93000000Y-100480000D02*
X89390000Y-96870000D01*
X79875000Y-96870000D02*
X77500000Y-99245000D01*
%TO.N,Net-(U1-PA11_A3_D3)*%
X74400000Y-107345000D02*
X82500000Y-99245000D01*
X74400000Y-123600000D02*
X74400000Y-107345000D01*
%TD*%
%TA.AperFunction,Conductor*%
%TO.N,GND*%
G36*
X146202562Y-86600605D02*
G01*
X146570277Y-86615814D01*
X146575906Y-86616177D01*
X146659930Y-86623528D01*
X146668767Y-86626985D01*
X146986065Y-86664100D01*
X146993172Y-86665141D01*
X147071766Y-86678999D01*
X147075594Y-86679737D01*
X147399008Y-86747549D01*
X147405622Y-86749128D01*
X147474576Y-86767604D01*
X147477787Y-86768512D01*
X147803169Y-86865383D01*
X147810157Y-86867692D01*
X147864056Y-86887310D01*
X147866678Y-86888299D01*
X148196425Y-87016967D01*
X148203729Y-87020089D01*
X148234837Y-87034595D01*
X148236641Y-87035458D01*
X148574902Y-87200823D01*
X148583883Y-87205683D01*
X148912999Y-87401794D01*
X148930070Y-87411966D01*
X148938649Y-87417572D01*
X149266587Y-87651714D01*
X149274669Y-87658005D01*
X149582155Y-87918433D01*
X149589695Y-87925374D01*
X149874625Y-88210304D01*
X149881566Y-88217844D01*
X150141994Y-88525330D01*
X150148289Y-88533418D01*
X150382427Y-88861350D01*
X150388033Y-88869929D01*
X150594309Y-89216105D01*
X150599186Y-89225119D01*
X150764467Y-89563206D01*
X150765450Y-89565262D01*
X150779902Y-89596255D01*
X150783036Y-89603584D01*
X150911691Y-89933300D01*
X150912696Y-89935964D01*
X150932299Y-89989822D01*
X150934622Y-89996851D01*
X151031475Y-90322173D01*
X151032405Y-90325462D01*
X151050867Y-90394364D01*
X151052453Y-90401010D01*
X151120250Y-90724350D01*
X151121005Y-90728265D01*
X151134854Y-90806807D01*
X151135786Y-90813001D01*
X151175990Y-91135538D01*
X151176470Y-91140069D01*
X151183819Y-91224067D01*
X151184185Y-91229749D01*
X151199394Y-91597437D01*
X151199500Y-91602562D01*
X151199500Y-145197437D01*
X151199394Y-145202562D01*
X151184185Y-145570249D01*
X151183819Y-145575931D01*
X151176470Y-145659929D01*
X151175990Y-145664460D01*
X151135786Y-145986997D01*
X151134854Y-145993191D01*
X151121005Y-146071733D01*
X151120250Y-146075648D01*
X151052453Y-146398988D01*
X151050867Y-146405634D01*
X151032405Y-146474536D01*
X151031475Y-146477825D01*
X150934622Y-146803147D01*
X150932299Y-146810176D01*
X150912696Y-146864034D01*
X150911691Y-146866698D01*
X150783036Y-147196414D01*
X150779902Y-147203743D01*
X150765471Y-147234691D01*
X150764489Y-147236747D01*
X150599182Y-147574889D01*
X150594304Y-147583903D01*
X150388033Y-147930070D01*
X150382427Y-147938649D01*
X150148289Y-148266581D01*
X150141994Y-148274669D01*
X149881566Y-148582155D01*
X149874625Y-148589695D01*
X149589695Y-148874625D01*
X149582155Y-148881566D01*
X149274669Y-149141994D01*
X149266581Y-149148289D01*
X148938649Y-149382427D01*
X148930070Y-149388033D01*
X148583903Y-149594304D01*
X148574889Y-149599182D01*
X148236747Y-149764489D01*
X148234691Y-149765471D01*
X148203743Y-149779902D01*
X148196414Y-149783036D01*
X147866698Y-149911691D01*
X147864034Y-149912696D01*
X147810176Y-149932299D01*
X147803147Y-149934622D01*
X147477825Y-150031475D01*
X147474536Y-150032405D01*
X147405634Y-150050867D01*
X147398988Y-150052453D01*
X147075648Y-150120250D01*
X147071733Y-150121005D01*
X146993191Y-150134854D01*
X146986997Y-150135786D01*
X146664460Y-150175990D01*
X146659929Y-150176470D01*
X146575931Y-150183819D01*
X146570249Y-150184185D01*
X146202563Y-150199394D01*
X146197438Y-150199500D01*
X65402562Y-150199500D01*
X65397437Y-150199394D01*
X65029749Y-150184185D01*
X65024067Y-150183819D01*
X64940069Y-150176470D01*
X64935538Y-150175990D01*
X64613001Y-150135786D01*
X64606807Y-150134854D01*
X64528265Y-150121005D01*
X64524350Y-150120250D01*
X64201010Y-150052453D01*
X64194364Y-150050867D01*
X64125462Y-150032405D01*
X64122173Y-150031475D01*
X63796851Y-149934622D01*
X63789822Y-149932299D01*
X63735964Y-149912696D01*
X63733300Y-149911691D01*
X63403584Y-149783036D01*
X63396255Y-149779902D01*
X63365262Y-149765450D01*
X63363206Y-149764467D01*
X63025119Y-149599186D01*
X63016105Y-149594309D01*
X62669929Y-149388033D01*
X62661350Y-149382427D01*
X62333418Y-149148289D01*
X62325330Y-149141994D01*
X62017844Y-148881566D01*
X62010304Y-148874625D01*
X61725374Y-148589695D01*
X61718433Y-148582155D01*
X61458005Y-148274669D01*
X61451710Y-148266581D01*
X61217572Y-147938649D01*
X61211966Y-147930070D01*
X61201794Y-147912999D01*
X61005683Y-147583883D01*
X61000817Y-147574889D01*
X60835458Y-147236641D01*
X60834595Y-147234837D01*
X60820089Y-147203729D01*
X60816962Y-147196414D01*
X60688307Y-146866698D01*
X60687302Y-146864034D01*
X60667692Y-146810157D01*
X60665383Y-146803169D01*
X60568512Y-146477787D01*
X60567604Y-146474576D01*
X60549128Y-146405622D01*
X60547549Y-146399008D01*
X60479737Y-146075594D01*
X60478999Y-146071766D01*
X60465140Y-145993169D01*
X60464216Y-145987028D01*
X60424004Y-145664429D01*
X60423530Y-145659956D01*
X60416177Y-145575906D01*
X60415814Y-145570277D01*
X60400606Y-145202562D01*
X60400500Y-145197438D01*
X60400500Y-137445631D01*
X114991000Y-137445631D01*
X114991000Y-137634368D01*
X115020522Y-137820763D01*
X115020523Y-137820767D01*
X115078843Y-138000256D01*
X115164523Y-138168413D01*
X115275454Y-138321096D01*
X115408904Y-138454546D01*
X115561587Y-138565477D01*
X115729744Y-138651157D01*
X115909233Y-138709477D01*
X115979134Y-138720548D01*
X116095632Y-138739000D01*
X116095637Y-138739000D01*
X116284368Y-138739000D01*
X116387920Y-138722598D01*
X116470767Y-138709477D01*
X116650256Y-138651157D01*
X116818413Y-138565477D01*
X116971096Y-138454546D01*
X117104546Y-138321096D01*
X117215477Y-138168413D01*
X117301157Y-138000256D01*
X117359477Y-137820767D01*
X117372598Y-137737920D01*
X117389000Y-137634368D01*
X117389000Y-137445631D01*
X122611000Y-137445631D01*
X122611000Y-137634368D01*
X122640522Y-137820763D01*
X122640523Y-137820767D01*
X122698843Y-138000256D01*
X122784523Y-138168413D01*
X122895454Y-138321096D01*
X123028904Y-138454546D01*
X123181587Y-138565477D01*
X123349744Y-138651157D01*
X123529233Y-138709477D01*
X123599134Y-138720548D01*
X123715632Y-138739000D01*
X123715637Y-138739000D01*
X123904368Y-138739000D01*
X124007920Y-138722598D01*
X124090767Y-138709477D01*
X124270256Y-138651157D01*
X124438413Y-138565477D01*
X124591096Y-138454546D01*
X124724546Y-138321096D01*
X124835477Y-138168413D01*
X124921157Y-138000256D01*
X124979477Y-137820767D01*
X124992598Y-137737920D01*
X125009000Y-137634368D01*
X125009000Y-137445631D01*
X124979477Y-137259236D01*
X124979477Y-137259233D01*
X124921157Y-137079744D01*
X124835477Y-136911587D01*
X124724546Y-136758904D01*
X124591096Y-136625454D01*
X124438413Y-136514523D01*
X124270256Y-136428843D01*
X124090767Y-136370523D01*
X124090765Y-136370522D01*
X124090763Y-136370522D01*
X123904368Y-136341000D01*
X123904363Y-136341000D01*
X123715637Y-136341000D01*
X123715632Y-136341000D01*
X123529236Y-136370522D01*
X123349741Y-136428844D01*
X123181586Y-136514523D01*
X123094475Y-136577813D01*
X123028904Y-136625454D01*
X123028902Y-136625456D01*
X123028901Y-136625456D01*
X122895456Y-136758901D01*
X122895456Y-136758902D01*
X122895454Y-136758904D01*
X122847813Y-136824475D01*
X122784523Y-136911586D01*
X122698844Y-137079741D01*
X122640522Y-137259236D01*
X122611000Y-137445631D01*
X117389000Y-137445631D01*
X117359477Y-137259236D01*
X117359477Y-137259233D01*
X117301157Y-137079744D01*
X117215477Y-136911587D01*
X117104546Y-136758904D01*
X116971096Y-136625454D01*
X116818413Y-136514523D01*
X116650256Y-136428843D01*
X116470767Y-136370523D01*
X116470765Y-136370522D01*
X116470763Y-136370522D01*
X116284368Y-136341000D01*
X116284363Y-136341000D01*
X116095637Y-136341000D01*
X116095632Y-136341000D01*
X115909236Y-136370522D01*
X115729741Y-136428844D01*
X115561586Y-136514523D01*
X115474475Y-136577813D01*
X115408904Y-136625454D01*
X115408902Y-136625456D01*
X115408901Y-136625456D01*
X115275456Y-136758901D01*
X115275456Y-136758902D01*
X115275454Y-136758904D01*
X115227813Y-136824475D01*
X115164523Y-136911586D01*
X115078844Y-137079741D01*
X115020522Y-137259236D01*
X114991000Y-137445631D01*
X60400500Y-137445631D01*
X60400500Y-132365676D01*
X114991500Y-132365676D01*
X114991500Y-132554323D01*
X115021011Y-132740650D01*
X115079304Y-132920061D01*
X115079305Y-132920063D01*
X115164952Y-133088153D01*
X115183189Y-133113255D01*
X115183190Y-133113255D01*
X115783600Y-132512845D01*
X115783600Y-132513504D01*
X115811295Y-132616865D01*
X115864799Y-132709536D01*
X115940464Y-132785201D01*
X116033135Y-132838705D01*
X116136496Y-132866400D01*
X116137153Y-132866400D01*
X115536743Y-133466808D01*
X115536743Y-133466809D01*
X115561844Y-133485046D01*
X115729935Y-133570694D01*
X115729938Y-133570695D01*
X115909349Y-133628988D01*
X116095677Y-133658500D01*
X116284323Y-133658500D01*
X116470650Y-133628988D01*
X116650061Y-133570695D01*
X116650064Y-133570694D01*
X116818151Y-133485048D01*
X116843256Y-133466808D01*
X116242848Y-132866400D01*
X116243504Y-132866400D01*
X116346865Y-132838705D01*
X116439536Y-132785201D01*
X116515201Y-132709536D01*
X116568705Y-132616865D01*
X116596400Y-132513504D01*
X116596400Y-132512847D01*
X117196808Y-133113256D01*
X117196808Y-133113255D01*
X117215048Y-133088151D01*
X117300694Y-132920064D01*
X117300695Y-132920061D01*
X117358988Y-132740650D01*
X117388500Y-132554323D01*
X117388500Y-132365676D01*
X122611500Y-132365676D01*
X122611500Y-132554323D01*
X122641011Y-132740650D01*
X122699304Y-132920061D01*
X122699305Y-132920063D01*
X122784952Y-133088153D01*
X122803189Y-133113255D01*
X122803190Y-133113255D01*
X123403600Y-132512845D01*
X123403600Y-132513504D01*
X123431295Y-132616865D01*
X123484799Y-132709536D01*
X123560464Y-132785201D01*
X123653135Y-132838705D01*
X123756496Y-132866400D01*
X123757153Y-132866400D01*
X123156743Y-133466808D01*
X123156743Y-133466809D01*
X123181844Y-133485046D01*
X123349935Y-133570694D01*
X123349938Y-133570695D01*
X123529349Y-133628988D01*
X123715677Y-133658500D01*
X123904323Y-133658500D01*
X124090650Y-133628988D01*
X124270061Y-133570695D01*
X124270064Y-133570694D01*
X124438151Y-133485048D01*
X124463255Y-133466808D01*
X124463256Y-133466808D01*
X123862848Y-132866400D01*
X123863504Y-132866400D01*
X123966865Y-132838705D01*
X124059536Y-132785201D01*
X124135201Y-132709536D01*
X124188705Y-132616865D01*
X124216400Y-132513504D01*
X124216400Y-132512848D01*
X124816808Y-133113256D01*
X124816808Y-133113255D01*
X124835048Y-133088151D01*
X124920694Y-132920064D01*
X124920695Y-132920061D01*
X124978988Y-132740650D01*
X125008500Y-132554323D01*
X125008500Y-132365676D01*
X124978988Y-132179349D01*
X124920695Y-131999938D01*
X124920694Y-131999935D01*
X124835046Y-131831844D01*
X124816809Y-131806743D01*
X124816808Y-131806743D01*
X124216400Y-132407151D01*
X124216400Y-132406496D01*
X124188705Y-132303135D01*
X124135201Y-132210464D01*
X124059536Y-132134799D01*
X123966865Y-132081295D01*
X123863504Y-132053600D01*
X123862847Y-132053600D01*
X124463255Y-131453190D01*
X124463255Y-131453189D01*
X124438153Y-131434952D01*
X124270063Y-131349305D01*
X124270061Y-131349304D01*
X124090650Y-131291011D01*
X123904323Y-131261500D01*
X123715677Y-131261500D01*
X123529349Y-131291011D01*
X123349938Y-131349304D01*
X123349936Y-131349305D01*
X123181844Y-131434953D01*
X123181839Y-131434957D01*
X123156743Y-131453188D01*
X123156743Y-131453191D01*
X123757154Y-132053600D01*
X123756496Y-132053600D01*
X123653135Y-132081295D01*
X123560464Y-132134799D01*
X123484799Y-132210464D01*
X123431295Y-132303135D01*
X123403600Y-132406496D01*
X123403600Y-132407152D01*
X122803191Y-131806743D01*
X122803188Y-131806743D01*
X122784957Y-131831839D01*
X122784953Y-131831844D01*
X122699305Y-131999936D01*
X122699304Y-131999938D01*
X122641011Y-132179349D01*
X122611500Y-132365676D01*
X117388500Y-132365676D01*
X117358988Y-132179349D01*
X117300695Y-131999938D01*
X117300694Y-131999935D01*
X117215046Y-131831844D01*
X117196809Y-131806743D01*
X117196808Y-131806743D01*
X116596400Y-132407151D01*
X116596400Y-132406496D01*
X116568705Y-132303135D01*
X116515201Y-132210464D01*
X116439536Y-132134799D01*
X116346865Y-132081295D01*
X116243504Y-132053600D01*
X116242847Y-132053600D01*
X116843255Y-131453190D01*
X116843255Y-131453189D01*
X116818153Y-131434952D01*
X116650063Y-131349305D01*
X116650061Y-131349304D01*
X116470650Y-131291011D01*
X116284323Y-131261500D01*
X116095677Y-131261500D01*
X115909349Y-131291011D01*
X115729938Y-131349304D01*
X115729936Y-131349305D01*
X115561844Y-131434953D01*
X115561839Y-131434957D01*
X115536743Y-131453188D01*
X115536743Y-131453191D01*
X116137154Y-132053600D01*
X116136496Y-132053600D01*
X116033135Y-132081295D01*
X115940464Y-132134799D01*
X115864799Y-132210464D01*
X115811295Y-132303135D01*
X115783600Y-132406496D01*
X115783600Y-132407152D01*
X115183191Y-131806743D01*
X115183188Y-131806743D01*
X115164957Y-131831839D01*
X115164953Y-131831844D01*
X115079305Y-131999936D01*
X115079304Y-131999938D01*
X115021011Y-132179349D01*
X114991500Y-132365676D01*
X60400500Y-132365676D01*
X60400500Y-99126902D01*
X68499500Y-99126902D01*
X68499500Y-99363097D01*
X68536446Y-99596368D01*
X68609433Y-99820996D01*
X68716657Y-100031433D01*
X68855483Y-100222510D01*
X69022490Y-100389517D01*
X69213567Y-100528343D01*
X69303631Y-100574233D01*
X69424003Y-100635566D01*
X69424005Y-100635566D01*
X69424008Y-100635568D01*
X69544412Y-100674689D01*
X69648631Y-100708553D01*
X69881903Y-100745500D01*
X69881908Y-100745500D01*
X70118097Y-100745500D01*
X70351368Y-100708553D01*
X70575992Y-100635568D01*
X70786433Y-100528343D01*
X70962276Y-100400584D01*
X71028079Y-100377106D01*
X71096133Y-100392931D01*
X71140697Y-100435806D01*
X71157682Y-100463343D01*
X71281654Y-100587315D01*
X71430875Y-100679356D01*
X71430880Y-100679358D01*
X71597302Y-100734505D01*
X71597309Y-100734506D01*
X71700019Y-100744999D01*
X72249999Y-100744999D01*
X72250000Y-100744998D01*
X72250000Y-99678012D01*
X72307007Y-99710925D01*
X72434174Y-99745000D01*
X72565826Y-99745000D01*
X72692993Y-99710925D01*
X72750000Y-99678012D01*
X72750000Y-100744999D01*
X73299972Y-100744999D01*
X73299986Y-100744998D01*
X73402697Y-100734505D01*
X73569119Y-100679358D01*
X73569124Y-100679356D01*
X73718345Y-100587315D01*
X73842317Y-100463343D01*
X73859301Y-100435808D01*
X73911248Y-100389083D01*
X73980211Y-100377860D01*
X74037724Y-100400585D01*
X74213567Y-100528343D01*
X74303631Y-100574233D01*
X74424003Y-100635566D01*
X74424005Y-100635566D01*
X74424008Y-100635568D01*
X74544412Y-100674689D01*
X74648631Y-100708553D01*
X74881903Y-100745500D01*
X74881908Y-100745500D01*
X75118097Y-100745500D01*
X75351368Y-100708553D01*
X75575992Y-100635568D01*
X75786433Y-100528343D01*
X75977510Y-100389517D01*
X76144517Y-100222510D01*
X76149682Y-100215401D01*
X76205012Y-100172735D01*
X76274625Y-100166756D01*
X76336420Y-100199362D01*
X76350318Y-100215401D01*
X76355483Y-100222510D01*
X76522490Y-100389517D01*
X76713567Y-100528343D01*
X76803631Y-100574233D01*
X76924003Y-100635566D01*
X76924005Y-100635566D01*
X76924008Y-100635568D01*
X77044412Y-100674689D01*
X77148631Y-100708553D01*
X77381903Y-100745500D01*
X77381908Y-100745500D01*
X77618097Y-100745500D01*
X77851368Y-100708553D01*
X78075992Y-100635568D01*
X78286433Y-100528343D01*
X78462276Y-100400584D01*
X78528079Y-100377106D01*
X78596133Y-100392931D01*
X78640697Y-100435806D01*
X78657682Y-100463343D01*
X78781654Y-100587315D01*
X78930875Y-100679356D01*
X78930880Y-100679358D01*
X79097302Y-100734505D01*
X79097309Y-100734506D01*
X79200019Y-100744999D01*
X79749999Y-100744999D01*
X79750000Y-100744998D01*
X79750000Y-99678012D01*
X79807007Y-99710925D01*
X79934174Y-99745000D01*
X80065826Y-99745000D01*
X80192993Y-99710925D01*
X80250000Y-99678012D01*
X80250000Y-100744999D01*
X80378904Y-100744999D01*
X80445943Y-100764684D01*
X80491698Y-100817488D01*
X80501642Y-100886646D01*
X80472617Y-100950202D01*
X80466585Y-100956680D01*
X75810012Y-105613255D01*
X74271132Y-107152135D01*
X74207135Y-107216132D01*
X74186846Y-107265111D01*
X74172500Y-107299746D01*
X74172500Y-122744924D01*
X74152815Y-122811963D01*
X74100011Y-122857718D01*
X74095953Y-122859485D01*
X74020824Y-122890604D01*
X74020814Y-122890609D01*
X73889711Y-122978210D01*
X73889707Y-122978213D01*
X73778213Y-123089707D01*
X73778210Y-123089711D01*
X73690609Y-123220814D01*
X73690602Y-123220827D01*
X73630264Y-123366498D01*
X73630261Y-123366510D01*
X73599500Y-123521153D01*
X73599500Y-123678846D01*
X73630261Y-123833489D01*
X73630264Y-123833501D01*
X73690602Y-123979172D01*
X73690609Y-123979185D01*
X73778210Y-124110288D01*
X73778213Y-124110292D01*
X73889707Y-124221786D01*
X73889711Y-124221789D01*
X74020814Y-124309390D01*
X74020827Y-124309397D01*
X74166498Y-124369735D01*
X74166503Y-124369737D01*
X74321153Y-124400499D01*
X74321156Y-124400500D01*
X74321158Y-124400500D01*
X74478844Y-124400500D01*
X74478845Y-124400499D01*
X74633497Y-124369737D01*
X74779179Y-124309394D01*
X74910289Y-124221789D01*
X74924904Y-124207174D01*
X75000594Y-124131485D01*
X75021786Y-124110292D01*
X75021789Y-124110289D01*
X75109394Y-123979179D01*
X75169737Y-123833497D01*
X75200500Y-123678842D01*
X75200500Y-123521158D01*
X75200500Y-123521155D01*
X75200499Y-123521153D01*
X75175356Y-123394753D01*
X75169737Y-123366503D01*
X75159222Y-123341117D01*
X75109397Y-123220827D01*
X75109390Y-123220814D01*
X75021789Y-123089711D01*
X75021786Y-123089707D01*
X74910292Y-122978213D01*
X74910288Y-122978210D01*
X74779185Y-122890609D01*
X74779175Y-122890604D01*
X74704047Y-122859485D01*
X74649644Y-122815644D01*
X74627579Y-122749350D01*
X74627500Y-122744924D01*
X74627500Y-107490595D01*
X74647185Y-107423556D01*
X74663819Y-107402914D01*
X78048641Y-104018092D01*
X81537220Y-100529512D01*
X81598541Y-100496029D01*
X81668233Y-100501013D01*
X81697783Y-100516876D01*
X81713564Y-100528341D01*
X81713567Y-100528343D01*
X81803631Y-100574233D01*
X81924003Y-100635566D01*
X81924005Y-100635566D01*
X81924008Y-100635568D01*
X82044412Y-100674689D01*
X82148631Y-100708553D01*
X82381903Y-100745500D01*
X82381908Y-100745500D01*
X82618097Y-100745500D01*
X82851368Y-100708553D01*
X83075992Y-100635568D01*
X83286433Y-100528343D01*
X83462276Y-100400584D01*
X83528079Y-100377106D01*
X83596133Y-100392931D01*
X83640697Y-100435806D01*
X83657682Y-100463343D01*
X83781654Y-100587315D01*
X83930875Y-100679356D01*
X83930880Y-100679358D01*
X84097302Y-100734505D01*
X84097309Y-100734506D01*
X84200019Y-100744999D01*
X84749999Y-100744999D01*
X84750000Y-100744998D01*
X84750000Y-99678012D01*
X84807007Y-99710925D01*
X84934174Y-99745000D01*
X85065826Y-99745000D01*
X85192993Y-99710925D01*
X85250000Y-99678012D01*
X85250000Y-100744999D01*
X85799972Y-100744999D01*
X85799986Y-100744998D01*
X85902697Y-100734505D01*
X86069119Y-100679358D01*
X86069124Y-100679356D01*
X86218345Y-100587315D01*
X86342317Y-100463343D01*
X86359301Y-100435808D01*
X86411248Y-100389083D01*
X86480211Y-100377860D01*
X86537724Y-100400585D01*
X86713567Y-100528343D01*
X86803631Y-100574233D01*
X86924003Y-100635566D01*
X86924005Y-100635566D01*
X86924008Y-100635568D01*
X87044412Y-100674689D01*
X87148631Y-100708553D01*
X87381903Y-100745500D01*
X87381908Y-100745500D01*
X87618097Y-100745500D01*
X87851368Y-100708553D01*
X88075992Y-100635568D01*
X88286433Y-100528343D01*
X88477510Y-100389517D01*
X88644517Y-100222510D01*
X88783343Y-100031433D01*
X88890568Y-99820992D01*
X88963553Y-99596368D01*
X88988637Y-99437993D01*
X89000500Y-99363097D01*
X89000500Y-99126902D01*
X88963553Y-98893631D01*
X88890566Y-98669003D01*
X88783342Y-98458566D01*
X88644517Y-98267490D01*
X88477510Y-98100483D01*
X88286433Y-97961657D01*
X88284133Y-97960485D01*
X88075996Y-97854433D01*
X87851368Y-97781446D01*
X87618097Y-97744500D01*
X87618092Y-97744500D01*
X87381908Y-97744500D01*
X87381903Y-97744500D01*
X87148631Y-97781446D01*
X86924003Y-97854433D01*
X86713563Y-97961659D01*
X86537725Y-98089413D01*
X86471919Y-98112893D01*
X86403865Y-98097068D01*
X86359302Y-98054192D01*
X86342319Y-98026659D01*
X86342316Y-98026655D01*
X86218345Y-97902684D01*
X86069124Y-97810643D01*
X86069119Y-97810641D01*
X85902697Y-97755494D01*
X85902690Y-97755493D01*
X85799986Y-97745000D01*
X85250000Y-97745000D01*
X85250000Y-98811988D01*
X85192993Y-98779075D01*
X85065826Y-98745000D01*
X84934174Y-98745000D01*
X84807007Y-98779075D01*
X84750000Y-98811988D01*
X84750000Y-97745000D01*
X84200028Y-97745000D01*
X84200012Y-97745001D01*
X84097302Y-97755494D01*
X83930880Y-97810641D01*
X83930875Y-97810643D01*
X83781654Y-97902684D01*
X83657683Y-98026655D01*
X83657680Y-98026659D01*
X83640696Y-98054194D01*
X83588747Y-98100918D01*
X83519784Y-98112138D01*
X83462273Y-98089413D01*
X83413798Y-98054194D01*
X83286433Y-97961657D01*
X83284133Y-97960485D01*
X83075996Y-97854433D01*
X82851368Y-97781446D01*
X82618097Y-97744500D01*
X82618092Y-97744500D01*
X82381908Y-97744500D01*
X82381903Y-97744500D01*
X82148631Y-97781446D01*
X81924003Y-97854433D01*
X81713563Y-97961659D01*
X81537725Y-98089413D01*
X81471919Y-98112893D01*
X81403865Y-98097068D01*
X81359302Y-98054192D01*
X81342319Y-98026659D01*
X81342316Y-98026655D01*
X81218345Y-97902684D01*
X81069124Y-97810643D01*
X81069119Y-97810641D01*
X80902697Y-97755494D01*
X80902690Y-97755493D01*
X80799986Y-97745000D01*
X80250000Y-97745000D01*
X80250000Y-98811988D01*
X80192993Y-98779075D01*
X80065826Y-98745000D01*
X79934174Y-98745000D01*
X79807007Y-98779075D01*
X79750000Y-98811988D01*
X79750000Y-97745000D01*
X79621094Y-97745000D01*
X79554055Y-97725315D01*
X79508300Y-97672511D01*
X79498356Y-97603353D01*
X79527381Y-97539797D01*
X79533404Y-97533328D01*
X79932914Y-97133819D01*
X79994237Y-97100334D01*
X80020595Y-97097500D01*
X89244405Y-97097500D01*
X89311444Y-97117185D01*
X89332086Y-97133819D01*
X92736181Y-100537914D01*
X92769666Y-100599237D01*
X92772500Y-100625595D01*
X92772500Y-123168974D01*
X92752815Y-123236013D01*
X92700011Y-123281768D01*
X92686822Y-123286903D01*
X92643259Y-123301058D01*
X92519970Y-123341117D01*
X92344593Y-123430477D01*
X92344585Y-123430482D01*
X92307980Y-123457077D01*
X92242173Y-123480556D01*
X92174119Y-123464730D01*
X92135830Y-123431070D01*
X92107187Y-123392809D01*
X91992093Y-123306649D01*
X91992086Y-123306645D01*
X91857379Y-123256403D01*
X91857372Y-123256401D01*
X91797844Y-123250000D01*
X91250000Y-123250000D01*
X91250000Y-124684314D01*
X91245606Y-124679920D01*
X91154394Y-124627259D01*
X91052661Y-124600000D01*
X90947339Y-124600000D01*
X90845606Y-124627259D01*
X90754394Y-124679920D01*
X90750000Y-124684314D01*
X90750000Y-123250000D01*
X90202172Y-123250000D01*
X90202153Y-123250001D01*
X90135901Y-123257124D01*
X90067142Y-123244719D01*
X90034965Y-123221516D01*
X89942654Y-123129205D01*
X89942649Y-123129201D01*
X89738848Y-122981132D01*
X89738847Y-122981131D01*
X89738845Y-122981130D01*
X89668747Y-122945413D01*
X89514383Y-122866760D01*
X89274785Y-122788910D01*
X89025962Y-122749500D01*
X88774038Y-122749500D01*
X88649626Y-122769205D01*
X88525214Y-122788910D01*
X88285616Y-122866760D01*
X88061151Y-122981132D01*
X87857350Y-123129201D01*
X87857345Y-123129205D01*
X87679205Y-123307345D01*
X87679201Y-123307350D01*
X87531132Y-123511151D01*
X87416760Y-123735616D01*
X87338910Y-123975214D01*
X87299500Y-124224038D01*
X87299500Y-125775961D01*
X87338910Y-126024785D01*
X87416760Y-126264383D01*
X87448999Y-126327654D01*
X87513286Y-126453825D01*
X87531132Y-126488848D01*
X87679201Y-126692649D01*
X87679205Y-126692654D01*
X87857345Y-126870794D01*
X87857350Y-126870798D01*
X88035117Y-126999952D01*
X88061155Y-127018870D01*
X88204184Y-127091747D01*
X88285616Y-127133239D01*
X88285618Y-127133239D01*
X88285621Y-127133241D01*
X88525215Y-127211090D01*
X88774038Y-127250500D01*
X88774039Y-127250500D01*
X89025961Y-127250500D01*
X89025962Y-127250500D01*
X89274785Y-127211090D01*
X89514379Y-127133241D01*
X89738845Y-127018870D01*
X89942656Y-126870793D01*
X90034968Y-126778480D01*
X90096287Y-126744998D01*
X90135903Y-126742875D01*
X90202158Y-126749999D01*
X90202172Y-126750000D01*
X90750000Y-126750000D01*
X90750000Y-125315686D01*
X90754394Y-125320080D01*
X90845606Y-125372741D01*
X90947339Y-125400000D01*
X91052661Y-125400000D01*
X91154394Y-125372741D01*
X91245606Y-125320080D01*
X91250000Y-125315686D01*
X91250000Y-126750000D01*
X91797828Y-126750000D01*
X91797844Y-126749999D01*
X91857372Y-126743598D01*
X91857379Y-126743596D01*
X91992086Y-126693354D01*
X91992093Y-126693350D01*
X92107186Y-126607190D01*
X92135829Y-126568930D01*
X92191763Y-126527059D01*
X92261455Y-126522075D01*
X92307981Y-126542923D01*
X92340640Y-126566650D01*
X92344595Y-126569524D01*
X92456347Y-126626464D01*
X92519970Y-126658882D01*
X92519972Y-126658882D01*
X92519975Y-126658884D01*
X92620317Y-126691487D01*
X92707173Y-126719709D01*
X92901578Y-126750500D01*
X92901583Y-126750500D01*
X93098422Y-126750500D01*
X93292826Y-126719709D01*
X93480025Y-126658884D01*
X93655405Y-126569524D01*
X93814646Y-126453828D01*
X93912319Y-126356155D01*
X93973642Y-126322670D01*
X94043334Y-126327654D01*
X94087681Y-126356155D01*
X94185354Y-126453828D01*
X94344595Y-126569524D01*
X94414704Y-126605246D01*
X94519970Y-126658882D01*
X94519972Y-126658882D01*
X94519975Y-126658884D01*
X94620317Y-126691487D01*
X94707173Y-126719709D01*
X94901578Y-126750500D01*
X94901583Y-126750500D01*
X95098422Y-126750500D01*
X95292826Y-126719709D01*
X95480025Y-126658884D01*
X95655405Y-126569524D01*
X95655409Y-126569520D01*
X95659087Y-126567647D01*
X95727756Y-126554751D01*
X95792497Y-126581027D01*
X95815699Y-126605245D01*
X95879207Y-126692656D01*
X95879209Y-126692658D01*
X96057345Y-126870794D01*
X96057350Y-126870798D01*
X96235117Y-126999952D01*
X96261155Y-127018870D01*
X96404184Y-127091747D01*
X96485616Y-127133239D01*
X96485618Y-127133239D01*
X96485621Y-127133241D01*
X96725215Y-127211090D01*
X96974038Y-127250500D01*
X96974039Y-127250500D01*
X97225961Y-127250500D01*
X97225962Y-127250500D01*
X97474785Y-127211090D01*
X97714379Y-127133241D01*
X97938845Y-127018870D01*
X98142656Y-126870793D01*
X98320793Y-126692656D01*
X98468870Y-126488845D01*
X98583241Y-126264379D01*
X98661090Y-126024785D01*
X98700500Y-125775962D01*
X98700500Y-124945631D01*
X137491000Y-124945631D01*
X137491000Y-125134368D01*
X137520414Y-125320080D01*
X137520523Y-125320767D01*
X137578843Y-125500256D01*
X137664523Y-125668413D01*
X137775454Y-125821096D01*
X137908904Y-125954546D01*
X138061587Y-126065477D01*
X138229744Y-126151157D01*
X138409233Y-126209477D01*
X138479134Y-126220548D01*
X138595632Y-126239000D01*
X138595637Y-126239000D01*
X138784368Y-126239000D01*
X138887920Y-126222598D01*
X138970767Y-126209477D01*
X139150256Y-126151157D01*
X139318413Y-126065477D01*
X139471096Y-125954546D01*
X139604546Y-125821096D01*
X139715477Y-125668413D01*
X139801157Y-125500256D01*
X139859477Y-125320767D01*
X139872598Y-125237920D01*
X139889000Y-125134368D01*
X139889000Y-124945631D01*
X145111000Y-124945631D01*
X145111000Y-125134368D01*
X145140414Y-125320080D01*
X145140523Y-125320767D01*
X145198843Y-125500256D01*
X145284523Y-125668413D01*
X145395454Y-125821096D01*
X145528904Y-125954546D01*
X145681587Y-126065477D01*
X145849744Y-126151157D01*
X146029233Y-126209477D01*
X146099134Y-126220548D01*
X146215632Y-126239000D01*
X146215637Y-126239000D01*
X146404368Y-126239000D01*
X146507920Y-126222598D01*
X146590767Y-126209477D01*
X146770256Y-126151157D01*
X146938413Y-126065477D01*
X147091096Y-125954546D01*
X147224546Y-125821096D01*
X147335477Y-125668413D01*
X147421157Y-125500256D01*
X147479477Y-125320767D01*
X147492598Y-125237920D01*
X147509000Y-125134368D01*
X147509000Y-124945631D01*
X147479477Y-124759236D01*
X147479477Y-124759233D01*
X147421157Y-124579744D01*
X147335477Y-124411587D01*
X147224546Y-124258904D01*
X147091096Y-124125454D01*
X146938413Y-124014523D01*
X146861266Y-123975215D01*
X146770258Y-123928844D01*
X146770257Y-123928843D01*
X146770256Y-123928843D01*
X146590767Y-123870523D01*
X146590765Y-123870522D01*
X146590763Y-123870522D01*
X146404368Y-123841000D01*
X146404363Y-123841000D01*
X146215637Y-123841000D01*
X146215632Y-123841000D01*
X146029236Y-123870522D01*
X145849741Y-123928844D01*
X145681586Y-124014523D01*
X145594475Y-124077813D01*
X145528904Y-124125454D01*
X145528902Y-124125456D01*
X145528901Y-124125456D01*
X145395456Y-124258901D01*
X145395456Y-124258902D01*
X145395454Y-124258904D01*
X145358774Y-124309390D01*
X145284523Y-124411586D01*
X145198844Y-124579741D01*
X145140522Y-124759236D01*
X145111000Y-124945631D01*
X139889000Y-124945631D01*
X139859477Y-124759236D01*
X139859477Y-124759233D01*
X139801157Y-124579744D01*
X139715477Y-124411587D01*
X139604546Y-124258904D01*
X139471096Y-124125454D01*
X139318413Y-124014523D01*
X139241266Y-123975215D01*
X139150258Y-123928844D01*
X139150257Y-123928843D01*
X139150256Y-123928843D01*
X138970767Y-123870523D01*
X138970765Y-123870522D01*
X138970763Y-123870522D01*
X138784368Y-123841000D01*
X138784363Y-123841000D01*
X138595637Y-123841000D01*
X138595632Y-123841000D01*
X138409236Y-123870522D01*
X138229741Y-123928844D01*
X138061586Y-124014523D01*
X137974475Y-124077813D01*
X137908904Y-124125454D01*
X137908902Y-124125456D01*
X137908901Y-124125456D01*
X137775456Y-124258901D01*
X137775456Y-124258902D01*
X137775454Y-124258904D01*
X137738774Y-124309390D01*
X137664523Y-124411586D01*
X137578844Y-124579741D01*
X137520522Y-124759236D01*
X137491000Y-124945631D01*
X98700500Y-124945631D01*
X98700500Y-124224038D01*
X98661090Y-123975215D01*
X98583241Y-123735621D01*
X98583239Y-123735618D01*
X98583239Y-123735616D01*
X98536479Y-123643845D01*
X98468870Y-123511155D01*
X98415298Y-123437419D01*
X98320798Y-123307350D01*
X98320794Y-123307345D01*
X98142654Y-123129205D01*
X98142649Y-123129201D01*
X97938848Y-122981132D01*
X97938847Y-122981131D01*
X97938845Y-122981130D01*
X97868747Y-122945413D01*
X97714383Y-122866760D01*
X97474785Y-122788910D01*
X97225962Y-122749500D01*
X96974038Y-122749500D01*
X96849626Y-122769205D01*
X96725214Y-122788910D01*
X96485616Y-122866760D01*
X96261151Y-122981132D01*
X96057350Y-123129201D01*
X96057345Y-123129205D01*
X95879209Y-123307341D01*
X95879202Y-123307350D01*
X95815699Y-123394753D01*
X95760369Y-123437419D01*
X95690756Y-123443397D01*
X95659087Y-123432352D01*
X95480029Y-123341117D01*
X95292826Y-123280290D01*
X95098422Y-123249500D01*
X95098417Y-123249500D01*
X94901583Y-123249500D01*
X94901578Y-123249500D01*
X94707173Y-123280290D01*
X94519970Y-123341117D01*
X94344594Y-123430476D01*
X94275666Y-123480556D01*
X94185354Y-123546172D01*
X94185352Y-123546174D01*
X94185351Y-123546174D01*
X94087681Y-123643845D01*
X94026358Y-123677330D01*
X93956666Y-123672346D01*
X93912319Y-123643845D01*
X93814648Y-123546174D01*
X93814646Y-123546172D01*
X93655405Y-123430476D01*
X93480025Y-123341116D01*
X93313180Y-123286904D01*
X93255506Y-123247467D01*
X93228308Y-123183108D01*
X93227500Y-123168974D01*
X93227500Y-119865676D01*
X137491500Y-119865676D01*
X137491500Y-120054323D01*
X137521011Y-120240650D01*
X137579304Y-120420061D01*
X137579305Y-120420063D01*
X137664952Y-120588153D01*
X137683189Y-120613255D01*
X137683190Y-120613255D01*
X138283600Y-120012845D01*
X138283600Y-120013504D01*
X138311295Y-120116865D01*
X138364799Y-120209536D01*
X138440464Y-120285201D01*
X138533135Y-120338705D01*
X138636496Y-120366400D01*
X138637153Y-120366400D01*
X138036743Y-120966808D01*
X138036743Y-120966809D01*
X138061844Y-120985046D01*
X138229935Y-121070694D01*
X138229938Y-121070695D01*
X138409349Y-121128988D01*
X138595677Y-121158500D01*
X138784323Y-121158500D01*
X138970650Y-121128988D01*
X139150061Y-121070695D01*
X139150064Y-121070694D01*
X139318151Y-120985048D01*
X139343256Y-120966808D01*
X138742848Y-120366400D01*
X138743504Y-120366400D01*
X138846865Y-120338705D01*
X138939536Y-120285201D01*
X139015201Y-120209536D01*
X139068705Y-120116865D01*
X139096400Y-120013504D01*
X139096400Y-120012847D01*
X139696808Y-120613256D01*
X139696808Y-120613255D01*
X139715048Y-120588151D01*
X139800694Y-120420064D01*
X139800695Y-120420061D01*
X139858988Y-120240650D01*
X139888500Y-120054323D01*
X139888500Y-119865676D01*
X145111500Y-119865676D01*
X145111500Y-120054323D01*
X145141011Y-120240650D01*
X145199304Y-120420061D01*
X145199305Y-120420063D01*
X145284952Y-120588153D01*
X145303189Y-120613255D01*
X145303190Y-120613255D01*
X145903600Y-120012845D01*
X145903600Y-120013504D01*
X145931295Y-120116865D01*
X145984799Y-120209536D01*
X146060464Y-120285201D01*
X146153135Y-120338705D01*
X146256496Y-120366400D01*
X146257153Y-120366400D01*
X145656743Y-120966808D01*
X145656743Y-120966809D01*
X145681844Y-120985046D01*
X145849935Y-121070694D01*
X145849938Y-121070695D01*
X146029349Y-121128988D01*
X146215677Y-121158500D01*
X146404323Y-121158500D01*
X146590650Y-121128988D01*
X146770061Y-121070695D01*
X146770064Y-121070694D01*
X146938151Y-120985048D01*
X146963255Y-120966808D01*
X146963256Y-120966808D01*
X146362848Y-120366400D01*
X146363504Y-120366400D01*
X146466865Y-120338705D01*
X146559536Y-120285201D01*
X146635201Y-120209536D01*
X146688705Y-120116865D01*
X146716400Y-120013504D01*
X146716400Y-120012848D01*
X147316808Y-120613256D01*
X147316808Y-120613255D01*
X147335048Y-120588151D01*
X147420694Y-120420064D01*
X147420695Y-120420061D01*
X147478988Y-120240650D01*
X147508500Y-120054323D01*
X147508500Y-119865676D01*
X147478988Y-119679349D01*
X147420695Y-119499938D01*
X147420694Y-119499935D01*
X147335046Y-119331844D01*
X147316809Y-119306743D01*
X147316808Y-119306743D01*
X146716400Y-119907151D01*
X146716400Y-119906496D01*
X146688705Y-119803135D01*
X146635201Y-119710464D01*
X146559536Y-119634799D01*
X146466865Y-119581295D01*
X146363504Y-119553600D01*
X146362847Y-119553600D01*
X146963255Y-118953190D01*
X146963255Y-118953189D01*
X146938153Y-118934952D01*
X146770063Y-118849305D01*
X146770061Y-118849304D01*
X146590650Y-118791011D01*
X146404323Y-118761500D01*
X146215677Y-118761500D01*
X146029349Y-118791011D01*
X145849938Y-118849304D01*
X145849936Y-118849305D01*
X145681844Y-118934953D01*
X145681839Y-118934957D01*
X145656743Y-118953188D01*
X145656743Y-118953191D01*
X146257154Y-119553600D01*
X146256496Y-119553600D01*
X146153135Y-119581295D01*
X146060464Y-119634799D01*
X145984799Y-119710464D01*
X145931295Y-119803135D01*
X145903600Y-119906496D01*
X145903600Y-119907152D01*
X145303191Y-119306743D01*
X145303188Y-119306743D01*
X145284957Y-119331839D01*
X145284953Y-119331844D01*
X145199305Y-119499936D01*
X145199304Y-119499938D01*
X145141011Y-119679349D01*
X145111500Y-119865676D01*
X139888500Y-119865676D01*
X139858988Y-119679349D01*
X139800695Y-119499938D01*
X139800694Y-119499935D01*
X139715046Y-119331844D01*
X139696809Y-119306743D01*
X139696808Y-119306743D01*
X139096400Y-119907151D01*
X139096400Y-119906496D01*
X139068705Y-119803135D01*
X139015201Y-119710464D01*
X138939536Y-119634799D01*
X138846865Y-119581295D01*
X138743504Y-119553600D01*
X138742847Y-119553600D01*
X139343255Y-118953190D01*
X139343255Y-118953189D01*
X139318153Y-118934952D01*
X139150063Y-118849305D01*
X139150061Y-118849304D01*
X138970650Y-118791011D01*
X138784323Y-118761500D01*
X138595677Y-118761500D01*
X138409349Y-118791011D01*
X138229938Y-118849304D01*
X138229936Y-118849305D01*
X138061844Y-118934953D01*
X138061839Y-118934957D01*
X138036743Y-118953188D01*
X138036743Y-118953191D01*
X138637154Y-119553600D01*
X138636496Y-119553600D01*
X138533135Y-119581295D01*
X138440464Y-119634799D01*
X138364799Y-119710464D01*
X138311295Y-119803135D01*
X138283600Y-119906496D01*
X138283600Y-119907152D01*
X137683191Y-119306743D01*
X137683188Y-119306743D01*
X137664957Y-119331839D01*
X137664953Y-119331844D01*
X137579305Y-119499936D01*
X137579304Y-119499938D01*
X137521011Y-119679349D01*
X137491500Y-119865676D01*
X93227500Y-119865676D01*
X93227500Y-109945631D01*
X137491000Y-109945631D01*
X137491000Y-110134368D01*
X137520522Y-110320763D01*
X137520523Y-110320767D01*
X137578843Y-110500256D01*
X137664523Y-110668413D01*
X137775454Y-110821096D01*
X137908904Y-110954546D01*
X138061587Y-111065477D01*
X138229744Y-111151157D01*
X138409233Y-111209477D01*
X138479134Y-111220548D01*
X138595632Y-111239000D01*
X138595637Y-111239000D01*
X138784368Y-111239000D01*
X138887920Y-111222598D01*
X138970767Y-111209477D01*
X139150256Y-111151157D01*
X139318413Y-111065477D01*
X139471096Y-110954546D01*
X139604546Y-110821096D01*
X139715477Y-110668413D01*
X139801157Y-110500256D01*
X139859477Y-110320767D01*
X139872598Y-110237920D01*
X139889000Y-110134368D01*
X139889000Y-109945631D01*
X145111000Y-109945631D01*
X145111000Y-110134368D01*
X145140522Y-110320763D01*
X145140523Y-110320767D01*
X145198843Y-110500256D01*
X145284523Y-110668413D01*
X145395454Y-110821096D01*
X145528904Y-110954546D01*
X145681587Y-111065477D01*
X145849744Y-111151157D01*
X146029233Y-111209477D01*
X146099134Y-111220548D01*
X146215632Y-111239000D01*
X146215637Y-111239000D01*
X146404368Y-111239000D01*
X146507920Y-111222598D01*
X146590767Y-111209477D01*
X146770256Y-111151157D01*
X146938413Y-111065477D01*
X147091096Y-110954546D01*
X147224546Y-110821096D01*
X147335477Y-110668413D01*
X147421157Y-110500256D01*
X147479477Y-110320767D01*
X147492598Y-110237920D01*
X147509000Y-110134368D01*
X147509000Y-109945631D01*
X147479477Y-109759236D01*
X147479477Y-109759233D01*
X147421157Y-109579744D01*
X147335477Y-109411587D01*
X147224546Y-109258904D01*
X147091096Y-109125454D01*
X146938413Y-109014523D01*
X146770256Y-108928843D01*
X146590767Y-108870523D01*
X146590765Y-108870522D01*
X146590763Y-108870522D01*
X146404368Y-108841000D01*
X146404363Y-108841000D01*
X146215637Y-108841000D01*
X146215632Y-108841000D01*
X146029236Y-108870522D01*
X145849741Y-108928844D01*
X145681586Y-109014523D01*
X145594475Y-109077813D01*
X145528904Y-109125454D01*
X145528902Y-109125456D01*
X145528901Y-109125456D01*
X145395456Y-109258901D01*
X145395456Y-109258902D01*
X145395454Y-109258904D01*
X145347813Y-109324475D01*
X145284523Y-109411586D01*
X145198844Y-109579741D01*
X145140522Y-109759236D01*
X145111000Y-109945631D01*
X139889000Y-109945631D01*
X139859477Y-109759236D01*
X139859477Y-109759233D01*
X139801157Y-109579744D01*
X139715477Y-109411587D01*
X139604546Y-109258904D01*
X139471096Y-109125454D01*
X139318413Y-109014523D01*
X139150256Y-108928843D01*
X138970767Y-108870523D01*
X138970765Y-108870522D01*
X138970763Y-108870522D01*
X138784368Y-108841000D01*
X138784363Y-108841000D01*
X138595637Y-108841000D01*
X138595632Y-108841000D01*
X138409236Y-108870522D01*
X138229741Y-108928844D01*
X138061586Y-109014523D01*
X137974475Y-109077813D01*
X137908904Y-109125454D01*
X137908902Y-109125456D01*
X137908901Y-109125456D01*
X137775456Y-109258901D01*
X137775456Y-109258902D01*
X137775454Y-109258904D01*
X137727813Y-109324475D01*
X137664523Y-109411586D01*
X137578844Y-109579741D01*
X137520522Y-109759236D01*
X137491000Y-109945631D01*
X93227500Y-109945631D01*
X93227500Y-103781902D01*
X114749500Y-103781902D01*
X114749500Y-104018097D01*
X114786446Y-104251368D01*
X114859433Y-104475996D01*
X114966657Y-104686433D01*
X115105483Y-104877510D01*
X115272490Y-105044517D01*
X115463567Y-105183343D01*
X115514974Y-105209536D01*
X115674003Y-105290566D01*
X115674005Y-105290566D01*
X115674008Y-105290568D01*
X115781013Y-105325336D01*
X115898631Y-105363553D01*
X116131903Y-105400500D01*
X116131908Y-105400500D01*
X116368097Y-105400500D01*
X116601368Y-105363553D01*
X116825992Y-105290568D01*
X117036433Y-105183343D01*
X117227510Y-105044517D01*
X117227516Y-105044510D01*
X117227977Y-105044176D01*
X117293783Y-105020696D01*
X117361837Y-105036521D01*
X117405856Y-105078520D01*
X117420578Y-105101949D01*
X117548051Y-105229422D01*
X117700698Y-105325336D01*
X117870858Y-105384877D01*
X118005069Y-105399999D01*
X118005070Y-105400000D01*
X118500000Y-105400000D01*
X118500000Y-104333012D01*
X118557007Y-104365925D01*
X118684174Y-104400000D01*
X118815826Y-104400000D01*
X118942993Y-104365925D01*
X119000000Y-104333012D01*
X119000000Y-105400000D01*
X119494930Y-105400000D01*
X119494930Y-105399999D01*
X119629141Y-105384877D01*
X119799301Y-105325336D01*
X119951948Y-105229422D01*
X120079425Y-105101945D01*
X120094142Y-105078523D01*
X120146476Y-105032231D01*
X120215530Y-105021582D01*
X120272022Y-105044176D01*
X120272486Y-105044513D01*
X120272490Y-105044517D01*
X120463567Y-105183343D01*
X120514974Y-105209536D01*
X120674003Y-105290566D01*
X120674005Y-105290566D01*
X120674008Y-105290568D01*
X120781013Y-105325336D01*
X120898631Y-105363553D01*
X121131903Y-105400500D01*
X121131908Y-105400500D01*
X121368097Y-105400500D01*
X121601368Y-105363553D01*
X121825992Y-105290568D01*
X122036433Y-105183343D01*
X122227510Y-105044517D01*
X122394517Y-104877510D01*
X122399682Y-104870401D01*
X122455012Y-104827735D01*
X122524625Y-104821756D01*
X122586420Y-104854362D01*
X122600318Y-104870401D01*
X122605483Y-104877510D01*
X122772490Y-105044517D01*
X122963567Y-105183343D01*
X123014974Y-105209536D01*
X123174003Y-105290566D01*
X123174005Y-105290566D01*
X123174008Y-105290568D01*
X123281013Y-105325336D01*
X123398631Y-105363553D01*
X123631903Y-105400500D01*
X123631908Y-105400500D01*
X123868097Y-105400500D01*
X124101368Y-105363553D01*
X124325992Y-105290568D01*
X124536433Y-105183343D01*
X124727510Y-105044517D01*
X124894517Y-104877510D01*
X124903115Y-104865676D01*
X137491500Y-104865676D01*
X137491500Y-105054323D01*
X137521011Y-105240650D01*
X137579304Y-105420061D01*
X137579305Y-105420063D01*
X137664952Y-105588153D01*
X137683189Y-105613255D01*
X137683190Y-105613255D01*
X138283600Y-105012845D01*
X138283600Y-105013504D01*
X138311295Y-105116865D01*
X138364799Y-105209536D01*
X138440464Y-105285201D01*
X138533135Y-105338705D01*
X138636496Y-105366400D01*
X138637153Y-105366400D01*
X138036743Y-105966808D01*
X138036743Y-105966809D01*
X138061844Y-105985046D01*
X138229935Y-106070694D01*
X138229938Y-106070695D01*
X138409349Y-106128988D01*
X138595677Y-106158500D01*
X138784323Y-106158500D01*
X138970650Y-106128988D01*
X139150061Y-106070695D01*
X139150064Y-106070694D01*
X139318151Y-105985048D01*
X139343256Y-105966808D01*
X138742848Y-105366400D01*
X138743504Y-105366400D01*
X138846865Y-105338705D01*
X138939536Y-105285201D01*
X139015201Y-105209536D01*
X139068705Y-105116865D01*
X139096400Y-105013504D01*
X139096400Y-105012847D01*
X139696808Y-105613256D01*
X139696808Y-105613255D01*
X139715048Y-105588151D01*
X139800694Y-105420064D01*
X139800695Y-105420061D01*
X139858988Y-105240650D01*
X139888500Y-105054323D01*
X139888500Y-104865676D01*
X145111500Y-104865676D01*
X145111500Y-105054323D01*
X145141011Y-105240650D01*
X145199304Y-105420061D01*
X145199305Y-105420063D01*
X145284952Y-105588153D01*
X145303189Y-105613255D01*
X145303190Y-105613255D01*
X145903600Y-105012845D01*
X145903600Y-105013504D01*
X145931295Y-105116865D01*
X145984799Y-105209536D01*
X146060464Y-105285201D01*
X146153135Y-105338705D01*
X146256496Y-105366400D01*
X146257153Y-105366400D01*
X145656743Y-105966808D01*
X145656743Y-105966809D01*
X145681844Y-105985046D01*
X145849935Y-106070694D01*
X145849938Y-106070695D01*
X146029349Y-106128988D01*
X146215677Y-106158500D01*
X146404323Y-106158500D01*
X146590650Y-106128988D01*
X146770061Y-106070695D01*
X146770064Y-106070694D01*
X146938151Y-105985048D01*
X146963255Y-105966808D01*
X146963256Y-105966808D01*
X146362848Y-105366400D01*
X146363504Y-105366400D01*
X146466865Y-105338705D01*
X146559536Y-105285201D01*
X146635201Y-105209536D01*
X146688705Y-105116865D01*
X146716400Y-105013504D01*
X146716400Y-105012848D01*
X147316808Y-105613256D01*
X147316808Y-105613255D01*
X147335048Y-105588151D01*
X147420694Y-105420064D01*
X147420695Y-105420061D01*
X147478988Y-105240650D01*
X147508500Y-105054323D01*
X147508500Y-104865676D01*
X147478988Y-104679349D01*
X147420695Y-104499938D01*
X147420694Y-104499935D01*
X147335046Y-104331844D01*
X147316809Y-104306743D01*
X147316808Y-104306743D01*
X146716400Y-104907151D01*
X146716400Y-104906496D01*
X146688705Y-104803135D01*
X146635201Y-104710464D01*
X146559536Y-104634799D01*
X146466865Y-104581295D01*
X146363504Y-104553600D01*
X146362847Y-104553600D01*
X146963255Y-103953190D01*
X146963255Y-103953189D01*
X146938153Y-103934952D01*
X146770063Y-103849305D01*
X146770061Y-103849304D01*
X146590650Y-103791011D01*
X146404323Y-103761500D01*
X146215677Y-103761500D01*
X146029349Y-103791011D01*
X145849938Y-103849304D01*
X145849936Y-103849305D01*
X145681844Y-103934953D01*
X145681839Y-103934957D01*
X145656743Y-103953188D01*
X145656743Y-103953191D01*
X146257154Y-104553600D01*
X146256496Y-104553600D01*
X146153135Y-104581295D01*
X146060464Y-104634799D01*
X145984799Y-104710464D01*
X145931295Y-104803135D01*
X145903600Y-104906496D01*
X145903600Y-104907152D01*
X145303191Y-104306743D01*
X145303188Y-104306743D01*
X145284957Y-104331839D01*
X145284953Y-104331844D01*
X145199305Y-104499936D01*
X145199304Y-104499938D01*
X145141011Y-104679349D01*
X145111500Y-104865676D01*
X139888500Y-104865676D01*
X139858988Y-104679349D01*
X139800695Y-104499938D01*
X139800694Y-104499935D01*
X139715046Y-104331844D01*
X139696809Y-104306743D01*
X139696808Y-104306743D01*
X139096400Y-104907151D01*
X139096400Y-104906496D01*
X139068705Y-104803135D01*
X139015201Y-104710464D01*
X138939536Y-104634799D01*
X138846865Y-104581295D01*
X138743504Y-104553600D01*
X138742847Y-104553600D01*
X139343255Y-103953190D01*
X139343255Y-103953189D01*
X139318153Y-103934952D01*
X139150063Y-103849305D01*
X139150061Y-103849304D01*
X138970650Y-103791011D01*
X138784323Y-103761500D01*
X138595677Y-103761500D01*
X138409349Y-103791011D01*
X138229938Y-103849304D01*
X138229936Y-103849305D01*
X138061844Y-103934953D01*
X138061839Y-103934957D01*
X138036743Y-103953188D01*
X138036743Y-103953191D01*
X138637154Y-104553600D01*
X138636496Y-104553600D01*
X138533135Y-104581295D01*
X138440464Y-104634799D01*
X138364799Y-104710464D01*
X138311295Y-104803135D01*
X138283600Y-104906496D01*
X138283600Y-104907152D01*
X137683191Y-104306743D01*
X137683188Y-104306743D01*
X137664957Y-104331839D01*
X137664953Y-104331844D01*
X137579305Y-104499936D01*
X137579304Y-104499938D01*
X137521011Y-104679349D01*
X137491500Y-104865676D01*
X124903115Y-104865676D01*
X125033343Y-104686433D01*
X125140568Y-104475992D01*
X125213553Y-104251368D01*
X125238637Y-104092993D01*
X125250500Y-104018097D01*
X125250500Y-103781902D01*
X125213553Y-103548631D01*
X125140566Y-103324003D01*
X125033342Y-103113566D01*
X124894517Y-102922490D01*
X124727510Y-102755483D01*
X124536433Y-102616657D01*
X124325996Y-102509433D01*
X124101368Y-102436446D01*
X123868097Y-102399500D01*
X123868092Y-102399500D01*
X123631908Y-102399500D01*
X123631903Y-102399500D01*
X123398631Y-102436446D01*
X123174003Y-102509433D01*
X122963566Y-102616657D01*
X122854550Y-102695862D01*
X122772490Y-102755483D01*
X122772488Y-102755485D01*
X122772487Y-102755485D01*
X122605482Y-102922490D01*
X122600315Y-102929603D01*
X122544983Y-102972266D01*
X122475370Y-102978242D01*
X122413576Y-102945634D01*
X122399685Y-102929603D01*
X122394517Y-102922490D01*
X122227512Y-102755485D01*
X122227510Y-102755483D01*
X122036433Y-102616657D01*
X121825996Y-102509433D01*
X121601368Y-102436446D01*
X121368097Y-102399500D01*
X121368092Y-102399500D01*
X121131908Y-102399500D01*
X121131903Y-102399500D01*
X120898631Y-102436446D01*
X120674003Y-102509433D01*
X120463563Y-102616659D01*
X120272020Y-102755823D01*
X120206214Y-102779303D01*
X120138160Y-102763477D01*
X120094140Y-102721475D01*
X120079422Y-102698052D01*
X120079422Y-102698051D01*
X119951948Y-102570577D01*
X119799301Y-102474663D01*
X119629141Y-102415122D01*
X119494930Y-102400000D01*
X119000000Y-102400000D01*
X119000000Y-103466988D01*
X118942993Y-103434075D01*
X118815826Y-103400000D01*
X118684174Y-103400000D01*
X118557007Y-103434075D01*
X118500000Y-103466988D01*
X118500000Y-102400000D01*
X118005070Y-102400000D01*
X117870858Y-102415122D01*
X117700698Y-102474663D01*
X117548051Y-102570577D01*
X117420577Y-102698051D01*
X117420575Y-102698054D01*
X117405857Y-102721478D01*
X117353522Y-102767769D01*
X117284469Y-102778416D01*
X117227979Y-102755823D01*
X117036436Y-102616659D01*
X117036435Y-102616658D01*
X117036433Y-102616657D01*
X116945996Y-102570577D01*
X116825996Y-102509433D01*
X116601368Y-102436446D01*
X116368097Y-102399500D01*
X116368092Y-102399500D01*
X116131908Y-102399500D01*
X116131903Y-102399500D01*
X115898631Y-102436446D01*
X115674003Y-102509433D01*
X115463566Y-102616657D01*
X115354550Y-102695862D01*
X115272490Y-102755483D01*
X115272488Y-102755485D01*
X115272487Y-102755485D01*
X115105485Y-102922487D01*
X115105485Y-102922488D01*
X115105483Y-102922490D01*
X115088668Y-102945634D01*
X114966657Y-103113566D01*
X114859433Y-103324003D01*
X114786446Y-103548631D01*
X114749500Y-103781902D01*
X93227500Y-103781902D01*
X93227500Y-100434748D01*
X93227500Y-100434747D01*
X93208765Y-100389517D01*
X93192866Y-100351132D01*
X91510737Y-98669003D01*
X89518870Y-96677136D01*
X89435253Y-96642500D01*
X79829747Y-96642500D01*
X79829746Y-96642500D01*
X79746130Y-96677136D01*
X78462780Y-97960485D01*
X78401457Y-97993970D01*
X78331765Y-97988986D01*
X78302216Y-97973124D01*
X78286433Y-97961657D01*
X78282638Y-97959723D01*
X78075996Y-97854433D01*
X77851368Y-97781446D01*
X77618097Y-97744500D01*
X77618092Y-97744500D01*
X77381908Y-97744500D01*
X77381903Y-97744500D01*
X77148631Y-97781446D01*
X76924003Y-97854433D01*
X76713566Y-97961657D01*
X76669092Y-97993970D01*
X76522490Y-98100483D01*
X76522488Y-98100485D01*
X76522487Y-98100485D01*
X76355482Y-98267490D01*
X76350315Y-98274603D01*
X76294983Y-98317266D01*
X76225370Y-98323242D01*
X76163576Y-98290634D01*
X76149685Y-98274603D01*
X76144517Y-98267490D01*
X75977512Y-98100485D01*
X75977510Y-98100483D01*
X75786433Y-97961657D01*
X75784133Y-97960485D01*
X75575996Y-97854433D01*
X75351368Y-97781446D01*
X75118097Y-97744500D01*
X75118092Y-97744500D01*
X74881908Y-97744500D01*
X74881903Y-97744500D01*
X74648631Y-97781446D01*
X74424003Y-97854433D01*
X74213563Y-97961659D01*
X74037725Y-98089413D01*
X73971919Y-98112893D01*
X73903865Y-98097068D01*
X73859302Y-98054192D01*
X73842319Y-98026659D01*
X73842316Y-98026655D01*
X73718345Y-97902684D01*
X73569124Y-97810643D01*
X73569119Y-97810641D01*
X73402697Y-97755494D01*
X73402690Y-97755493D01*
X73299986Y-97745000D01*
X72750000Y-97745000D01*
X72750000Y-98811988D01*
X72692993Y-98779075D01*
X72565826Y-98745000D01*
X72434174Y-98745000D01*
X72307007Y-98779075D01*
X72250000Y-98811988D01*
X72250000Y-97745000D01*
X71700028Y-97745000D01*
X71700012Y-97745001D01*
X71597302Y-97755494D01*
X71430880Y-97810641D01*
X71430875Y-97810643D01*
X71281654Y-97902684D01*
X71157683Y-98026655D01*
X71157680Y-98026659D01*
X71140696Y-98054194D01*
X71088747Y-98100918D01*
X71019784Y-98112138D01*
X70962273Y-98089413D01*
X70913798Y-98054194D01*
X70786433Y-97961657D01*
X70784133Y-97960485D01*
X70575996Y-97854433D01*
X70351368Y-97781446D01*
X70118097Y-97744500D01*
X70118092Y-97744500D01*
X69881908Y-97744500D01*
X69881903Y-97744500D01*
X69648631Y-97781446D01*
X69424003Y-97854433D01*
X69213566Y-97961657D01*
X69169092Y-97993970D01*
X69022490Y-98100483D01*
X69022488Y-98100485D01*
X69022487Y-98100485D01*
X68855485Y-98267487D01*
X68855485Y-98267488D01*
X68855483Y-98267490D01*
X68838668Y-98290634D01*
X68716657Y-98458566D01*
X68609433Y-98669003D01*
X68536446Y-98893631D01*
X68499500Y-99126902D01*
X60400500Y-99126902D01*
X60400500Y-91602561D01*
X60400606Y-91597437D01*
X60409054Y-91393178D01*
X60415815Y-91229716D01*
X60416177Y-91224098D01*
X60423531Y-91140031D01*
X60424003Y-91135582D01*
X60464218Y-90812959D01*
X60465138Y-90806842D01*
X60479003Y-90728210D01*
X60479732Y-90724428D01*
X60547553Y-90400974D01*
X60549123Y-90394394D01*
X60567614Y-90325385D01*
X60568500Y-90322251D01*
X60665389Y-89996810D01*
X60667685Y-89989862D01*
X60687331Y-89935886D01*
X60688276Y-89933380D01*
X60816976Y-89603551D01*
X60820079Y-89596292D01*
X60834634Y-89565080D01*
X60835415Y-89563445D01*
X61000823Y-89225097D01*
X61005690Y-89216105D01*
X61211972Y-88869919D01*
X61217565Y-88861359D01*
X61451723Y-88533400D01*
X61457992Y-88525346D01*
X61718443Y-88217832D01*
X61725362Y-88210316D01*
X62010316Y-87925362D01*
X62017832Y-87918443D01*
X62325346Y-87657992D01*
X62333400Y-87651723D01*
X62661359Y-87417565D01*
X62669919Y-87411972D01*
X63016116Y-87205683D01*
X63025097Y-87200823D01*
X63363445Y-87035415D01*
X63365080Y-87034634D01*
X63396292Y-87020079D01*
X63403551Y-87016976D01*
X63733380Y-86888276D01*
X63735886Y-86887331D01*
X63789862Y-86867685D01*
X63796810Y-86865389D01*
X64122251Y-86768500D01*
X64125385Y-86767614D01*
X64194394Y-86749123D01*
X64200974Y-86747553D01*
X64524428Y-86679732D01*
X64528210Y-86679003D01*
X64606842Y-86665138D01*
X64612959Y-86664218D01*
X64935582Y-86624003D01*
X64940031Y-86623531D01*
X65024098Y-86616177D01*
X65029716Y-86615815D01*
X65397437Y-86600605D01*
X65402561Y-86600500D01*
X146197439Y-86600500D01*
X146202562Y-86600605D01*
G37*
%TD.AperFunction*%
%TD*%
M02*
