%TF.GenerationSoftware,KiCad,Pcbnew,10.0.0*%
%TF.CreationDate,2026-04-07T01:31:37-07:00*%
%TF.ProjectId,pcb,7063622e-6b69-4636-9164-5f7063625858,rev?*%
%TF.SameCoordinates,Original*%
%TF.FileFunction,Copper,L2,Bot*%
%TF.FilePolarity,Positive*%
%FSLAX46Y46*%
G04 Gerber Fmt 4.6, Leading zero omitted, Abs format (unit mm)*
G04 Created by KiCad (PCBNEW 10.0.0) date 2026-04-07 01:31:37*
%MOMM*%
%LPD*%
G01*
G04 APERTURE LIST*
G04 Aperture macros list*
%AMRoundRect*
0 Rectangle with rounded corners*
0 $1 Rounding radius*
0 $2 $3 $4 $5 $6 $7 $8 $9 X,Y pos of 4 corners*
0 Add a 4 corners polygon primitive as box body*
4,1,4,$2,$3,$4,$5,$6,$7,$8,$9,$2,$3,0*
0 Add four circle primitives for the rounded corners*
1,1,$1+$1,$2,$3*
1,1,$1+$1,$4,$5*
1,1,$1+$1,$6,$7*
1,1,$1+$1,$8,$9*
0 Add four rect primitives between the rounded corners*
20,1,$1+$1,$2,$3,$4,$5,0*
20,1,$1+$1,$4,$5,$6,$7,0*
20,1,$1+$1,$6,$7,$8,$9,0*
20,1,$1+$1,$8,$9,$2,$3,0*%
G04 Aperture macros list end*
%TA.AperFunction,ComponentPad*%
%ADD10O,2.200000X3.500000*%
%TD*%
%TA.AperFunction,ComponentPad*%
%ADD11R,1.500000X2.500000*%
%TD*%
%TA.AperFunction,ComponentPad*%
%ADD12O,1.500000X2.500000*%
%TD*%
%TA.AperFunction,ComponentPad*%
%ADD13C,2.000000*%
%TD*%
%TA.AperFunction,ComponentPad*%
%ADD14RoundRect,0.250000X-0.750000X-0.750000X0.750000X-0.750000X0.750000X0.750000X-0.750000X0.750000X0*%
%TD*%
%TA.AperFunction,ComponentPad*%
%ADD15C,0.800000*%
%TD*%
%TA.AperFunction,ComponentPad*%
%ADD16C,6.400000*%
%TD*%
%TA.AperFunction,ViaPad*%
%ADD17C,0.600000*%
%TD*%
%TA.AperFunction,Conductor*%
%ADD18C,0.200000*%
%TD*%
G04 APERTURE END LIST*
D10*
%TO.P,SW4,*%
%TO.N,*%
X94430000Y-109247500D03*
X102630000Y-109247500D03*
D11*
%TO.P,SW4,1,1_1*%
%TO.N,Net-(adafruitbq1-EN)*%
X96530000Y-109247500D03*
D12*
%TO.P,SW4,2,2_2*%
%TO.N,GND*%
X98530000Y-109247500D03*
%TO.P,SW4,3*%
%TO.N,N/C*%
X100530000Y-109247500D03*
%TD*%
D13*
%TO.P,SSD1306,1,VCC_1*%
%TO.N,Net-(SSD1306-VCC)*%
X116250000Y-103900000D03*
D14*
%TO.P,SSD1306,2,GND_2*%
%TO.N,GND*%
X118750000Y-103900000D03*
D13*
%TO.P,SSD1306,3,SCL_3*%
%TO.N,Net-(SSD1306-SCL)*%
X121250000Y-103900000D03*
%TO.P,SSD1306,4,SDA_4*%
%TO.N,Net-(SSD1306-SDA)*%
X123750000Y-103900000D03*
%TD*%
%TO.P,SW3,1,1_1*%
%TO.N,GND*%
X116190000Y-132460000D03*
X122690000Y-132460000D03*
%TO.P,SW3,2,2_2*%
%TO.N,Net-(U1-PA10_A2_D2)*%
X116190000Y-136960000D03*
X122690000Y-136960000D03*
%TD*%
D15*
%TO.P,H2,1,1_1*%
%TO.N,GND*%
X143800000Y-145200000D03*
X144502944Y-143502944D03*
X144502944Y-146897056D03*
X146200000Y-142800000D03*
D16*
X146200000Y-145200000D03*
D15*
X146200000Y-147600000D03*
X147897056Y-143502944D03*
X147897056Y-146897056D03*
X148600000Y-145200000D03*
%TD*%
D13*
%TO.P,adafruitbq1,1,VIN_1*%
%TO.N,unconnected-(adafruitbq1-VIN-Pad1)*%
X66710000Y-113410000D03*
%TO.P,adafruitbq1,2,VU_2*%
%TO.N,unconnected-(adafruitbq1-VU-Pad2)*%
X69210000Y-113410000D03*
%TO.P,adafruitbq1,3,D-_3*%
%TO.N,unconnected-(adafruitbq1-D--Pad3)*%
X71710000Y-113410000D03*
%TO.P,adafruitbq1,4,D+_4*%
%TO.N,unconnected-(adafruitbq1-D+-Pad4)*%
X74210000Y-113410000D03*
D14*
%TO.P,adafruitbq1,5,GND_5*%
%TO.N,GND*%
X76710000Y-113410000D03*
D13*
%TO.P,adafruitbq1,6,BAT_6*%
%TO.N,unconnected-(adafruitbq1-BAT-Pad6)*%
X79210000Y-113410000D03*
%TO.P,adafruitbq1,7,5V_7*%
%TO.N,Net-(U1-5V)*%
X81710000Y-113410000D03*
%TO.P,adafruitbq1,8,EN_8*%
%TO.N,Net-(adafruitbq1-EN)*%
X84210000Y-113410000D03*
%TD*%
D15*
%TO.P,H1,1,1_1*%
%TO.N,GND*%
X63000000Y-91600000D03*
X63702944Y-89902944D03*
X63702944Y-93297056D03*
X65400000Y-89200000D03*
D16*
X65400000Y-91600000D03*
D15*
X65400000Y-94000000D03*
X67097056Y-89902944D03*
X67097056Y-93297056D03*
X67800000Y-91600000D03*
%TD*%
%TO.P,H4,1,1_1*%
%TO.N,GND*%
X63000000Y-145200000D03*
X63702944Y-143502944D03*
X63702944Y-146897056D03*
X65400000Y-142800000D03*
D16*
X65400000Y-145200000D03*
D15*
X65400000Y-147600000D03*
X67097056Y-143502944D03*
X67097056Y-146897056D03*
X67800000Y-145200000D03*
%TD*%
D13*
%TO.P,SW2,1,1_1*%
%TO.N,GND*%
X138690000Y-119960000D03*
X145190000Y-119960000D03*
%TO.P,SW2,2,2_2*%
%TO.N,Net-(U1-PA4_A1_D1)*%
X138690000Y-124460000D03*
X145190000Y-124460000D03*
%TD*%
D15*
%TO.P,H3,1,1_1*%
%TO.N,GND*%
X143800000Y-91600000D03*
X144502944Y-89902944D03*
X144502944Y-93297056D03*
X146200000Y-89200000D03*
D16*
X146200000Y-91600000D03*
D15*
X146200000Y-94000000D03*
X147897056Y-89902944D03*
X147897056Y-93297056D03*
X148600000Y-91600000D03*
%TD*%
D13*
%TO.P,SW1,1,1_1*%
%TO.N,GND*%
X138690000Y-104960000D03*
X145190000Y-104960000D03*
%TO.P,SW1,2,2_2*%
%TO.N,Net-(U1-PA02_A0_D0)*%
X138690000Y-109460000D03*
X145190000Y-109460000D03*
%TD*%
D17*
%TO.N,Net-(SSD1306-VCC)*%
X73000000Y-129700000D03*
%TO.N,Net-(SSD1306-SCL)*%
X93970000Y-125200000D03*
%TO.N,Net-(SSD1306-SDA)*%
X90200000Y-129290000D03*
%TD*%
%TO.N,Net-(SSD1306-SCL)*%
D18*
X93970000Y-125200000D02*
X99950000Y-125200000D01*
X99950000Y-125200000D02*
X121250000Y-103900000D01*
%TO.N,Net-(SSD1306-SDA)*%
X106470000Y-121180000D02*
X123750000Y-103900000D01*
X90200000Y-129290000D02*
X103720000Y-129290000D01*
X106470000Y-126540000D02*
X106470000Y-121180000D01*
X103720000Y-129290000D02*
X106470000Y-126540000D01*
%TO.N,Net-(adafruitbq1-EN)*%
X93817500Y-113410000D02*
X96530000Y-110697500D01*
X84210000Y-113410000D02*
X93817500Y-113410000D01*
X96530000Y-110697500D02*
X96530000Y-109247500D01*
%TO.N,Net-(SSD1306-VCC)*%
X83810000Y-118890000D02*
X73000000Y-129700000D01*
X101260000Y-118890000D02*
X83810000Y-118890000D01*
X116250000Y-103900000D02*
X101260000Y-118890000D01*
%TD*%
%TA.AperFunction,Conductor*%
%TO.N,GND*%
G36*
X146202562Y-86600605D02*
G01*
X146570277Y-86615814D01*
X146575906Y-86616177D01*
X146659930Y-86623528D01*
X146668767Y-86626985D01*
X146986065Y-86664100D01*
X146993172Y-86665141D01*
X147071766Y-86678999D01*
X147075594Y-86679737D01*
X147399008Y-86747549D01*
X147405622Y-86749128D01*
X147474576Y-86767604D01*
X147477787Y-86768512D01*
X147803169Y-86865383D01*
X147810157Y-86867692D01*
X147864056Y-86887310D01*
X147866678Y-86888299D01*
X148196425Y-87016967D01*
X148203729Y-87020089D01*
X148234837Y-87034595D01*
X148236641Y-87035458D01*
X148574902Y-87200823D01*
X148583883Y-87205683D01*
X148912999Y-87401794D01*
X148930070Y-87411966D01*
X148938649Y-87417572D01*
X149266587Y-87651714D01*
X149274669Y-87658005D01*
X149582155Y-87918433D01*
X149589695Y-87925374D01*
X149874625Y-88210304D01*
X149881566Y-88217844D01*
X150141994Y-88525330D01*
X150148289Y-88533418D01*
X150382427Y-88861350D01*
X150388033Y-88869929D01*
X150594309Y-89216105D01*
X150599186Y-89225119D01*
X150764467Y-89563206D01*
X150765450Y-89565262D01*
X150779902Y-89596255D01*
X150783036Y-89603584D01*
X150911691Y-89933300D01*
X150912696Y-89935964D01*
X150932299Y-89989822D01*
X150934622Y-89996851D01*
X151031475Y-90322173D01*
X151032405Y-90325462D01*
X151050867Y-90394364D01*
X151052453Y-90401010D01*
X151120250Y-90724350D01*
X151121005Y-90728265D01*
X151134854Y-90806807D01*
X151135786Y-90813001D01*
X151175990Y-91135538D01*
X151176470Y-91140069D01*
X151183819Y-91224067D01*
X151184185Y-91229749D01*
X151199394Y-91597437D01*
X151199500Y-91602562D01*
X151199500Y-145197437D01*
X151199394Y-145202562D01*
X151184185Y-145570249D01*
X151183819Y-145575931D01*
X151176470Y-145659929D01*
X151175990Y-145664460D01*
X151135786Y-145986997D01*
X151134854Y-145993191D01*
X151121005Y-146071733D01*
X151120250Y-146075648D01*
X151052453Y-146398988D01*
X151050867Y-146405634D01*
X151032405Y-146474536D01*
X151031475Y-146477825D01*
X150934622Y-146803147D01*
X150932299Y-146810176D01*
X150912696Y-146864034D01*
X150911691Y-146866698D01*
X150783036Y-147196414D01*
X150779902Y-147203743D01*
X150765471Y-147234691D01*
X150764489Y-147236747D01*
X150599182Y-147574889D01*
X150594304Y-147583903D01*
X150388033Y-147930070D01*
X150382427Y-147938649D01*
X150148289Y-148266581D01*
X150141994Y-148274669D01*
X149881566Y-148582155D01*
X149874625Y-148589695D01*
X149589695Y-148874625D01*
X149582155Y-148881566D01*
X149274669Y-149141994D01*
X149266581Y-149148289D01*
X148938649Y-149382427D01*
X148930070Y-149388033D01*
X148583903Y-149594304D01*
X148574889Y-149599182D01*
X148236747Y-149764489D01*
X148234691Y-149765471D01*
X148203743Y-149779902D01*
X148196414Y-149783036D01*
X147866698Y-149911691D01*
X147864034Y-149912696D01*
X147810176Y-149932299D01*
X147803147Y-149934622D01*
X147477825Y-150031475D01*
X147474536Y-150032405D01*
X147405634Y-150050867D01*
X147398988Y-150052453D01*
X147075648Y-150120250D01*
X147071733Y-150121005D01*
X146993191Y-150134854D01*
X146986997Y-150135786D01*
X146664460Y-150175990D01*
X146659929Y-150176470D01*
X146575931Y-150183819D01*
X146570249Y-150184185D01*
X146202563Y-150199394D01*
X146197438Y-150199500D01*
X65402562Y-150199500D01*
X65397437Y-150199394D01*
X65029749Y-150184185D01*
X65024067Y-150183819D01*
X64940069Y-150176470D01*
X64935538Y-150175990D01*
X64613001Y-150135786D01*
X64606807Y-150134854D01*
X64528265Y-150121005D01*
X64524350Y-150120250D01*
X64201010Y-150052453D01*
X64194364Y-150050867D01*
X64125462Y-150032405D01*
X64122173Y-150031475D01*
X63796851Y-149934622D01*
X63789822Y-149932299D01*
X63735964Y-149912696D01*
X63733300Y-149911691D01*
X63403584Y-149783036D01*
X63396255Y-149779902D01*
X63365262Y-149765450D01*
X63363206Y-149764467D01*
X63025119Y-149599186D01*
X63016105Y-149594309D01*
X62669929Y-149388033D01*
X62661350Y-149382427D01*
X62333418Y-149148289D01*
X62325330Y-149141994D01*
X62017844Y-148881566D01*
X62010304Y-148874625D01*
X61725374Y-148589695D01*
X61718433Y-148582155D01*
X61458005Y-148274669D01*
X61451710Y-148266581D01*
X61217572Y-147938649D01*
X61211966Y-147930070D01*
X61201794Y-147912999D01*
X61005683Y-147583883D01*
X61000817Y-147574889D01*
X60835458Y-147236641D01*
X60834595Y-147234837D01*
X60820089Y-147203729D01*
X60816962Y-147196414D01*
X60688307Y-146866698D01*
X60687302Y-146864034D01*
X60667692Y-146810157D01*
X60665383Y-146803169D01*
X60568512Y-146477787D01*
X60567604Y-146474576D01*
X60549128Y-146405622D01*
X60547549Y-146399008D01*
X60479737Y-146075594D01*
X60478999Y-146071766D01*
X60465140Y-145993169D01*
X60464216Y-145987028D01*
X60424004Y-145664429D01*
X60423530Y-145659956D01*
X60416177Y-145575906D01*
X60415814Y-145570277D01*
X60400606Y-145202562D01*
X60400500Y-145197438D01*
X60400500Y-136841902D01*
X114689500Y-136841902D01*
X114689500Y-137078097D01*
X114726446Y-137311368D01*
X114799433Y-137535996D01*
X114906657Y-137746433D01*
X115045483Y-137937510D01*
X115212490Y-138104517D01*
X115403567Y-138243343D01*
X115502991Y-138294002D01*
X115614003Y-138350566D01*
X115614005Y-138350566D01*
X115614008Y-138350568D01*
X115734412Y-138389689D01*
X115838631Y-138423553D01*
X116071903Y-138460500D01*
X116071908Y-138460500D01*
X116308097Y-138460500D01*
X116541368Y-138423553D01*
X116765992Y-138350568D01*
X116976433Y-138243343D01*
X117167510Y-138104517D01*
X117334517Y-137937510D01*
X117473343Y-137746433D01*
X117580568Y-137535992D01*
X117653553Y-137311368D01*
X117690500Y-137078097D01*
X117690500Y-136841902D01*
X121189500Y-136841902D01*
X121189500Y-137078097D01*
X121226446Y-137311368D01*
X121299433Y-137535996D01*
X121406657Y-137746433D01*
X121545483Y-137937510D01*
X121712490Y-138104517D01*
X121903567Y-138243343D01*
X122002991Y-138294002D01*
X122114003Y-138350566D01*
X122114005Y-138350566D01*
X122114008Y-138350568D01*
X122234412Y-138389689D01*
X122338631Y-138423553D01*
X122571903Y-138460500D01*
X122571908Y-138460500D01*
X122808097Y-138460500D01*
X123041368Y-138423553D01*
X123265992Y-138350568D01*
X123476433Y-138243343D01*
X123667510Y-138104517D01*
X123834517Y-137937510D01*
X123973343Y-137746433D01*
X124080568Y-137535992D01*
X124153553Y-137311368D01*
X124190500Y-137078097D01*
X124190500Y-136841902D01*
X124153553Y-136608631D01*
X124080566Y-136384003D01*
X123973342Y-136173566D01*
X123834517Y-135982490D01*
X123667510Y-135815483D01*
X123476433Y-135676657D01*
X123265996Y-135569433D01*
X123041368Y-135496446D01*
X122808097Y-135459500D01*
X122808092Y-135459500D01*
X122571908Y-135459500D01*
X122571903Y-135459500D01*
X122338631Y-135496446D01*
X122114003Y-135569433D01*
X121903566Y-135676657D01*
X121794550Y-135755862D01*
X121712490Y-135815483D01*
X121712488Y-135815485D01*
X121712487Y-135815485D01*
X121545485Y-135982487D01*
X121545485Y-135982488D01*
X121545483Y-135982490D01*
X121485862Y-136064550D01*
X121406657Y-136173566D01*
X121299433Y-136384003D01*
X121226446Y-136608631D01*
X121189500Y-136841902D01*
X117690500Y-136841902D01*
X117653553Y-136608631D01*
X117580566Y-136384003D01*
X117473342Y-136173566D01*
X117334517Y-135982490D01*
X117167510Y-135815483D01*
X116976433Y-135676657D01*
X116765996Y-135569433D01*
X116541368Y-135496446D01*
X116308097Y-135459500D01*
X116308092Y-135459500D01*
X116071908Y-135459500D01*
X116071903Y-135459500D01*
X115838631Y-135496446D01*
X115614003Y-135569433D01*
X115403566Y-135676657D01*
X115294550Y-135755862D01*
X115212490Y-135815483D01*
X115212488Y-135815485D01*
X115212487Y-135815485D01*
X115045485Y-135982487D01*
X115045485Y-135982488D01*
X115045483Y-135982490D01*
X114985862Y-136064550D01*
X114906657Y-136173566D01*
X114799433Y-136384003D01*
X114726446Y-136608631D01*
X114689500Y-136841902D01*
X60400500Y-136841902D01*
X60400500Y-132341947D01*
X114690000Y-132341947D01*
X114690000Y-132578052D01*
X114726934Y-132811247D01*
X114799897Y-133035802D01*
X114907087Y-133246174D01*
X114967338Y-133329104D01*
X114967340Y-133329105D01*
X115666212Y-132630233D01*
X115677482Y-132672292D01*
X115749890Y-132797708D01*
X115852292Y-132900110D01*
X115977708Y-132972518D01*
X116019765Y-132983787D01*
X115320893Y-133682658D01*
X115403828Y-133742914D01*
X115614197Y-133850102D01*
X115838752Y-133923065D01*
X115838751Y-133923065D01*
X116071948Y-133960000D01*
X116308052Y-133960000D01*
X116541247Y-133923065D01*
X116765802Y-133850102D01*
X116976163Y-133742918D01*
X116976169Y-133742914D01*
X117059104Y-133682658D01*
X117059105Y-133682658D01*
X116360233Y-132983787D01*
X116402292Y-132972518D01*
X116527708Y-132900110D01*
X116630110Y-132797708D01*
X116702518Y-132672292D01*
X116713787Y-132630234D01*
X117412658Y-133329105D01*
X117412658Y-133329104D01*
X117472914Y-133246169D01*
X117472918Y-133246163D01*
X117580102Y-133035802D01*
X117653065Y-132811247D01*
X117690000Y-132578052D01*
X117690000Y-132341947D01*
X121190000Y-132341947D01*
X121190000Y-132578052D01*
X121226934Y-132811247D01*
X121299897Y-133035802D01*
X121407087Y-133246174D01*
X121467338Y-133329104D01*
X121467340Y-133329105D01*
X122166212Y-132630233D01*
X122177482Y-132672292D01*
X122249890Y-132797708D01*
X122352292Y-132900110D01*
X122477708Y-132972518D01*
X122519765Y-132983787D01*
X121820893Y-133682658D01*
X121903828Y-133742914D01*
X122114197Y-133850102D01*
X122338752Y-133923065D01*
X122338751Y-133923065D01*
X122571948Y-133960000D01*
X122808052Y-133960000D01*
X123041247Y-133923065D01*
X123265802Y-133850102D01*
X123476163Y-133742918D01*
X123476169Y-133742914D01*
X123559104Y-133682658D01*
X123559105Y-133682658D01*
X122860233Y-132983787D01*
X122902292Y-132972518D01*
X123027708Y-132900110D01*
X123130110Y-132797708D01*
X123202518Y-132672292D01*
X123213787Y-132630234D01*
X123912658Y-133329105D01*
X123912658Y-133329104D01*
X123972914Y-133246169D01*
X123972918Y-133246163D01*
X124080102Y-133035802D01*
X124153065Y-132811247D01*
X124190000Y-132578052D01*
X124190000Y-132341947D01*
X124153065Y-132108752D01*
X124080102Y-131884197D01*
X123972914Y-131673828D01*
X123912658Y-131590894D01*
X123912658Y-131590893D01*
X123213787Y-132289765D01*
X123202518Y-132247708D01*
X123130110Y-132122292D01*
X123027708Y-132019890D01*
X122902292Y-131947482D01*
X122860234Y-131936212D01*
X123559105Y-131237340D01*
X123559104Y-131237338D01*
X123476174Y-131177087D01*
X123265802Y-131069897D01*
X123041247Y-130996934D01*
X123041248Y-130996934D01*
X122808052Y-130960000D01*
X122571948Y-130960000D01*
X122338752Y-130996934D01*
X122114197Y-131069897D01*
X121903830Y-131177084D01*
X121820894Y-131237340D01*
X122519766Y-131936212D01*
X122477708Y-131947482D01*
X122352292Y-132019890D01*
X122249890Y-132122292D01*
X122177482Y-132247708D01*
X122166212Y-132289766D01*
X121467340Y-131590894D01*
X121407084Y-131673830D01*
X121299897Y-131884197D01*
X121226934Y-132108752D01*
X121190000Y-132341947D01*
X117690000Y-132341947D01*
X117653065Y-132108752D01*
X117580102Y-131884197D01*
X117472914Y-131673828D01*
X117412658Y-131590894D01*
X117412658Y-131590893D01*
X116713787Y-132289765D01*
X116702518Y-132247708D01*
X116630110Y-132122292D01*
X116527708Y-132019890D01*
X116402292Y-131947482D01*
X116360234Y-131936212D01*
X117059105Y-131237340D01*
X117059104Y-131237339D01*
X116976174Y-131177087D01*
X116765802Y-131069897D01*
X116541247Y-130996934D01*
X116541248Y-130996934D01*
X116308052Y-130960000D01*
X116071948Y-130960000D01*
X115838752Y-130996934D01*
X115614197Y-131069897D01*
X115403830Y-131177084D01*
X115320894Y-131237340D01*
X116019766Y-131936212D01*
X115977708Y-131947482D01*
X115852292Y-132019890D01*
X115749890Y-132122292D01*
X115677482Y-132247708D01*
X115666212Y-132289766D01*
X114967340Y-131590894D01*
X114907084Y-131673830D01*
X114799897Y-131884197D01*
X114726934Y-132108752D01*
X114690000Y-132341947D01*
X60400500Y-132341947D01*
X60400500Y-129621153D01*
X72199500Y-129621153D01*
X72199500Y-129778846D01*
X72230261Y-129933489D01*
X72230264Y-129933501D01*
X72290602Y-130079172D01*
X72290609Y-130079185D01*
X72378210Y-130210288D01*
X72378213Y-130210292D01*
X72489707Y-130321786D01*
X72489711Y-130321789D01*
X72620814Y-130409390D01*
X72620827Y-130409397D01*
X72766498Y-130469735D01*
X72766503Y-130469737D01*
X72921153Y-130500499D01*
X72921156Y-130500500D01*
X72921158Y-130500500D01*
X73078844Y-130500500D01*
X73078845Y-130500499D01*
X73233497Y-130469737D01*
X73379179Y-130409394D01*
X73510289Y-130321789D01*
X73621789Y-130210289D01*
X73709394Y-130079179D01*
X73769737Y-129933497D01*
X73800500Y-129778842D01*
X73800500Y-129621158D01*
X73800500Y-129621155D01*
X73800499Y-129621153D01*
X73784286Y-129539644D01*
X73769737Y-129466503D01*
X73738614Y-129391365D01*
X73731146Y-129321901D01*
X73762420Y-129259422D01*
X73765466Y-129256265D01*
X83867915Y-119153819D01*
X83929238Y-119120334D01*
X83955596Y-119117500D01*
X101305252Y-119117500D01*
X101305253Y-119117500D01*
X101388868Y-119082865D01*
X115287220Y-105184511D01*
X115348541Y-105151028D01*
X115418233Y-105156012D01*
X115447785Y-105171877D01*
X115463567Y-105183343D01*
X115560915Y-105232944D01*
X115674003Y-105290566D01*
X115674005Y-105290566D01*
X115674008Y-105290568D01*
X115794412Y-105329689D01*
X115898631Y-105363553D01*
X116131903Y-105400500D01*
X116131908Y-105400500D01*
X116368097Y-105400500D01*
X116601368Y-105363553D01*
X116654519Y-105346283D01*
X116825992Y-105290568D01*
X117036433Y-105183343D01*
X117212276Y-105055584D01*
X117278079Y-105032106D01*
X117346133Y-105047931D01*
X117390697Y-105090806D01*
X117407682Y-105118343D01*
X117531654Y-105242315D01*
X117680875Y-105334356D01*
X117680880Y-105334358D01*
X117847302Y-105389505D01*
X117847309Y-105389506D01*
X117950019Y-105399999D01*
X118499999Y-105399999D01*
X118500000Y-105399998D01*
X118500000Y-104333012D01*
X118557007Y-104365925D01*
X118684174Y-104400000D01*
X118815826Y-104400000D01*
X118942993Y-104365925D01*
X119000000Y-104333012D01*
X119000000Y-105399999D01*
X119128903Y-105399999D01*
X119195942Y-105419684D01*
X119241697Y-105472488D01*
X119251641Y-105541646D01*
X119222616Y-105605202D01*
X119216584Y-105611680D01*
X99892086Y-124936181D01*
X99830763Y-124969666D01*
X99804405Y-124972500D01*
X94825075Y-124972500D01*
X94758036Y-124952815D01*
X94712281Y-124900011D01*
X94710534Y-124896000D01*
X94679394Y-124820821D01*
X94679392Y-124820818D01*
X94679390Y-124820814D01*
X94591789Y-124689711D01*
X94591786Y-124689707D01*
X94480292Y-124578213D01*
X94480288Y-124578210D01*
X94349185Y-124490609D01*
X94349172Y-124490602D01*
X94203501Y-124430264D01*
X94203489Y-124430261D01*
X94048845Y-124399500D01*
X94048842Y-124399500D01*
X93891158Y-124399500D01*
X93891155Y-124399500D01*
X93736510Y-124430261D01*
X93736498Y-124430264D01*
X93590827Y-124490602D01*
X93590814Y-124490609D01*
X93459711Y-124578210D01*
X93459707Y-124578213D01*
X93348213Y-124689707D01*
X93348210Y-124689711D01*
X93260609Y-124820814D01*
X93260602Y-124820827D01*
X93200264Y-124966498D01*
X93200261Y-124966510D01*
X93169500Y-125121153D01*
X93169500Y-125278846D01*
X93200261Y-125433489D01*
X93200264Y-125433501D01*
X93260602Y-125579172D01*
X93260609Y-125579185D01*
X93348210Y-125710288D01*
X93348213Y-125710292D01*
X93459707Y-125821786D01*
X93459711Y-125821789D01*
X93590814Y-125909390D01*
X93590827Y-125909397D01*
X93736498Y-125969735D01*
X93736503Y-125969737D01*
X93891153Y-126000499D01*
X93891156Y-126000500D01*
X93891158Y-126000500D01*
X94048844Y-126000500D01*
X94048845Y-126000499D01*
X94203497Y-125969737D01*
X94349179Y-125909394D01*
X94480289Y-125821789D01*
X94591789Y-125710289D01*
X94679394Y-125579179D01*
X94710515Y-125504045D01*
X94754354Y-125449644D01*
X94820648Y-125427579D01*
X94825075Y-125427500D01*
X99995252Y-125427500D01*
X99995253Y-125427500D01*
X100078868Y-125392865D01*
X120287220Y-105184512D01*
X120348541Y-105151029D01*
X120418233Y-105156013D01*
X120447783Y-105171876D01*
X120463564Y-105183341D01*
X120463567Y-105183343D01*
X120560915Y-105232944D01*
X120674003Y-105290566D01*
X120674005Y-105290566D01*
X120674008Y-105290568D01*
X120794412Y-105329689D01*
X120898631Y-105363553D01*
X121131903Y-105400500D01*
X121131908Y-105400500D01*
X121368097Y-105400500D01*
X121482612Y-105382362D01*
X121601368Y-105363553D01*
X121601373Y-105363551D01*
X121601375Y-105363551D01*
X121648373Y-105348280D01*
X121718214Y-105346283D01*
X121778047Y-105382362D01*
X121808876Y-105445063D01*
X121800913Y-105514477D01*
X121774374Y-105553891D01*
X108868267Y-118460000D01*
X106341132Y-120987135D01*
X106277135Y-121051132D01*
X106256846Y-121100111D01*
X106242500Y-121134746D01*
X106242500Y-126394405D01*
X106222815Y-126461444D01*
X106206181Y-126482086D01*
X103662086Y-129026181D01*
X103600763Y-129059666D01*
X103574405Y-129062500D01*
X91055075Y-129062500D01*
X90988036Y-129042815D01*
X90942281Y-128990011D01*
X90940534Y-128986000D01*
X90909394Y-128910821D01*
X90909392Y-128910818D01*
X90909390Y-128910814D01*
X90821789Y-128779711D01*
X90821786Y-128779707D01*
X90710292Y-128668213D01*
X90710288Y-128668210D01*
X90579185Y-128580609D01*
X90579172Y-128580602D01*
X90433501Y-128520264D01*
X90433489Y-128520261D01*
X90278845Y-128489500D01*
X90278842Y-128489500D01*
X90121158Y-128489500D01*
X90121155Y-128489500D01*
X89966510Y-128520261D01*
X89966498Y-128520264D01*
X89820827Y-128580602D01*
X89820814Y-128580609D01*
X89689711Y-128668210D01*
X89689707Y-128668213D01*
X89578213Y-128779707D01*
X89578210Y-128779711D01*
X89490609Y-128910814D01*
X89490602Y-128910827D01*
X89430264Y-129056498D01*
X89430261Y-129056510D01*
X89399500Y-129211153D01*
X89399500Y-129368846D01*
X89430261Y-129523489D01*
X89430264Y-129523501D01*
X89490602Y-129669172D01*
X89490609Y-129669185D01*
X89578210Y-129800288D01*
X89578213Y-129800292D01*
X89689707Y-129911786D01*
X89689711Y-129911789D01*
X89820814Y-129999390D01*
X89820827Y-129999397D01*
X89966498Y-130059735D01*
X89966503Y-130059737D01*
X90121153Y-130090499D01*
X90121156Y-130090500D01*
X90121158Y-130090500D01*
X90278844Y-130090500D01*
X90278845Y-130090499D01*
X90433497Y-130059737D01*
X90579179Y-129999394D01*
X90710289Y-129911789D01*
X90821789Y-129800289D01*
X90909394Y-129669179D01*
X90940515Y-129594045D01*
X90984354Y-129539644D01*
X91050648Y-129517579D01*
X91055075Y-129517500D01*
X103765252Y-129517500D01*
X103765253Y-129517500D01*
X103848868Y-129482865D01*
X103848870Y-129482863D01*
X103848871Y-129482863D01*
X106662863Y-126668871D01*
X106662863Y-126668870D01*
X106662865Y-126668868D01*
X106697500Y-126585253D01*
X106697500Y-124341902D01*
X137189500Y-124341902D01*
X137189500Y-124578097D01*
X137226446Y-124811368D01*
X137299433Y-125035996D01*
X137342826Y-125121158D01*
X137406657Y-125246433D01*
X137545483Y-125437510D01*
X137712490Y-125604517D01*
X137903567Y-125743343D01*
X138002991Y-125794002D01*
X138114003Y-125850566D01*
X138114005Y-125850566D01*
X138114008Y-125850568D01*
X138234412Y-125889689D01*
X138338631Y-125923553D01*
X138571903Y-125960500D01*
X138571908Y-125960500D01*
X138808097Y-125960500D01*
X139041368Y-125923553D01*
X139265992Y-125850568D01*
X139476433Y-125743343D01*
X139667510Y-125604517D01*
X139834517Y-125437510D01*
X139973343Y-125246433D01*
X140080568Y-125035992D01*
X140153553Y-124811368D01*
X140190500Y-124578097D01*
X140190500Y-124341902D01*
X143689500Y-124341902D01*
X143689500Y-124578097D01*
X143726446Y-124811368D01*
X143799433Y-125035996D01*
X143842826Y-125121158D01*
X143906657Y-125246433D01*
X144045483Y-125437510D01*
X144212490Y-125604517D01*
X144403567Y-125743343D01*
X144502991Y-125794002D01*
X144614003Y-125850566D01*
X144614005Y-125850566D01*
X144614008Y-125850568D01*
X144734412Y-125889689D01*
X144838631Y-125923553D01*
X145071903Y-125960500D01*
X145071908Y-125960500D01*
X145308097Y-125960500D01*
X145541368Y-125923553D01*
X145765992Y-125850568D01*
X145976433Y-125743343D01*
X146167510Y-125604517D01*
X146334517Y-125437510D01*
X146473343Y-125246433D01*
X146580568Y-125035992D01*
X146653553Y-124811368D01*
X146690500Y-124578097D01*
X146690500Y-124341902D01*
X146653553Y-124108631D01*
X146580566Y-123884003D01*
X146473342Y-123673566D01*
X146334517Y-123482490D01*
X146167510Y-123315483D01*
X145976433Y-123176657D01*
X145765996Y-123069433D01*
X145541368Y-122996446D01*
X145308097Y-122959500D01*
X145308092Y-122959500D01*
X145071908Y-122959500D01*
X145071903Y-122959500D01*
X144838631Y-122996446D01*
X144614003Y-123069433D01*
X144403566Y-123176657D01*
X144294550Y-123255862D01*
X144212490Y-123315483D01*
X144212488Y-123315485D01*
X144212487Y-123315485D01*
X144045485Y-123482487D01*
X144045485Y-123482488D01*
X144045483Y-123482490D01*
X143985862Y-123564550D01*
X143906657Y-123673566D01*
X143799433Y-123884003D01*
X143726446Y-124108631D01*
X143689500Y-124341902D01*
X140190500Y-124341902D01*
X140153553Y-124108631D01*
X140080566Y-123884003D01*
X139973342Y-123673566D01*
X139834517Y-123482490D01*
X139667510Y-123315483D01*
X139476433Y-123176657D01*
X139265996Y-123069433D01*
X139041368Y-122996446D01*
X138808097Y-122959500D01*
X138808092Y-122959500D01*
X138571908Y-122959500D01*
X138571903Y-122959500D01*
X138338631Y-122996446D01*
X138114003Y-123069433D01*
X137903566Y-123176657D01*
X137794550Y-123255862D01*
X137712490Y-123315483D01*
X137712488Y-123315485D01*
X137712487Y-123315485D01*
X137545485Y-123482487D01*
X137545485Y-123482488D01*
X137545483Y-123482490D01*
X137485862Y-123564550D01*
X137406657Y-123673566D01*
X137299433Y-123884003D01*
X137226446Y-124108631D01*
X137189500Y-124341902D01*
X106697500Y-124341902D01*
X106697500Y-121325594D01*
X106717185Y-121258555D01*
X106733814Y-121237918D01*
X108129785Y-119841947D01*
X137190000Y-119841947D01*
X137190000Y-120078052D01*
X137226934Y-120311247D01*
X137299897Y-120535802D01*
X137407087Y-120746174D01*
X137467338Y-120829104D01*
X137467340Y-120829105D01*
X138166212Y-120130233D01*
X138177482Y-120172292D01*
X138249890Y-120297708D01*
X138352292Y-120400110D01*
X138477708Y-120472518D01*
X138519765Y-120483787D01*
X137820893Y-121182658D01*
X137903828Y-121242914D01*
X138114197Y-121350102D01*
X138338752Y-121423065D01*
X138338751Y-121423065D01*
X138571948Y-121460000D01*
X138808052Y-121460000D01*
X139041247Y-121423065D01*
X139265802Y-121350102D01*
X139476163Y-121242918D01*
X139476169Y-121242914D01*
X139559104Y-121182658D01*
X139559105Y-121182658D01*
X138860233Y-120483787D01*
X138902292Y-120472518D01*
X139027708Y-120400110D01*
X139130110Y-120297708D01*
X139202518Y-120172292D01*
X139213787Y-120130234D01*
X139912658Y-120829105D01*
X139912658Y-120829104D01*
X139972914Y-120746169D01*
X139972918Y-120746163D01*
X140080102Y-120535802D01*
X140153065Y-120311247D01*
X140190000Y-120078052D01*
X140190000Y-119841947D01*
X143690000Y-119841947D01*
X143690000Y-120078052D01*
X143726934Y-120311247D01*
X143799897Y-120535802D01*
X143907087Y-120746174D01*
X143967338Y-120829104D01*
X143967340Y-120829105D01*
X144666212Y-120130233D01*
X144677482Y-120172292D01*
X144749890Y-120297708D01*
X144852292Y-120400110D01*
X144977708Y-120472518D01*
X145019765Y-120483787D01*
X144320893Y-121182658D01*
X144403828Y-121242914D01*
X144614197Y-121350102D01*
X144838752Y-121423065D01*
X144838751Y-121423065D01*
X145071948Y-121460000D01*
X145308052Y-121460000D01*
X145541247Y-121423065D01*
X145765802Y-121350102D01*
X145976163Y-121242918D01*
X145976169Y-121242914D01*
X146059104Y-121182658D01*
X146059105Y-121182658D01*
X145360233Y-120483787D01*
X145402292Y-120472518D01*
X145527708Y-120400110D01*
X145630110Y-120297708D01*
X145702518Y-120172292D01*
X145713787Y-120130234D01*
X146412658Y-120829105D01*
X146412658Y-120829104D01*
X146472914Y-120746169D01*
X146472918Y-120746163D01*
X146580102Y-120535802D01*
X146653065Y-120311247D01*
X146690000Y-120078052D01*
X146690000Y-119841947D01*
X146653065Y-119608752D01*
X146580102Y-119384197D01*
X146472914Y-119173828D01*
X146412658Y-119090894D01*
X146412658Y-119090893D01*
X145713787Y-119789765D01*
X145702518Y-119747708D01*
X145630110Y-119622292D01*
X145527708Y-119519890D01*
X145402292Y-119447482D01*
X145360234Y-119436212D01*
X146059105Y-118737340D01*
X146059104Y-118737338D01*
X145976174Y-118677087D01*
X145765802Y-118569897D01*
X145541247Y-118496934D01*
X145541248Y-118496934D01*
X145308052Y-118460000D01*
X145071948Y-118460000D01*
X144838752Y-118496934D01*
X144614197Y-118569897D01*
X144403830Y-118677084D01*
X144320894Y-118737340D01*
X145019766Y-119436212D01*
X144977708Y-119447482D01*
X144852292Y-119519890D01*
X144749890Y-119622292D01*
X144677482Y-119747708D01*
X144666212Y-119789766D01*
X143967340Y-119090894D01*
X143907084Y-119173830D01*
X143799897Y-119384197D01*
X143726934Y-119608752D01*
X143690000Y-119841947D01*
X140190000Y-119841947D01*
X140153065Y-119608752D01*
X140080102Y-119384197D01*
X139972914Y-119173828D01*
X139912658Y-119090894D01*
X139912658Y-119090893D01*
X139213787Y-119789765D01*
X139202518Y-119747708D01*
X139130110Y-119622292D01*
X139027708Y-119519890D01*
X138902292Y-119447482D01*
X138860234Y-119436212D01*
X139559105Y-118737340D01*
X139559104Y-118737339D01*
X139476174Y-118677087D01*
X139265802Y-118569897D01*
X139041247Y-118496934D01*
X139041248Y-118496934D01*
X138808052Y-118460000D01*
X138571948Y-118460000D01*
X138338752Y-118496934D01*
X138114197Y-118569897D01*
X137903830Y-118677084D01*
X137820894Y-118737340D01*
X138519766Y-119436212D01*
X138477708Y-119447482D01*
X138352292Y-119519890D01*
X138249890Y-119622292D01*
X138177482Y-119747708D01*
X138166212Y-119789766D01*
X137467340Y-119090894D01*
X137407084Y-119173830D01*
X137299897Y-119384197D01*
X137226934Y-119608752D01*
X137190000Y-119841947D01*
X108129785Y-119841947D01*
X118629829Y-109341902D01*
X137189500Y-109341902D01*
X137189500Y-109578097D01*
X137226446Y-109811368D01*
X137299433Y-110035996D01*
X137397023Y-110227525D01*
X137406657Y-110246433D01*
X137545483Y-110437510D01*
X137712490Y-110604517D01*
X137903567Y-110743343D01*
X137964622Y-110774452D01*
X138114003Y-110850566D01*
X138114005Y-110850566D01*
X138114008Y-110850568D01*
X138234412Y-110889689D01*
X138338631Y-110923553D01*
X138571903Y-110960500D01*
X138571908Y-110960500D01*
X138808097Y-110960500D01*
X139041368Y-110923553D01*
X139265992Y-110850568D01*
X139476433Y-110743343D01*
X139667510Y-110604517D01*
X139834517Y-110437510D01*
X139973343Y-110246433D01*
X140080568Y-110035992D01*
X140153553Y-109811368D01*
X140179507Y-109647500D01*
X140190500Y-109578097D01*
X140190500Y-109341902D01*
X143689500Y-109341902D01*
X143689500Y-109578097D01*
X143726446Y-109811368D01*
X143799433Y-110035996D01*
X143897023Y-110227525D01*
X143906657Y-110246433D01*
X144045483Y-110437510D01*
X144212490Y-110604517D01*
X144403567Y-110743343D01*
X144464622Y-110774452D01*
X144614003Y-110850566D01*
X144614005Y-110850566D01*
X144614008Y-110850568D01*
X144734412Y-110889689D01*
X144838631Y-110923553D01*
X145071903Y-110960500D01*
X145071908Y-110960500D01*
X145308097Y-110960500D01*
X145541368Y-110923553D01*
X145765992Y-110850568D01*
X145976433Y-110743343D01*
X146167510Y-110604517D01*
X146334517Y-110437510D01*
X146473343Y-110246433D01*
X146580568Y-110035992D01*
X146653553Y-109811368D01*
X146679507Y-109647500D01*
X146690500Y-109578097D01*
X146690500Y-109341902D01*
X146653553Y-109108631D01*
X146580566Y-108884003D01*
X146473342Y-108673566D01*
X146455554Y-108649083D01*
X146334517Y-108482490D01*
X146167510Y-108315483D01*
X145976433Y-108176657D01*
X145765996Y-108069433D01*
X145541368Y-107996446D01*
X145308097Y-107959500D01*
X145308092Y-107959500D01*
X145071908Y-107959500D01*
X145071903Y-107959500D01*
X144838631Y-107996446D01*
X144614003Y-108069433D01*
X144403566Y-108176657D01*
X144294550Y-108255862D01*
X144212490Y-108315483D01*
X144212488Y-108315485D01*
X144212487Y-108315485D01*
X144045485Y-108482487D01*
X144045485Y-108482488D01*
X144045483Y-108482490D01*
X143985862Y-108564550D01*
X143906657Y-108673566D01*
X143799433Y-108884003D01*
X143726446Y-109108631D01*
X143689500Y-109341902D01*
X140190500Y-109341902D01*
X140153553Y-109108631D01*
X140080566Y-108884003D01*
X139973342Y-108673566D01*
X139955554Y-108649083D01*
X139834517Y-108482490D01*
X139667510Y-108315483D01*
X139476433Y-108176657D01*
X139265996Y-108069433D01*
X139041368Y-107996446D01*
X138808097Y-107959500D01*
X138808092Y-107959500D01*
X138571908Y-107959500D01*
X138571903Y-107959500D01*
X138338631Y-107996446D01*
X138114003Y-108069433D01*
X137903566Y-108176657D01*
X137794550Y-108255862D01*
X137712490Y-108315483D01*
X137712488Y-108315485D01*
X137712487Y-108315485D01*
X137545485Y-108482487D01*
X137545485Y-108482488D01*
X137545483Y-108482490D01*
X137485862Y-108564550D01*
X137406657Y-108673566D01*
X137299433Y-108884003D01*
X137226446Y-109108631D01*
X137189500Y-109341902D01*
X118629829Y-109341902D01*
X122787220Y-105184511D01*
X122848541Y-105151028D01*
X122918233Y-105156012D01*
X122947785Y-105171877D01*
X122963567Y-105183343D01*
X123060915Y-105232944D01*
X123174003Y-105290566D01*
X123174005Y-105290566D01*
X123174008Y-105290568D01*
X123294412Y-105329689D01*
X123398631Y-105363553D01*
X123631903Y-105400500D01*
X123631908Y-105400500D01*
X123868097Y-105400500D01*
X124101368Y-105363553D01*
X124154519Y-105346283D01*
X124325992Y-105290568D01*
X124536433Y-105183343D01*
X124727510Y-105044517D01*
X124894517Y-104877510D01*
X124920355Y-104841947D01*
X137190000Y-104841947D01*
X137190000Y-105078052D01*
X137226934Y-105311247D01*
X137299897Y-105535802D01*
X137407087Y-105746174D01*
X137467338Y-105829104D01*
X137467340Y-105829105D01*
X138166212Y-105130233D01*
X138177482Y-105172292D01*
X138249890Y-105297708D01*
X138352292Y-105400110D01*
X138477708Y-105472518D01*
X138519765Y-105483787D01*
X137820893Y-106182658D01*
X137903828Y-106242914D01*
X138114197Y-106350102D01*
X138338752Y-106423065D01*
X138338751Y-106423065D01*
X138571948Y-106460000D01*
X138808052Y-106460000D01*
X139041247Y-106423065D01*
X139265802Y-106350102D01*
X139476163Y-106242918D01*
X139476169Y-106242914D01*
X139559104Y-106182658D01*
X139559105Y-106182658D01*
X138860233Y-105483787D01*
X138902292Y-105472518D01*
X139027708Y-105400110D01*
X139130110Y-105297708D01*
X139202518Y-105172292D01*
X139213787Y-105130234D01*
X139912658Y-105829105D01*
X139912658Y-105829104D01*
X139972914Y-105746169D01*
X139972918Y-105746163D01*
X140080102Y-105535802D01*
X140153065Y-105311247D01*
X140190000Y-105078052D01*
X140190000Y-104841947D01*
X143690000Y-104841947D01*
X143690000Y-105078052D01*
X143726934Y-105311247D01*
X143799897Y-105535802D01*
X143907087Y-105746174D01*
X143967338Y-105829104D01*
X143967340Y-105829105D01*
X144666212Y-105130233D01*
X144677482Y-105172292D01*
X144749890Y-105297708D01*
X144852292Y-105400110D01*
X144977708Y-105472518D01*
X145019765Y-105483787D01*
X144320893Y-106182658D01*
X144403828Y-106242914D01*
X144614197Y-106350102D01*
X144838752Y-106423065D01*
X144838751Y-106423065D01*
X145071948Y-106460000D01*
X145308052Y-106460000D01*
X145541247Y-106423065D01*
X145765802Y-106350102D01*
X145976163Y-106242918D01*
X145976169Y-106242914D01*
X146059104Y-106182658D01*
X146059105Y-106182658D01*
X145360233Y-105483787D01*
X145402292Y-105472518D01*
X145527708Y-105400110D01*
X145630110Y-105297708D01*
X145702518Y-105172292D01*
X145713787Y-105130234D01*
X146412658Y-105829105D01*
X146412658Y-105829104D01*
X146472914Y-105746169D01*
X146472918Y-105746163D01*
X146580102Y-105535802D01*
X146653065Y-105311247D01*
X146690000Y-105078052D01*
X146690000Y-104841947D01*
X146653065Y-104608752D01*
X146580102Y-104384197D01*
X146472914Y-104173828D01*
X146412658Y-104090894D01*
X146412658Y-104090893D01*
X145713787Y-104789765D01*
X145702518Y-104747708D01*
X145630110Y-104622292D01*
X145527708Y-104519890D01*
X145402292Y-104447482D01*
X145360234Y-104436212D01*
X146059105Y-103737340D01*
X146059104Y-103737338D01*
X145976174Y-103677087D01*
X145765802Y-103569897D01*
X145541247Y-103496934D01*
X145541248Y-103496934D01*
X145308052Y-103460000D01*
X145071948Y-103460000D01*
X144838752Y-103496934D01*
X144614197Y-103569897D01*
X144403830Y-103677084D01*
X144320894Y-103737340D01*
X145019766Y-104436212D01*
X144977708Y-104447482D01*
X144852292Y-104519890D01*
X144749890Y-104622292D01*
X144677482Y-104747708D01*
X144666212Y-104789766D01*
X143967340Y-104090894D01*
X143907084Y-104173830D01*
X143799897Y-104384197D01*
X143726934Y-104608752D01*
X143690000Y-104841947D01*
X140190000Y-104841947D01*
X140153065Y-104608752D01*
X140080102Y-104384197D01*
X139972914Y-104173828D01*
X139912658Y-104090894D01*
X139912658Y-104090893D01*
X139213787Y-104789765D01*
X139202518Y-104747708D01*
X139130110Y-104622292D01*
X139027708Y-104519890D01*
X138902292Y-104447482D01*
X138860234Y-104436212D01*
X139559105Y-103737340D01*
X139559104Y-103737339D01*
X139476174Y-103677087D01*
X139265802Y-103569897D01*
X139041247Y-103496934D01*
X139041248Y-103496934D01*
X138808052Y-103460000D01*
X138571948Y-103460000D01*
X138338752Y-103496934D01*
X138114197Y-103569897D01*
X137903830Y-103677084D01*
X137820894Y-103737340D01*
X138519766Y-104436212D01*
X138477708Y-104447482D01*
X138352292Y-104519890D01*
X138249890Y-104622292D01*
X138177482Y-104747708D01*
X138166212Y-104789766D01*
X137467340Y-104090894D01*
X137407084Y-104173830D01*
X137299897Y-104384197D01*
X137226934Y-104608752D01*
X137190000Y-104841947D01*
X124920355Y-104841947D01*
X125033343Y-104686433D01*
X125140568Y-104475992D01*
X125213553Y-104251368D01*
X125238637Y-104092993D01*
X125250500Y-104018097D01*
X125250500Y-103781902D01*
X125213553Y-103548631D01*
X125140566Y-103324003D01*
X125033342Y-103113566D01*
X124894517Y-102922490D01*
X124727510Y-102755483D01*
X124536433Y-102616657D01*
X124325996Y-102509433D01*
X124101368Y-102436446D01*
X123868097Y-102399500D01*
X123868092Y-102399500D01*
X123631908Y-102399500D01*
X123631903Y-102399500D01*
X123398631Y-102436446D01*
X123174003Y-102509433D01*
X122963566Y-102616657D01*
X122874105Y-102681655D01*
X122772490Y-102755483D01*
X122772488Y-102755485D01*
X122772487Y-102755485D01*
X122605482Y-102922490D01*
X122600315Y-102929603D01*
X122544983Y-102972266D01*
X122475370Y-102978242D01*
X122413576Y-102945634D01*
X122399685Y-102929603D01*
X122394517Y-102922490D01*
X122227512Y-102755485D01*
X122227510Y-102755483D01*
X122036433Y-102616657D01*
X121825996Y-102509433D01*
X121601368Y-102436446D01*
X121368097Y-102399500D01*
X121368092Y-102399500D01*
X121131908Y-102399500D01*
X121131903Y-102399500D01*
X120898631Y-102436446D01*
X120674003Y-102509433D01*
X120463563Y-102616659D01*
X120287725Y-102744413D01*
X120221919Y-102767893D01*
X120153865Y-102752068D01*
X120109302Y-102709192D01*
X120092319Y-102681659D01*
X120092316Y-102681655D01*
X119968345Y-102557684D01*
X119819124Y-102465643D01*
X119819119Y-102465641D01*
X119652697Y-102410494D01*
X119652690Y-102410493D01*
X119549986Y-102400000D01*
X119000000Y-102400000D01*
X119000000Y-103466988D01*
X118942993Y-103434075D01*
X118815826Y-103400000D01*
X118684174Y-103400000D01*
X118557007Y-103434075D01*
X118500000Y-103466988D01*
X118500000Y-102400000D01*
X117950028Y-102400000D01*
X117950012Y-102400001D01*
X117847302Y-102410494D01*
X117680880Y-102465641D01*
X117680875Y-102465643D01*
X117531654Y-102557684D01*
X117407683Y-102681655D01*
X117407680Y-102681659D01*
X117390696Y-102709194D01*
X117338747Y-102755918D01*
X117269784Y-102767138D01*
X117212273Y-102744413D01*
X117163798Y-102709194D01*
X117036433Y-102616657D01*
X116825996Y-102509433D01*
X116601368Y-102436446D01*
X116368097Y-102399500D01*
X116368092Y-102399500D01*
X116131908Y-102399500D01*
X116131903Y-102399500D01*
X115898631Y-102436446D01*
X115674003Y-102509433D01*
X115463566Y-102616657D01*
X115374105Y-102681655D01*
X115272490Y-102755483D01*
X115272488Y-102755485D01*
X115272487Y-102755485D01*
X115105485Y-102922487D01*
X115105485Y-102922488D01*
X115105483Y-102922490D01*
X115088668Y-102945634D01*
X114966657Y-103113566D01*
X114859433Y-103324003D01*
X114786446Y-103548631D01*
X114749500Y-103781902D01*
X114749500Y-104018097D01*
X114786446Y-104251368D01*
X114859433Y-104475996D01*
X114966656Y-104686431D01*
X114978124Y-104702216D01*
X115001602Y-104768022D01*
X114985775Y-104836076D01*
X114965485Y-104862780D01*
X101202086Y-118626181D01*
X101140763Y-118659666D01*
X101114405Y-118662500D01*
X83764747Y-118662500D01*
X83740257Y-118672644D01*
X83718415Y-118681690D01*
X83681132Y-118697133D01*
X73443762Y-128934503D01*
X73382439Y-128967988D01*
X73312747Y-128963004D01*
X73308629Y-128961383D01*
X73233501Y-128930264D01*
X73233489Y-128930261D01*
X73078845Y-128899500D01*
X73078842Y-128899500D01*
X72921158Y-128899500D01*
X72921155Y-128899500D01*
X72766510Y-128930261D01*
X72766498Y-128930264D01*
X72620827Y-128990602D01*
X72620814Y-128990609D01*
X72489711Y-129078210D01*
X72489707Y-129078213D01*
X72378213Y-129189707D01*
X72378210Y-129189711D01*
X72290609Y-129320814D01*
X72290602Y-129320827D01*
X72230264Y-129466498D01*
X72230261Y-129466510D01*
X72199500Y-129621153D01*
X60400500Y-129621153D01*
X60400500Y-113291902D01*
X65209500Y-113291902D01*
X65209500Y-113528097D01*
X65246446Y-113761368D01*
X65319433Y-113985996D01*
X65426657Y-114196433D01*
X65565483Y-114387510D01*
X65732490Y-114554517D01*
X65923567Y-114693343D01*
X66022991Y-114744002D01*
X66134003Y-114800566D01*
X66134005Y-114800566D01*
X66134008Y-114800568D01*
X66254412Y-114839689D01*
X66358631Y-114873553D01*
X66591903Y-114910500D01*
X66591908Y-114910500D01*
X66828097Y-114910500D01*
X67061368Y-114873553D01*
X67285992Y-114800568D01*
X67496433Y-114693343D01*
X67687510Y-114554517D01*
X67854517Y-114387510D01*
X67859682Y-114380401D01*
X67915012Y-114337735D01*
X67984625Y-114331756D01*
X68046420Y-114364362D01*
X68060318Y-114380401D01*
X68065483Y-114387510D01*
X68232490Y-114554517D01*
X68423567Y-114693343D01*
X68522991Y-114744002D01*
X68634003Y-114800566D01*
X68634005Y-114800566D01*
X68634008Y-114800568D01*
X68754412Y-114839689D01*
X68858631Y-114873553D01*
X69091903Y-114910500D01*
X69091908Y-114910500D01*
X69328097Y-114910500D01*
X69561368Y-114873553D01*
X69785992Y-114800568D01*
X69996433Y-114693343D01*
X70187510Y-114554517D01*
X70354517Y-114387510D01*
X70359682Y-114380401D01*
X70415012Y-114337735D01*
X70484625Y-114331756D01*
X70546420Y-114364362D01*
X70560318Y-114380401D01*
X70565483Y-114387510D01*
X70732490Y-114554517D01*
X70923567Y-114693343D01*
X71022991Y-114744002D01*
X71134003Y-114800566D01*
X71134005Y-114800566D01*
X71134008Y-114800568D01*
X71254412Y-114839689D01*
X71358631Y-114873553D01*
X71591903Y-114910500D01*
X71591908Y-114910500D01*
X71828097Y-114910500D01*
X72061368Y-114873553D01*
X72285992Y-114800568D01*
X72496433Y-114693343D01*
X72687510Y-114554517D01*
X72854517Y-114387510D01*
X72859682Y-114380401D01*
X72915012Y-114337735D01*
X72984625Y-114331756D01*
X73046420Y-114364362D01*
X73060318Y-114380401D01*
X73065483Y-114387510D01*
X73232490Y-114554517D01*
X73423567Y-114693343D01*
X73522991Y-114744002D01*
X73634003Y-114800566D01*
X73634005Y-114800566D01*
X73634008Y-114800568D01*
X73754412Y-114839689D01*
X73858631Y-114873553D01*
X74091903Y-114910500D01*
X74091908Y-114910500D01*
X74328097Y-114910500D01*
X74561368Y-114873553D01*
X74785992Y-114800568D01*
X74996433Y-114693343D01*
X75172276Y-114565584D01*
X75238079Y-114542106D01*
X75306133Y-114557931D01*
X75350697Y-114600806D01*
X75367682Y-114628343D01*
X75491654Y-114752315D01*
X75640875Y-114844356D01*
X75640880Y-114844358D01*
X75807302Y-114899505D01*
X75807309Y-114899506D01*
X75910019Y-114909999D01*
X76459999Y-114909999D01*
X76460000Y-114909998D01*
X76460000Y-113843012D01*
X76517007Y-113875925D01*
X76644174Y-113910000D01*
X76775826Y-113910000D01*
X76902993Y-113875925D01*
X76960000Y-113843012D01*
X76960000Y-114909999D01*
X77509972Y-114909999D01*
X77509986Y-114909998D01*
X77612697Y-114899505D01*
X77779119Y-114844358D01*
X77779124Y-114844356D01*
X77928345Y-114752315D01*
X78052317Y-114628343D01*
X78069301Y-114600808D01*
X78121248Y-114554083D01*
X78190211Y-114542860D01*
X78247724Y-114565585D01*
X78423567Y-114693343D01*
X78522991Y-114744002D01*
X78634003Y-114800566D01*
X78634005Y-114800566D01*
X78634008Y-114800568D01*
X78754412Y-114839689D01*
X78858631Y-114873553D01*
X79091903Y-114910500D01*
X79091908Y-114910500D01*
X79328097Y-114910500D01*
X79561368Y-114873553D01*
X79785992Y-114800568D01*
X79996433Y-114693343D01*
X80187510Y-114554517D01*
X80354517Y-114387510D01*
X80359682Y-114380401D01*
X80415012Y-114337735D01*
X80484625Y-114331756D01*
X80546420Y-114364362D01*
X80560318Y-114380401D01*
X80565483Y-114387510D01*
X80732490Y-114554517D01*
X80923567Y-114693343D01*
X81022991Y-114744002D01*
X81134003Y-114800566D01*
X81134005Y-114800566D01*
X81134008Y-114800568D01*
X81254412Y-114839689D01*
X81358631Y-114873553D01*
X81591903Y-114910500D01*
X81591908Y-114910500D01*
X81828097Y-114910500D01*
X82061368Y-114873553D01*
X82285992Y-114800568D01*
X82496433Y-114693343D01*
X82687510Y-114554517D01*
X82854517Y-114387510D01*
X82859682Y-114380401D01*
X82915012Y-114337735D01*
X82984625Y-114331756D01*
X83046420Y-114364362D01*
X83060318Y-114380401D01*
X83065483Y-114387510D01*
X83232490Y-114554517D01*
X83423567Y-114693343D01*
X83522991Y-114744002D01*
X83634003Y-114800566D01*
X83634005Y-114800566D01*
X83634008Y-114800568D01*
X83754412Y-114839689D01*
X83858631Y-114873553D01*
X84091903Y-114910500D01*
X84091908Y-114910500D01*
X84328097Y-114910500D01*
X84561368Y-114873553D01*
X84785992Y-114800568D01*
X84996433Y-114693343D01*
X85187510Y-114554517D01*
X85354517Y-114387510D01*
X85493343Y-114196433D01*
X85600568Y-113985992D01*
X85673553Y-113761368D01*
X85676605Y-113742100D01*
X85706536Y-113678966D01*
X85765848Y-113642036D01*
X85799078Y-113637500D01*
X93862752Y-113637500D01*
X93862753Y-113637500D01*
X93946368Y-113602865D01*
X96514914Y-111034317D01*
X96576237Y-111000833D01*
X96602595Y-110997999D01*
X97327871Y-110997999D01*
X97327872Y-110997999D01*
X97387483Y-110991591D01*
X97522331Y-110941296D01*
X97637546Y-110855046D01*
X97666535Y-110816321D01*
X97722467Y-110774452D01*
X97792158Y-110769468D01*
X97838686Y-110790316D01*
X97874856Y-110816595D01*
X98050162Y-110905918D01*
X98237283Y-110966718D01*
X98280000Y-110973484D01*
X98280000Y-109563186D01*
X98284394Y-109567580D01*
X98375606Y-109620241D01*
X98477339Y-109647500D01*
X98582661Y-109647500D01*
X98684394Y-109620241D01*
X98775606Y-109567580D01*
X98780000Y-109563186D01*
X98780000Y-110973483D01*
X98822716Y-110966718D01*
X99009837Y-110905918D01*
X99185143Y-110816595D01*
X99344321Y-110700944D01*
X99344322Y-110700943D01*
X99441965Y-110603301D01*
X99503288Y-110569816D01*
X99572980Y-110574800D01*
X99617327Y-110603301D01*
X99715354Y-110701328D01*
X99874595Y-110817024D01*
X99940429Y-110850568D01*
X100049970Y-110906382D01*
X100049972Y-110906382D01*
X100049975Y-110906384D01*
X100150317Y-110938987D01*
X100237173Y-110967209D01*
X100431578Y-110998000D01*
X100431583Y-110998000D01*
X100628422Y-110998000D01*
X100822826Y-110967209D01*
X100902574Y-110941297D01*
X101010025Y-110906384D01*
X101185405Y-110817024D01*
X101185409Y-110817020D01*
X101189087Y-110815147D01*
X101257756Y-110802251D01*
X101322497Y-110828527D01*
X101345699Y-110852745D01*
X101409207Y-110940156D01*
X101409209Y-110940158D01*
X101587345Y-111118294D01*
X101587350Y-111118298D01*
X101765117Y-111247452D01*
X101791155Y-111266370D01*
X101894222Y-111318885D01*
X102015616Y-111380739D01*
X102015618Y-111380739D01*
X102015621Y-111380741D01*
X102255215Y-111458590D01*
X102504038Y-111498000D01*
X102504039Y-111498000D01*
X102755961Y-111498000D01*
X102755962Y-111498000D01*
X103004785Y-111458590D01*
X103244379Y-111380741D01*
X103468845Y-111266370D01*
X103672656Y-111118293D01*
X103850793Y-110940156D01*
X103998870Y-110736345D01*
X104113241Y-110511879D01*
X104191090Y-110272285D01*
X104230500Y-110023462D01*
X104230500Y-108471538D01*
X104191090Y-108222715D01*
X104113241Y-107983121D01*
X104113239Y-107983118D01*
X104113239Y-107983116D01*
X104065802Y-107890017D01*
X103998870Y-107758655D01*
X103945298Y-107684919D01*
X103850798Y-107554850D01*
X103850794Y-107554845D01*
X103672654Y-107376705D01*
X103672649Y-107376701D01*
X103468848Y-107228632D01*
X103468847Y-107228631D01*
X103468845Y-107228630D01*
X103398747Y-107192913D01*
X103244383Y-107114260D01*
X103004785Y-107036410D01*
X102755962Y-106997000D01*
X102504038Y-106997000D01*
X102379626Y-107016705D01*
X102255214Y-107036410D01*
X102015616Y-107114260D01*
X101791151Y-107228632D01*
X101587350Y-107376701D01*
X101587345Y-107376705D01*
X101409209Y-107554841D01*
X101409202Y-107554850D01*
X101345699Y-107642253D01*
X101290369Y-107684919D01*
X101220756Y-107690897D01*
X101189087Y-107679852D01*
X101010029Y-107588617D01*
X100822826Y-107527790D01*
X100628422Y-107497000D01*
X100628417Y-107497000D01*
X100431583Y-107497000D01*
X100431578Y-107497000D01*
X100237173Y-107527790D01*
X100049970Y-107588617D01*
X99874594Y-107677976D01*
X99827301Y-107712337D01*
X99715354Y-107793672D01*
X99715352Y-107793674D01*
X99715350Y-107793675D01*
X99617325Y-107891699D01*
X99556002Y-107925183D01*
X99486310Y-107920198D01*
X99441964Y-107891698D01*
X99344321Y-107794055D01*
X99185143Y-107678404D01*
X99009835Y-107589081D01*
X98822705Y-107528278D01*
X98780000Y-107521514D01*
X98780000Y-108931814D01*
X98775606Y-108927420D01*
X98684394Y-108874759D01*
X98582661Y-108847500D01*
X98477339Y-108847500D01*
X98375606Y-108874759D01*
X98284394Y-108927420D01*
X98280000Y-108931814D01*
X98280000Y-107521514D01*
X98279999Y-107521514D01*
X98237294Y-107528278D01*
X98050164Y-107589081D01*
X97874855Y-107678405D01*
X97874848Y-107678410D01*
X97838684Y-107704684D01*
X97772877Y-107728163D01*
X97704824Y-107712337D01*
X97666534Y-107678677D01*
X97639267Y-107642253D01*
X97637546Y-107639954D01*
X97637544Y-107639953D01*
X97637544Y-107639952D01*
X97522335Y-107553706D01*
X97522328Y-107553702D01*
X97387482Y-107503408D01*
X97387483Y-107503408D01*
X97327883Y-107497001D01*
X97327881Y-107497000D01*
X97327873Y-107497000D01*
X97327864Y-107497000D01*
X95732129Y-107497000D01*
X95732123Y-107497001D01*
X95665443Y-107504169D01*
X95596683Y-107491762D01*
X95564509Y-107468560D01*
X95472654Y-107376705D01*
X95472649Y-107376701D01*
X95268848Y-107228632D01*
X95268847Y-107228631D01*
X95268845Y-107228630D01*
X95198747Y-107192913D01*
X95044383Y-107114260D01*
X94804785Y-107036410D01*
X94555962Y-106997000D01*
X94304038Y-106997000D01*
X94179626Y-107016705D01*
X94055214Y-107036410D01*
X93815616Y-107114260D01*
X93591151Y-107228632D01*
X93387350Y-107376701D01*
X93387345Y-107376705D01*
X93209205Y-107554845D01*
X93209201Y-107554850D01*
X93061132Y-107758651D01*
X92946760Y-107983116D01*
X92868910Y-108222714D01*
X92829500Y-108471538D01*
X92829500Y-110023461D01*
X92868910Y-110272285D01*
X92946760Y-110511883D01*
X93025413Y-110666247D01*
X93043286Y-110701325D01*
X93061132Y-110736348D01*
X93209201Y-110940149D01*
X93209205Y-110940154D01*
X93387345Y-111118294D01*
X93387350Y-111118298D01*
X93565117Y-111247452D01*
X93591155Y-111266370D01*
X93694222Y-111318885D01*
X93815616Y-111380739D01*
X93815618Y-111380739D01*
X93815621Y-111380741D01*
X94055215Y-111458590D01*
X94304038Y-111498000D01*
X94304039Y-111498000D01*
X94555961Y-111498000D01*
X94555962Y-111498000D01*
X94804785Y-111458590D01*
X95044379Y-111380741D01*
X95268845Y-111266370D01*
X95349242Y-111207957D01*
X95415048Y-111184477D01*
X95483102Y-111200302D01*
X95531797Y-111250407D01*
X95545673Y-111318885D01*
X95520325Y-111383994D01*
X95509809Y-111395956D01*
X93759586Y-113146181D01*
X93698263Y-113179666D01*
X93671905Y-113182500D01*
X85799078Y-113182500D01*
X85732039Y-113162815D01*
X85686284Y-113110011D01*
X85676605Y-113077900D01*
X85673553Y-113058633D01*
X85673553Y-113058632D01*
X85600568Y-112834008D01*
X85493343Y-112623567D01*
X85354517Y-112432490D01*
X85187510Y-112265483D01*
X84996433Y-112126657D01*
X84785996Y-112019433D01*
X84561368Y-111946446D01*
X84328097Y-111909500D01*
X84328092Y-111909500D01*
X84091908Y-111909500D01*
X84091903Y-111909500D01*
X83858631Y-111946446D01*
X83634003Y-112019433D01*
X83423566Y-112126657D01*
X83334105Y-112191655D01*
X83232490Y-112265483D01*
X83232488Y-112265485D01*
X83232487Y-112265485D01*
X83065482Y-112432490D01*
X83060315Y-112439603D01*
X83004983Y-112482266D01*
X82935370Y-112488242D01*
X82873576Y-112455634D01*
X82859685Y-112439603D01*
X82854517Y-112432490D01*
X82687512Y-112265485D01*
X82687510Y-112265483D01*
X82496433Y-112126657D01*
X82285996Y-112019433D01*
X82061368Y-111946446D01*
X81828097Y-111909500D01*
X81828092Y-111909500D01*
X81591908Y-111909500D01*
X81591903Y-111909500D01*
X81358631Y-111946446D01*
X81134003Y-112019433D01*
X80923566Y-112126657D01*
X80834105Y-112191655D01*
X80732490Y-112265483D01*
X80732488Y-112265485D01*
X80732487Y-112265485D01*
X80565482Y-112432490D01*
X80560315Y-112439603D01*
X80504983Y-112482266D01*
X80435370Y-112488242D01*
X80373576Y-112455634D01*
X80359685Y-112439603D01*
X80354517Y-112432490D01*
X80187512Y-112265485D01*
X80187510Y-112265483D01*
X79996433Y-112126657D01*
X79785996Y-112019433D01*
X79561368Y-111946446D01*
X79328097Y-111909500D01*
X79328092Y-111909500D01*
X79091908Y-111909500D01*
X79091903Y-111909500D01*
X78858631Y-111946446D01*
X78634003Y-112019433D01*
X78423563Y-112126659D01*
X78247725Y-112254413D01*
X78181919Y-112277893D01*
X78113865Y-112262068D01*
X78069302Y-112219192D01*
X78052319Y-112191659D01*
X78052316Y-112191655D01*
X77928345Y-112067684D01*
X77779124Y-111975643D01*
X77779119Y-111975641D01*
X77612697Y-111920494D01*
X77612690Y-111920493D01*
X77509986Y-111910000D01*
X76960000Y-111910000D01*
X76960000Y-112976988D01*
X76902993Y-112944075D01*
X76775826Y-112910000D01*
X76644174Y-112910000D01*
X76517007Y-112944075D01*
X76460000Y-112976988D01*
X76460000Y-111910000D01*
X75910028Y-111910000D01*
X75910012Y-111910001D01*
X75807302Y-111920494D01*
X75640880Y-111975641D01*
X75640875Y-111975643D01*
X75491654Y-112067684D01*
X75367683Y-112191655D01*
X75367680Y-112191659D01*
X75350696Y-112219194D01*
X75298747Y-112265918D01*
X75229784Y-112277138D01*
X75172273Y-112254413D01*
X75123798Y-112219194D01*
X74996433Y-112126657D01*
X74785996Y-112019433D01*
X74561368Y-111946446D01*
X74328097Y-111909500D01*
X74328092Y-111909500D01*
X74091908Y-111909500D01*
X74091903Y-111909500D01*
X73858631Y-111946446D01*
X73634003Y-112019433D01*
X73423566Y-112126657D01*
X73334105Y-112191655D01*
X73232490Y-112265483D01*
X73232488Y-112265485D01*
X73232487Y-112265485D01*
X73065482Y-112432490D01*
X73060315Y-112439603D01*
X73004983Y-112482266D01*
X72935370Y-112488242D01*
X72873576Y-112455634D01*
X72859685Y-112439603D01*
X72854517Y-112432490D01*
X72687512Y-112265485D01*
X72687510Y-112265483D01*
X72496433Y-112126657D01*
X72285996Y-112019433D01*
X72061368Y-111946446D01*
X71828097Y-111909500D01*
X71828092Y-111909500D01*
X71591908Y-111909500D01*
X71591903Y-111909500D01*
X71358631Y-111946446D01*
X71134003Y-112019433D01*
X70923566Y-112126657D01*
X70834105Y-112191655D01*
X70732490Y-112265483D01*
X70732488Y-112265485D01*
X70732487Y-112265485D01*
X70565482Y-112432490D01*
X70560315Y-112439603D01*
X70504983Y-112482266D01*
X70435370Y-112488242D01*
X70373576Y-112455634D01*
X70359685Y-112439603D01*
X70354517Y-112432490D01*
X70187512Y-112265485D01*
X70187510Y-112265483D01*
X69996433Y-112126657D01*
X69785996Y-112019433D01*
X69561368Y-111946446D01*
X69328097Y-111909500D01*
X69328092Y-111909500D01*
X69091908Y-111909500D01*
X69091903Y-111909500D01*
X68858631Y-111946446D01*
X68634003Y-112019433D01*
X68423566Y-112126657D01*
X68334105Y-112191655D01*
X68232490Y-112265483D01*
X68232488Y-112265485D01*
X68232487Y-112265485D01*
X68065482Y-112432490D01*
X68060315Y-112439603D01*
X68004983Y-112482266D01*
X67935370Y-112488242D01*
X67873576Y-112455634D01*
X67859685Y-112439603D01*
X67854517Y-112432490D01*
X67687512Y-112265485D01*
X67687510Y-112265483D01*
X67496433Y-112126657D01*
X67285996Y-112019433D01*
X67061368Y-111946446D01*
X66828097Y-111909500D01*
X66828092Y-111909500D01*
X66591908Y-111909500D01*
X66591903Y-111909500D01*
X66358631Y-111946446D01*
X66134003Y-112019433D01*
X65923566Y-112126657D01*
X65834105Y-112191655D01*
X65732490Y-112265483D01*
X65732488Y-112265485D01*
X65732487Y-112265485D01*
X65565485Y-112432487D01*
X65565485Y-112432488D01*
X65565483Y-112432490D01*
X65548668Y-112455634D01*
X65426657Y-112623566D01*
X65319433Y-112834003D01*
X65246446Y-113058631D01*
X65209500Y-113291902D01*
X60400500Y-113291902D01*
X60400500Y-91602561D01*
X60400606Y-91597437D01*
X60409054Y-91393178D01*
X60415815Y-91229716D01*
X60416177Y-91224098D01*
X60423531Y-91140031D01*
X60424003Y-91135582D01*
X60464218Y-90812959D01*
X60465138Y-90806842D01*
X60479003Y-90728210D01*
X60479732Y-90724428D01*
X60547553Y-90400974D01*
X60549123Y-90394394D01*
X60567614Y-90325385D01*
X60568500Y-90322251D01*
X60665389Y-89996810D01*
X60667685Y-89989862D01*
X60687331Y-89935886D01*
X60688276Y-89933380D01*
X60816976Y-89603551D01*
X60820079Y-89596292D01*
X60834634Y-89565080D01*
X60835415Y-89563445D01*
X61000823Y-89225097D01*
X61005690Y-89216105D01*
X61211972Y-88869919D01*
X61217565Y-88861359D01*
X61451723Y-88533400D01*
X61457992Y-88525346D01*
X61718443Y-88217832D01*
X61725362Y-88210316D01*
X62010316Y-87925362D01*
X62017832Y-87918443D01*
X62325346Y-87657992D01*
X62333400Y-87651723D01*
X62661359Y-87417565D01*
X62669919Y-87411972D01*
X63016116Y-87205683D01*
X63025097Y-87200823D01*
X63363445Y-87035415D01*
X63365080Y-87034634D01*
X63396292Y-87020079D01*
X63403551Y-87016976D01*
X63733380Y-86888276D01*
X63735886Y-86887331D01*
X63789862Y-86867685D01*
X63796810Y-86865389D01*
X64122251Y-86768500D01*
X64125385Y-86767614D01*
X64194394Y-86749123D01*
X64200974Y-86747553D01*
X64524428Y-86679732D01*
X64528210Y-86679003D01*
X64606842Y-86665138D01*
X64612959Y-86664218D01*
X64935582Y-86624003D01*
X64940031Y-86623531D01*
X65024098Y-86616177D01*
X65029716Y-86615815D01*
X65397437Y-86600605D01*
X65402561Y-86600500D01*
X146197439Y-86600500D01*
X146202562Y-86600605D01*
G37*
%TD.AperFunction*%
%TD*%
M02*
