%TF.GenerationSoftware,KiCad,Pcbnew,10.0.0*%
%TF.CreationDate,2026-03-30T21:40:44-07:00*%
%TF.ProjectId,pcb,7063622e-6b69-4636-9164-5f7063625858,rev?*%
%TF.SameCoordinates,Original*%
%TF.FileFunction,Soldermask,Top*%
%TF.FilePolarity,Negative*%
%FSLAX46Y46*%
G04 Gerber Fmt 4.6, Leading zero omitted, Abs format (unit mm)*
G04 Created by KiCad (PCBNEW 10.0.0) date 2026-03-30 21:40:44*
%MOMM*%
%LPD*%
G01*
G04 APERTURE LIST*
G04 Aperture macros list*
%AMRoundRect*
0 Rectangle with rounded corners*
0 $1 Rounding radius*
0 $2 $3 $4 $5 $6 $7 $8 $9 X,Y pos of 4 corners*
0 Add a 4 corners polygon primitive as box body*
4,1,4,$2,$3,$4,$5,$6,$7,$8,$9,$2,$3,0*
0 Add four circle primitives for the rounded corners*
1,1,$1+$1,$2,$3*
1,1,$1+$1,$4,$5*
1,1,$1+$1,$6,$7*
1,1,$1+$1,$8,$9*
0 Add four rect primitives between the rounded corners*
20,1,$1+$1,$2,$3,$4,$5,0*
20,1,$1+$1,$4,$5,$6,$7,0*
20,1,$1+$1,$6,$7,$8,$9,0*
20,1,$1+$1,$8,$9,$2,$3,0*%
G04 Aperture macros list end*
%ADD10C,1.397000*%
%ADD11C,2.000000*%
%ADD12RoundRect,0.250000X-0.750000X-0.750000X0.750000X-0.750000X0.750000X0.750000X-0.750000X0.750000X0*%
%ADD13C,0.800000*%
%ADD14C,6.400000*%
%ADD15RoundRect,0.300000X-0.700000X-0.700000X0.700000X-0.700000X0.700000X0.700000X-0.700000X0.700000X0*%
%ADD16O,2.200000X3.500000*%
%ADD17R,1.500000X2.500000*%
%ADD18O,1.500000X2.500000*%
%ADD19RoundRect,0.500000X0.875000X0.500000X-0.875000X0.500000X-0.875000X-0.500000X0.875000X-0.500000X0*%
G04 APERTURE END LIST*
D10*
%TO.C,SW3*%
X116190000Y-132460000D03*
X123810000Y-132460000D03*
X116190000Y-137540000D03*
X123810000Y-137540000D03*
%TD*%
D11*
%TO.C,powerboost1*%
X70000000Y-99245000D03*
D12*
X72500000Y-99245000D03*
D11*
X75000000Y-99245000D03*
X77500000Y-99245000D03*
D12*
X80000000Y-99245000D03*
D11*
X82500000Y-99245000D03*
D12*
X85000000Y-99245000D03*
D11*
X87500000Y-99245000D03*
%TD*%
D13*
%TO.C,H2*%
X143800000Y-145200000D03*
X144502944Y-143502944D03*
X144502944Y-146897056D03*
X146200000Y-142800000D03*
D14*
X146200000Y-145200000D03*
D13*
X146200000Y-147600000D03*
X147897056Y-143502944D03*
X147897056Y-146897056D03*
X148600000Y-145200000D03*
%TD*%
D11*
%TO.C,SSD1306*%
X116250000Y-103900000D03*
D15*
X118750000Y-103900000D03*
D11*
X121250000Y-103900000D03*
X123750000Y-103900000D03*
%TD*%
D13*
%TO.C,H1*%
X63000000Y-91600000D03*
X63702944Y-89902944D03*
X63702944Y-93297056D03*
X65400000Y-89200000D03*
D14*
X65400000Y-91600000D03*
D13*
X65400000Y-94000000D03*
X67097056Y-89902944D03*
X67097056Y-93297056D03*
X67800000Y-91600000D03*
%TD*%
%TO.C,H4*%
X63000000Y-145200000D03*
X63702944Y-143502944D03*
X63702944Y-146897056D03*
X65400000Y-142800000D03*
D14*
X65400000Y-145200000D03*
D13*
X65400000Y-147600000D03*
X67097056Y-143502944D03*
X67097056Y-146897056D03*
X67800000Y-145200000D03*
%TD*%
D10*
%TO.C,SW2*%
X138690000Y-119960000D03*
X146310000Y-119960000D03*
X138690000Y-125040000D03*
X146310000Y-125040000D03*
%TD*%
D16*
%TO.C,SW4*%
X88900000Y-125000000D03*
X97100000Y-125000000D03*
D17*
X91000000Y-125000000D03*
D18*
X93000000Y-125000000D03*
X95000000Y-125000000D03*
%TD*%
D13*
%TO.C,H3*%
X143800000Y-91600000D03*
X144502944Y-89902944D03*
X144502944Y-93297056D03*
X146200000Y-89200000D03*
D14*
X146200000Y-91600000D03*
D13*
X146200000Y-94000000D03*
X147897056Y-89902944D03*
X147897056Y-93297056D03*
X148600000Y-91600000D03*
%TD*%
D10*
%TO.C,SW1*%
X138690000Y-104960000D03*
X146310000Y-104960000D03*
X138690000Y-110040000D03*
X146310000Y-110040000D03*
%TD*%
D19*
%TO.C,U1*%
X84600000Y-137900000D03*
X84600000Y-135360000D03*
X84600000Y-132820000D03*
X84600000Y-130280000D03*
X84600000Y-127740000D03*
X84600000Y-125200000D03*
X84600000Y-122660000D03*
X68435000Y-122660000D03*
X68435000Y-125200000D03*
X68435000Y-127740000D03*
X68435000Y-130280000D03*
X68435000Y-132820000D03*
X68435000Y-135360000D03*
X68435000Y-137900000D03*
%TD*%
M02*
