M48
; DRILL file KiCad 10.0.0 date 2026-04-07T01:31:40
; FORMAT={-:-/ absolute / metric / decimal}
; #@! TF.CreationDate,2026-04-07T01:31:40-07:00
; #@! TF.GenerationSoftware,Kicad,Pcbnew,10.0.0
; #@! TF.FileFunction,Plated,1,2,PTH
FMAT,2
METRIC
; #@! TA.AperFunction,Plated,PTH,ViaDrill
T1C0.300
; #@! TA.AperFunction,Plated,PTH,ComponentDrill
T2C0.500
; #@! TA.AperFunction,Plated,PTH,ComponentDrill
T3C0.800
; #@! TA.AperFunction,Plated,PTH,ComponentDrill
T4C1.000
; #@! TA.AperFunction,Plated,PTH,ComponentDrill
T5C1.100
; #@! TA.AperFunction,Plated,PTH,ComponentDrill
T6C1.500
; #@! TA.AperFunction,Plated,PTH,ComponentDrill
T7C3.200
%
G90
G05
T1
X73.0Y-129.7
X90.2Y-129.29
X93.97Y-125.2
T2
X63.0Y-91.6
X63.0Y-145.2
X63.703Y-89.903
X63.703Y-93.297
X63.703Y-143.503
X63.703Y-146.897
X65.4Y-89.2
X65.4Y-94.0
X65.4Y-142.8
X65.4Y-147.6
X67.097Y-89.903
X67.097Y-93.297
X67.097Y-143.503
X67.097Y-146.897
X67.8Y-91.6
X67.8Y-145.2
X143.8Y-91.6
X143.8Y-145.2
X144.503Y-89.903
X144.503Y-93.297
X144.503Y-143.503
X144.503Y-146.897
X146.2Y-89.2
X146.2Y-94.0
X146.2Y-142.8
X146.2Y-147.6
X147.897Y-89.903
X147.897Y-93.297
X147.897Y-143.503
X147.897Y-146.897
X148.6Y-91.6
X148.6Y-145.2
T3
X96.53Y-109.247
X98.53Y-109.247
X100.53Y-109.247
T4
X66.71Y-113.41
X69.21Y-113.41
X71.71Y-113.41
X74.21Y-113.41
X76.71Y-113.41
X79.21Y-113.41
X81.71Y-113.41
X84.21Y-113.41
X116.25Y-103.9
X118.75Y-103.9
X121.25Y-103.9
X123.75Y-103.9
T5
X116.19Y-132.46
X116.19Y-136.96
X122.69Y-132.46
X122.69Y-136.96
X138.69Y-104.96
X138.69Y-109.46
X138.69Y-119.96
X138.69Y-124.46
X145.19Y-104.96
X145.19Y-109.46
X145.19Y-119.96
X145.19Y-124.46
T6
X94.43Y-109.247
X102.63Y-109.247
T7
X65.4Y-91.6
X65.4Y-145.2
X146.2Y-91.6
X146.2Y-145.2
M30
