%TF.GenerationSoftware,KiCad,Pcbnew,10.0.0*%
%TF.CreationDate,2026-04-07T01:31:37-07:00*%
%TF.ProjectId,pcb,7063622e-6b69-4636-9164-5f7063625858,rev?*%
%TF.SameCoordinates,Original*%
%TF.FileFunction,Copper,L1,Top*%
%TF.FilePolarity,Positive*%
%FSLAX46Y46*%
G04 Gerber Fmt 4.6, Leading zero omitted, Abs format (unit mm)*
G04 Created by KiCad (PCBNEW 10.0.0) date 2026-04-07 01:31:37*
%MOMM*%
%LPD*%
G01*
G04 APERTURE LIST*
G04 Aperture macros list*
%AMRoundRect*
0 Rectangle with rounded corners*
0 $1 Rounding radius*
0 $2 $3 $4 $5 $6 $7 $8 $9 X,Y pos of 4 corners*
0 Add a 4 corners polygon primitive as box body*
4,1,4,$2,$3,$4,$5,$6,$7,$8,$9,$2,$3,0*
0 Add four circle primitives for the rounded corners*
1,1,$1+$1,$2,$3*
1,1,$1+$1,$4,$5*
1,1,$1+$1,$6,$7*
1,1,$1+$1,$8,$9*
0 Add four rect primitives between the rounded corners*
20,1,$1+$1,$2,$3,$4,$5,0*
20,1,$1+$1,$4,$5,$6,$7,0*
20,1,$1+$1,$6,$7,$8,$9,0*
20,1,$1+$1,$8,$9,$2,$3,0*%
G04 Aperture macros list end*
%TA.AperFunction,ComponentPad*%
%ADD10O,2.200000X3.500000*%
%TD*%
%TA.AperFunction,ComponentPad*%
%ADD11R,1.500000X2.500000*%
%TD*%
%TA.AperFunction,ComponentPad*%
%ADD12O,1.500000X2.500000*%
%TD*%
%TA.AperFunction,ComponentPad*%
%ADD13C,2.000000*%
%TD*%
%TA.AperFunction,ComponentPad*%
%ADD14RoundRect,0.250000X-0.750000X-0.750000X0.750000X-0.750000X0.750000X0.750000X-0.750000X0.750000X0*%
%TD*%
%TA.AperFunction,ComponentPad*%
%ADD15C,0.800000*%
%TD*%
%TA.AperFunction,ComponentPad*%
%ADD16C,6.400000*%
%TD*%
%TA.AperFunction,SMDPad,CuDef*%
%ADD17RoundRect,0.500000X0.875000X0.500000X-0.875000X0.500000X-0.875000X-0.500000X0.875000X-0.500000X0*%
%TD*%
%TA.AperFunction,ViaPad*%
%ADD18C,0.600000*%
%TD*%
%TA.AperFunction,Conductor*%
%ADD19C,0.200000*%
%TD*%
G04 APERTURE END LIST*
D10*
%TO.P,SW4,*%
%TO.N,*%
X94430000Y-109247500D03*
X102630000Y-109247500D03*
D11*
%TO.P,SW4,1,1_1*%
%TO.N,Net-(adafruitbq1-EN)*%
X96530000Y-109247500D03*
D12*
%TO.P,SW4,2,2_2*%
%TO.N,GND*%
X98530000Y-109247500D03*
%TO.P,SW4,3*%
%TO.N,N/C*%
X100530000Y-109247500D03*
%TD*%
D13*
%TO.P,SSD1306,1,VCC_1*%
%TO.N,Net-(SSD1306-VCC)*%
X116250000Y-103900000D03*
D14*
%TO.P,SSD1306,2,GND_2*%
%TO.N,GND*%
X118750000Y-103900000D03*
D13*
%TO.P,SSD1306,3,SCL_3*%
%TO.N,Net-(SSD1306-SCL)*%
X121250000Y-103900000D03*
%TO.P,SSD1306,4,SDA_4*%
%TO.N,Net-(SSD1306-SDA)*%
X123750000Y-103900000D03*
%TD*%
%TO.P,SW3,1,1_1*%
%TO.N,GND*%
X116190000Y-132460000D03*
X122690000Y-132460000D03*
%TO.P,SW3,2,2_2*%
%TO.N,Net-(U1-PA10_A2_D2)*%
X116190000Y-136960000D03*
X122690000Y-136960000D03*
%TD*%
D15*
%TO.P,H2,1,1_1*%
%TO.N,GND*%
X143800000Y-145200000D03*
X144502944Y-143502944D03*
X144502944Y-146897056D03*
X146200000Y-142800000D03*
D16*
X146200000Y-145200000D03*
D15*
X146200000Y-147600000D03*
X147897056Y-143502944D03*
X147897056Y-146897056D03*
X148600000Y-145200000D03*
%TD*%
D13*
%TO.P,adafruitbq1,1,VIN_1*%
%TO.N,unconnected-(adafruitbq1-VIN-Pad1)*%
X66710000Y-113410000D03*
%TO.P,adafruitbq1,2,VU_2*%
%TO.N,unconnected-(adafruitbq1-VU-Pad2)*%
X69210000Y-113410000D03*
%TO.P,adafruitbq1,3,D-_3*%
%TO.N,unconnected-(adafruitbq1-D--Pad3)*%
X71710000Y-113410000D03*
%TO.P,adafruitbq1,4,D+_4*%
%TO.N,unconnected-(adafruitbq1-D+-Pad4)*%
X74210000Y-113410000D03*
D14*
%TO.P,adafruitbq1,5,GND_5*%
%TO.N,GND*%
X76710000Y-113410000D03*
D13*
%TO.P,adafruitbq1,6,BAT_6*%
%TO.N,unconnected-(adafruitbq1-BAT-Pad6)*%
X79210000Y-113410000D03*
%TO.P,adafruitbq1,7,5V_7*%
%TO.N,Net-(U1-5V)*%
X81710000Y-113410000D03*
%TO.P,adafruitbq1,8,EN_8*%
%TO.N,Net-(adafruitbq1-EN)*%
X84210000Y-113410000D03*
%TD*%
D15*
%TO.P,H1,1,1_1*%
%TO.N,GND*%
X63000000Y-91600000D03*
X63702944Y-89902944D03*
X63702944Y-93297056D03*
X65400000Y-89200000D03*
D16*
X65400000Y-91600000D03*
D15*
X65400000Y-94000000D03*
X67097056Y-89902944D03*
X67097056Y-93297056D03*
X67800000Y-91600000D03*
%TD*%
%TO.P,H4,1,1_1*%
%TO.N,GND*%
X63000000Y-145200000D03*
X63702944Y-143502944D03*
X63702944Y-146897056D03*
X65400000Y-142800000D03*
D16*
X65400000Y-145200000D03*
D15*
X65400000Y-147600000D03*
X67097056Y-143502944D03*
X67097056Y-146897056D03*
X67800000Y-145200000D03*
%TD*%
D13*
%TO.P,SW2,1,1_1*%
%TO.N,GND*%
X138690000Y-119960000D03*
X145190000Y-119960000D03*
%TO.P,SW2,2,2_2*%
%TO.N,Net-(U1-PA4_A1_D1)*%
X138690000Y-124460000D03*
X145190000Y-124460000D03*
%TD*%
D15*
%TO.P,H3,1,1_1*%
%TO.N,GND*%
X143800000Y-91600000D03*
X144502944Y-89902944D03*
X144502944Y-93297056D03*
X146200000Y-89200000D03*
D16*
X146200000Y-91600000D03*
D15*
X146200000Y-94000000D03*
X147897056Y-89902944D03*
X147897056Y-93297056D03*
X148600000Y-91600000D03*
%TD*%
D13*
%TO.P,SW1,1,1_1*%
%TO.N,GND*%
X138690000Y-104960000D03*
X145190000Y-104960000D03*
%TO.P,SW1,2,2_2*%
%TO.N,Net-(U1-PA02_A0_D0)*%
X138690000Y-109460000D03*
X145190000Y-109460000D03*
%TD*%
D17*
%TO.P,U1,1,PA02_A0_D0_1*%
%TO.N,Net-(U1-PA02_A0_D0)*%
X84600000Y-137900000D03*
%TO.P,U1,2,PA4_A1_D1_2*%
%TO.N,Net-(U1-PA4_A1_D1)*%
X84600000Y-135360000D03*
%TO.P,U1,3,PA10_A2_D2_3*%
%TO.N,Net-(U1-PA10_A2_D2)*%
X84600000Y-132820000D03*
%TO.P,U1,4,PA11_A3_D3_4*%
%TO.N,unconnected-(U1-PA11_A3_D3-Pad4)*%
X84600000Y-130280000D03*
%TO.P,U1,5,PA8_A4_D4_SDA_5*%
%TO.N,Net-(SSD1306-SDA)*%
X84600000Y-127740000D03*
%TO.P,U1,6,PA9_A5_D5_SCL_6*%
%TO.N,Net-(SSD1306-SCL)*%
X84600000Y-125200000D03*
%TO.P,U1,7,PB08_A6_D6_TX_7*%
%TO.N,unconnected-(U1-PB08_A6_D6_TX-Pad7)*%
X84600000Y-122660000D03*
%TO.P,U1,8,PB09_A7_D7_RX_8*%
%TO.N,unconnected-(U1-PB09_A7_D7_RX-Pad8)*%
X68435000Y-122660000D03*
%TO.P,U1,9,PA7_A8_D8_SCK_9*%
%TO.N,unconnected-(U1-PA7_A8_D8_SCK-Pad9)*%
X68435000Y-125200000D03*
%TO.P,U1,10,PA5_A9_D9_MISO_10*%
%TO.N,unconnected-(U1-PA5_A9_D9_MISO-Pad10)*%
X68435000Y-127740000D03*
%TO.P,U1,11,PA6_A10_D10_MOSI_11*%
%TO.N,unconnected-(U1-PA6_A10_D10_MOSI-Pad11)*%
X68435000Y-130280000D03*
%TO.P,U1,12,3v3_12*%
%TO.N,Net-(SSD1306-VCC)*%
X68435000Y-132820000D03*
%TO.P,U1,13,GND_13*%
%TO.N,GND*%
X68435000Y-135360000D03*
%TO.P,U1,14,5V_14*%
%TO.N,Net-(U1-5V)*%
X68435000Y-137900000D03*
%TD*%
D18*
%TO.N,Net-(SSD1306-VCC)*%
X73000000Y-129700000D03*
%TO.N,Net-(SSD1306-SCL)*%
X93970000Y-125200000D03*
%TO.N,Net-(SSD1306-SDA)*%
X90200000Y-129290000D03*
%TD*%
%TO.N,Net-(U1-PA10_A2_D2)*%
D19*
X112050000Y-132820000D02*
X84600000Y-132820000D01*
X116190000Y-136960000D02*
X112050000Y-132820000D01*
X122690000Y-136960000D02*
X116190000Y-136960000D01*
%TO.N,Net-(SSD1306-SCL)*%
X93970000Y-125200000D02*
X84600000Y-125200000D01*
%TO.N,Net-(SSD1306-SDA)*%
X123840000Y-103990000D02*
X123750000Y-103900000D01*
X84600000Y-127740000D02*
X88650000Y-127740000D01*
X88650000Y-127740000D02*
X90200000Y-129290000D01*
%TO.N,Net-(U1-5V)*%
X76850000Y-118270000D02*
X66180000Y-118270000D01*
X66990000Y-137900000D02*
X65620000Y-136530000D01*
X68435000Y-137900000D02*
X66990000Y-137900000D01*
X65620000Y-118830000D02*
X66180000Y-118270000D01*
X81710000Y-113410000D02*
X76850000Y-118270000D01*
X65620000Y-136530000D02*
X65620000Y-118830000D01*
%TO.N,Net-(U1-PA4_A1_D1)*%
X90225000Y-140985000D02*
X84600000Y-135360000D01*
X145190000Y-124460000D02*
X138690000Y-124460000D01*
X130365000Y-140985000D02*
X138690000Y-132660000D01*
X138690000Y-124460000D02*
X138690000Y-132660000D01*
X130365000Y-140985000D02*
X90225000Y-140985000D01*
%TO.N,Net-(U1-PA02_A0_D0)*%
X148590000Y-111090000D02*
X148590000Y-126610000D01*
X138690000Y-109460000D02*
X145190000Y-109460000D01*
X145190000Y-109460000D02*
X146820000Y-111090000D01*
X148590000Y-126610000D02*
X131675000Y-143525000D01*
X131675000Y-143525000D02*
X90225000Y-143525000D01*
X146820000Y-111090000D02*
X148590000Y-111090000D01*
X90225000Y-143525000D02*
X84600000Y-137900000D01*
%TO.N,Net-(SSD1306-VCC)*%
X73000000Y-129700000D02*
X69880000Y-132820000D01*
X69880000Y-132820000D02*
X68435000Y-132820000D01*
%TD*%
%TA.AperFunction,Conductor*%
%TO.N,GND*%
G36*
X146202562Y-86600605D02*
G01*
X146570277Y-86615814D01*
X146575906Y-86616177D01*
X146659930Y-86623528D01*
X146668767Y-86626985D01*
X146986065Y-86664100D01*
X146993172Y-86665141D01*
X147071766Y-86678999D01*
X147075594Y-86679737D01*
X147399008Y-86747549D01*
X147405622Y-86749128D01*
X147474576Y-86767604D01*
X147477787Y-86768512D01*
X147803169Y-86865383D01*
X147810157Y-86867692D01*
X147864056Y-86887310D01*
X147866678Y-86888299D01*
X148196425Y-87016967D01*
X148203729Y-87020089D01*
X148234837Y-87034595D01*
X148236641Y-87035458D01*
X148574902Y-87200823D01*
X148583883Y-87205683D01*
X148912999Y-87401794D01*
X148930070Y-87411966D01*
X148938649Y-87417572D01*
X149266587Y-87651714D01*
X149274669Y-87658005D01*
X149582155Y-87918433D01*
X149589695Y-87925374D01*
X149874625Y-88210304D01*
X149881566Y-88217844D01*
X150141994Y-88525330D01*
X150148289Y-88533418D01*
X150382427Y-88861350D01*
X150388033Y-88869929D01*
X150594309Y-89216105D01*
X150599186Y-89225119D01*
X150764467Y-89563206D01*
X150765450Y-89565262D01*
X150779902Y-89596255D01*
X150783036Y-89603584D01*
X150911691Y-89933300D01*
X150912696Y-89935964D01*
X150932299Y-89989822D01*
X150934622Y-89996851D01*
X151031475Y-90322173D01*
X151032405Y-90325462D01*
X151050867Y-90394364D01*
X151052453Y-90401010D01*
X151120250Y-90724350D01*
X151121005Y-90728265D01*
X151134854Y-90806807D01*
X151135786Y-90813001D01*
X151175990Y-91135538D01*
X151176470Y-91140069D01*
X151183819Y-91224067D01*
X151184185Y-91229749D01*
X151199394Y-91597437D01*
X151199500Y-91602562D01*
X151199500Y-145197437D01*
X151199394Y-145202562D01*
X151184185Y-145570249D01*
X151183819Y-145575931D01*
X151176470Y-145659929D01*
X151175990Y-145664460D01*
X151135786Y-145986997D01*
X151134854Y-145993191D01*
X151121005Y-146071733D01*
X151120250Y-146075648D01*
X151052453Y-146398988D01*
X151050867Y-146405634D01*
X151032405Y-146474536D01*
X151031475Y-146477825D01*
X150934622Y-146803147D01*
X150932299Y-146810176D01*
X150912696Y-146864034D01*
X150911691Y-146866698D01*
X150783036Y-147196414D01*
X150779902Y-147203743D01*
X150765471Y-147234691D01*
X150764489Y-147236747D01*
X150599182Y-147574889D01*
X150594304Y-147583903D01*
X150388033Y-147930070D01*
X150382427Y-147938649D01*
X150148289Y-148266581D01*
X150141994Y-148274669D01*
X149881566Y-148582155D01*
X149874625Y-148589695D01*
X149589695Y-148874625D01*
X149582155Y-148881566D01*
X149274669Y-149141994D01*
X149266581Y-149148289D01*
X148938649Y-149382427D01*
X148930070Y-149388033D01*
X148583903Y-149594304D01*
X148574889Y-149599182D01*
X148236747Y-149764489D01*
X148234691Y-149765471D01*
X148203743Y-149779902D01*
X148196414Y-149783036D01*
X147866698Y-149911691D01*
X147864034Y-149912696D01*
X147810176Y-149932299D01*
X147803147Y-149934622D01*
X147477825Y-150031475D01*
X147474536Y-150032405D01*
X147405634Y-150050867D01*
X147398988Y-150052453D01*
X147075648Y-150120250D01*
X147071733Y-150121005D01*
X146993191Y-150134854D01*
X146986997Y-150135786D01*
X146664460Y-150175990D01*
X146659929Y-150176470D01*
X146575931Y-150183819D01*
X146570249Y-150184185D01*
X146202563Y-150199394D01*
X146197438Y-150199500D01*
X65402562Y-150199500D01*
X65397437Y-150199394D01*
X65029749Y-150184185D01*
X65024067Y-150183819D01*
X64940069Y-150176470D01*
X64935538Y-150175990D01*
X64613001Y-150135786D01*
X64606807Y-150134854D01*
X64528265Y-150121005D01*
X64524350Y-150120250D01*
X64201010Y-150052453D01*
X64194364Y-150050867D01*
X64125462Y-150032405D01*
X64122173Y-150031475D01*
X63796851Y-149934622D01*
X63789822Y-149932299D01*
X63735964Y-149912696D01*
X63733300Y-149911691D01*
X63403584Y-149783036D01*
X63396255Y-149779902D01*
X63365262Y-149765450D01*
X63363206Y-149764467D01*
X63025119Y-149599186D01*
X63016105Y-149594309D01*
X62669929Y-149388033D01*
X62661350Y-149382427D01*
X62333418Y-149148289D01*
X62325330Y-149141994D01*
X62017844Y-148881566D01*
X62010304Y-148874625D01*
X61725374Y-148589695D01*
X61718433Y-148582155D01*
X61458005Y-148274669D01*
X61451710Y-148266581D01*
X61217572Y-147938649D01*
X61211966Y-147930070D01*
X61201794Y-147912999D01*
X61005683Y-147583883D01*
X61000817Y-147574889D01*
X60835458Y-147236641D01*
X60834595Y-147234837D01*
X60820089Y-147203729D01*
X60816962Y-147196414D01*
X60688307Y-146866698D01*
X60687302Y-146864034D01*
X60667692Y-146810157D01*
X60665383Y-146803169D01*
X60568512Y-146477787D01*
X60567604Y-146474576D01*
X60549128Y-146405622D01*
X60547549Y-146399008D01*
X60479737Y-146075594D01*
X60478999Y-146071766D01*
X60465140Y-145993169D01*
X60464216Y-145987028D01*
X60424004Y-145664429D01*
X60423530Y-145659956D01*
X60416177Y-145575906D01*
X60415814Y-145570277D01*
X60400606Y-145202562D01*
X60400500Y-145197438D01*
X60400500Y-113291902D01*
X65209500Y-113291902D01*
X65209500Y-113528097D01*
X65246446Y-113761368D01*
X65319433Y-113985996D01*
X65426657Y-114196433D01*
X65565483Y-114387510D01*
X65732490Y-114554517D01*
X65923567Y-114693343D01*
X66022991Y-114744002D01*
X66134003Y-114800566D01*
X66134005Y-114800566D01*
X66134008Y-114800568D01*
X66254412Y-114839689D01*
X66358631Y-114873553D01*
X66591903Y-114910500D01*
X66591908Y-114910500D01*
X66828097Y-114910500D01*
X67061368Y-114873553D01*
X67114513Y-114856285D01*
X67285992Y-114800568D01*
X67496433Y-114693343D01*
X67687510Y-114554517D01*
X67854517Y-114387510D01*
X67859682Y-114380401D01*
X67915012Y-114337735D01*
X67984625Y-114331756D01*
X68046420Y-114364362D01*
X68060318Y-114380401D01*
X68065483Y-114387510D01*
X68232490Y-114554517D01*
X68423567Y-114693343D01*
X68522991Y-114744002D01*
X68634003Y-114800566D01*
X68634005Y-114800566D01*
X68634008Y-114800568D01*
X68754412Y-114839689D01*
X68858631Y-114873553D01*
X69091903Y-114910500D01*
X69091908Y-114910500D01*
X69328097Y-114910500D01*
X69561368Y-114873553D01*
X69614513Y-114856285D01*
X69785992Y-114800568D01*
X69996433Y-114693343D01*
X70187510Y-114554517D01*
X70354517Y-114387510D01*
X70359682Y-114380401D01*
X70415012Y-114337735D01*
X70484625Y-114331756D01*
X70546420Y-114364362D01*
X70560318Y-114380401D01*
X70565483Y-114387510D01*
X70732490Y-114554517D01*
X70923567Y-114693343D01*
X71022991Y-114744002D01*
X71134003Y-114800566D01*
X71134005Y-114800566D01*
X71134008Y-114800568D01*
X71254412Y-114839689D01*
X71358631Y-114873553D01*
X71591903Y-114910500D01*
X71591908Y-114910500D01*
X71828097Y-114910500D01*
X72061368Y-114873553D01*
X72114513Y-114856285D01*
X72285992Y-114800568D01*
X72496433Y-114693343D01*
X72687510Y-114554517D01*
X72854517Y-114387510D01*
X72859682Y-114380401D01*
X72915012Y-114337735D01*
X72984625Y-114331756D01*
X73046420Y-114364362D01*
X73060318Y-114380401D01*
X73065483Y-114387510D01*
X73232490Y-114554517D01*
X73423567Y-114693343D01*
X73522991Y-114744002D01*
X73634003Y-114800566D01*
X73634005Y-114800566D01*
X73634008Y-114800568D01*
X73754412Y-114839689D01*
X73858631Y-114873553D01*
X74091903Y-114910500D01*
X74091908Y-114910500D01*
X74328097Y-114910500D01*
X74561368Y-114873553D01*
X74614513Y-114856285D01*
X74785992Y-114800568D01*
X74996433Y-114693343D01*
X75172276Y-114565584D01*
X75238079Y-114542106D01*
X75306133Y-114557931D01*
X75350697Y-114600806D01*
X75367682Y-114628343D01*
X75491654Y-114752315D01*
X75640875Y-114844356D01*
X75640880Y-114844358D01*
X75807302Y-114899505D01*
X75807309Y-114899506D01*
X75910019Y-114909999D01*
X76459999Y-114909999D01*
X76460000Y-114909998D01*
X76460000Y-113843012D01*
X76517007Y-113875925D01*
X76644174Y-113910000D01*
X76775826Y-113910000D01*
X76902993Y-113875925D01*
X76960000Y-113843012D01*
X76960000Y-114909999D01*
X77509972Y-114909999D01*
X77509986Y-114909998D01*
X77612697Y-114899505D01*
X77779119Y-114844358D01*
X77779124Y-114844356D01*
X77928345Y-114752315D01*
X78052317Y-114628343D01*
X78069301Y-114600808D01*
X78121248Y-114554083D01*
X78190211Y-114542860D01*
X78247724Y-114565585D01*
X78423567Y-114693343D01*
X78522991Y-114744002D01*
X78634003Y-114800566D01*
X78634005Y-114800566D01*
X78634008Y-114800568D01*
X78754412Y-114839689D01*
X78858631Y-114873553D01*
X79091903Y-114910500D01*
X79091908Y-114910500D01*
X79328097Y-114910500D01*
X79561368Y-114873553D01*
X79608373Y-114858280D01*
X79678214Y-114856285D01*
X79738047Y-114892365D01*
X79768876Y-114955065D01*
X79760912Y-115024480D01*
X79734373Y-115063892D01*
X76792086Y-118006181D01*
X76730763Y-118039666D01*
X76704405Y-118042500D01*
X66134747Y-118042500D01*
X66110257Y-118052644D01*
X66088415Y-118061690D01*
X66051132Y-118077133D01*
X65630768Y-118497499D01*
X65491132Y-118637135D01*
X65427135Y-118701132D01*
X65392500Y-118784747D01*
X65392500Y-136484747D01*
X65392500Y-136575253D01*
X65427135Y-136658868D01*
X65427136Y-136658869D01*
X66523181Y-137754915D01*
X66556666Y-137816238D01*
X66559500Y-137842596D01*
X66559500Y-138458028D01*
X66559501Y-138458034D01*
X66570113Y-138577415D01*
X66626089Y-138773045D01*
X66626090Y-138773048D01*
X66626091Y-138773049D01*
X66720302Y-138953407D01*
X66720304Y-138953409D01*
X66848890Y-139111109D01*
X66906821Y-139158345D01*
X67006593Y-139239698D01*
X67186951Y-139333909D01*
X67382582Y-139389886D01*
X67501963Y-139400500D01*
X69368036Y-139400499D01*
X69487418Y-139389886D01*
X69683049Y-139333909D01*
X69863407Y-139239698D01*
X70021109Y-139111109D01*
X70149698Y-138953407D01*
X70243909Y-138773049D01*
X70299886Y-138577418D01*
X70310500Y-138458037D01*
X70310499Y-137341964D01*
X70299886Y-137222582D01*
X70243909Y-137026951D01*
X70149698Y-136846593D01*
X70036661Y-136707964D01*
X70009552Y-136643568D01*
X70021561Y-136574738D01*
X70036662Y-136551241D01*
X70149278Y-136413130D01*
X70243442Y-136232861D01*
X70299390Y-136037328D01*
X70299391Y-136037325D01*
X70309999Y-135918000D01*
X70310000Y-135917998D01*
X70310000Y-135610000D01*
X66560000Y-135610000D01*
X66560000Y-135918000D01*
X66570608Y-136037325D01*
X66570609Y-136037328D01*
X66626557Y-136232861D01*
X66720721Y-136413129D01*
X66833338Y-136551242D01*
X66860447Y-136615638D01*
X66848438Y-136684468D01*
X66833338Y-136707963D01*
X66720305Y-136846587D01*
X66720300Y-136846595D01*
X66639970Y-137000378D01*
X66591483Y-137050685D01*
X66523496Y-137066792D01*
X66457593Y-137043585D01*
X66442381Y-137030647D01*
X65883819Y-136472085D01*
X65850334Y-136410762D01*
X65847500Y-136384404D01*
X65847500Y-122101966D01*
X66559500Y-122101966D01*
X66559500Y-123218028D01*
X66559501Y-123218036D01*
X66564372Y-123272833D01*
X66570113Y-123337415D01*
X66626089Y-123533045D01*
X66626090Y-123533048D01*
X66626091Y-123533049D01*
X66720302Y-123713407D01*
X66720304Y-123713409D01*
X66833015Y-123851639D01*
X66860124Y-123916036D01*
X66848115Y-123984865D01*
X66833015Y-124008361D01*
X66720304Y-124146590D01*
X66626089Y-124326954D01*
X66596529Y-124430264D01*
X66579264Y-124490606D01*
X66570114Y-124522583D01*
X66570113Y-124522586D01*
X66559500Y-124641966D01*
X66559500Y-125758028D01*
X66559501Y-125758034D01*
X66570113Y-125877415D01*
X66626089Y-126073045D01*
X66626090Y-126073048D01*
X66626091Y-126073049D01*
X66720302Y-126253407D01*
X66720304Y-126253409D01*
X66833015Y-126391639D01*
X66860124Y-126456036D01*
X66848115Y-126524865D01*
X66833015Y-126548361D01*
X66720304Y-126686590D01*
X66626089Y-126866954D01*
X66570114Y-127062583D01*
X66570113Y-127062586D01*
X66559500Y-127181966D01*
X66559500Y-128298028D01*
X66559501Y-128298034D01*
X66570113Y-128417415D01*
X66626089Y-128613045D01*
X66626090Y-128613048D01*
X66626091Y-128613049D01*
X66720302Y-128793407D01*
X66720304Y-128793409D01*
X66833015Y-128931639D01*
X66860124Y-128996036D01*
X66848115Y-129064865D01*
X66833015Y-129088361D01*
X66720304Y-129226590D01*
X66626089Y-129406954D01*
X66570114Y-129602583D01*
X66570113Y-129602586D01*
X66559500Y-129721966D01*
X66559500Y-130838028D01*
X66559501Y-130838034D01*
X66570113Y-130957415D01*
X66626089Y-131153045D01*
X66626090Y-131153047D01*
X66626091Y-131153049D01*
X66720302Y-131333407D01*
X66720304Y-131333409D01*
X66833015Y-131471639D01*
X66860124Y-131536036D01*
X66848115Y-131604865D01*
X66833015Y-131628361D01*
X66720304Y-131766590D01*
X66626089Y-131946954D01*
X66570114Y-132142583D01*
X66570113Y-132142586D01*
X66562607Y-132227016D01*
X66560768Y-132247708D01*
X66559500Y-132261966D01*
X66559500Y-133378028D01*
X66559501Y-133378034D01*
X66570113Y-133497415D01*
X66626089Y-133693045D01*
X66626090Y-133693048D01*
X66626091Y-133693049D01*
X66720302Y-133873407D01*
X66720304Y-133873409D01*
X66833338Y-134012035D01*
X66860447Y-134076432D01*
X66848438Y-134145261D01*
X66833338Y-134168757D01*
X66720721Y-134306870D01*
X66626557Y-134487138D01*
X66570609Y-134682671D01*
X66570608Y-134682674D01*
X66560000Y-134801999D01*
X66560000Y-135110000D01*
X70310000Y-135110000D01*
X70310000Y-134802002D01*
X70309999Y-134801999D01*
X70299391Y-134682674D01*
X70299390Y-134682671D01*
X70243442Y-134487138D01*
X70149278Y-134306870D01*
X70036661Y-134168757D01*
X70009552Y-134104361D01*
X70021561Y-134035531D01*
X70036658Y-134012039D01*
X70149698Y-133873407D01*
X70243909Y-133693049D01*
X70299886Y-133497418D01*
X70310500Y-133378037D01*
X70310499Y-132762593D01*
X70330183Y-132695555D01*
X70346813Y-132674918D01*
X72556238Y-130465493D01*
X72617559Y-130432010D01*
X72687251Y-130436994D01*
X72691296Y-130438585D01*
X72766503Y-130469737D01*
X72921153Y-130500499D01*
X72921156Y-130500500D01*
X72921158Y-130500500D01*
X73078844Y-130500500D01*
X73078845Y-130500499D01*
X73233497Y-130469737D01*
X73379179Y-130409394D01*
X73510289Y-130321789D01*
X73621789Y-130210289D01*
X73709394Y-130079179D01*
X73769737Y-129933497D01*
X73800500Y-129778842D01*
X73800500Y-129621158D01*
X73800500Y-129621155D01*
X73800499Y-129621153D01*
X73796805Y-129602582D01*
X73769737Y-129466503D01*
X73745070Y-129406951D01*
X73709397Y-129320827D01*
X73709390Y-129320814D01*
X73621789Y-129189711D01*
X73621786Y-129189707D01*
X73510292Y-129078213D01*
X73510288Y-129078210D01*
X73379185Y-128990609D01*
X73379172Y-128990602D01*
X73233501Y-128930264D01*
X73233489Y-128930261D01*
X73078845Y-128899500D01*
X73078842Y-128899500D01*
X72921158Y-128899500D01*
X72921155Y-128899500D01*
X72766510Y-128930261D01*
X72766498Y-128930264D01*
X72620827Y-128990602D01*
X72620814Y-128990609D01*
X72489711Y-129078210D01*
X72489707Y-129078213D01*
X72378213Y-129189707D01*
X72378210Y-129189711D01*
X72290609Y-129320814D01*
X72290602Y-129320827D01*
X72230264Y-129466498D01*
X72230261Y-129466510D01*
X72199500Y-129621153D01*
X72199500Y-129778846D01*
X72230261Y-129933489D01*
X72230264Y-129933501D01*
X72261383Y-130008629D01*
X72268852Y-130078098D01*
X72237576Y-130140577D01*
X72234503Y-130143762D01*
X70427617Y-131950648D01*
X70366294Y-131984133D01*
X70296602Y-131979149D01*
X70240669Y-131937277D01*
X70230035Y-131920391D01*
X70149698Y-131766593D01*
X70036983Y-131628359D01*
X70009875Y-131563965D01*
X70021884Y-131495135D01*
X70036981Y-131471642D01*
X70149698Y-131333407D01*
X70243909Y-131153049D01*
X70299886Y-130957418D01*
X70310500Y-130838037D01*
X70310499Y-129721964D01*
X70299886Y-129602582D01*
X70243909Y-129406951D01*
X70149698Y-129226593D01*
X70036983Y-129088359D01*
X70009875Y-129023965D01*
X70021884Y-128955135D01*
X70036981Y-128931642D01*
X70149698Y-128793407D01*
X70243909Y-128613049D01*
X70299886Y-128417418D01*
X70310500Y-128298037D01*
X70310499Y-127181964D01*
X70299886Y-127062582D01*
X70243909Y-126866951D01*
X70149698Y-126686593D01*
X70036983Y-126548359D01*
X70009875Y-126483965D01*
X70021884Y-126415135D01*
X70036981Y-126391642D01*
X70149698Y-126253407D01*
X70243909Y-126073049D01*
X70299886Y-125877418D01*
X70310500Y-125758037D01*
X70310499Y-124641964D01*
X70299886Y-124522582D01*
X70243909Y-124326951D01*
X70149698Y-124146593D01*
X70036983Y-124008359D01*
X70009875Y-123943965D01*
X70021884Y-123875135D01*
X70036981Y-123851642D01*
X70149698Y-123713407D01*
X70243909Y-123533049D01*
X70299886Y-123337418D01*
X70310500Y-123218037D01*
X70310499Y-122101966D01*
X82724500Y-122101966D01*
X82724500Y-123218028D01*
X82724501Y-123218036D01*
X82729372Y-123272833D01*
X82735113Y-123337415D01*
X82791089Y-123533045D01*
X82791090Y-123533048D01*
X82791091Y-123533049D01*
X82885302Y-123713407D01*
X82885304Y-123713409D01*
X82998015Y-123851639D01*
X83025124Y-123916036D01*
X83013115Y-123984865D01*
X82998015Y-124008361D01*
X82885304Y-124146590D01*
X82791089Y-124326954D01*
X82761529Y-124430264D01*
X82744264Y-124490606D01*
X82735114Y-124522583D01*
X82735113Y-124522586D01*
X82724500Y-124641966D01*
X82724500Y-125758028D01*
X82724501Y-125758034D01*
X82735113Y-125877415D01*
X82791089Y-126073045D01*
X82791090Y-126073048D01*
X82791091Y-126073049D01*
X82885302Y-126253407D01*
X82885304Y-126253409D01*
X82998015Y-126391639D01*
X83025124Y-126456036D01*
X83013115Y-126524865D01*
X82998015Y-126548361D01*
X82885304Y-126686590D01*
X82791089Y-126866954D01*
X82735114Y-127062583D01*
X82735113Y-127062586D01*
X82724500Y-127181966D01*
X82724500Y-128298028D01*
X82724501Y-128298034D01*
X82735113Y-128417415D01*
X82791089Y-128613045D01*
X82791090Y-128613048D01*
X82791091Y-128613049D01*
X82885302Y-128793407D01*
X82885304Y-128793409D01*
X82998015Y-128931639D01*
X83025124Y-128996036D01*
X83013115Y-129064865D01*
X82998015Y-129088361D01*
X82885304Y-129226590D01*
X82791089Y-129406954D01*
X82735114Y-129602583D01*
X82735113Y-129602586D01*
X82724500Y-129721966D01*
X82724500Y-130838028D01*
X82724501Y-130838034D01*
X82735113Y-130957415D01*
X82791089Y-131153045D01*
X82791090Y-131153047D01*
X82791091Y-131153049D01*
X82885302Y-131333407D01*
X82885304Y-131333409D01*
X82998015Y-131471639D01*
X83025124Y-131536036D01*
X83013115Y-131604865D01*
X82998015Y-131628361D01*
X82885304Y-131766590D01*
X82791089Y-131946954D01*
X82735114Y-132142583D01*
X82735113Y-132142586D01*
X82727607Y-132227016D01*
X82725768Y-132247708D01*
X82724500Y-132261966D01*
X82724500Y-133378028D01*
X82724501Y-133378034D01*
X82735113Y-133497415D01*
X82791089Y-133693045D01*
X82791090Y-133693048D01*
X82791091Y-133693049D01*
X82885302Y-133873407D01*
X82885304Y-133873409D01*
X82998015Y-134011639D01*
X83025124Y-134076036D01*
X83013115Y-134144865D01*
X82998015Y-134168361D01*
X82885302Y-134306593D01*
X82883582Y-134309886D01*
X82791089Y-134486954D01*
X82735114Y-134682583D01*
X82735113Y-134682586D01*
X82724500Y-134801966D01*
X82724500Y-135918028D01*
X82724501Y-135918034D01*
X82735113Y-136037415D01*
X82791089Y-136233045D01*
X82791090Y-136233048D01*
X82791091Y-136233049D01*
X82885302Y-136413407D01*
X82928260Y-136466091D01*
X82998015Y-136551639D01*
X83025124Y-136616036D01*
X83013115Y-136684865D01*
X82998015Y-136708361D01*
X82885304Y-136846590D01*
X82791089Y-137026954D01*
X82735114Y-137222583D01*
X82735113Y-137222586D01*
X82724500Y-137341966D01*
X82724500Y-138458028D01*
X82724501Y-138458034D01*
X82735113Y-138577415D01*
X82791089Y-138773045D01*
X82791090Y-138773048D01*
X82791091Y-138773049D01*
X82885302Y-138953407D01*
X82885304Y-138953409D01*
X83013890Y-139111109D01*
X83071821Y-139158345D01*
X83171593Y-139239698D01*
X83351951Y-139333909D01*
X83547582Y-139389886D01*
X83666963Y-139400500D01*
X85533036Y-139400499D01*
X85652418Y-139389886D01*
X85672226Y-139384218D01*
X85742091Y-139384699D01*
X85794019Y-139415752D01*
X90032135Y-143653868D01*
X90096132Y-143717865D01*
X90179747Y-143752500D01*
X90179748Y-143752500D01*
X131720252Y-143752500D01*
X131720253Y-143752500D01*
X131803868Y-143717865D01*
X131803870Y-143717863D01*
X131803871Y-143717863D01*
X148782863Y-126738871D01*
X148782863Y-126738870D01*
X148782865Y-126738868D01*
X148817500Y-126655253D01*
X148817500Y-111044747D01*
X148782865Y-110961132D01*
X148782863Y-110961130D01*
X148782863Y-110961129D01*
X148718870Y-110897136D01*
X148635253Y-110862500D01*
X146965595Y-110862500D01*
X146898556Y-110842815D01*
X146877914Y-110826181D01*
X146474514Y-110422781D01*
X146441029Y-110361458D01*
X146446013Y-110291766D01*
X146461878Y-110262213D01*
X146473342Y-110246434D01*
X146580566Y-110035996D01*
X146580567Y-110035994D01*
X146580568Y-110035992D01*
X146653553Y-109811368D01*
X146670054Y-109707185D01*
X146690500Y-109578097D01*
X146690500Y-109341902D01*
X146653553Y-109108631D01*
X146580566Y-108884003D01*
X146473342Y-108673566D01*
X146455554Y-108649083D01*
X146334517Y-108482490D01*
X146167510Y-108315483D01*
X145976433Y-108176657D01*
X145765996Y-108069433D01*
X145541368Y-107996446D01*
X145308097Y-107959500D01*
X145308092Y-107959500D01*
X145071908Y-107959500D01*
X145071903Y-107959500D01*
X144838631Y-107996446D01*
X144614003Y-108069433D01*
X144403566Y-108176657D01*
X144294550Y-108255862D01*
X144212490Y-108315483D01*
X144212488Y-108315485D01*
X144212487Y-108315485D01*
X144045485Y-108482487D01*
X144045485Y-108482488D01*
X144045483Y-108482490D01*
X143985862Y-108564550D01*
X143906657Y-108673566D01*
X143799433Y-108884005D01*
X143726446Y-109108633D01*
X143723395Y-109127900D01*
X143693464Y-109191034D01*
X143634152Y-109227964D01*
X143600922Y-109232500D01*
X140279078Y-109232500D01*
X140212039Y-109212815D01*
X140166284Y-109160011D01*
X140156605Y-109127900D01*
X140153553Y-109108633D01*
X140153553Y-109108632D01*
X140080568Y-108884008D01*
X139973343Y-108673567D01*
X139834517Y-108482490D01*
X139667510Y-108315483D01*
X139476433Y-108176657D01*
X139265996Y-108069433D01*
X139041368Y-107996446D01*
X138808097Y-107959500D01*
X138808092Y-107959500D01*
X138571908Y-107959500D01*
X138571903Y-107959500D01*
X138338631Y-107996446D01*
X138114003Y-108069433D01*
X137903566Y-108176657D01*
X137794550Y-108255862D01*
X137712490Y-108315483D01*
X137712488Y-108315485D01*
X137712487Y-108315485D01*
X137545485Y-108482487D01*
X137545485Y-108482488D01*
X137545483Y-108482490D01*
X137485862Y-108564550D01*
X137406657Y-108673566D01*
X137299433Y-108884003D01*
X137226446Y-109108631D01*
X137189500Y-109341902D01*
X137189500Y-109578097D01*
X137226446Y-109811368D01*
X137299433Y-110035996D01*
X137397023Y-110227525D01*
X137406657Y-110246433D01*
X137545483Y-110437510D01*
X137712490Y-110604517D01*
X137903567Y-110743343D01*
X137964622Y-110774452D01*
X138114003Y-110850566D01*
X138114005Y-110850566D01*
X138114008Y-110850568D01*
X138234412Y-110889689D01*
X138338631Y-110923553D01*
X138571903Y-110960500D01*
X138571908Y-110960500D01*
X138808097Y-110960500D01*
X139041368Y-110923553D01*
X139265992Y-110850568D01*
X139476433Y-110743343D01*
X139667510Y-110604517D01*
X139834517Y-110437510D01*
X139973343Y-110246433D01*
X140080568Y-110035992D01*
X140153553Y-109811368D01*
X140156605Y-109792100D01*
X140186536Y-109728966D01*
X140245848Y-109692036D01*
X140279078Y-109687500D01*
X143600922Y-109687500D01*
X143667961Y-109707185D01*
X143713716Y-109759989D01*
X143723395Y-109792100D01*
X143726446Y-109811366D01*
X143762939Y-109923680D01*
X143799432Y-110035992D01*
X143906657Y-110246433D01*
X144045483Y-110437510D01*
X144212490Y-110604517D01*
X144403567Y-110743343D01*
X144464622Y-110774452D01*
X144614003Y-110850566D01*
X144614005Y-110850566D01*
X144614008Y-110850568D01*
X144734412Y-110889689D01*
X144838631Y-110923553D01*
X145071903Y-110960500D01*
X145071908Y-110960500D01*
X145308097Y-110960500D01*
X145541368Y-110923553D01*
X145765992Y-110850568D01*
X145976433Y-110743343D01*
X145992213Y-110731877D01*
X146058019Y-110708397D01*
X146126073Y-110724222D01*
X146152781Y-110744514D01*
X146627135Y-111218868D01*
X146691132Y-111282865D01*
X146774747Y-111317500D01*
X148238500Y-111317500D01*
X148305539Y-111337185D01*
X148351294Y-111389989D01*
X148362500Y-111441500D01*
X148362500Y-126464405D01*
X148342815Y-126531444D01*
X148326181Y-126552086D01*
X131617086Y-143261181D01*
X131555763Y-143294666D01*
X131529405Y-143297500D01*
X90370595Y-143297500D01*
X90303556Y-143277815D01*
X90282914Y-143261181D01*
X86241401Y-139219668D01*
X86207916Y-139158345D01*
X86212900Y-139088653D01*
X86232980Y-139053626D01*
X86314698Y-138953407D01*
X86408909Y-138773049D01*
X86464886Y-138577418D01*
X86475500Y-138458037D01*
X86475499Y-137856592D01*
X86495183Y-137789555D01*
X86547987Y-137743800D01*
X86617146Y-137733856D01*
X86680702Y-137762881D01*
X86687180Y-137768913D01*
X90032135Y-141113868D01*
X90096132Y-141177865D01*
X90179747Y-141212500D01*
X90179748Y-141212500D01*
X130410252Y-141212500D01*
X130410253Y-141212500D01*
X130493868Y-141177865D01*
X130493870Y-141177863D01*
X130493871Y-141177863D01*
X134688367Y-136983365D01*
X138882866Y-132788868D01*
X138882866Y-132788866D01*
X138882868Y-132788865D01*
X138900183Y-132747060D01*
X138917500Y-132705253D01*
X138917500Y-132614747D01*
X138917500Y-126049077D01*
X138937185Y-125982038D01*
X138989989Y-125936283D01*
X139022097Y-125926605D01*
X139041368Y-125923553D01*
X139265992Y-125850568D01*
X139476433Y-125743343D01*
X139667510Y-125604517D01*
X139834517Y-125437510D01*
X139973343Y-125246433D01*
X140080568Y-125035992D01*
X140153553Y-124811368D01*
X140156605Y-124792100D01*
X140186536Y-124728966D01*
X140245848Y-124692036D01*
X140279078Y-124687500D01*
X143600922Y-124687500D01*
X143667961Y-124707185D01*
X143713716Y-124759989D01*
X143723395Y-124792100D01*
X143726446Y-124811366D01*
X143729518Y-124820821D01*
X143799432Y-125035992D01*
X143906657Y-125246433D01*
X144045483Y-125437510D01*
X144212490Y-125604517D01*
X144403567Y-125743343D01*
X144432398Y-125758033D01*
X144614003Y-125850566D01*
X144614005Y-125850566D01*
X144614008Y-125850568D01*
X144696644Y-125877418D01*
X144838631Y-125923553D01*
X145071903Y-125960500D01*
X145071908Y-125960500D01*
X145308097Y-125960500D01*
X145541368Y-125923553D01*
X145541374Y-125923551D01*
X145765992Y-125850568D01*
X145976433Y-125743343D01*
X146167510Y-125604517D01*
X146334517Y-125437510D01*
X146473343Y-125246433D01*
X146580568Y-125035992D01*
X146653553Y-124811368D01*
X146670054Y-124707185D01*
X146690500Y-124578097D01*
X146690500Y-124341902D01*
X146653553Y-124108631D01*
X146614647Y-123988891D01*
X146580568Y-123884008D01*
X146580566Y-123884005D01*
X146580566Y-123884003D01*
X146524002Y-123772991D01*
X146473343Y-123673567D01*
X146334517Y-123482490D01*
X146167510Y-123315483D01*
X145976433Y-123176657D01*
X145765996Y-123069433D01*
X145541368Y-122996446D01*
X145308097Y-122959500D01*
X145308092Y-122959500D01*
X145071908Y-122959500D01*
X145071903Y-122959500D01*
X144838631Y-122996446D01*
X144614003Y-123069433D01*
X144403566Y-123176657D01*
X144346612Y-123218037D01*
X144212490Y-123315483D01*
X144212488Y-123315485D01*
X144212487Y-123315485D01*
X144045485Y-123482487D01*
X144045485Y-123482488D01*
X144045483Y-123482490D01*
X144008753Y-123533045D01*
X143906657Y-123673566D01*
X143799433Y-123884005D01*
X143726446Y-124108633D01*
X143723395Y-124127900D01*
X143693464Y-124191034D01*
X143634152Y-124227964D01*
X143600922Y-124232500D01*
X140279078Y-124232500D01*
X140212039Y-124212815D01*
X140166284Y-124160011D01*
X140156605Y-124127900D01*
X140153553Y-124108633D01*
X140153553Y-124108632D01*
X140080568Y-123884008D01*
X139973343Y-123673567D01*
X139834517Y-123482490D01*
X139667510Y-123315483D01*
X139476433Y-123176657D01*
X139265996Y-123069433D01*
X139041368Y-122996446D01*
X138808097Y-122959500D01*
X138808092Y-122959500D01*
X138571908Y-122959500D01*
X138571903Y-122959500D01*
X138338631Y-122996446D01*
X138114003Y-123069433D01*
X137903566Y-123176657D01*
X137846612Y-123218037D01*
X137712490Y-123315483D01*
X137712488Y-123315485D01*
X137712487Y-123315485D01*
X137545485Y-123482487D01*
X137545485Y-123482488D01*
X137545483Y-123482490D01*
X137508753Y-123533045D01*
X137406657Y-123673566D01*
X137299433Y-123884003D01*
X137226446Y-124108631D01*
X137189500Y-124341902D01*
X137189500Y-124578097D01*
X137226446Y-124811368D01*
X137299433Y-125035996D01*
X137342826Y-125121158D01*
X137406657Y-125246433D01*
X137545483Y-125437510D01*
X137712490Y-125604517D01*
X137903567Y-125743343D01*
X137932398Y-125758033D01*
X138114003Y-125850566D01*
X138114005Y-125850566D01*
X138114008Y-125850568D01*
X138338632Y-125923553D01*
X138357899Y-125926604D01*
X138421031Y-125956532D01*
X138457963Y-126015843D01*
X138462500Y-126049077D01*
X138462500Y-132514404D01*
X138442815Y-132581443D01*
X138426181Y-132602085D01*
X130307086Y-140721181D01*
X130245763Y-140754666D01*
X130219405Y-140757500D01*
X90370595Y-140757500D01*
X90303556Y-140737815D01*
X90282914Y-140721181D01*
X86241401Y-136679668D01*
X86207916Y-136618345D01*
X86212900Y-136548653D01*
X86232980Y-136513626D01*
X86314698Y-136413407D01*
X86408909Y-136233049D01*
X86464886Y-136037418D01*
X86475500Y-135918037D01*
X86475499Y-134801964D01*
X86464886Y-134682582D01*
X86408909Y-134486951D01*
X86314698Y-134306593D01*
X86201983Y-134168359D01*
X86174875Y-134103965D01*
X86186884Y-134035135D01*
X86201981Y-134011642D01*
X86314698Y-133873407D01*
X86408909Y-133693049D01*
X86464886Y-133497418D01*
X86475500Y-133378037D01*
X86475500Y-133171500D01*
X86495185Y-133104461D01*
X86547989Y-133058706D01*
X86599500Y-133047500D01*
X111904405Y-133047500D01*
X111971444Y-133067185D01*
X111992086Y-133083819D01*
X114905485Y-135997218D01*
X114938970Y-136058541D01*
X114933986Y-136128233D01*
X114918127Y-136157778D01*
X114906657Y-136173567D01*
X114906656Y-136173568D01*
X114799433Y-136384003D01*
X114726446Y-136608631D01*
X114689500Y-136841902D01*
X114689500Y-137078097D01*
X114726446Y-137311368D01*
X114799433Y-137535996D01*
X114900249Y-137733856D01*
X114906657Y-137746433D01*
X115045483Y-137937510D01*
X115212490Y-138104517D01*
X115403567Y-138243343D01*
X115502991Y-138294002D01*
X115614003Y-138350566D01*
X115614005Y-138350566D01*
X115614008Y-138350568D01*
X115734412Y-138389689D01*
X115838631Y-138423553D01*
X116071903Y-138460500D01*
X116071908Y-138460500D01*
X116308097Y-138460500D01*
X116541368Y-138423553D01*
X116765992Y-138350568D01*
X116976433Y-138243343D01*
X117167510Y-138104517D01*
X117334517Y-137937510D01*
X117473343Y-137746433D01*
X117580568Y-137535992D01*
X117653553Y-137311368D01*
X117656605Y-137292100D01*
X117686536Y-137228966D01*
X117745848Y-137192036D01*
X117779078Y-137187500D01*
X121100922Y-137187500D01*
X121167961Y-137207185D01*
X121213716Y-137259989D01*
X121223395Y-137292100D01*
X121226446Y-137311366D01*
X121262939Y-137423680D01*
X121299432Y-137535992D01*
X121406657Y-137746433D01*
X121545483Y-137937510D01*
X121712490Y-138104517D01*
X121903567Y-138243343D01*
X122002991Y-138294002D01*
X122114003Y-138350566D01*
X122114005Y-138350566D01*
X122114008Y-138350568D01*
X122234412Y-138389689D01*
X122338631Y-138423553D01*
X122571903Y-138460500D01*
X122571908Y-138460500D01*
X122808097Y-138460500D01*
X123041368Y-138423553D01*
X123265992Y-138350568D01*
X123476433Y-138243343D01*
X123667510Y-138104517D01*
X123834517Y-137937510D01*
X123973343Y-137746433D01*
X124080568Y-137535992D01*
X124153553Y-137311368D01*
X124167615Y-137222583D01*
X124190500Y-137078097D01*
X124190500Y-136841902D01*
X124153553Y-136608631D01*
X124085602Y-136399501D01*
X124080568Y-136384008D01*
X124080566Y-136384005D01*
X124080566Y-136384003D01*
X124024002Y-136272991D01*
X123973343Y-136173567D01*
X123834517Y-135982490D01*
X123667510Y-135815483D01*
X123476433Y-135676657D01*
X123474133Y-135675485D01*
X123265996Y-135569433D01*
X123041368Y-135496446D01*
X122808097Y-135459500D01*
X122808092Y-135459500D01*
X122571908Y-135459500D01*
X122571903Y-135459500D01*
X122338631Y-135496446D01*
X122114003Y-135569433D01*
X121903566Y-135676657D01*
X121855469Y-135711602D01*
X121712490Y-135815483D01*
X121712488Y-135815485D01*
X121712487Y-135815485D01*
X121545485Y-135982487D01*
X121545485Y-135982488D01*
X121545483Y-135982490D01*
X121490229Y-136058541D01*
X121406657Y-136173566D01*
X121299433Y-136384005D01*
X121226446Y-136608633D01*
X121223395Y-136627900D01*
X121193464Y-136691034D01*
X121134152Y-136727964D01*
X121100922Y-136732500D01*
X117779078Y-136732500D01*
X117712039Y-136712815D01*
X117666284Y-136660011D01*
X117656605Y-136627900D01*
X117653553Y-136608633D01*
X117653553Y-136608632D01*
X117580568Y-136384008D01*
X117473343Y-136173567D01*
X117334517Y-135982490D01*
X117167510Y-135815483D01*
X116976433Y-135676657D01*
X116974133Y-135675485D01*
X116765996Y-135569433D01*
X116541368Y-135496446D01*
X116308097Y-135459500D01*
X116308092Y-135459500D01*
X116071908Y-135459500D01*
X116071903Y-135459500D01*
X115838631Y-135496446D01*
X115614003Y-135569433D01*
X115403568Y-135676656D01*
X115403563Y-135676659D01*
X115387781Y-135688125D01*
X115321974Y-135711602D01*
X115253920Y-135695774D01*
X115227219Y-135675485D01*
X112178870Y-132627136D01*
X112095253Y-132592500D01*
X86599499Y-132592500D01*
X86532460Y-132572815D01*
X86486705Y-132520011D01*
X86475499Y-132468500D01*
X86475499Y-132341947D01*
X114690000Y-132341947D01*
X114690000Y-132578052D01*
X114726934Y-132811247D01*
X114799897Y-133035802D01*
X114907087Y-133246174D01*
X114967338Y-133329104D01*
X114967340Y-133329105D01*
X115666212Y-132630233D01*
X115677482Y-132672292D01*
X115749890Y-132797708D01*
X115852292Y-132900110D01*
X115977708Y-132972518D01*
X116019765Y-132983787D01*
X115320893Y-133682658D01*
X115403828Y-133742914D01*
X115614197Y-133850102D01*
X115838752Y-133923065D01*
X115838751Y-133923065D01*
X116071948Y-133960000D01*
X116308052Y-133960000D01*
X116541247Y-133923065D01*
X116765802Y-133850102D01*
X116976163Y-133742918D01*
X116976169Y-133742914D01*
X117059104Y-133682658D01*
X117059105Y-133682658D01*
X116360233Y-132983787D01*
X116402292Y-132972518D01*
X116527708Y-132900110D01*
X116630110Y-132797708D01*
X116702518Y-132672292D01*
X116713787Y-132630234D01*
X117412658Y-133329105D01*
X117412658Y-133329104D01*
X117472914Y-133246169D01*
X117472918Y-133246163D01*
X117580102Y-133035802D01*
X117653065Y-132811247D01*
X117690000Y-132578052D01*
X117690000Y-132341947D01*
X121190000Y-132341947D01*
X121190000Y-132578052D01*
X121226934Y-132811247D01*
X121299897Y-133035802D01*
X121407087Y-133246174D01*
X121467338Y-133329104D01*
X121467340Y-133329105D01*
X122166212Y-132630233D01*
X122177482Y-132672292D01*
X122249890Y-132797708D01*
X122352292Y-132900110D01*
X122477708Y-132972518D01*
X122519765Y-132983787D01*
X121820893Y-133682658D01*
X121903828Y-133742914D01*
X122114197Y-133850102D01*
X122338752Y-133923065D01*
X122338751Y-133923065D01*
X122571948Y-133960000D01*
X122808052Y-133960000D01*
X123041247Y-133923065D01*
X123265802Y-133850102D01*
X123476163Y-133742918D01*
X123476169Y-133742914D01*
X123559104Y-133682658D01*
X123559105Y-133682658D01*
X122860233Y-132983787D01*
X122902292Y-132972518D01*
X123027708Y-132900110D01*
X123130110Y-132797708D01*
X123202518Y-132672292D01*
X123213787Y-132630234D01*
X123912658Y-133329105D01*
X123912658Y-133329104D01*
X123972914Y-133246169D01*
X123972918Y-133246163D01*
X124080102Y-133035802D01*
X124153065Y-132811247D01*
X124190000Y-132578052D01*
X124190000Y-132341947D01*
X124153065Y-132108752D01*
X124080102Y-131884197D01*
X123972914Y-131673828D01*
X123912658Y-131590894D01*
X123912658Y-131590893D01*
X123213787Y-132289765D01*
X123202518Y-132247708D01*
X123130110Y-132122292D01*
X123027708Y-132019890D01*
X122902292Y-131947482D01*
X122860234Y-131936212D01*
X123559105Y-131237340D01*
X123559104Y-131237338D01*
X123476174Y-131177087D01*
X123265802Y-131069897D01*
X123041247Y-130996934D01*
X123041248Y-130996934D01*
X122808052Y-130960000D01*
X122571948Y-130960000D01*
X122338752Y-130996934D01*
X122114197Y-131069897D01*
X121903830Y-131177084D01*
X121820894Y-131237340D01*
X122519766Y-131936212D01*
X122477708Y-131947482D01*
X122352292Y-132019890D01*
X122249890Y-132122292D01*
X122177482Y-132247708D01*
X122166212Y-132289766D01*
X121467340Y-131590894D01*
X121407084Y-131673830D01*
X121299897Y-131884197D01*
X121226934Y-132108752D01*
X121190000Y-132341947D01*
X117690000Y-132341947D01*
X117653065Y-132108752D01*
X117580102Y-131884197D01*
X117472914Y-131673828D01*
X117412658Y-131590894D01*
X117412658Y-131590893D01*
X116713787Y-132289765D01*
X116702518Y-132247708D01*
X116630110Y-132122292D01*
X116527708Y-132019890D01*
X116402292Y-131947482D01*
X116360234Y-131936212D01*
X117059105Y-131237340D01*
X117059104Y-131237339D01*
X116976174Y-131177087D01*
X116765802Y-131069897D01*
X116541247Y-130996934D01*
X116541248Y-130996934D01*
X116308052Y-130960000D01*
X116071948Y-130960000D01*
X115838752Y-130996934D01*
X115614197Y-131069897D01*
X115403830Y-131177084D01*
X115320894Y-131237340D01*
X116019766Y-131936212D01*
X115977708Y-131947482D01*
X115852292Y-132019890D01*
X115749890Y-132122292D01*
X115677482Y-132247708D01*
X115666212Y-132289766D01*
X114967340Y-131590894D01*
X114907084Y-131673830D01*
X114799897Y-131884197D01*
X114726934Y-132108752D01*
X114690000Y-132341947D01*
X86475499Y-132341947D01*
X86475499Y-132261971D01*
X86475499Y-132261964D01*
X86464886Y-132142582D01*
X86408909Y-131946951D01*
X86314698Y-131766593D01*
X86201983Y-131628359D01*
X86174875Y-131563965D01*
X86186884Y-131495135D01*
X86201981Y-131471642D01*
X86314698Y-131333407D01*
X86408909Y-131153049D01*
X86464886Y-130957418D01*
X86475500Y-130838037D01*
X86475499Y-129721964D01*
X86464886Y-129602582D01*
X86408909Y-129406951D01*
X86314698Y-129226593D01*
X86201983Y-129088359D01*
X86174875Y-129023965D01*
X86186884Y-128955135D01*
X86201981Y-128931642D01*
X86314698Y-128793407D01*
X86408909Y-128613049D01*
X86464886Y-128417418D01*
X86475500Y-128298037D01*
X86475500Y-128091500D01*
X86495185Y-128024461D01*
X86547989Y-127978706D01*
X86599500Y-127967500D01*
X88504405Y-127967500D01*
X88571444Y-127987185D01*
X88592086Y-128003819D01*
X89434503Y-128846236D01*
X89467988Y-128907559D01*
X89463004Y-128977251D01*
X89461384Y-128981368D01*
X89430263Y-129056503D01*
X89430261Y-129056510D01*
X89399500Y-129211153D01*
X89399500Y-129368846D01*
X89430261Y-129523489D01*
X89430264Y-129523501D01*
X89490602Y-129669172D01*
X89490609Y-129669185D01*
X89578210Y-129800288D01*
X89578213Y-129800292D01*
X89689707Y-129911786D01*
X89689711Y-129911789D01*
X89820814Y-129999390D01*
X89820827Y-129999397D01*
X89966498Y-130059735D01*
X89966503Y-130059737D01*
X90089803Y-130084263D01*
X90121153Y-130090499D01*
X90121156Y-130090500D01*
X90121158Y-130090500D01*
X90278844Y-130090500D01*
X90278845Y-130090499D01*
X90433497Y-130059737D01*
X90579179Y-129999394D01*
X90710289Y-129911789D01*
X90821789Y-129800289D01*
X90909394Y-129669179D01*
X90969737Y-129523497D01*
X91000500Y-129368842D01*
X91000500Y-129211158D01*
X91000500Y-129211155D01*
X91000499Y-129211153D01*
X90974055Y-129078211D01*
X90969737Y-129056503D01*
X90969735Y-129056498D01*
X90909397Y-128910827D01*
X90909390Y-128910814D01*
X90821789Y-128779711D01*
X90821786Y-128779707D01*
X90710292Y-128668213D01*
X90710288Y-128668210D01*
X90579185Y-128580609D01*
X90579172Y-128580602D01*
X90433501Y-128520264D01*
X90433489Y-128520261D01*
X90278845Y-128489500D01*
X90278842Y-128489500D01*
X90121158Y-128489500D01*
X90121155Y-128489500D01*
X89966510Y-128520261D01*
X89966503Y-128520263D01*
X89891368Y-128551384D01*
X89821899Y-128558851D01*
X89759420Y-128527576D01*
X89756236Y-128524503D01*
X88778870Y-127547136D01*
X88695253Y-127512500D01*
X86599499Y-127512500D01*
X86532460Y-127492815D01*
X86486705Y-127440011D01*
X86475499Y-127388500D01*
X86475499Y-127181971D01*
X86475499Y-127181964D01*
X86464886Y-127062582D01*
X86408909Y-126866951D01*
X86314698Y-126686593D01*
X86201983Y-126548359D01*
X86174875Y-126483965D01*
X86186884Y-126415135D01*
X86201981Y-126391642D01*
X86314698Y-126253407D01*
X86408909Y-126073049D01*
X86464886Y-125877418D01*
X86475500Y-125758037D01*
X86475500Y-125551500D01*
X86495185Y-125484461D01*
X86547989Y-125438706D01*
X86599500Y-125427500D01*
X93114925Y-125427500D01*
X93181964Y-125447185D01*
X93227719Y-125499989D01*
X93229465Y-125503999D01*
X93260603Y-125579172D01*
X93260607Y-125579181D01*
X93260609Y-125579185D01*
X93348210Y-125710288D01*
X93348213Y-125710292D01*
X93459707Y-125821786D01*
X93459711Y-125821789D01*
X93590814Y-125909390D01*
X93590827Y-125909397D01*
X93736498Y-125969735D01*
X93736503Y-125969737D01*
X93891153Y-126000499D01*
X93891156Y-126000500D01*
X93891158Y-126000500D01*
X94048844Y-126000500D01*
X94048845Y-126000499D01*
X94203497Y-125969737D01*
X94349179Y-125909394D01*
X94480289Y-125821789D01*
X94591789Y-125710289D01*
X94679394Y-125579179D01*
X94739737Y-125433497D01*
X94770500Y-125278842D01*
X94770500Y-125121158D01*
X94770500Y-125121155D01*
X94770499Y-125121153D01*
X94753560Y-125035996D01*
X94739737Y-124966503D01*
X94733049Y-124950356D01*
X94679397Y-124820827D01*
X94679390Y-124820814D01*
X94591789Y-124689711D01*
X94591786Y-124689707D01*
X94480292Y-124578213D01*
X94480288Y-124578210D01*
X94349185Y-124490609D01*
X94349172Y-124490602D01*
X94203501Y-124430264D01*
X94203489Y-124430261D01*
X94048845Y-124399500D01*
X94048842Y-124399500D01*
X93891158Y-124399500D01*
X93891155Y-124399500D01*
X93736510Y-124430261D01*
X93736498Y-124430264D01*
X93590827Y-124490602D01*
X93590814Y-124490609D01*
X93459711Y-124578210D01*
X93459707Y-124578213D01*
X93348213Y-124689707D01*
X93348210Y-124689711D01*
X93260609Y-124820814D01*
X93260607Y-124820818D01*
X93254728Y-124835010D01*
X93229484Y-124895954D01*
X93185646Y-124950356D01*
X93119352Y-124972421D01*
X93114925Y-124972500D01*
X86599499Y-124972500D01*
X86532460Y-124952815D01*
X86486705Y-124900011D01*
X86475499Y-124848500D01*
X86475499Y-124641971D01*
X86475499Y-124641964D01*
X86464886Y-124522582D01*
X86408909Y-124326951D01*
X86314698Y-124146593D01*
X86201983Y-124008359D01*
X86174875Y-123943965D01*
X86186884Y-123875135D01*
X86201981Y-123851642D01*
X86314698Y-123713407D01*
X86408909Y-123533049D01*
X86464886Y-123337418D01*
X86475500Y-123218037D01*
X86475499Y-122101964D01*
X86464886Y-121982582D01*
X86408909Y-121786951D01*
X86314698Y-121606593D01*
X86262684Y-121542803D01*
X86186109Y-121448890D01*
X86028409Y-121320304D01*
X86028410Y-121320304D01*
X86028407Y-121320302D01*
X85884835Y-121245306D01*
X85848047Y-121226090D01*
X85764370Y-121202147D01*
X85652418Y-121170114D01*
X85652415Y-121170113D01*
X85652413Y-121170113D01*
X85586102Y-121164217D01*
X85533037Y-121159500D01*
X85533032Y-121159500D01*
X83666971Y-121159500D01*
X83666965Y-121159500D01*
X83666964Y-121159501D01*
X83655316Y-121160536D01*
X83547584Y-121170113D01*
X83351954Y-121226089D01*
X83261772Y-121273196D01*
X83171593Y-121320302D01*
X83171591Y-121320303D01*
X83171590Y-121320304D01*
X83013890Y-121448890D01*
X82885304Y-121606590D01*
X82791089Y-121786954D01*
X82735114Y-121982583D01*
X82735113Y-121982586D01*
X82724500Y-122101966D01*
X70310499Y-122101966D01*
X70310499Y-122101964D01*
X70299886Y-121982582D01*
X70243909Y-121786951D01*
X70149698Y-121606593D01*
X70097684Y-121542803D01*
X70021109Y-121448890D01*
X69863409Y-121320304D01*
X69863410Y-121320304D01*
X69863407Y-121320302D01*
X69683049Y-121226091D01*
X69683048Y-121226090D01*
X69683045Y-121226089D01*
X69565829Y-121192550D01*
X69487418Y-121170114D01*
X69487415Y-121170113D01*
X69487413Y-121170113D01*
X69421102Y-121164217D01*
X69368037Y-121159500D01*
X69368032Y-121159500D01*
X67501971Y-121159500D01*
X67501965Y-121159500D01*
X67501964Y-121159501D01*
X67490316Y-121160536D01*
X67382584Y-121170113D01*
X67186954Y-121226089D01*
X67096772Y-121273196D01*
X67006593Y-121320302D01*
X67006591Y-121320303D01*
X67006590Y-121320304D01*
X66848890Y-121448890D01*
X66720304Y-121606590D01*
X66626089Y-121786954D01*
X66570114Y-121982583D01*
X66570113Y-121982586D01*
X66559500Y-122101966D01*
X65847500Y-122101966D01*
X65847500Y-119841947D01*
X137190000Y-119841947D01*
X137190000Y-120078052D01*
X137226934Y-120311247D01*
X137299897Y-120535802D01*
X137407087Y-120746174D01*
X137467338Y-120829104D01*
X137467340Y-120829105D01*
X138166212Y-120130233D01*
X138177482Y-120172292D01*
X138249890Y-120297708D01*
X138352292Y-120400110D01*
X138477708Y-120472518D01*
X138519765Y-120483787D01*
X137820893Y-121182658D01*
X137903828Y-121242914D01*
X138114197Y-121350102D01*
X138338752Y-121423065D01*
X138338751Y-121423065D01*
X138571948Y-121460000D01*
X138808052Y-121460000D01*
X139041247Y-121423065D01*
X139265802Y-121350102D01*
X139476163Y-121242918D01*
X139476169Y-121242914D01*
X139559104Y-121182658D01*
X139559105Y-121182658D01*
X138860233Y-120483787D01*
X138902292Y-120472518D01*
X139027708Y-120400110D01*
X139130110Y-120297708D01*
X139202518Y-120172292D01*
X139213787Y-120130234D01*
X139912658Y-120829105D01*
X139912658Y-120829104D01*
X139972914Y-120746169D01*
X139972918Y-120746163D01*
X140080102Y-120535802D01*
X140153065Y-120311247D01*
X140190000Y-120078052D01*
X140190000Y-119841947D01*
X143690000Y-119841947D01*
X143690000Y-120078052D01*
X143726934Y-120311247D01*
X143799897Y-120535802D01*
X143907087Y-120746174D01*
X143967338Y-120829104D01*
X143967340Y-120829105D01*
X144666212Y-120130233D01*
X144677482Y-120172292D01*
X144749890Y-120297708D01*
X144852292Y-120400110D01*
X144977708Y-120472518D01*
X145019765Y-120483787D01*
X144320893Y-121182658D01*
X144403828Y-121242914D01*
X144614197Y-121350102D01*
X144838752Y-121423065D01*
X144838751Y-121423065D01*
X145071948Y-121460000D01*
X145308052Y-121460000D01*
X145541247Y-121423065D01*
X145765802Y-121350102D01*
X145976163Y-121242918D01*
X145976169Y-121242914D01*
X146059104Y-121182658D01*
X146059105Y-121182658D01*
X145360233Y-120483787D01*
X145402292Y-120472518D01*
X145527708Y-120400110D01*
X145630110Y-120297708D01*
X145702518Y-120172292D01*
X145713787Y-120130234D01*
X146412658Y-120829105D01*
X146412658Y-120829104D01*
X146472914Y-120746169D01*
X146472918Y-120746163D01*
X146580102Y-120535802D01*
X146653065Y-120311247D01*
X146690000Y-120078052D01*
X146690000Y-119841947D01*
X146653065Y-119608752D01*
X146580102Y-119384197D01*
X146472914Y-119173828D01*
X146412658Y-119090894D01*
X146412658Y-119090893D01*
X145713787Y-119789765D01*
X145702518Y-119747708D01*
X145630110Y-119622292D01*
X145527708Y-119519890D01*
X145402292Y-119447482D01*
X145360234Y-119436212D01*
X146059105Y-118737340D01*
X146059104Y-118737338D01*
X145976174Y-118677087D01*
X145765802Y-118569897D01*
X145541247Y-118496934D01*
X145541248Y-118496934D01*
X145308052Y-118460000D01*
X145071948Y-118460000D01*
X144838752Y-118496934D01*
X144614197Y-118569897D01*
X144403830Y-118677084D01*
X144320894Y-118737340D01*
X145019766Y-119436212D01*
X144977708Y-119447482D01*
X144852292Y-119519890D01*
X144749890Y-119622292D01*
X144677482Y-119747708D01*
X144666212Y-119789766D01*
X143967340Y-119090894D01*
X143907084Y-119173830D01*
X143799897Y-119384197D01*
X143726934Y-119608752D01*
X143690000Y-119841947D01*
X140190000Y-119841947D01*
X140153065Y-119608752D01*
X140080102Y-119384197D01*
X139972914Y-119173828D01*
X139912658Y-119090894D01*
X139912658Y-119090893D01*
X139213787Y-119789765D01*
X139202518Y-119747708D01*
X139130110Y-119622292D01*
X139027708Y-119519890D01*
X138902292Y-119447482D01*
X138860234Y-119436212D01*
X139559105Y-118737340D01*
X139559104Y-118737339D01*
X139476174Y-118677087D01*
X139265802Y-118569897D01*
X139041247Y-118496934D01*
X139041248Y-118496934D01*
X138808052Y-118460000D01*
X138571948Y-118460000D01*
X138338752Y-118496934D01*
X138114197Y-118569897D01*
X137903830Y-118677084D01*
X137820894Y-118737340D01*
X138519766Y-119436212D01*
X138477708Y-119447482D01*
X138352292Y-119519890D01*
X138249890Y-119622292D01*
X138177482Y-119747708D01*
X138166212Y-119789766D01*
X137467340Y-119090894D01*
X137407084Y-119173830D01*
X137299897Y-119384197D01*
X137226934Y-119608752D01*
X137190000Y-119841947D01*
X65847500Y-119841947D01*
X65847500Y-118975595D01*
X65867185Y-118908556D01*
X65883819Y-118887914D01*
X66074816Y-118696918D01*
X66237915Y-118533819D01*
X66299238Y-118500334D01*
X66325596Y-118497500D01*
X76895252Y-118497500D01*
X76895253Y-118497500D01*
X76978868Y-118462865D01*
X80747220Y-114694512D01*
X80808541Y-114661029D01*
X80878233Y-114666013D01*
X80907783Y-114681876D01*
X80923564Y-114693341D01*
X80923567Y-114693343D01*
X81020915Y-114742944D01*
X81134003Y-114800566D01*
X81134005Y-114800566D01*
X81134008Y-114800568D01*
X81254412Y-114839689D01*
X81358631Y-114873553D01*
X81591903Y-114910500D01*
X81591908Y-114910500D01*
X81828097Y-114910500D01*
X82061368Y-114873553D01*
X82114513Y-114856285D01*
X82285992Y-114800568D01*
X82496433Y-114693343D01*
X82687510Y-114554517D01*
X82854517Y-114387510D01*
X82859682Y-114380401D01*
X82915012Y-114337735D01*
X82984625Y-114331756D01*
X83046420Y-114364362D01*
X83060318Y-114380401D01*
X83065483Y-114387510D01*
X83232490Y-114554517D01*
X83423567Y-114693343D01*
X83522991Y-114744002D01*
X83634003Y-114800566D01*
X83634005Y-114800566D01*
X83634008Y-114800568D01*
X83754412Y-114839689D01*
X83858631Y-114873553D01*
X84091903Y-114910500D01*
X84091908Y-114910500D01*
X84328097Y-114910500D01*
X84561368Y-114873553D01*
X84614513Y-114856285D01*
X84785992Y-114800568D01*
X84996433Y-114693343D01*
X85187510Y-114554517D01*
X85354517Y-114387510D01*
X85493343Y-114196433D01*
X85600568Y-113985992D01*
X85673553Y-113761368D01*
X85698637Y-113602993D01*
X85710500Y-113528097D01*
X85710500Y-113291902D01*
X85673553Y-113058631D01*
X85600566Y-112834003D01*
X85493342Y-112623566D01*
X85354517Y-112432490D01*
X85187510Y-112265483D01*
X84996433Y-112126657D01*
X84785996Y-112019433D01*
X84561368Y-111946446D01*
X84328097Y-111909500D01*
X84328092Y-111909500D01*
X84091908Y-111909500D01*
X84091903Y-111909500D01*
X83858631Y-111946446D01*
X83634003Y-112019433D01*
X83423566Y-112126657D01*
X83334105Y-112191655D01*
X83232490Y-112265483D01*
X83232488Y-112265485D01*
X83232487Y-112265485D01*
X83065482Y-112432490D01*
X83060315Y-112439603D01*
X83004983Y-112482266D01*
X82935370Y-112488242D01*
X82873576Y-112455634D01*
X82859685Y-112439603D01*
X82854517Y-112432490D01*
X82687512Y-112265485D01*
X82687510Y-112265483D01*
X82496433Y-112126657D01*
X82285996Y-112019433D01*
X82061368Y-111946446D01*
X81828097Y-111909500D01*
X81828092Y-111909500D01*
X81591908Y-111909500D01*
X81591903Y-111909500D01*
X81358631Y-111946446D01*
X81134003Y-112019433D01*
X80923566Y-112126657D01*
X80834105Y-112191655D01*
X80732490Y-112265483D01*
X80732488Y-112265485D01*
X80732487Y-112265485D01*
X80565482Y-112432490D01*
X80560315Y-112439603D01*
X80504983Y-112482266D01*
X80435370Y-112488242D01*
X80373576Y-112455634D01*
X80359685Y-112439603D01*
X80354517Y-112432490D01*
X80187512Y-112265485D01*
X80187510Y-112265483D01*
X79996433Y-112126657D01*
X79785996Y-112019433D01*
X79561368Y-111946446D01*
X79328097Y-111909500D01*
X79328092Y-111909500D01*
X79091908Y-111909500D01*
X79091903Y-111909500D01*
X78858631Y-111946446D01*
X78634003Y-112019433D01*
X78423563Y-112126659D01*
X78247725Y-112254413D01*
X78181919Y-112277893D01*
X78113865Y-112262068D01*
X78069302Y-112219192D01*
X78052319Y-112191659D01*
X78052316Y-112191655D01*
X77928345Y-112067684D01*
X77779124Y-111975643D01*
X77779119Y-111975641D01*
X77612697Y-111920494D01*
X77612690Y-111920493D01*
X77509986Y-111910000D01*
X76960000Y-111910000D01*
X76960000Y-112976988D01*
X76902993Y-112944075D01*
X76775826Y-112910000D01*
X76644174Y-112910000D01*
X76517007Y-112944075D01*
X76460000Y-112976988D01*
X76460000Y-111910000D01*
X75910028Y-111910000D01*
X75910012Y-111910001D01*
X75807302Y-111920494D01*
X75640880Y-111975641D01*
X75640875Y-111975643D01*
X75491654Y-112067684D01*
X75367683Y-112191655D01*
X75367680Y-112191659D01*
X75350696Y-112219194D01*
X75298747Y-112265918D01*
X75229784Y-112277138D01*
X75172273Y-112254413D01*
X75123798Y-112219194D01*
X74996433Y-112126657D01*
X74785996Y-112019433D01*
X74561368Y-111946446D01*
X74328097Y-111909500D01*
X74328092Y-111909500D01*
X74091908Y-111909500D01*
X74091903Y-111909500D01*
X73858631Y-111946446D01*
X73634003Y-112019433D01*
X73423566Y-112126657D01*
X73334105Y-112191655D01*
X73232490Y-112265483D01*
X73232488Y-112265485D01*
X73232487Y-112265485D01*
X73065482Y-112432490D01*
X73060315Y-112439603D01*
X73004983Y-112482266D01*
X72935370Y-112488242D01*
X72873576Y-112455634D01*
X72859685Y-112439603D01*
X72854517Y-112432490D01*
X72687512Y-112265485D01*
X72687510Y-112265483D01*
X72496433Y-112126657D01*
X72285996Y-112019433D01*
X72061368Y-111946446D01*
X71828097Y-111909500D01*
X71828092Y-111909500D01*
X71591908Y-111909500D01*
X71591903Y-111909500D01*
X71358631Y-111946446D01*
X71134003Y-112019433D01*
X70923566Y-112126657D01*
X70834105Y-112191655D01*
X70732490Y-112265483D01*
X70732488Y-112265485D01*
X70732487Y-112265485D01*
X70565482Y-112432490D01*
X70560315Y-112439603D01*
X70504983Y-112482266D01*
X70435370Y-112488242D01*
X70373576Y-112455634D01*
X70359685Y-112439603D01*
X70354517Y-112432490D01*
X70187512Y-112265485D01*
X70187510Y-112265483D01*
X69996433Y-112126657D01*
X69785996Y-112019433D01*
X69561368Y-111946446D01*
X69328097Y-111909500D01*
X69328092Y-111909500D01*
X69091908Y-111909500D01*
X69091903Y-111909500D01*
X68858631Y-111946446D01*
X68634003Y-112019433D01*
X68423566Y-112126657D01*
X68334105Y-112191655D01*
X68232490Y-112265483D01*
X68232488Y-112265485D01*
X68232487Y-112265485D01*
X68065482Y-112432490D01*
X68060315Y-112439603D01*
X68004983Y-112482266D01*
X67935370Y-112488242D01*
X67873576Y-112455634D01*
X67859685Y-112439603D01*
X67854517Y-112432490D01*
X67687512Y-112265485D01*
X67687510Y-112265483D01*
X67496433Y-112126657D01*
X67285996Y-112019433D01*
X67061368Y-111946446D01*
X66828097Y-111909500D01*
X66828092Y-111909500D01*
X66591908Y-111909500D01*
X66591903Y-111909500D01*
X66358631Y-111946446D01*
X66134003Y-112019433D01*
X65923566Y-112126657D01*
X65834105Y-112191655D01*
X65732490Y-112265483D01*
X65732488Y-112265485D01*
X65732487Y-112265485D01*
X65565485Y-112432487D01*
X65565485Y-112432488D01*
X65565483Y-112432490D01*
X65548668Y-112455634D01*
X65426657Y-112623566D01*
X65319433Y-112834003D01*
X65246446Y-113058631D01*
X65209500Y-113291902D01*
X60400500Y-113291902D01*
X60400500Y-108471538D01*
X92829500Y-108471538D01*
X92829500Y-110023461D01*
X92868910Y-110272285D01*
X92946760Y-110511883D01*
X93025413Y-110666247D01*
X93043286Y-110701325D01*
X93061132Y-110736348D01*
X93209201Y-110940149D01*
X93209205Y-110940154D01*
X93387345Y-111118294D01*
X93387350Y-111118298D01*
X93525774Y-111218868D01*
X93591155Y-111266370D01*
X93730137Y-111337185D01*
X93815616Y-111380739D01*
X93815618Y-111380739D01*
X93815621Y-111380741D01*
X94055215Y-111458590D01*
X94304038Y-111498000D01*
X94304039Y-111498000D01*
X94555961Y-111498000D01*
X94555962Y-111498000D01*
X94804785Y-111458590D01*
X95044379Y-111380741D01*
X95268845Y-111266370D01*
X95472656Y-111118293D01*
X95564511Y-111026437D01*
X95625831Y-110992954D01*
X95665445Y-110990830D01*
X95672514Y-110991589D01*
X95672517Y-110991591D01*
X95732127Y-110998000D01*
X97327872Y-110997999D01*
X97387483Y-110991591D01*
X97522331Y-110941296D01*
X97637546Y-110855046D01*
X97666535Y-110816321D01*
X97722467Y-110774452D01*
X97792158Y-110769468D01*
X97838686Y-110790316D01*
X97874856Y-110816595D01*
X98050162Y-110905918D01*
X98237283Y-110966718D01*
X98280000Y-110973484D01*
X98280000Y-109563186D01*
X98284394Y-109567580D01*
X98375606Y-109620241D01*
X98477339Y-109647500D01*
X98582661Y-109647500D01*
X98684394Y-109620241D01*
X98775606Y-109567580D01*
X98780000Y-109563186D01*
X98780000Y-110973483D01*
X98822716Y-110966718D01*
X99009837Y-110905918D01*
X99185143Y-110816595D01*
X99344321Y-110700944D01*
X99344322Y-110700943D01*
X99441965Y-110603301D01*
X99503288Y-110569816D01*
X99572980Y-110574800D01*
X99617327Y-110603301D01*
X99715354Y-110701328D01*
X99874595Y-110817024D01*
X99940429Y-110850568D01*
X100049970Y-110906382D01*
X100049972Y-110906382D01*
X100049975Y-110906384D01*
X100150317Y-110938987D01*
X100237173Y-110967209D01*
X100431578Y-110998000D01*
X100431583Y-110998000D01*
X100628422Y-110998000D01*
X100822826Y-110967209D01*
X100902574Y-110941297D01*
X101010025Y-110906384D01*
X101185405Y-110817024D01*
X101185409Y-110817020D01*
X101189087Y-110815147D01*
X101257756Y-110802251D01*
X101322497Y-110828527D01*
X101345699Y-110852745D01*
X101409207Y-110940156D01*
X101409209Y-110940158D01*
X101587345Y-111118294D01*
X101587350Y-111118298D01*
X101725774Y-111218868D01*
X101791155Y-111266370D01*
X101930137Y-111337185D01*
X102015616Y-111380739D01*
X102015618Y-111380739D01*
X102015621Y-111380741D01*
X102255215Y-111458590D01*
X102504038Y-111498000D01*
X102504039Y-111498000D01*
X102755961Y-111498000D01*
X102755962Y-111498000D01*
X103004785Y-111458590D01*
X103244379Y-111380741D01*
X103468845Y-111266370D01*
X103672656Y-111118293D01*
X103850793Y-110940156D01*
X103998870Y-110736345D01*
X104113241Y-110511879D01*
X104191090Y-110272285D01*
X104230500Y-110023462D01*
X104230500Y-108471538D01*
X104191090Y-108222715D01*
X104113241Y-107983121D01*
X104113239Y-107983118D01*
X104113239Y-107983116D01*
X104065802Y-107890017D01*
X103998870Y-107758655D01*
X103945298Y-107684919D01*
X103850798Y-107554850D01*
X103850794Y-107554845D01*
X103672654Y-107376705D01*
X103672649Y-107376701D01*
X103468848Y-107228632D01*
X103468847Y-107228631D01*
X103468845Y-107228630D01*
X103398747Y-107192913D01*
X103244383Y-107114260D01*
X103004785Y-107036410D01*
X102755962Y-106997000D01*
X102504038Y-106997000D01*
X102379626Y-107016705D01*
X102255214Y-107036410D01*
X102015616Y-107114260D01*
X101791151Y-107228632D01*
X101587350Y-107376701D01*
X101587345Y-107376705D01*
X101409209Y-107554841D01*
X101409202Y-107554850D01*
X101345699Y-107642253D01*
X101290369Y-107684919D01*
X101220756Y-107690897D01*
X101189087Y-107679852D01*
X101010029Y-107588617D01*
X100822826Y-107527790D01*
X100628422Y-107497000D01*
X100628417Y-107497000D01*
X100431583Y-107497000D01*
X100431578Y-107497000D01*
X100237173Y-107527790D01*
X100049970Y-107588617D01*
X99874594Y-107677976D01*
X99827301Y-107712337D01*
X99715354Y-107793672D01*
X99715352Y-107793674D01*
X99715350Y-107793675D01*
X99617325Y-107891699D01*
X99556002Y-107925183D01*
X99486310Y-107920198D01*
X99441964Y-107891698D01*
X99344321Y-107794055D01*
X99185143Y-107678404D01*
X99009835Y-107589081D01*
X98822705Y-107528278D01*
X98780000Y-107521514D01*
X98780000Y-108931814D01*
X98775606Y-108927420D01*
X98684394Y-108874759D01*
X98582661Y-108847500D01*
X98477339Y-108847500D01*
X98375606Y-108874759D01*
X98284394Y-108927420D01*
X98280000Y-108931814D01*
X98280000Y-107521514D01*
X98279999Y-107521514D01*
X98237294Y-107528278D01*
X98050164Y-107589081D01*
X97874855Y-107678405D01*
X97874848Y-107678410D01*
X97838684Y-107704684D01*
X97772877Y-107728163D01*
X97704824Y-107712337D01*
X97666534Y-107678677D01*
X97639267Y-107642253D01*
X97637546Y-107639954D01*
X97637544Y-107639953D01*
X97637544Y-107639952D01*
X97522335Y-107553706D01*
X97522328Y-107553702D01*
X97387482Y-107503408D01*
X97387483Y-107503408D01*
X97327883Y-107497001D01*
X97327881Y-107497000D01*
X97327873Y-107497000D01*
X97327864Y-107497000D01*
X95732129Y-107497000D01*
X95732123Y-107497001D01*
X95665443Y-107504169D01*
X95596683Y-107491762D01*
X95564509Y-107468560D01*
X95472654Y-107376705D01*
X95472649Y-107376701D01*
X95268848Y-107228632D01*
X95268847Y-107228631D01*
X95268845Y-107228630D01*
X95198747Y-107192913D01*
X95044383Y-107114260D01*
X94804785Y-107036410D01*
X94555962Y-106997000D01*
X94304038Y-106997000D01*
X94179626Y-107016705D01*
X94055214Y-107036410D01*
X93815616Y-107114260D01*
X93591151Y-107228632D01*
X93387350Y-107376701D01*
X93387345Y-107376705D01*
X93209205Y-107554845D01*
X93209201Y-107554850D01*
X93061132Y-107758651D01*
X92946760Y-107983116D01*
X92868910Y-108222714D01*
X92829500Y-108471538D01*
X60400500Y-108471538D01*
X60400500Y-103781902D01*
X114749500Y-103781902D01*
X114749500Y-104018097D01*
X114786446Y-104251368D01*
X114859433Y-104475996D01*
X114966657Y-104686433D01*
X115105483Y-104877510D01*
X115272490Y-105044517D01*
X115463567Y-105183343D01*
X115562991Y-105234002D01*
X115674003Y-105290566D01*
X115674005Y-105290566D01*
X115674008Y-105290568D01*
X115794412Y-105329689D01*
X115898631Y-105363553D01*
X116131903Y-105400500D01*
X116131908Y-105400500D01*
X116368097Y-105400500D01*
X116601368Y-105363553D01*
X116825992Y-105290568D01*
X117036433Y-105183343D01*
X117212276Y-105055584D01*
X117278079Y-105032106D01*
X117346133Y-105047931D01*
X117390697Y-105090806D01*
X117407682Y-105118343D01*
X117531654Y-105242315D01*
X117680875Y-105334356D01*
X117680880Y-105334358D01*
X117847302Y-105389505D01*
X117847309Y-105389506D01*
X117950019Y-105399999D01*
X118499999Y-105399999D01*
X118500000Y-105399998D01*
X118500000Y-104333012D01*
X118557007Y-104365925D01*
X118684174Y-104400000D01*
X118815826Y-104400000D01*
X118942993Y-104365925D01*
X119000000Y-104333012D01*
X119000000Y-105399999D01*
X119549972Y-105399999D01*
X119549986Y-105399998D01*
X119652697Y-105389505D01*
X119819119Y-105334358D01*
X119819124Y-105334356D01*
X119968345Y-105242315D01*
X120092317Y-105118343D01*
X120109301Y-105090808D01*
X120161248Y-105044083D01*
X120230211Y-105032860D01*
X120287724Y-105055585D01*
X120463567Y-105183343D01*
X120562991Y-105234002D01*
X120674003Y-105290566D01*
X120674005Y-105290566D01*
X120674008Y-105290568D01*
X120794412Y-105329689D01*
X120898631Y-105363553D01*
X121131903Y-105400500D01*
X121131908Y-105400500D01*
X121368097Y-105400500D01*
X121601368Y-105363553D01*
X121825992Y-105290568D01*
X122036433Y-105183343D01*
X122227510Y-105044517D01*
X122394517Y-104877510D01*
X122399682Y-104870401D01*
X122455012Y-104827735D01*
X122524625Y-104821756D01*
X122586420Y-104854362D01*
X122600318Y-104870401D01*
X122605483Y-104877510D01*
X122772490Y-105044517D01*
X122963567Y-105183343D01*
X123062991Y-105234002D01*
X123174003Y-105290566D01*
X123174005Y-105290566D01*
X123174008Y-105290568D01*
X123294412Y-105329689D01*
X123398631Y-105363553D01*
X123631903Y-105400500D01*
X123631908Y-105400500D01*
X123868097Y-105400500D01*
X124101368Y-105363553D01*
X124325992Y-105290568D01*
X124536433Y-105183343D01*
X124727510Y-105044517D01*
X124894517Y-104877510D01*
X124920355Y-104841947D01*
X137190000Y-104841947D01*
X137190000Y-105078052D01*
X137226934Y-105311247D01*
X137299897Y-105535802D01*
X137407087Y-105746174D01*
X137467338Y-105829104D01*
X137467340Y-105829105D01*
X138166212Y-105130233D01*
X138177482Y-105172292D01*
X138249890Y-105297708D01*
X138352292Y-105400110D01*
X138477708Y-105472518D01*
X138519765Y-105483787D01*
X137820893Y-106182658D01*
X137903828Y-106242914D01*
X138114197Y-106350102D01*
X138338752Y-106423065D01*
X138338751Y-106423065D01*
X138571948Y-106460000D01*
X138808052Y-106460000D01*
X139041247Y-106423065D01*
X139265802Y-106350102D01*
X139476163Y-106242918D01*
X139476169Y-106242914D01*
X139559104Y-106182658D01*
X139559105Y-106182658D01*
X138860233Y-105483787D01*
X138902292Y-105472518D01*
X139027708Y-105400110D01*
X139130110Y-105297708D01*
X139202518Y-105172292D01*
X139213787Y-105130234D01*
X139912658Y-105829105D01*
X139912658Y-105829104D01*
X139972914Y-105746169D01*
X139972918Y-105746163D01*
X140080102Y-105535802D01*
X140153065Y-105311247D01*
X140190000Y-105078052D01*
X140190000Y-104841947D01*
X143690000Y-104841947D01*
X143690000Y-105078052D01*
X143726934Y-105311247D01*
X143799897Y-105535802D01*
X143907087Y-105746174D01*
X143967338Y-105829104D01*
X143967340Y-105829105D01*
X144666212Y-105130233D01*
X144677482Y-105172292D01*
X144749890Y-105297708D01*
X144852292Y-105400110D01*
X144977708Y-105472518D01*
X145019765Y-105483787D01*
X144320893Y-106182658D01*
X144403828Y-106242914D01*
X144614197Y-106350102D01*
X144838752Y-106423065D01*
X144838751Y-106423065D01*
X145071948Y-106460000D01*
X145308052Y-106460000D01*
X145541247Y-106423065D01*
X145765802Y-106350102D01*
X145976163Y-106242918D01*
X145976169Y-106242914D01*
X146059104Y-106182658D01*
X146059105Y-106182658D01*
X145360233Y-105483787D01*
X145402292Y-105472518D01*
X145527708Y-105400110D01*
X145630110Y-105297708D01*
X145702518Y-105172292D01*
X145713787Y-105130234D01*
X146412658Y-105829105D01*
X146412658Y-105829104D01*
X146472914Y-105746169D01*
X146472918Y-105746163D01*
X146580102Y-105535802D01*
X146653065Y-105311247D01*
X146690000Y-105078052D01*
X146690000Y-104841947D01*
X146653065Y-104608752D01*
X146580102Y-104384197D01*
X146472914Y-104173828D01*
X146412658Y-104090894D01*
X146412658Y-104090893D01*
X145713787Y-104789765D01*
X145702518Y-104747708D01*
X145630110Y-104622292D01*
X145527708Y-104519890D01*
X145402292Y-104447482D01*
X145360234Y-104436212D01*
X146059105Y-103737340D01*
X146059104Y-103737338D01*
X145976174Y-103677087D01*
X145765802Y-103569897D01*
X145541247Y-103496934D01*
X145541248Y-103496934D01*
X145308052Y-103460000D01*
X145071948Y-103460000D01*
X144838752Y-103496934D01*
X144614197Y-103569897D01*
X144403830Y-103677084D01*
X144320894Y-103737340D01*
X145019766Y-104436212D01*
X144977708Y-104447482D01*
X144852292Y-104519890D01*
X144749890Y-104622292D01*
X144677482Y-104747708D01*
X144666212Y-104789766D01*
X143967340Y-104090894D01*
X143907084Y-104173830D01*
X143799897Y-104384197D01*
X143726934Y-104608752D01*
X143690000Y-104841947D01*
X140190000Y-104841947D01*
X140153065Y-104608752D01*
X140080102Y-104384197D01*
X139972914Y-104173828D01*
X139912658Y-104090894D01*
X139912658Y-104090893D01*
X139213787Y-104789765D01*
X139202518Y-104747708D01*
X139130110Y-104622292D01*
X139027708Y-104519890D01*
X138902292Y-104447482D01*
X138860234Y-104436212D01*
X139559105Y-103737340D01*
X139559104Y-103737339D01*
X139476174Y-103677087D01*
X139265802Y-103569897D01*
X139041247Y-103496934D01*
X139041248Y-103496934D01*
X138808052Y-103460000D01*
X138571948Y-103460000D01*
X138338752Y-103496934D01*
X138114197Y-103569897D01*
X137903830Y-103677084D01*
X137820894Y-103737340D01*
X138519766Y-104436212D01*
X138477708Y-104447482D01*
X138352292Y-104519890D01*
X138249890Y-104622292D01*
X138177482Y-104747708D01*
X138166212Y-104789766D01*
X137467340Y-104090894D01*
X137407084Y-104173830D01*
X137299897Y-104384197D01*
X137226934Y-104608752D01*
X137190000Y-104841947D01*
X124920355Y-104841947D01*
X125033343Y-104686433D01*
X125140568Y-104475992D01*
X125213553Y-104251368D01*
X125238637Y-104092993D01*
X125250500Y-104018097D01*
X125250500Y-103781902D01*
X125213553Y-103548631D01*
X125140566Y-103324003D01*
X125033342Y-103113566D01*
X124894517Y-102922490D01*
X124727510Y-102755483D01*
X124536433Y-102616657D01*
X124325996Y-102509433D01*
X124101368Y-102436446D01*
X123868097Y-102399500D01*
X123868092Y-102399500D01*
X123631908Y-102399500D01*
X123631903Y-102399500D01*
X123398631Y-102436446D01*
X123174003Y-102509433D01*
X122963566Y-102616657D01*
X122874105Y-102681655D01*
X122772490Y-102755483D01*
X122772488Y-102755485D01*
X122772487Y-102755485D01*
X122605482Y-102922490D01*
X122600315Y-102929603D01*
X122544983Y-102972266D01*
X122475370Y-102978242D01*
X122413576Y-102945634D01*
X122399685Y-102929603D01*
X122394517Y-102922490D01*
X122227512Y-102755485D01*
X122227510Y-102755483D01*
X122036433Y-102616657D01*
X121825996Y-102509433D01*
X121601368Y-102436446D01*
X121368097Y-102399500D01*
X121368092Y-102399500D01*
X121131908Y-102399500D01*
X121131903Y-102399500D01*
X120898631Y-102436446D01*
X120674003Y-102509433D01*
X120463563Y-102616659D01*
X120287725Y-102744413D01*
X120221919Y-102767893D01*
X120153865Y-102752068D01*
X120109302Y-102709192D01*
X120092319Y-102681659D01*
X120092316Y-102681655D01*
X119968345Y-102557684D01*
X119819124Y-102465643D01*
X119819119Y-102465641D01*
X119652697Y-102410494D01*
X119652690Y-102410493D01*
X119549986Y-102400000D01*
X119000000Y-102400000D01*
X119000000Y-103466988D01*
X118942993Y-103434075D01*
X118815826Y-103400000D01*
X118684174Y-103400000D01*
X118557007Y-103434075D01*
X118500000Y-103466988D01*
X118500000Y-102400000D01*
X117950028Y-102400000D01*
X117950012Y-102400001D01*
X117847302Y-102410494D01*
X117680880Y-102465641D01*
X117680875Y-102465643D01*
X117531654Y-102557684D01*
X117407683Y-102681655D01*
X117407680Y-102681659D01*
X117390696Y-102709194D01*
X117338747Y-102755918D01*
X117269784Y-102767138D01*
X117212273Y-102744413D01*
X117163798Y-102709194D01*
X117036433Y-102616657D01*
X116825996Y-102509433D01*
X116601368Y-102436446D01*
X116368097Y-102399500D01*
X116368092Y-102399500D01*
X116131908Y-102399500D01*
X116131903Y-102399500D01*
X115898631Y-102436446D01*
X115674003Y-102509433D01*
X115463566Y-102616657D01*
X115374105Y-102681655D01*
X115272490Y-102755483D01*
X115272488Y-102755485D01*
X115272487Y-102755485D01*
X115105485Y-102922487D01*
X115105485Y-102922488D01*
X115105483Y-102922490D01*
X115088668Y-102945634D01*
X114966657Y-103113566D01*
X114859433Y-103324003D01*
X114786446Y-103548631D01*
X114749500Y-103781902D01*
X60400500Y-103781902D01*
X60400500Y-91602561D01*
X60400606Y-91597437D01*
X60409054Y-91393178D01*
X60415815Y-91229716D01*
X60416177Y-91224098D01*
X60423531Y-91140031D01*
X60424003Y-91135582D01*
X60464218Y-90812959D01*
X60465138Y-90806842D01*
X60479003Y-90728210D01*
X60479732Y-90724428D01*
X60547553Y-90400974D01*
X60549123Y-90394394D01*
X60567614Y-90325385D01*
X60568500Y-90322251D01*
X60665389Y-89996810D01*
X60667685Y-89989862D01*
X60687331Y-89935886D01*
X60688276Y-89933380D01*
X60816976Y-89603551D01*
X60820079Y-89596292D01*
X60834634Y-89565080D01*
X60835415Y-89563445D01*
X61000823Y-89225097D01*
X61005690Y-89216105D01*
X61211972Y-88869919D01*
X61217565Y-88861359D01*
X61451723Y-88533400D01*
X61457992Y-88525346D01*
X61718443Y-88217832D01*
X61725362Y-88210316D01*
X62010316Y-87925362D01*
X62017832Y-87918443D01*
X62325346Y-87657992D01*
X62333400Y-87651723D01*
X62661359Y-87417565D01*
X62669919Y-87411972D01*
X63016116Y-87205683D01*
X63025097Y-87200823D01*
X63363445Y-87035415D01*
X63365080Y-87034634D01*
X63396292Y-87020079D01*
X63403551Y-87016976D01*
X63733380Y-86888276D01*
X63735886Y-86887331D01*
X63789862Y-86867685D01*
X63796810Y-86865389D01*
X64122251Y-86768500D01*
X64125385Y-86767614D01*
X64194394Y-86749123D01*
X64200974Y-86747553D01*
X64524428Y-86679732D01*
X64528210Y-86679003D01*
X64606842Y-86665138D01*
X64612959Y-86664218D01*
X64935582Y-86624003D01*
X64940031Y-86623531D01*
X65024098Y-86616177D01*
X65029716Y-86615815D01*
X65397437Y-86600605D01*
X65402561Y-86600500D01*
X146197439Y-86600500D01*
X146202562Y-86600605D01*
G37*
%TD.AperFunction*%
%TD*%
M02*
